<?xml version="1.0" encoding="utf-8" standalone="no"?>
<!DOCTYPE svg PUBLIC "-//W3C//DTD SVG 1.1//EN"
  "http://www.w3.org/Graphics/SVG/1.1/DTD/svg11.dtd">
<!-- Created with matplotlib (https://matplotlib.org/) -->
<svg height="379.44pt" version="1.1" viewBox="0 0 360 379.44" width="360pt" xmlns="http://www.w3.org/2000/svg" xmlns:xlink="http://www.w3.org/1999/xlink">
 <defs>
  <style type="text/css">
*{stroke-linecap:butt;stroke-linejoin:round;}
  </style>
 </defs>
 <g id="figure_1">
  <g id="patch_1">
   <path d="M 0 379.44 
L 360 379.44 
L 360 0 
L 0 0 
z
" style="fill:#ffffff;"/>
  </g>
  <g id="axes_1">
   <g id="patch_2">
    <path d="M 45 337.7016 
L 333 337.7016 
L 333 24.6636 
L 45 24.6636 
z
" style="fill:#ffffff;"/>
   </g>
   <g id="PathCollection_1">
    <defs>
     <path d="M 0 3 
C 0.795609 3 1.55874 2.683901 2.12132 2.12132 
C 2.683901 1.55874 3 0.795609 3 0 
C 3 -0.795609 2.683901 -1.55874 2.12132 -2.12132 
C 1.55874 -2.683901 0.795609 -3 0 -3 
C -0.795609 -3 -1.55874 -2.683901 -2.12132 -2.12132 
C -2.683901 -1.55874 -3 -0.795609 -3 0 
C -3 0.795609 -2.683901 1.55874 -2.12132 2.12132 
C -1.55874 2.683901 -0.795609 3 0 3 
z
" id="m45d64f2044" style="stroke:#ff0000;"/>
    </defs>
    <g clip-path="url(#p4e474a3912)">
     <use style="fill:#ff0000;stroke:#ff0000;" x="145.188209" xlink:href="#m45d64f2044" y="233.573297"/>
     <use style="fill:#ff0000;stroke:#ff0000;" x="243.467292" xlink:href="#m45d64f2044" y="179.379393"/>
     <use style="fill:#ff0000;stroke:#ff0000;" x="272.060888" xlink:href="#m45d64f2044" y="115.16153"/>
     <use style="fill:#ff0000;stroke:#ff0000;" x="243.022682" xlink:href="#m45d64f2044" y="144.117824"/>
     <use style="fill:#ff0000;stroke:#ff0000;" x="185.500882" xlink:href="#m45d64f2044" y="214.489168"/>
     <use style="fill:#ff0000;stroke:#ff0000;" x="222.962372" xlink:href="#m45d64f2044" y="199.630441"/>
     <use style="fill:#ff0000;stroke:#ff0000;" x="229.924651" xlink:href="#m45d64f2044" y="163.25719"/>
     <use style="fill:#ff0000;stroke:#ff0000;" x="227.715407" xlink:href="#m45d64f2044" y="169.099745"/>
     <use style="fill:#ff0000;stroke:#ff0000;" x="168.852615" xlink:href="#m45d64f2044" y="202.475269"/>
     <use style="fill:#ff0000;stroke:#ff0000;" x="191.461854" xlink:href="#m45d64f2044" y="216.710153"/>
     <use style="fill:#ff0000;stroke:#ff0000;" x="141.385487" xlink:href="#m45d64f2044" y="240.878303"/>
     <use style="fill:#ff0000;stroke:#ff0000;" x="115.344959" xlink:href="#m45d64f2044" y="287.246854"/>
     <use style="fill:#ff0000;stroke:#ff0000;" x="121.416319" xlink:href="#m45d64f2044" y="247.88137"/>
     <use style="fill:#ff0000;stroke:#ff0000;" x="276.37372" xlink:href="#m45d64f2044" y="149.99625"/>
     <use style="fill:#ff0000;stroke:#ff0000;" x="319.909091" xlink:href="#m45d64f2044" y="63.472592"/>
     <use style="fill:#ff0000;stroke:#ff0000;" x="269.137529" xlink:href="#m45d64f2044" y="108.479168"/>
     <use style="fill:#ff0000;stroke:#ff0000;" x="184.310431" xlink:href="#m45d64f2044" y="200.529934"/>
     <use style="fill:#ff0000;stroke:#ff0000;" x="186.186504" xlink:href="#m45d64f2044" y="206.868524"/>
     <use style="fill:#ff0000;stroke:#ff0000;" x="203.638879" xlink:href="#m45d64f2044" y="179.044867"/>
     <use style="fill:#ff0000;stroke:#ff0000;" x="213.89619" xlink:href="#m45d64f2044" y="175.393163"/>
     <use style="fill:#ff0000;stroke:#ff0000;" x="180.186992" xlink:href="#m45d64f2044" y="204.515563"/>
     <use style="fill:#ff0000;stroke:#ff0000;" x="171.251228" xlink:href="#m45d64f2044" y="222.131396"/>
     <use style="fill:#ff0000;stroke:#ff0000;" x="143.467848" xlink:href="#m45d64f2044" y="250.250161"/>
     <use style="fill:#ff0000;stroke:#ff0000;" x="70.534087" xlink:href="#m45d64f2044" y="296.752105"/>
     <use style="fill:#ff0000;stroke:#ff0000;" x="82.247306" xlink:href="#m45d64f2044" y="273.829552"/>
     <use style="fill:#ff0000;stroke:#ff0000;" x="198.171925" xlink:href="#m45d64f2044" y="218.483021"/>
     <use style="fill:#ff0000;stroke:#ff0000;" x="204.306724" xlink:href="#m45d64f2044" y="180.746724"/>
     <use style="fill:#ff0000;stroke:#ff0000;" x="193.596221" xlink:href="#m45d64f2044" y="183.369215"/>
     <use style="fill:#ff0000;stroke:#ff0000;" x="122.28766" xlink:href="#m45d64f2044" y="237.986444"/>
     <use style="fill:#ff0000;stroke:#ff0000;" x="94.552562" xlink:href="#m45d64f2044" y="265.637907"/>
     <use style="fill:#ff0000;stroke:#ff0000;" x="113.46384" xlink:href="#m45d64f2044" y="258.626681"/>
     <use style="fill:#ff0000;stroke:#ff0000;" x="114.712357" xlink:href="#m45d64f2044" y="241.470193"/>
     <use style="fill:#ff0000;stroke:#ff0000;" x="155.814011" xlink:href="#m45d64f2044" y="238.802128"/>
     <use style="fill:#ff0000;stroke:#ff0000;" x="133.326169" xlink:href="#m45d64f2044" y="239.500356"/>
     <use style="fill:#ff0000;stroke:#ff0000;" x="128.866719" xlink:href="#m45d64f2044" y="237.739858"/>
     <use style="fill:#ff0000;stroke:#ff0000;" x="89.188414" xlink:href="#m45d64f2044" y="275.724771"/>
     <use style="fill:#ff0000;stroke:#ff0000;" x="110.471479" xlink:href="#m45d64f2044" y="277.24438"/>
     <use style="fill:#ff0000;stroke:#ff0000;" x="139.446907" xlink:href="#m45d64f2044" y="247.712361"/>
     <use style="fill:#ff0000;stroke:#ff0000;" x="158.149853" xlink:href="#m45d64f2044" y="209.822063"/>
     <use style="fill:#ff0000;stroke:#ff0000;" x="211.588802" xlink:href="#m45d64f2044" y="171.062264"/>
     <use style="fill:#ff0000;stroke:#ff0000;" x="179.773188" xlink:href="#m45d64f2044" y="188.327729"/>
     <use style="fill:#ff0000;stroke:#ff0000;" x="143.756065" xlink:href="#m45d64f2044" y="216.846366"/>
     <use style="fill:#ff0000;stroke:#ff0000;" x="139.108133" xlink:href="#m45d64f2044" y="220.987335"/>
     <use style="fill:#ff0000;stroke:#ff0000;" x="178.89532" xlink:href="#m45d64f2044" y="228.482856"/>
     <use style="fill:#ff0000;stroke:#ff0000;" x="144.443938" xlink:href="#m45d64f2044" y="244.022756"/>
     <use style="fill:#ff0000;stroke:#ff0000;" x="112.060462" xlink:href="#m45d64f2044" y="250.174376"/>
     <use style="fill:#ff0000;stroke:#ff0000;" x="112.676523" xlink:href="#m45d64f2044" y="259.915467"/>
     <use style="fill:#ff0000;stroke:#ff0000;" x="58.090909" xlink:href="#m45d64f2044" y="289.004553"/>
     <use style="fill:#ff0000;stroke:#ff0000;" x="88.430821" xlink:href="#m45d64f2044" y="280.838018"/>
     <use style="fill:#ff0000;stroke:#ff0000;" x="174.767579" xlink:href="#m45d64f2044" y="214.669799"/>
    </g>
   </g>
   <g id="PathCollection_2">
    <defs>
     <path d="M 0 3 
C 0.795609 3 1.55874 2.683901 2.12132 2.12132 
C 2.683901 1.55874 3 0.795609 3 0 
C 3 -0.795609 2.683901 -1.55874 2.12132 -2.12132 
C 1.55874 -2.683901 0.795609 -3 0 -3 
C -0.795609 -3 -1.55874 -2.683901 -2.12132 -2.12132 
C -2.683901 -1.55874 -3 -0.795609 -3 0 
C -3 0.795609 -2.683901 1.55874 -2.12132 2.12132 
C -1.55874 2.683901 -0.795609 3 0 3 
z
" id="m7115750c5b" style="stroke:#32cd32;"/>
    </defs>
    <g clip-path="url(#p4e474a3912)">
     <use style="fill:#32cd32;stroke:#32cd32;" x="145.188209" xlink:href="#m7115750c5b" y="257.03204"/>
     <use style="fill:#32cd32;stroke:#32cd32;" x="243.467292" xlink:href="#m7115750c5b" y="191.208091"/>
     <use style="fill:#32cd32;stroke:#32cd32;" x="272.060888" xlink:href="#m7115750c5b" y="117.655143"/>
     <use style="fill:#32cd32;stroke:#32cd32;" x="243.022682" xlink:href="#m7115750c5b" y="147.139482"/>
     <use style="fill:#32cd32;stroke:#32cd32;" x="185.500882" xlink:href="#m7115750c5b" y="212.029689"/>
     <use style="fill:#32cd32;stroke:#32cd32;" x="222.962372" xlink:href="#m7115750c5b" y="201.989528"/>
     <use style="fill:#32cd32;stroke:#32cd32;" x="229.924651" xlink:href="#m7115750c5b" y="174.094231"/>
     <use style="fill:#32cd32;stroke:#32cd32;" x="227.715407" xlink:href="#m7115750c5b" y="189.908678"/>
     <use style="fill:#32cd32;stroke:#32cd32;" x="168.852615" xlink:href="#m7115750c5b" y="214.258727"/>
     <use style="fill:#32cd32;stroke:#32cd32;" x="191.461854" xlink:href="#m7115750c5b" y="236.512036"/>
     <use style="fill:#32cd32;stroke:#32cd32;" x="141.385487" xlink:href="#m7115750c5b" y="252.027048"/>
     <use style="fill:#32cd32;stroke:#32cd32;" x="115.344959" xlink:href="#m7115750c5b" y="307.150234"/>
     <use style="fill:#32cd32;stroke:#32cd32;" x="121.416319" xlink:href="#m7115750c5b" y="237.612093"/>
     <use style="fill:#32cd32;stroke:#32cd32;" x="276.37372" xlink:href="#m7115750c5b" y="146.640029"/>
     <use style="fill:#32cd32;stroke:#32cd32;" x="319.909091" xlink:href="#m7115750c5b" y="75.470958"/>
     <use style="fill:#32cd32;stroke:#32cd32;" x="269.137529" xlink:href="#m7115750c5b" y="106.242658"/>
     <use style="fill:#32cd32;stroke:#32cd32;" x="184.310431" xlink:href="#m7115750c5b" y="203.719067"/>
     <use style="fill:#32cd32;stroke:#32cd32;" x="186.186504" xlink:href="#m7115750c5b" y="218.462734"/>
     <use style="fill:#32cd32;stroke:#32cd32;" x="203.638879" xlink:href="#m7115750c5b" y="200.764497"/>
     <use style="fill:#32cd32;stroke:#32cd32;" x="213.89619" xlink:href="#m7115750c5b" y="197.651052"/>
     <use style="fill:#32cd32;stroke:#32cd32;" x="180.186992" xlink:href="#m7115750c5b" y="228.14361"/>
     <use style="fill:#32cd32;stroke:#32cd32;" x="171.251228" xlink:href="#m7115750c5b" y="229.332465"/>
     <use style="fill:#32cd32;stroke:#32cd32;" x="143.467848" xlink:href="#m7115750c5b" y="255.827629"/>
     <use style="fill:#32cd32;stroke:#32cd32;" x="70.534087" xlink:href="#m7115750c5b" y="309.606782"/>
     <use style="fill:#32cd32;stroke:#32cd32;" x="82.247306" xlink:href="#m7115750c5b" y="267.514934"/>
     <use style="fill:#32cd32;stroke:#32cd32;" x="198.171925" xlink:href="#m7115750c5b" y="215.242925"/>
     <use style="fill:#32cd32;stroke:#32cd32;" x="204.306724" xlink:href="#m7115750c5b" y="206.427059"/>
     <use style="fill:#32cd32;stroke:#32cd32;" x="193.596221" xlink:href="#m7115750c5b" y="216.362783"/>
     <use style="fill:#32cd32;stroke:#32cd32;" x="122.28766" xlink:href="#m7115750c5b" y="258.429174"/>
     <use style="fill:#32cd32;stroke:#32cd32;" x="94.552562" xlink:href="#m7115750c5b" y="277.5416"/>
     <use style="fill:#32cd32;stroke:#32cd32;" x="113.46384" xlink:href="#m7115750c5b" y="263.938717"/>
     <use style="fill:#32cd32;stroke:#32cd32;" x="114.712357" xlink:href="#m7115750c5b" y="261.222249"/>
     <use style="fill:#32cd32;stroke:#32cd32;" x="155.814011" xlink:href="#m7115750c5b" y="268.529607"/>
     <use style="fill:#32cd32;stroke:#32cd32;" x="133.326169" xlink:href="#m7115750c5b" y="252.794305"/>
     <use style="fill:#32cd32;stroke:#32cd32;" x="128.866719" xlink:href="#m7115750c5b" y="255.484363"/>
     <use style="fill:#32cd32;stroke:#32cd32;" x="89.188414" xlink:href="#m7115750c5b" y="290.508629"/>
     <use style="fill:#32cd32;stroke:#32cd32;" x="110.471479" xlink:href="#m7115750c5b" y="293.085012"/>
     <use style="fill:#32cd32;stroke:#32cd32;" x="139.446907" xlink:href="#m7115750c5b" y="253.430993"/>
     <use style="fill:#32cd32;stroke:#32cd32;" x="158.149853" xlink:href="#m7115750c5b" y="200.116142"/>
     <use style="fill:#32cd32;stroke:#32cd32;" x="211.588802" xlink:href="#m7115750c5b" y="194.632858"/>
     <use style="fill:#32cd32;stroke:#32cd32;" x="179.773188" xlink:href="#m7115750c5b" y="211.657997"/>
     <use style="fill:#32cd32;stroke:#32cd32;" x="143.756065" xlink:href="#m7115750c5b" y="259.15535"/>
     <use style="fill:#32cd32;stroke:#32cd32;" x="139.108133" xlink:href="#m7115750c5b" y="261.237936"/>
     <use style="fill:#32cd32;stroke:#32cd32;" x="178.89532" xlink:href="#m7115750c5b" y="254.959324"/>
     <use style="fill:#32cd32;stroke:#32cd32;" x="144.443938" xlink:href="#m7115750c5b" y="253.943906"/>
     <use style="fill:#32cd32;stroke:#32cd32;" x="112.060462" xlink:href="#m7115750c5b" y="260.77513"/>
     <use style="fill:#32cd32;stroke:#32cd32;" x="112.676523" xlink:href="#m7115750c5b" y="271.559965"/>
     <use style="fill:#32cd32;stroke:#32cd32;" x="58.090909" xlink:href="#m7115750c5b" y="304.095063"/>
     <use style="fill:#32cd32;stroke:#32cd32;" x="88.430821" xlink:href="#m7115750c5b" y="281.022108"/>
     <use style="fill:#32cd32;stroke:#32cd32;" x="174.767579" xlink:href="#m7115750c5b" y="225.866586"/>
    </g>
   </g>
   <g id="PathCollection_3">
    <defs>
     <path d="M 0 3 
C 0.795609 3 1.55874 2.683901 2.12132 2.12132 
C 2.683901 1.55874 3 0.795609 3 0 
C 3 -0.795609 2.683901 -1.55874 2.12132 -2.12132 
C 1.55874 -2.683901 0.795609 -3 0 -3 
C -0.795609 -3 -1.55874 -2.683901 -2.12132 -2.12132 
C -2.683901 -1.55874 -3 -0.795609 -3 0 
C -3 0.795609 -2.683901 1.55874 -2.12132 2.12132 
C -1.55874 2.683901 -0.795609 3 0 3 
z
" id="m3a000a0d68" style="stroke:#ff8c00;"/>
    </defs>
    <g clip-path="url(#p4e474a3912)">
     <use style="fill:#ff8c00;stroke:#ff8c00;" x="145.188209" xlink:href="#m3a000a0d68" y="229.199983"/>
     <use style="fill:#ff8c00;stroke:#ff8c00;" x="243.467292" xlink:href="#m3a000a0d68" y="149.078136"/>
     <use style="fill:#ff8c00;stroke:#ff8c00;" x="272.060888" xlink:href="#m3a000a0d68" y="82.891974"/>
     <use style="fill:#ff8c00;stroke:#ff8c00;" x="243.022682" xlink:href="#m3a000a0d68" y="134.117242"/>
     <use style="fill:#ff8c00;stroke:#ff8c00;" x="185.500882" xlink:href="#m3a000a0d68" y="191.396709"/>
     <use style="fill:#ff8c00;stroke:#ff8c00;" x="222.962372" xlink:href="#m3a000a0d68" y="188.255669"/>
     <use style="fill:#ff8c00;stroke:#ff8c00;" x="229.924651" xlink:href="#m3a000a0d68" y="155.410608"/>
     <use style="fill:#ff8c00;stroke:#ff8c00;" x="227.715407" xlink:href="#m3a000a0d68" y="158.99612"/>
     <use style="fill:#ff8c00;stroke:#ff8c00;" x="168.852615" xlink:href="#m3a000a0d68" y="190.135507"/>
     <use style="fill:#ff8c00;stroke:#ff8c00;" x="191.461854" xlink:href="#m3a000a0d68" y="217.349128"/>
     <use style="fill:#ff8c00;stroke:#ff8c00;" x="141.385487" xlink:href="#m3a000a0d68" y="241.984769"/>
     <use style="fill:#ff8c00;stroke:#ff8c00;" x="115.344959" xlink:href="#m3a000a0d68" y="272.791479"/>
     <use style="fill:#ff8c00;stroke:#ff8c00;" x="121.416319" xlink:href="#m3a000a0d68" y="234.39586"/>
     <use style="fill:#ff8c00;stroke:#ff8c00;" x="276.37372" xlink:href="#m3a000a0d68" y="125.120575"/>
     <use style="fill:#ff8c00;stroke:#ff8c00;" x="319.909091" xlink:href="#m3a000a0d68" y="38.8926"/>
     <use style="fill:#ff8c00;stroke:#ff8c00;" x="269.137529" xlink:href="#m3a000a0d68" y="97.688027"/>
     <use style="fill:#ff8c00;stroke:#ff8c00;" x="184.310431" xlink:href="#m3a000a0d68" y="171.309927"/>
     <use style="fill:#ff8c00;stroke:#ff8c00;" x="186.186504" xlink:href="#m3a000a0d68" y="192.454735"/>
     <use style="fill:#ff8c00;stroke:#ff8c00;" x="203.638879" xlink:href="#m3a000a0d68" y="171.817793"/>
     <use style="fill:#ff8c00;stroke:#ff8c00;" x="213.89619" xlink:href="#m3a000a0d68" y="161.607747"/>
     <use style="fill:#ff8c00;stroke:#ff8c00;" x="180.186992" xlink:href="#m3a000a0d68" y="187.757801"/>
     <use style="fill:#ff8c00;stroke:#ff8c00;" x="171.251228" xlink:href="#m3a000a0d68" y="214.19678"/>
     <use style="fill:#ff8c00;stroke:#ff8c00;" x="143.467848" xlink:href="#m3a000a0d68" y="243.591101"/>
     <use style="fill:#ff8c00;stroke:#ff8c00;" x="70.534087" xlink:href="#m3a000a0d68" y="268.47717"/>
     <use style="fill:#ff8c00;stroke:#ff8c00;" x="82.247306" xlink:href="#m3a000a0d68" y="237.409577"/>
     <use style="fill:#ff8c00;stroke:#ff8c00;" x="198.171925" xlink:href="#m3a000a0d68" y="184.411121"/>
     <use style="fill:#ff8c00;stroke:#ff8c00;" x="204.306724" xlink:href="#m3a000a0d68" y="188.118901"/>
     <use style="fill:#ff8c00;stroke:#ff8c00;" x="193.596221" xlink:href="#m3a000a0d68" y="217.197581"/>
     <use style="fill:#ff8c00;stroke:#ff8c00;" x="122.28766" xlink:href="#m3a000a0d68" y="243.963059"/>
     <use style="fill:#ff8c00;stroke:#ff8c00;" x="94.552562" xlink:href="#m3a000a0d68" y="250.851982"/>
     <use style="fill:#ff8c00;stroke:#ff8c00;" x="113.46384" xlink:href="#m3a000a0d68" y="242.46234"/>
     <use style="fill:#ff8c00;stroke:#ff8c00;" x="114.712357" xlink:href="#m3a000a0d68" y="230.342957"/>
     <use style="fill:#ff8c00;stroke:#ff8c00;" x="155.814011" xlink:href="#m3a000a0d68" y="226.450509"/>
     <use style="fill:#ff8c00;stroke:#ff8c00;" x="133.326169" xlink:href="#m3a000a0d68" y="226.96678"/>
     <use style="fill:#ff8c00;stroke:#ff8c00;" x="128.866719" xlink:href="#m3a000a0d68" y="244.779066"/>
     <use style="fill:#ff8c00;stroke:#ff8c00;" x="89.188414" xlink:href="#m3a000a0d68" y="268.309964"/>
     <use style="fill:#ff8c00;stroke:#ff8c00;" x="110.471479" xlink:href="#m3a000a0d68" y="256.822542"/>
     <use style="fill:#ff8c00;stroke:#ff8c00;" x="139.446907" xlink:href="#m3a000a0d68" y="219.13788"/>
     <use style="fill:#ff8c00;stroke:#ff8c00;" x="158.149853" xlink:href="#m3a000a0d68" y="177.489816"/>
     <use style="fill:#ff8c00;stroke:#ff8c00;" x="211.588802" xlink:href="#m3a000a0d68" y="169.150785"/>
     <use style="fill:#ff8c00;stroke:#ff8c00;" x="179.773188" xlink:href="#m3a000a0d68" y="193.368083"/>
     <use style="fill:#ff8c00;stroke:#ff8c00;" x="143.756065" xlink:href="#m3a000a0d68" y="214.093038"/>
     <use style="fill:#ff8c00;stroke:#ff8c00;" x="139.108133" xlink:href="#m3a000a0d68" y="210.448834"/>
     <use style="fill:#ff8c00;stroke:#ff8c00;" x="178.89532" xlink:href="#m3a000a0d68" y="205.011369"/>
     <use style="fill:#ff8c00;stroke:#ff8c00;" x="144.443938" xlink:href="#m3a000a0d68" y="213.310483"/>
     <use style="fill:#ff8c00;stroke:#ff8c00;" x="112.060462" xlink:href="#m3a000a0d68" y="219.59874"/>
     <use style="fill:#ff8c00;stroke:#ff8c00;" x="112.676523" xlink:href="#m3a000a0d68" y="238.825888"/>
     <use style="fill:#ff8c00;stroke:#ff8c00;" x="58.090909" xlink:href="#m3a000a0d68" y="269.531422"/>
     <use style="fill:#ff8c00;stroke:#ff8c00;" x="88.430821" xlink:href="#m3a000a0d68" y="248.474877"/>
     <use style="fill:#ff8c00;stroke:#ff8c00;" x="174.767579" xlink:href="#m3a000a0d68" y="191.998633"/>
    </g>
   </g>
   <g id="matplotlib.axis_1">
    <g id="xtick_1">
     <g id="line2d_1">
      <defs>
       <path d="M 0 0 
L 0 3.5 
" id="m9f53e99a9b" style="stroke:#000000;stroke-width:0.8;"/>
      </defs>
      <g>
       <use style="stroke:#000000;stroke-width:0.8;" x="80.151079" xlink:href="#m9f53e99a9b" y="337.7016"/>
      </g>
     </g>
     <g id="text_1">
      <!-- 0.2 -->
      <defs>
       <path d="M 25 66.015625 
Q 19.53125 66.015625 15.8125 57.609375 
Q 12.109375 49.21875 12.109375 35.15625 
Q 12.109375 20.3125 15.8125 12.109375 
Q 19.53125 3.90625 25 3.90625 
Q 30.859375 3.90625 34.171875 12.109375 
Q 37.5 20.3125 37.5 35.15625 
Q 37.5 49.21875 34.375 57.609375 
Q 31.25 66.015625 25 66.015625 
z
M 25 0.78125 
Q 16.40625 0.78125 10.546875 9.765625 
Q 4.6875 18.75 4.6875 35.15625 
Q 4.6875 50.390625 10.34375 59.765625 
Q 16.015625 69.140625 25 69.140625 
Q 33.59375 69.140625 39.25 60.15625 
Q 44.921875 51.171875 44.921875 35.15625 
Q 44.921875 19.140625 39.25 9.953125 
Q 33.59375 0.78125 25 0.78125 
z
" id="SimSun-48"/>
       <path d="M 12.5 0.390625 
Q 10.15625 0.390625 8.390625 1.953125 
Q 6.640625 3.515625 6.640625 6.25 
Q 6.640625 8.984375 8.390625 10.546875 
Q 10.15625 12.109375 12.5 12.109375 
Q 14.84375 12.109375 16.59375 10.34375 
Q 18.359375 8.59375 18.359375 6.25 
Q 18.359375 3.515625 16.59375 1.953125 
Q 14.84375 0.390625 12.5 0.390625 
z
" id="SimSun-46"/>
       <path d="M 36.328125 51.953125 
Q 36.328125 58.984375 33.203125 62.6875 
Q 30.078125 66.40625 23.828125 66.40625 
Q 19.140625 66.40625 15.8125 63.859375 
Q 12.5 61.328125 12.5 57.421875 
Q 12.5 55.078125 14.0625 53.515625 
Q 15.234375 51.953125 15.234375 50.390625 
Q 15.234375 48.4375 14.25 47.453125 
Q 13.28125 46.484375 11.328125 46.484375 
Q 8.984375 46.484375 7.609375 47.84375 
Q 6.25 49.21875 6.25 52.34375 
Q 6.25 60.546875 12.109375 64.84375 
Q 17.96875 69.140625 24.609375 69.140625 
Q 33.984375 69.140625 38.46875 64.453125 
Q 42.96875 59.765625 42.96875 52.734375 
Q 42.96875 48.046875 40.8125 43.359375 
Q 38.671875 38.671875 33.984375 34.375 
Q 22.65625 23.4375 16.59375 16.59375 
Q 10.546875 9.765625 9.375 7.421875 
L 32.421875 7.421875 
Q 35.9375 7.421875 38.28125 10.15625 
Q 40.625 12.890625 41.40625 18.359375 
L 43.75 18.359375 
L 41.40625 1.5625 
L 5.078125 1.5625 
L 5.078125 6.640625 
Q 7.03125 10.15625 11.515625 15.625 
Q 16.015625 21.09375 23.4375 28.515625 
Q 30.078125 35.15625 33.203125 41.015625 
Q 36.328125 46.875 36.328125 51.953125 
z
" id="SimSun-50"/>
      </defs>
      <g transform="translate(72.651079 351.850037)scale(0.1 -0.1)">
       <use xlink:href="#SimSun-48"/>
       <use x="50" xlink:href="#SimSun-46"/>
       <use x="100" xlink:href="#SimSun-50"/>
      </g>
     </g>
    </g>
    <g id="xtick_2">
     <g id="line2d_2">
      <g>
       <use style="stroke:#000000;stroke-width:0.8;" x="143.310251" xlink:href="#m9f53e99a9b" y="337.7016"/>
      </g>
     </g>
     <g id="text_2">
      <!-- 0.4 -->
      <defs>
       <path d="M 35.9375 8.984375 
Q 35.9375 6.25 37.5 5.078125 
Q 39.0625 3.90625 41.796875 3.90625 
L 45.3125 3.90625 
L 45.3125 1.5625 
L 19.53125 1.5625 
L 19.53125 3.90625 
L 23.828125 3.90625 
Q 26.953125 3.90625 28.3125 5.078125 
Q 29.6875 6.25 29.6875 8.984375 
L 29.6875 21.875 
L 3.515625 21.875 
L 3.515625 23.828125 
L 32.03125 69.140625 
L 35.9375 69.140625 
L 35.9375 24.21875 
L 46.484375 24.21875 
L 46.484375 21.875 
L 35.9375 21.875 
z
M 29.296875 59.375 
L 7.03125 24.21875 
L 29.6875 24.21875 
L 29.6875 59.375 
z
" id="SimSun-52"/>
      </defs>
      <g transform="translate(135.810251 351.850037)scale(0.1 -0.1)">
       <use xlink:href="#SimSun-48"/>
       <use x="50" xlink:href="#SimSun-46"/>
       <use x="100" xlink:href="#SimSun-52"/>
      </g>
     </g>
    </g>
    <g id="xtick_3">
     <g id="line2d_3">
      <g>
       <use style="stroke:#000000;stroke-width:0.8;" x="206.469424" xlink:href="#m9f53e99a9b" y="337.7016"/>
      </g>
     </g>
     <g id="text_3">
      <!-- 0.6 -->
      <defs>
       <path d="M 12.109375 28.125 
Q 12.109375 16.40625 16.203125 9.953125 
Q 20.3125 3.515625 26.171875 3.515625 
Q 32.03125 3.515625 35.15625 7.8125 
Q 38.28125 12.109375 38.28125 23.828125 
Q 38.28125 31.640625 34.953125 35.9375 
Q 31.640625 40.234375 26.953125 40.234375 
Q 22.65625 40.234375 18.9375 37.6875 
Q 15.234375 35.15625 12.109375 28.125 
z
M 27.34375 44.140625 
Q 36.71875 44.140625 40.8125 37.890625 
Q 44.921875 31.640625 44.921875 23.828125 
Q 44.921875 12.109375 39.25 6.4375 
Q 33.59375 0.78125 26.171875 0.78125 
Q 15.625 0.78125 10.15625 8.78125 
Q 4.6875 16.796875 4.6875 32.03125 
Q 4.6875 50 11.328125 59.5625 
Q 17.96875 69.140625 29.296875 69.140625 
Q 34.765625 69.140625 38.078125 66.015625 
Q 41.40625 62.890625 41.40625 60.546875 
Q 41.40625 58.203125 40.421875 57.03125 
Q 39.453125 55.859375 37.109375 55.859375 
Q 35.15625 55.859375 34.171875 56.828125 
Q 33.203125 57.8125 33.203125 59.765625 
Q 33.203125 60.546875 33.59375 61.328125 
Q 33.59375 62.109375 33.59375 62.890625 
Q 33.59375 64.453125 32.421875 65.421875 
Q 31.25 66.40625 28.125 66.40625 
Q 21.484375 66.40625 16.796875 60.34375 
Q 12.109375 54.296875 12.109375 33.984375 
Q 14.453125 39.0625 18.546875 41.59375 
Q 22.65625 44.140625 27.34375 44.140625 
z
" id="SimSun-54"/>
      </defs>
      <g transform="translate(198.969424 351.850037)scale(0.1 -0.1)">
       <use xlink:href="#SimSun-48"/>
       <use x="50" xlink:href="#SimSun-46"/>
       <use x="100" xlink:href="#SimSun-54"/>
      </g>
     </g>
    </g>
    <g id="xtick_4">
     <g id="line2d_4">
      <g>
       <use style="stroke:#000000;stroke-width:0.8;" x="269.628597" xlink:href="#m9f53e99a9b" y="337.7016"/>
      </g>
     </g>
     <g id="text_4">
      <!-- 0.8 -->
      <defs>
       <path d="M 9.765625 17.578125 
Q 9.765625 11.328125 13.859375 7.421875 
Q 17.96875 3.515625 24.21875 3.515625 
Q 31.640625 3.515625 34.953125 7.421875 
Q 38.28125 11.328125 38.28125 17.1875 
Q 38.28125 22.265625 33.59375 26.953125 
Q 28.90625 31.640625 19.53125 35.546875 
Q 14.84375 32.421875 12.296875 27.734375 
Q 9.765625 23.046875 9.765625 17.578125 
z
M 44.140625 18.359375 
Q 44.140625 10.9375 38.671875 5.859375 
Q 33.203125 0.78125 24.21875 0.78125 
Q 16.015625 0.78125 10.15625 5.859375 
Q 4.296875 10.9375 4.296875 17.578125 
Q 4.296875 24.21875 7.609375 28.90625 
Q 10.9375 33.59375 17.1875 37.109375 
Q 11.71875 39.84375 8.78125 43.9375 
Q 5.859375 48.046875 5.859375 53.125 
Q 5.859375 59.765625 10.9375 64.453125 
Q 16.015625 69.140625 25 69.140625 
Q 33.203125 69.140625 38.28125 64.453125 
Q 43.359375 59.765625 43.359375 53.125 
Q 43.359375 48.4375 40.421875 44.328125 
Q 37.5 40.234375 31.25 37.109375 
Q 37.890625 33.203125 41.015625 28.515625 
Q 44.140625 23.828125 44.140625 18.359375 
z
M 37.890625 52.734375 
Q 37.890625 58.203125 34.765625 62.296875 
Q 31.640625 66.40625 25 66.40625 
Q 17.578125 66.40625 14.453125 62.5 
Q 11.328125 58.59375 11.328125 54.296875 
Q 11.328125 50 15.8125 45.890625 
Q 20.3125 41.796875 28.515625 38.671875 
Q 33.203125 41.015625 35.546875 44.53125 
Q 37.890625 48.046875 37.890625 52.734375 
z
" id="SimSun-56"/>
      </defs>
      <g transform="translate(262.128597 351.850037)scale(0.1 -0.1)">
       <use xlink:href="#SimSun-48"/>
       <use x="50" xlink:href="#SimSun-46"/>
       <use x="100" xlink:href="#SimSun-56"/>
      </g>
     </g>
    </g>
    <g id="xtick_5">
     <g id="line2d_5">
      <g>
       <use style="stroke:#000000;stroke-width:0.8;" x="332.787769" xlink:href="#m9f53e99a9b" y="337.7016"/>
      </g>
     </g>
     <g id="text_5">
      <!-- 1.0 -->
      <defs>
       <path d="M 28.515625 69.53125 
L 28.515625 10.15625 
Q 28.515625 7.03125 30.46875 5.46875 
Q 32.421875 3.90625 35.9375 3.90625 
L 39.84375 3.90625 
L 39.84375 1.5625 
L 11.328125 1.5625 
L 11.328125 3.90625 
L 14.84375 3.90625 
Q 18.75 3.90625 20.5 5.46875 
Q 22.265625 7.03125 22.265625 10.15625 
L 22.265625 57.421875 
Q 22.265625 58.984375 21.28125 59.953125 
Q 20.3125 60.9375 18.359375 60.9375 
L 11.328125 60.9375 
L 11.328125 63.28125 
L 14.84375 63.28125 
Q 19.53125 63.28125 22.453125 64.84375 
Q 25.390625 66.40625 26.953125 69.53125 
z
" id="SimSun-49"/>
      </defs>
      <g transform="translate(325.287769 351.850037)scale(0.1 -0.1)">
       <use xlink:href="#SimSun-49"/>
       <use x="50" xlink:href="#SimSun-46"/>
       <use x="100" xlink:href="#SimSun-48"/>
      </g>
     </g>
    </g>
    <g id="text_6">
     <!-- 出水氨氮浓度真实值(mg/L) -->
     <defs>
      <path d="M 80.859375 62.109375 
L 80.859375 46.875 
Q 80.859375 42.96875 81.640625 35.9375 
L 75.390625 33.59375 
L 75.390625 38.28125 
L 52.34375 38.28125 
L 52.34375 0.390625 
L 79.296875 0.390625 
L 79.296875 17.578125 
Q 79.296875 23.046875 78.90625 29.6875 
L 87.890625 24.609375 
L 84.765625 22.265625 
L 84.765625 7.8125 
Q 84.765625 0.78125 85.15625 -6.25 
L 79.296875 -8.203125 
L 79.296875 -1.953125 
L 20.703125 -1.953125 
L 17.96875 -4.6875 
L 12.5 -0.390625 
L 15.234375 2.34375 
L 15.234375 17.578125 
Q 15.234375 23.4375 14.84375 30.46875 
L 23.828125 25.78125 
L 20.703125 23.046875 
L 20.703125 0.390625 
L 46.875 0.390625 
L 46.875 38.28125 
L 24.21875 38.28125 
L 21.09375 35.546875 
L 15.625 39.84375 
L 18.359375 42.1875 
L 18.359375 58.203125 
Q 18.359375 62.890625 17.96875 68.359375 
L 27.34375 63.671875 
L 23.828125 61.328125 
L 23.828125 40.625 
L 46.875 40.625 
L 46.875 66.40625 
Q 46.875 73.4375 46.484375 80.078125 
L 55.46875 75.78125 
L 52.34375 72.265625 
L 52.34375 40.625 
L 75.390625 40.625 
L 75.390625 58.203125 
Q 75.390625 62.890625 75 69.140625 
L 83.984375 64.84375 
z
" id="SimSun-20986"/>
      <path d="M 46.09375 81.25 
L 56.25 76.953125 
L 52.34375 73.828125 
Q 51.953125 64.84375 53.90625 58.59375 
Q 55.859375 52.34375 60.15625 43.359375 
Q 75.390625 55.859375 80.859375 64.84375 
L 87.5 57.8125 
Q 83.59375 57.421875 77.734375 53.125 
Q 71.484375 48.828125 60.9375 41.40625 
Q 76.171875 12.109375 95.3125 5.859375 
L 95.3125 4.296875 
Q 87.890625 3.90625 86.328125 -0.390625 
Q 62.5 17.1875 52.34375 56.640625 
L 52.34375 1.953125 
Q 52.734375 -7.8125 42.96875 -10.15625 
Q 43.359375 -4.6875 30.859375 -1.5625 
L 30.859375 0 
Q 39.84375 -0.78125 43.15625 -0.78125 
Q 46.484375 -0.78125 46.484375 3.90625 
L 46.484375 66.796875 
Q 46.484375 74.21875 46.09375 81.25 
z
M 5.859375 -2.34375 
L 5.078125 -1.171875 
Q 24.609375 18.359375 32.03125 48.828125 
L 19.921875 48.828125 
Q 14.84375 48.828125 10.546875 47.65625 
L 7.03125 51.171875 
L 31.640625 51.171875 
L 35.15625 55.859375 
L 42.1875 49.609375 
L 38.28125 47.65625 
Q 28.515625 12.890625 5.859375 -2.34375 
z
" id="SimSun-27700"/>
      <path d="M 54.6875 28.515625 
L 58.59375 36.328125 
L 35.546875 36.328125 
L 42.1875 32.421875 
Q 38.671875 31.25 36.71875 28.125 
Q 34.375 24.609375 32.8125 22.265625 
L 57.421875 22.265625 
L 61.71875 26.5625 
L 68.359375 19.921875 
L 55.46875 19.921875 
Q 52.34375 12.890625 47.265625 7.03125 
Q 58.203125 3.90625 62.296875 1.5625 
Q 66.40625 -0.78125 66.015625 -4.09375 
Q 65.625 -7.421875 64.0625 -7.421875 
Q 62.109375 -7.421875 59.375 -5.078125 
Q 53.515625 -0.390625 44.140625 3.125 
Q 32.03125 -5.859375 8.984375 -9.375 
L 8.59375 -7.8125 
Q 30.078125 -2.34375 39.453125 5.46875 
Q 34.765625 7.03125 19.140625 10.546875 
Q 22.65625 14.453125 26.5625 19.921875 
L 20.703125 19.921875 
Q 15.625 19.921875 11.328125 18.75 
L 7.8125 22.265625 
L 27.734375 22.265625 
Q 32.03125 29.296875 34.375 36.328125 
L 18.75 36.328125 
Q 18.359375 31.640625 16.984375 29.875 
Q 15.625 28.125 13.28125 27.921875 
Q 10.9375 27.734375 10.15625 29.484375 
Q 9.375 31.25 12.5 33.203125 
Q 15.234375 34.765625 17.578125 42.96875 
L 18.75 42.96875 
L 18.75 38.671875 
L 57.8125 38.671875 
L 61.328125 42.578125 
L 67.578125 36.328125 
Q 64.0625 35.546875 62.109375 34.171875 
Q 60.15625 32.8125 55.859375 27.734375 
z
M 31.640625 19.921875 
Q 29.296875 17.1875 25.390625 12.109375 
Q 37.5 9.765625 42.1875 8.59375 
Q 47.265625 14.453125 49.609375 19.921875 
z
M 30.078125 77.734375 
L 26.953125 75.78125 
L 23.828125 70.703125 
L 78.90625 70.703125 
L 83.59375 75.390625 
L 90.234375 68.359375 
L 22.65625 68.359375 
Q 13.671875 54.6875 4.296875 47.65625 
L 3.90625 49.21875 
Q 10.546875 57.03125 15.03125 65.625 
Q 19.53125 74.21875 21.875 82.421875 
z
M 22.65625 61.71875 
L 69.53125 61.71875 
L 73.828125 66.015625 
L 80.078125 59.375 
L 35.546875 59.375 
Q 30.46875 59.375 26.171875 58.203125 
z
M 87.890625 -1.171875 
L 91.796875 11.71875 
L 93.359375 11.328125 
Q 92.1875 3.125 92.1875 -0.96875 
Q 92.1875 -5.078125 93.75 -8.203125 
Q 94.53125 -9.765625 92.96875 -9.765625 
Q 91.015625 -9.765625 86.71875 -8 
Q 82.421875 -6.25 77.734375 1.171875 
Q 73.046875 8.59375 71.28125 19.921875 
Q 69.53125 31.25 69.921875 50.390625 
L 28.515625 50.390625 
Q 23.4375 50.390625 19.140625 49.21875 
L 15.625 52.734375 
L 69.53125 52.734375 
L 73.046875 56.25 
L 78.515625 50.78125 
L 75.390625 48.4375 
Q 75 36.71875 75.78125 26.5625 
Q 76.5625 16.40625 79.875 9.171875 
Q 83.203125 1.953125 87.890625 -1.171875 
z
M 34.375 50 
Q 41.015625 47.65625 42.375 45.890625 
Q 43.75 44.140625 43.75 42.96875 
Q 43.75 41.796875 42.578125 40.421875 
Q 41.40625 39.0625 41.015625 39.0625 
Q 39.84375 39.0625 38.671875 41.796875 
Q 37.109375 46.09375 33.984375 48.828125 
z
" id="SimSun-27688"/>
      <path d="M 26.171875 47.265625 
Q 25.78125 41.015625 24.40625 37.109375 
Q 23.046875 33.203125 21.28125 32.421875 
Q 19.53125 31.640625 18.359375 31.640625 
Q 17.1875 31.640625 16.015625 32.609375 
Q 14.84375 33.59375 14.84375 33.984375 
Q 14.84375 35.15625 17.96875 37.5 
Q 21.875 40.234375 24.609375 47.265625 
z
M 25.78125 18.75 
Q 24.609375 11.328125 23.4375 7.421875 
Q 22.265625 3.515625 20.5 2.734375 
Q 18.75 1.953125 17.578125 1.953125 
Q 16.015625 1.953125 15.03125 2.734375 
Q 14.0625 3.515625 14.0625 4.296875 
Q 14.0625 5.46875 16.796875 7.421875 
Q 20.703125 10.15625 24.21875 18.75 
z
M 23.4375 82.421875 
L 31.25 78.125 
Q 28.90625 76.953125 28.125 75.78125 
Q 27.34375 74.609375 25.78125 72.265625 
L 76.5625 72.265625 
L 81.25 76.953125 
L 87.890625 69.921875 
L 24.609375 69.921875 
Q 20.3125 63.671875 15.421875 58 
Q 10.546875 52.34375 3.90625 47.265625 
L 3.125 48.4375 
Q 11.328125 57.421875 15.8125 65.421875 
Q 20.3125 73.4375 23.4375 82.421875 
z
M 25 63.671875 
L 70.703125 63.671875 
L 75 67.96875 
L 81.25 61.328125 
L 37.890625 61.328125 
Q 32.8125 61.328125 28.515625 60.15625 
z
M 92.578125 13.671875 
L 94.140625 13.28125 
Q 93.359375 4.296875 93.359375 0.1875 
Q 93.359375 -3.90625 94.53125 -6.640625 
Q 95.703125 -8.984375 92.1875 -8.203125 
Q 88.671875 -7.421875 83.984375 -3.125 
Q 79.296875 1.171875 76.171875 8 
Q 73.046875 14.84375 71.671875 24.609375 
Q 70.3125 34.375 70.703125 51.953125 
L 28.90625 51.953125 
Q 23.828125 51.953125 19.53125 50.78125 
L 16.015625 54.296875 
L 70.3125 54.296875 
L 74.21875 58.203125 
L 79.6875 52.734375 
L 76.171875 50.390625 
Q 75.78125 27.734375 78.703125 16.984375 
Q 81.640625 6.25 89.0625 0.78125 
z
M 43.359375 18.75 
Q 42.578125 14.453125 42.1875 11.71875 
Q 55.859375 17.578125 58.59375 21.09375 
L 62.890625 14.0625 
Q 59.375 14.0625 52.921875 12.5 
Q 46.484375 10.9375 41.796875 9.765625 
Q 41.40625 8.203125 40.625 6.640625 
Q 53.125 3.515625 59.5625 0.578125 
Q 66.015625 -2.34375 65.625 -6.4375 
Q 65.234375 -10.546875 64.0625 -10.546875 
Q 63.28125 -10.546875 62.5 -9.765625 
Q 59.375 -7.03125 55.265625 -3.703125 
Q 51.171875 -0.390625 39.84375 4.6875 
Q 37.5 0.78125 30.859375 -3.3125 
Q 24.21875 -7.421875 7.8125 -10.15625 
L 7.8125 -8.59375 
Q 22.65625 -4.296875 28.3125 -0.1875 
Q 33.984375 3.90625 35.734375 9.5625 
Q 37.5 15.234375 37.5 24.609375 
L 45.703125 21.09375 
z
M 47.265625 33.59375 
L 46.484375 34.375 
Q 55.46875 43.75 57.03125 48.046875 
L 62.890625 42.96875 
Q 59.765625 42.1875 55.078125 39.0625 
Q 50.390625 35.546875 47.265625 33.59375 
z
M 42.578125 44.921875 
Q 42.1875 43.359375 40.625 37.109375 
Q 52.734375 32.8125 58.59375 29.484375 
Q 64.453125 26.171875 64.25 22.453125 
Q 64.0625 18.75 62.890625 18.75 
Q 61.71875 18.75 59.765625 21.09375 
Q 55.46875 26.171875 39.84375 35.15625 
Q 36.71875 28.125 29.875 24.21875 
Q 23.046875 20.3125 9.765625 17.578125 
L 9.375 19.140625 
Q 22.65625 23.4375 28.3125 28.3125 
Q 33.984375 33.203125 35.34375 38.28125 
Q 36.71875 43.359375 36.71875 51.171875 
L 45.3125 47.65625 
L 42.578125 44.921875 
z
" id="SimSun-27694"/>
      <path d="M 76.5625 50 
L 82.03125 60.546875 
L 58.59375 60.546875 
Q 57.8125 58.203125 57.03125 55.859375 
Q 61.328125 38.28125 67.1875 30.078125 
Q 78.90625 40.625 82.03125 46.484375 
L 88.28125 39.453125 
Q 82.421875 38.28125 77.53125 34.765625 
Q 72.65625 31.25 68.359375 28.125 
Q 79.296875 11.71875 95.3125 5.46875 
L 95.3125 3.90625 
Q 88.28125 4.296875 85.9375 -0.390625 
Q 60.9375 19.53125 55.859375 52.734375 
Q 51.953125 43.75 48.046875 37.109375 
L 52.734375 34.765625 
L 50.390625 32.421875 
L 50.390625 1.5625 
L 65.234375 9.375 
L 66.015625 7.8125 
Q 52.34375 -1.5625 48.4375 -7.8125 
L 43.359375 -1.953125 
Q 45.3125 -0.78125 44.921875 6.640625 
L 44.921875 31.25 
Q 34.375 18.359375 23.046875 9.765625 
L 22.265625 10.9375 
Q 44.53125 33.59375 53.125 60.546875 
L 40.234375 60.546875 
Q 40.625 54.296875 38.671875 52.140625 
Q 36.71875 50 34.171875 50.390625 
Q 31.640625 50.78125 31.640625 51.953125 
Q 31.640625 53.125 33.59375 55.46875 
Q 37.109375 59.375 38.671875 67.1875 
L 40.234375 67.1875 
L 40.234375 62.890625 
L 53.515625 62.890625 
Q 54.6875 67.578125 55.46875 72.453125 
Q 56.25 77.34375 56.640625 81.640625 
L 65.234375 77.34375 
L 62.109375 75 
Q 60.546875 68.359375 58.984375 62.890625 
L 81.25 62.890625 
L 85.15625 67.1875 
L 92.1875 59.375 
Q 85.9375 59.375 77.734375 49.21875 
z
M 30.859375 60.9375 
Q 21.09375 21.875 20.109375 16.984375 
Q 19.140625 12.109375 19.140625 5.078125 
Q 19.140625 -1.953125 19.140625 -4.484375 
Q 19.140625 -7.03125 17.578125 -7.03125 
Q 16.40625 -7.03125 13.859375 -5.859375 
Q 11.328125 -4.6875 11.328125 -1.5625 
Q 11.328125 1.171875 12.109375 3.90625 
Q 13.28125 7.8125 13.28125 10.546875 
Q 13.28125 12.890625 11.71875 14.453125 
Q 10.15625 16.015625 4.296875 17.578125 
L 4.296875 19.140625 
Q 11.328125 18.359375 12.6875 18.75 
Q 14.0625 19.140625 16.203125 22.65625 
Q 18.359375 26.171875 29.296875 61.328125 
z
M 4.6875 54.6875 
Q 17.578125 49.21875 17.765625 45.3125 
Q 17.96875 41.40625 16.40625 39.640625 
Q 14.84375 37.890625 14.453125 37.890625 
Q 13.28125 37.890625 12.109375 41.796875 
Q 10.15625 46.875 3.90625 53.515625 
z
M 13.671875 77.34375 
Q 24.21875 72.65625 25.390625 70.703125 
Q 26.5625 68.75 26.5625 67.1875 
Q 26.5625 65.234375 25 62.890625 
Q 23.4375 60.546875 22.65625 60.546875 
Q 21.09375 60.546875 19.921875 64.453125 
Q 17.96875 70.703125 12.890625 76.171875 
z
" id="SimSun-27987"/>
      <path d="M 39.84375 31.640625 
Q 40.234375 39.453125 40.234375 49.609375 
L 30.078125 49.609375 
L 25.390625 48.828125 
L 22.265625 51.953125 
L 40.234375 51.953125 
Q 40.234375 57.8125 39.84375 64.84375 
L 48.4375 60.546875 
L 45.3125 58.59375 
L 45.3125 51.953125 
L 67.1875 51.953125 
Q 67.1875 58.59375 66.796875 64.453125 
L 75.78125 60.546875 
L 72.265625 58.203125 
L 72.265625 51.953125 
L 79.6875 51.953125 
L 84.765625 57.03125 
L 92.1875 49.609375 
L 72.265625 49.609375 
Q 72.265625 38.28125 72.65625 34.765625 
L 67.1875 32.421875 
L 67.1875 35.9375 
L 45.3125 35.9375 
L 45.3125 33.984375 
z
M 76.171875 23.4375 
Q 67.1875 12.109375 60.9375 6.640625 
Q 73.4375 -1.171875 94.140625 -1.953125 
L 94.140625 -3.515625 
Q 87.890625 -4.6875 86.71875 -8.59375 
Q 68.359375 -5.078125 57.421875 3.515625 
Q 38.671875 -7.03125 16.796875 -9.765625 
L 16.40625 -8.203125 
Q 37.109375 -4.296875 53.90625 7.03125 
Q 46.484375 14.453125 40.234375 25.390625 
L 36.328125 25.390625 
L 32.8125 24.609375 
L 29.6875 27.734375 
L 70.703125 27.734375 
L 74.21875 31.25 
L 80.078125 25.390625 
z
M 42.1875 25.390625 
Q 49.609375 15.234375 57.03125 9.765625 
Q 64.84375 17.1875 70.3125 25.390625 
z
M 45.3125 49.609375 
L 45.3125 38.28125 
L 67.1875 38.28125 
L 67.1875 49.609375 
z
M 15.234375 72.65625 
L 21.875 68.75 
L 52.734375 68.75 
Q 52.34375 71.09375 50.96875 73.828125 
Q 49.609375 76.5625 45.3125 81.640625 
L 46.484375 82.421875 
Q 55.46875 78.515625 56.828125 76.359375 
Q 58.203125 74.21875 58.203125 73.828125 
Q 58.203125 71.484375 55.078125 68.75 
L 80.46875 68.75 
L 85.9375 74.21875 
L 93.75 66.40625 
L 21.484375 66.40625 
Q 21.875 42.96875 20.109375 29.875 
Q 18.359375 16.796875 14.453125 7.421875 
Q 10.546875 -1.953125 4.6875 -9.765625 
L 3.515625 -8.984375 
Q 11.328125 4.6875 13.46875 19.53125 
Q 15.625 34.375 15.8125 49.796875 
Q 16.015625 65.234375 15.234375 72.65625 
z
" id="SimSun-24230"/>
      <path d="M 32.03125 53.90625 
L 32.03125 45.3125 
L 67.1875 45.3125 
L 67.1875 53.90625 
z
M 32.03125 42.96875 
L 32.03125 34.765625 
L 67.1875 34.765625 
L 67.1875 42.96875 
z
M 32.03125 32.421875 
L 32.03125 24.21875 
L 67.1875 24.21875 
L 67.1875 32.421875 
z
M 32.03125 21.875 
L 32.03125 13.671875 
L 67.1875 13.671875 
L 67.1875 21.875 
z
M 44.921875 56.25 
L 45.703125 67.578125 
L 23.828125 67.578125 
Q 18.75 67.578125 14.453125 66.40625 
L 10.9375 69.921875 
L 46.09375 69.921875 
Q 46.484375 75.390625 46.484375 82.421875 
L 55.46875 78.515625 
L 52.734375 76.953125 
L 51.5625 69.921875 
L 78.125 69.921875 
L 83.203125 75.390625 
L 90.234375 67.578125 
L 51.171875 67.578125 
L 50 56.25 
L 66.796875 56.25 
L 69.53125 60.546875 
L 75.78125 55.859375 
L 72.65625 52.734375 
L 72.65625 13.671875 
L 82.8125 13.671875 
L 88.671875 19.140625 
L 95.703125 11.328125 
L 17.96875 11.328125 
Q 12.890625 11.328125 8.59375 10.15625 
L 5.078125 13.671875 
L 26.5625 13.671875 
Q 26.5625 50 26.171875 58.984375 
L 32.03125 56.25 
z
M 37.890625 11.328125 
L 44.140625 5.46875 
L 40.234375 4.6875 
Q 23.4375 -6.640625 12.5 -10.15625 
L 12.109375 -8.984375 
Q 30.46875 1.953125 37.890625 11.328125 
z
M 59.375 10.9375 
Q 71.484375 5.859375 77.53125 3.125 
Q 83.59375 0.390625 84.375 -1.75 
Q 85.15625 -3.90625 85.15625 -5.078125 
Q 85.15625 -6.25 84.375 -8.203125 
Q 83.59375 -10.15625 83.203125 -10.15625 
Q 82.03125 -10.15625 79.6875 -7.03125 
Q 76.171875 -2.34375 58.59375 9.765625 
z
" id="SimSun-30495"/>
      <path d="M 30.46875 56.640625 
Q 40.234375 53.125 42.1875 50.78125 
Q 44.140625 48.4375 44.140625 46.484375 
Q 44.140625 44.53125 42.96875 42.1875 
Q 41.796875 39.84375 41.015625 39.84375 
Q 39.84375 39.84375 38.28125 43.75 
Q 35.546875 49.609375 29.6875 55.46875 
z
M 55.859375 20.703125 
Q 54.6875 17.1875 53.515625 14.453125 
Q 72.65625 8.59375 79.484375 5.078125 
Q 86.328125 1.5625 86.125 -3.515625 
Q 85.9375 -8.59375 84.375 -8.59375 
Q 82.8125 -8.59375 79.296875 -4.6875 
Q 72.265625 2.734375 52.734375 12.5 
Q 47.265625 2.734375 35.9375 -2.34375 
Q 24.609375 -7.421875 6.640625 -9.765625 
L 6.640625 -8.203125 
Q 23.046875 -5.078125 34.375 1.5625 
Q 45.703125 8.203125 50 20.703125 
L 19.140625 20.703125 
Q 14.0625 20.703125 9.765625 19.53125 
L 6.25 23.046875 
L 50.390625 23.046875 
Q 51.953125 30.46875 52.734375 40.234375 
Q 53.515625 50 53.515625 57.8125 
L 63.28125 53.125 
L 60.15625 50.390625 
Q 58.59375 35.9375 56.640625 23.046875 
L 80.859375 23.046875 
L 86.71875 28.90625 
L 94.921875 20.703125 
z
M 19.921875 42.1875 
Q 30.859375 37.890625 32.8125 35.34375 
Q 34.765625 32.8125 34.765625 30.859375 
Q 34.765625 28.90625 33.59375 26.5625 
Q 32.421875 24.21875 31.640625 24.21875 
Q 30.46875 24.21875 28.90625 28.125 
Q 26.171875 33.984375 19.140625 41.015625 
z
M 42.96875 81.640625 
L 44.140625 82.421875 
Q 50.390625 79.6875 53.515625 76.953125 
Q 56.640625 74.21875 56.640625 71.875 
Q 56.640625 69.53125 54.875 67.1875 
Q 53.125 64.84375 51.953125 64.84375 
Q 50.78125 64.84375 50 68.75 
Q 48.4375 74.609375 42.96875 81.640625 
z
M 77.734375 50.390625 
L 83.59375 61.328125 
L 18.359375 61.328125 
Q 19.140625 55.078125 17.578125 51.5625 
Q 16.015625 48.046875 12.296875 48.4375 
Q 8.59375 48.828125 8.59375 50 
Q 8.59375 51.5625 10.9375 54.296875 
Q 15.234375 59.765625 16.40625 68.359375 
L 17.96875 68.359375 
L 18.359375 63.671875 
L 82.8125 63.671875 
L 87.109375 67.96875 
L 94.53125 59.375 
Q 87.890625 59.765625 78.90625 49.609375 
z
" id="SimSun-23454"/>
      <path d="M 23.828125 10.15625 
Q 23.828125 -3.515625 24.21875 -8.203125 
L 18.359375 -10.15625 
Q 18.75 3.90625 18.75 8.59375 
L 18.75 47.265625 
Q 11.71875 35.9375 5.078125 28.90625 
L 3.90625 29.6875 
Q 11.328125 41.015625 17.1875 55.078125 
Q 23.046875 69.140625 26.171875 81.25 
L 34.375 76.171875 
L 30.46875 73.828125 
Q 24.21875 59.375 22.265625 54.296875 
L 26.953125 51.5625 
L 23.828125 49.21875 
z
M 44.921875 50.390625 
L 44.921875 38.671875 
L 75 38.671875 
L 75 50.390625 
z
M 44.921875 36.328125 
L 44.921875 24.609375 
L 75 24.609375 
L 75 36.328125 
z
M 44.921875 22.265625 
L 44.921875 10.546875 
L 75 10.546875 
L 75 22.265625 
z
M 44.921875 8.203125 
L 44.921875 -3.515625 
L 75 -3.515625 
L 75 8.203125 
z
M 55.46875 66.40625 
Q 55.859375 75.390625 55.46875 81.640625 
L 64.453125 77.34375 
L 61.328125 75 
L 60.9375 66.40625 
L 78.515625 66.40625 
L 83.59375 71.484375 
L 91.015625 64.0625 
L 60.9375 64.0625 
L 60.546875 52.734375 
L 74.21875 52.734375 
L 77.734375 56.640625 
L 83.59375 51.5625 
L 80.078125 49.21875 
L 80.078125 -3.515625 
L 83.59375 -3.515625 
L 88.671875 1.5625 
L 96.09375 -5.859375 
L 38.28125 -5.859375 
Q 33.203125 -5.859375 28.90625 -7.03125 
L 25.390625 -3.515625 
L 39.84375 -3.515625 
L 39.84375 39.84375 
Q 39.84375 44.53125 39.453125 55.859375 
L 44.921875 52.734375 
L 55.078125 52.734375 
L 55.46875 64.0625 
L 43.75 64.0625 
Q 38.671875 64.0625 34.375 62.890625 
L 30.859375 66.40625 
z
" id="SimSun-20540"/>
      <path d="M 45.3125 78.515625 
Q 36.328125 69.140625 31.828125 58.390625 
Q 27.34375 47.65625 27.34375 35.9375 
Q 27.34375 23.828125 31.828125 13.28125 
Q 36.328125 2.734375 45.3125 -6.640625 
L 43.359375 -8.59375 
Q 32.421875 1.171875 26.953125 12.296875 
Q 21.484375 23.4375 21.484375 35.9375 
Q 21.484375 48.046875 26.953125 59.171875 
Q 32.421875 70.3125 43.359375 80.46875 
z
" id="SimSun-40"/>
      <path d="M 2.734375 45.3125 
Q 4.6875 45.3125 6.640625 45.703125 
Q 8.59375 46.09375 9.765625 46.875 
L 10.546875 46.875 
L 10.546875 40.234375 
Q 12.5 43.359375 14.84375 44.71875 
Q 17.1875 46.09375 19.921875 46.09375 
Q 23.4375 46.09375 25.390625 44.71875 
Q 27.34375 43.359375 27.734375 40.234375 
Q 29.6875 43.359375 32.21875 44.71875 
Q 34.765625 46.09375 37.5 46.09375 
Q 42.1875 46.09375 43.9375 43.359375 
Q 45.703125 40.625 45.703125 36.328125 
L 45.703125 6.640625 
Q 45.703125 5.078125 46.484375 4.484375 
Q 47.265625 3.90625 48.828125 3.90625 
L 49.609375 3.90625 
L 49.609375 1.5625 
L 36.328125 1.5625 
L 36.328125 3.90625 
L 37.109375 3.90625 
Q 38.671875 3.90625 39.453125 4.484375 
Q 40.234375 5.078125 40.234375 6.640625 
L 40.234375 35.9375 
Q 40.234375 40.234375 39.25 41.59375 
Q 38.28125 42.96875 36.328125 42.96875 
Q 33.59375 42.96875 31.4375 41.015625 
Q 29.296875 39.0625 28.125 35.546875 
L 28.125 6.640625 
Q 28.125 5.078125 28.90625 4.484375 
Q 29.6875 3.90625 31.25 3.90625 
L 32.03125 3.90625 
L 32.03125 1.5625 
L 18.75 1.5625 
L 18.75 3.90625 
L 19.53125 3.90625 
Q 21.09375 3.90625 21.875 4.484375 
Q 22.65625 5.078125 22.65625 6.640625 
L 22.65625 35.9375 
Q 22.65625 39.453125 21.875 41.203125 
Q 21.09375 42.96875 18.75 42.96875 
Q 16.015625 42.96875 13.859375 41.015625 
Q 11.71875 39.0625 10.546875 35.15625 
L 10.546875 6.640625 
Q 10.546875 5.078125 11.328125 4.484375 
Q 12.109375 3.90625 13.671875 3.90625 
L 14.453125 3.90625 
L 14.453125 1.5625 
L 1.171875 1.5625 
L 1.171875 3.90625 
L 1.953125 3.90625 
Q 3.515625 3.90625 4.296875 4.484375 
Q 5.078125 5.078125 5.078125 6.640625 
L 5.078125 40.625 
Q 5.078125 41.796875 4.6875 42.375 
Q 4.296875 42.96875 3.125 42.96875 
L 1.5625 42.96875 
L 1.5625 45.3125 
z
" id="SimSun-109"/>
      <path d="M 13.671875 30.859375 
Q 13.671875 26.171875 16.40625 22.84375 
Q 19.140625 19.53125 23.828125 19.53125 
Q 28.90625 19.53125 31.4375 22.453125 
Q 33.984375 25.390625 33.984375 30.859375 
Q 33.984375 37.5 31.046875 40.421875 
Q 28.125 43.359375 23.828125 43.359375 
Q 19.53125 43.359375 16.59375 40.421875 
Q 13.671875 37.5 13.671875 30.859375 
z
M 32.8125 9.765625 
Q 38.671875 8.984375 41.40625 6.4375 
Q 44.140625 3.90625 44.140625 -0.390625 
Q 44.140625 -6.25 39.25 -9.765625 
Q 34.375 -13.28125 23.828125 -13.28125 
Q 15.625 -13.28125 10.546875 -9.953125 
Q 5.46875 -6.640625 5.46875 -2.34375 
Q 5.46875 0.390625 7.421875 3.125 
Q 9.375 5.859375 13.671875 7.421875 
Q 11.328125 8.59375 9.953125 9.953125 
Q 8.59375 11.328125 8.59375 13.28125 
Q 8.59375 15.625 10.15625 17.375 
Q 11.71875 19.140625 14.0625 20.3125 
Q 11.71875 22.265625 9.953125 25 
Q 8.203125 27.734375 8.203125 30.859375 
Q 8.203125 36.71875 12.296875 41.203125 
Q 16.40625 45.703125 23.828125 45.703125 
Q 26.953125 45.703125 29.875 44.921875 
Q 32.8125 44.140625 34.765625 42.1875 
Q 37.5 44.140625 39.640625 45.109375 
Q 41.796875 46.09375 43.359375 46.09375 
Q 45.3125 46.09375 46.09375 44.71875 
Q 46.875 43.359375 46.875 42.1875 
Q 46.875 40.625 46.28125 39.640625 
Q 45.703125 38.671875 44.140625 38.671875 
Q 42.96875 38.671875 42.1875 39.25 
Q 41.40625 39.84375 41.015625 41.015625 
Q 40.625 42.1875 39.25 41.984375 
Q 37.890625 41.796875 36.328125 40.625 
Q 37.890625 39.0625 38.671875 36.328125 
Q 39.453125 33.59375 39.453125 30.859375 
Q 39.453125 26.171875 35.734375 21.671875 
Q 32.03125 17.1875 23.828125 17.1875 
Q 21.484375 17.1875 19.53125 17.765625 
Q 17.578125 18.359375 16.40625 19.140625 
Q 14.84375 18.359375 14.0625 17.1875 
Q 13.28125 16.015625 13.28125 15.234375 
Q 13.28125 13.671875 14.0625 12.890625 
Q 14.84375 12.109375 16.40625 12.109375 
Q 21.484375 11.328125 25.578125 10.734375 
Q 29.6875 10.15625 32.8125 9.765625 
z
M 16.796875 6.640625 
Q 13.28125 5.078125 11.90625 2.921875 
Q 10.546875 0.78125 10.546875 -2.34375 
Q 10.546875 -5.46875 14.0625 -8.203125 
Q 17.578125 -10.9375 24.609375 -10.9375 
Q 31.25 -10.9375 35.15625 -8.78125 
Q 39.0625 -6.640625 39.0625 -2.34375 
Q 39.0625 0.390625 38.078125 1.953125 
Q 37.109375 3.515625 35.15625 3.90625 
Q 31.25 4.6875 26.5625 5.46875 
Q 21.875 5.859375 16.796875 6.640625 
z
" id="SimSun-103"/>
      <path d="M 6.25 -7.421875 
L 3.515625 -5.859375 
L 43.359375 77.734375 
L 46.09375 76.171875 
z
" id="SimSun-47"/>
      <path d="M 15.625 7.03125 
Q 15.625 5.46875 16.59375 4.6875 
Q 17.578125 3.90625 19.140625 3.90625 
L 29.6875 3.90625 
Q 35.15625 3.90625 39.0625 7.21875 
Q 42.96875 10.546875 44.921875 17.578125 
L 46.875 16.796875 
L 43.359375 1.5625 
L 3.125 1.5625 
L 3.125 3.90625 
L 5.859375 3.90625 
Q 7.8125 3.90625 8.59375 4.6875 
Q 9.375 5.46875 9.375 7.03125 
L 9.375 62.890625 
Q 9.375 64.453125 8.59375 65.234375 
Q 7.8125 66.015625 5.859375 66.015625 
L 3.515625 66.015625 
L 3.515625 68.359375 
L 21.875 68.359375 
L 21.875 66.015625 
L 19.140625 66.015625 
Q 17.578125 66.015625 16.59375 65.234375 
Q 15.625 64.453125 15.625 62.890625 
z
" id="SimSun-76"/>
      <path d="M 4.296875 78.515625 
L 6.25 80.46875 
Q 17.1875 70.3125 22.65625 59.171875 
Q 28.125 48.046875 28.125 35.9375 
Q 28.125 23.4375 22.65625 12.296875 
Q 17.1875 1.171875 6.25 -8.59375 
L 4.296875 -6.640625 
Q 13.28125 2.734375 17.765625 13.28125 
Q 22.265625 23.828125 22.265625 35.9375 
Q 22.265625 47.65625 17.765625 58.390625 
Q 13.28125 69.140625 4.296875 78.515625 
z
" id="SimSun-41"/>
     </defs>
     <g transform="translate(105 368.678162)scale(0.14 -0.14)">
      <use xlink:href="#SimSun-20986"/>
      <use x="100" xlink:href="#SimSun-27700"/>
      <use x="200" xlink:href="#SimSun-27688"/>
      <use x="300" xlink:href="#SimSun-27694"/>
      <use x="400" xlink:href="#SimSun-27987"/>
      <use x="500" xlink:href="#SimSun-24230"/>
      <use x="600" xlink:href="#SimSun-30495"/>
      <use x="700" xlink:href="#SimSun-23454"/>
      <use x="800" xlink:href="#SimSun-20540"/>
      <use x="900" xlink:href="#SimSun-40"/>
      <use x="950" xlink:href="#SimSun-109"/>
      <use x="1000" xlink:href="#SimSun-103"/>
      <use x="1050" xlink:href="#SimSun-47"/>
      <use x="1100" xlink:href="#SimSun-76"/>
      <use x="1150" xlink:href="#SimSun-41"/>
     </g>
    </g>
   </g>
   <g id="matplotlib.axis_2">
    <g id="ytick_1">
     <g id="line2d_6">
      <defs>
       <path d="M 0 0 
L -3.5 0 
" id="m95105069c3" style="stroke:#000000;stroke-width:0.8;"/>
      </defs>
      <g>
       <use style="stroke:#000000;stroke-width:0.8;" x="45" xlink:href="#m95105069c3" y="303.475526"/>
      </g>
     </g>
     <g id="text_7">
      <!-- 0.2 -->
      <g transform="translate(23 307.049745)scale(0.1 -0.1)">
       <use xlink:href="#SimSun-48"/>
       <use x="50" xlink:href="#SimSun-46"/>
       <use x="100" xlink:href="#SimSun-50"/>
      </g>
     </g>
    </g>
    <g id="ytick_2">
     <g id="line2d_7">
      <g>
       <use style="stroke:#000000;stroke-width:0.8;" x="45" xlink:href="#m95105069c3" y="246.223082"/>
      </g>
     </g>
     <g id="text_8">
      <!-- 0.4 -->
      <g transform="translate(23 249.7973)scale(0.1 -0.1)">
       <use xlink:href="#SimSun-48"/>
       <use x="50" xlink:href="#SimSun-46"/>
       <use x="100" xlink:href="#SimSun-52"/>
      </g>
     </g>
    </g>
    <g id="ytick_3">
     <g id="line2d_8">
      <g>
       <use style="stroke:#000000;stroke-width:0.8;" x="45" xlink:href="#m95105069c3" y="188.970637"/>
      </g>
     </g>
     <g id="text_9">
      <!-- 0.6 -->
      <g transform="translate(23 192.544856)scale(0.1 -0.1)">
       <use xlink:href="#SimSun-48"/>
       <use x="50" xlink:href="#SimSun-46"/>
       <use x="100" xlink:href="#SimSun-54"/>
      </g>
     </g>
    </g>
    <g id="ytick_4">
     <g id="line2d_9">
      <g>
       <use style="stroke:#000000;stroke-width:0.8;" x="45" xlink:href="#m95105069c3" y="131.718193"/>
      </g>
     </g>
     <g id="text_10">
      <!-- 0.8 -->
      <g transform="translate(23 135.292411)scale(0.1 -0.1)">
       <use xlink:href="#SimSun-48"/>
       <use x="50" xlink:href="#SimSun-46"/>
       <use x="100" xlink:href="#SimSun-56"/>
      </g>
     </g>
    </g>
    <g id="ytick_5">
     <g id="line2d_10">
      <g>
       <use style="stroke:#000000;stroke-width:0.8;" x="45" xlink:href="#m95105069c3" y="74.465748"/>
      </g>
     </g>
     <g id="text_11">
      <!-- 1.0 -->
      <g transform="translate(23 78.039967)scale(0.1 -0.1)">
       <use xlink:href="#SimSun-49"/>
       <use x="50" xlink:href="#SimSun-46"/>
       <use x="100" xlink:href="#SimSun-48"/>
      </g>
     </g>
    </g>
    <g id="text_12">
     <!-- 出水氨氮浓度预测值(mg/L) -->
     <defs>
      <path d="M 7.421875 75.390625 
L 34.765625 75.390625 
L 37.890625 79.296875 
L 44.140625 73.046875 
Q 40.625 72.265625 37.296875 68.9375 
Q 33.984375 65.625 28.125 58.59375 
Q 32.03125 55.859375 31.828125 53.125 
Q 31.640625 50.390625 30.265625 49.21875 
Q 28.90625 48.046875 28.515625 48.046875 
Q 26.953125 48.046875 25.78125 51.5625 
Q 23.828125 56.25 16.40625 64.0625 
L 17.1875 64.84375 
Q 23.046875 62.109375 26.5625 59.765625 
L 34.765625 73.046875 
L 20.3125 73.046875 
Q 15.234375 73.046875 10.9375 71.875 
z
M 11.328125 1.5625 
Q 18.359375 0.78125 21.28125 0.578125 
Q 24.21875 0.390625 24.21875 4.296875 
L 24.21875 44.921875 
L 17.578125 44.921875 
Q 12.5 44.921875 8.203125 43.75 
L 4.6875 47.265625 
L 39.453125 47.265625 
L 42.578125 51.171875 
L 49.21875 44.921875 
Q 43.75 44.140625 35.546875 32.421875 
L 34.375 33.203125 
L 39.84375 44.921875 
L 29.296875 44.921875 
L 29.296875 2.34375 
Q 29.296875 -6.25 21.09375 -7.8125 
Q 20.703125 -2.734375 11.328125 0 
z
M 50.78125 12.109375 
Q 51.171875 22.265625 51.171875 35.734375 
Q 51.171875 49.21875 50.78125 60.9375 
L 56.25 57.8125 
L 63.28125 57.8125 
Q 65.234375 68.75 65.625 73.046875 
L 57.03125 73.046875 
Q 51.953125 73.046875 47.65625 71.875 
L 44.140625 75.390625 
L 83.203125 75.390625 
L 88.671875 80.46875 
L 95.703125 73.046875 
L 73.046875 73.046875 
Q 70.3125 69.140625 65.234375 57.8125 
L 82.8125 57.8125 
L 85.546875 62.109375 
L 91.796875 57.421875 
L 88.671875 54.296875 
L 88.671875 30.46875 
Q 88.671875 23.828125 89.0625 16.796875 
L 83.59375 13.671875 
L 83.59375 55.46875 
L 56.25 55.46875 
L 56.25 15.625 
z
M 75.78125 44.921875 
L 72.265625 41.796875 
Q 72.265625 23.046875 69.921875 14.640625 
Q 67.578125 6.25 60.9375 0.78125 
Q 54.296875 -4.6875 37.890625 -9.765625 
L 37.5 -8.59375 
Q 54.6875 -0.78125 59.953125 6.25 
Q 65.234375 13.28125 66.203125 24.796875 
Q 67.1875 36.328125 66.796875 49.609375 
z
M 72.65625 14.84375 
Q 89.453125 5.859375 91.796875 3.3125 
Q 94.140625 0.78125 94.140625 -1.953125 
Q 94.140625 -3.515625 93.15625 -6.046875 
Q 92.1875 -8.59375 91.40625 -8.59375 
Q 90.625 -8.59375 89.84375 -7.03125 
Q 87.890625 -3.90625 84.953125 0 
Q 82.03125 3.90625 71.875 13.671875 
z
" id="SimSun-39044"/>
      <path d="M 30.859375 15.625 
Q 31.25 23.046875 31.25 45.703125 
Q 31.25 68.359375 30.859375 78.125 
L 36.71875 74.609375 
L 55.859375 74.609375 
L 58.984375 77.734375 
L 64.0625 72.65625 
L 60.9375 70.3125 
L 60.9375 36.71875 
Q 60.9375 28.90625 61.328125 21.09375 
L 56.25 18.75 
L 56.25 72.265625 
L 36.328125 72.265625 
L 36.328125 17.96875 
z
M 43.359375 62.109375 
L 51.5625 57.8125 
L 48.828125 55.078125 
Q 49.21875 28.515625 44.921875 14.640625 
Q 40.625 0.78125 21.484375 -9.375 
L 20.703125 -7.8125 
Q 34.375 1.5625 38.671875 11.328125 
Q 42.96875 21.09375 43.359375 34.171875 
Q 43.75 47.265625 43.359375 62.109375 
z
M 48.4375 14.84375 
Q 59.765625 7.03125 61.515625 4.09375 
Q 63.28125 1.171875 63.28125 -0.390625 
Q 63.28125 -2.34375 62.109375 -4.09375 
Q 60.9375 -5.859375 60.15625 -5.859375 
Q 58.59375 -5.859375 57.03125 -1.171875 
Q 54.6875 5.859375 47.65625 13.671875 
z
M 69.921875 12.890625 
Q 70.3125 18.75 70.3125 26.5625 
L 70.3125 53.125 
Q 70.3125 61.71875 69.921875 67.1875 
L 78.515625 62.890625 
L 75.390625 59.765625 
L 75.390625 26.5625 
Q 75.390625 20.703125 75.78125 14.84375 
z
M 83.984375 2.34375 
L 83.984375 63.28125 
Q 83.984375 74.21875 83.59375 80.078125 
L 91.796875 76.171875 
L 89.0625 73.4375 
L 89.0625 1.171875 
Q 89.0625 -3.125 87.5 -5.46875 
Q 85.9375 -7.8125 81.25 -9.375 
Q 78.515625 -3.515625 69.53125 -0.78125 
L 69.53125 0.78125 
Q 80.078125 -0.78125 82.03125 -0.578125 
Q 83.984375 -0.390625 83.984375 2.34375 
z
M 28.90625 54.6875 
Q 21.484375 23.828125 20.3125 19.140625 
Q 18.75 14.0625 18.9375 7.03125 
Q 19.140625 0 19.53125 -2.734375 
Q 19.53125 -4.296875 17.578125 -4.296875 
Q 16.015625 -4.296875 13.671875 -3.515625 
Q 11.328125 -2.734375 11.328125 0 
Q 11.328125 1.953125 12.5 5.859375 
Q 13.671875 9.765625 13.671875 12.109375 
Q 13.671875 14.84375 11.90625 16.40625 
Q 10.15625 17.96875 4.296875 19.53125 
L 4.296875 21.09375 
Q 11.328125 20.3125 13.078125 20.5 
Q 14.84375 20.703125 16.984375 24.015625 
Q 19.140625 27.34375 27.34375 55.078125 
z
M 5.859375 58.984375 
Q 16.796875 52.34375 17.375 48.4375 
Q 17.96875 44.53125 16.40625 43.359375 
Q 14.84375 42.1875 14.0625 42.1875 
Q 12.5 42.1875 11.328125 46.484375 
Q 9.375 52.34375 5.078125 57.8125 
z
M 12.5 79.6875 
Q 23.046875 73.828125 24.21875 70.5 
Q 25.390625 67.1875 23.828125 65.421875 
Q 22.265625 63.671875 21.09375 63.671875 
Q 19.921875 63.671875 18.75 67.1875 
Q 16.796875 72.65625 11.71875 78.515625 
z
" id="SimSun-27979"/>
     </defs>
     <g transform="translate(17.140625 265.1826)rotate(-90)scale(0.14 -0.14)">
      <use xlink:href="#SimSun-20986"/>
      <use x="100" xlink:href="#SimSun-27700"/>
      <use x="200" xlink:href="#SimSun-27688"/>
      <use x="300" xlink:href="#SimSun-27694"/>
      <use x="400" xlink:href="#SimSun-27987"/>
      <use x="500" xlink:href="#SimSun-24230"/>
      <use x="600" xlink:href="#SimSun-39044"/>
      <use x="700" xlink:href="#SimSun-27979"/>
      <use x="800" xlink:href="#SimSun-20540"/>
      <use x="900" xlink:href="#SimSun-40"/>
      <use x="950" xlink:href="#SimSun-109"/>
      <use x="1000" xlink:href="#SimSun-103"/>
      <use x="1050" xlink:href="#SimSun-47"/>
      <use x="1100" xlink:href="#SimSun-76"/>
      <use x="1150" xlink:href="#SimSun-41"/>
     </g>
    </g>
   </g>
   <g id="line2d_11">
    <path clip-path="url(#p4e474a3912)" d="M 145.188209 244.520753 
L 243.467292 155.432858 
L 272.060888 129.513372 
L 243.022682 155.835888 
L 185.500882 207.978173 
L 222.962372 174.020131 
L 229.924651 167.708974 
L 227.715407 169.711606 
L 168.852615 223.069473 
L 191.461854 202.57468 
L 141.385487 247.967839 
L 115.344959 271.573024 
L 121.416319 266.069465 
L 276.37372 125.603882 
L 319.909091 86.139996 
L 269.137529 132.163335 
L 184.310431 209.057293 
L 186.186504 207.356672 
L 203.638879 191.536466 
L 213.89619 182.238432 
L 180.186992 212.795102 
L 171.251228 220.895181 
L 143.467848 246.080223 
L 70.534087 312.193125 
L 82.247306 301.575341 
L 198.171925 196.492144 
L 204.306724 190.931079 
L 193.596221 200.639921 
L 122.28766 265.279613 
L 94.552562 290.420889 
L 113.46384 273.278217 
L 114.712357 272.146464 
L 155.814011 234.88869 
L 133.326169 255.273439 
L 128.866719 259.315836 
L 89.188414 295.283375 
L 110.471479 275.990729 
L 139.446907 249.725121 
L 158.149853 232.771299 
L 211.588802 184.33003 
L 179.773188 213.170206 
L 143.756065 245.818961 
L 139.108133 250.032213 
L 178.89532 213.965975 
L 144.443938 245.195419 
L 112.060462 274.55035 
L 112.676523 273.991904 
L 58.090909 323.4726 
L 88.430821 295.970117 
L 174.767579 217.707684 
" style="fill:none;stroke:#1e90ff;stroke-linecap:square;stroke-width:2;"/>
   </g>
   <g id="patch_3">
    <path d="M 45 337.7016 
L 45 24.6636 
" style="fill:none;stroke:#000000;stroke-linecap:square;stroke-linejoin:miter;stroke-width:0.8;"/>
   </g>
   <g id="patch_4">
    <path d="M 333 337.7016 
L 333 24.6636 
" style="fill:none;stroke:#000000;stroke-linecap:square;stroke-linejoin:miter;stroke-width:0.8;"/>
   </g>
   <g id="patch_5">
    <path d="M 45 337.7016 
L 333 337.7016 
" style="fill:none;stroke:#000000;stroke-linecap:square;stroke-linejoin:miter;stroke-width:0.8;"/>
   </g>
   <g id="patch_6">
    <path d="M 45 24.6636 
L 333 24.6636 
" style="fill:none;stroke:#000000;stroke-linecap:square;stroke-linejoin:miter;stroke-width:0.8;"/>
   </g>
   <g id="legend_1">
    <g id="patch_7">
     <path d="M 54.8 112.152663 
L 155.6 112.152663 
Q 158.4 112.152663 158.4 109.352663 
L 158.4 34.4636 
Q 158.4 31.6636 155.6 31.6636 
L 54.8 31.6636 
Q 52 31.6636 52 34.4636 
L 52 109.352663 
Q 52 112.152663 54.8 112.152663 
z
" style="fill:#ffffff;opacity:0.8;stroke:#cccccc;stroke-linejoin:miter;"/>
    </g>
    <g id="line2d_12">
     <path d="M 57.6 42.371412 
L 85.6 42.371412 
" style="fill:none;stroke:#1e90ff;stroke-linecap:square;stroke-width:2;"/>
    </g>
    <g id="line2d_13"/>
    <g id="text_13">
     <!-- Line:y=x -->
     <defs>
      <path d="M 22.265625 39.453125 
Q 22.265625 41.015625 21.484375 41.984375 
Q 20.703125 42.96875 18.75 42.96875 
L 10.546875 42.96875 
L 10.546875 45.3125 
L 14.453125 45.3125 
Q 17.96875 45.3125 21.09375 45.890625 
Q 24.21875 46.484375 26.953125 48.046875 
L 27.734375 48.046875 
L 27.734375 7.03125 
Q 27.734375 5.46875 28.703125 4.6875 
Q 29.6875 3.90625 31.25 3.90625 
L 39.453125 3.90625 
L 39.453125 1.5625 
L 10.546875 1.5625 
L 10.546875 3.90625 
L 18.75 3.90625 
Q 20.703125 3.90625 21.484375 4.6875 
Q 22.265625 5.46875 22.265625 7.03125 
z
M 26.953125 47.265625 
z
M 25.390625 69.140625 
Q 27.34375 69.140625 28.90625 67.765625 
Q 30.46875 66.40625 30.46875 64.453125 
Q 30.46875 62.5 28.90625 60.9375 
Q 27.34375 59.375 25.390625 59.375 
Q 23.4375 59.375 21.875 60.9375 
Q 20.3125 62.5 20.3125 64.453125 
Q 20.3125 66.40625 21.875 67.765625 
Q 23.4375 69.140625 25.390625 69.140625 
z
" id="SimSun-105"/>
      <path d="M 3.125 1.5625 
L 3.125 3.90625 
L 5.078125 3.90625 
Q 7.03125 3.90625 7.8125 4.6875 
Q 8.59375 5.46875 8.59375 7.03125 
L 8.59375 40.625 
Q 8.59375 41.796875 8.203125 42.375 
Q 7.8125 42.96875 6.640625 42.96875 
L 3.515625 42.96875 
L 3.515625 45.3125 
L 6.25 45.3125 
Q 8.203125 45.3125 9.953125 45.703125 
Q 11.71875 46.09375 13.28125 47.265625 
L 14.0625 47.265625 
L 14.0625 38.28125 
Q 17.578125 42.1875 21.09375 44.140625 
Q 24.609375 46.09375 28.515625 46.09375 
Q 35.15625 46.09375 38.28125 42.578125 
Q 41.40625 39.0625 41.40625 32.03125 
L 41.40625 7.03125 
Q 41.40625 5.46875 42.375 4.6875 
Q 43.359375 3.90625 44.921875 3.90625 
L 46.875 3.90625 
L 46.875 1.5625 
L 30.46875 1.5625 
L 30.46875 3.90625 
L 32.421875 3.90625 
Q 34.375 3.90625 35.15625 4.6875 
Q 35.9375 5.46875 35.9375 7.03125 
L 35.9375 33.203125 
Q 35.9375 37.890625 33.984375 40.421875 
Q 32.03125 42.96875 28.125 42.96875 
Q 24.609375 42.96875 20.890625 40.625 
Q 17.1875 38.28125 14.0625 33.984375 
L 14.0625 7.03125 
Q 14.0625 5.46875 15.03125 4.6875 
Q 16.015625 3.90625 17.578125 3.90625 
L 19.53125 3.90625 
L 19.53125 1.5625 
z
" id="SimSun-110"/>
      <path d="M 37.5 25.78125 
Q 37.890625 34.375 34.5625 38.859375 
Q 31.25 43.359375 25.78125 43.359375 
Q 19.921875 43.359375 16.203125 38.671875 
Q 12.5 33.984375 12.5 25.78125 
z
M 12.5 23.4375 
Q 12.5 12.890625 16.59375 8.390625 
Q 20.703125 3.90625 27.34375 3.90625 
Q 32.421875 3.90625 35.9375 6.828125 
Q 39.453125 9.765625 41.015625 14.0625 
L 42.96875 13.28125 
Q 41.796875 8.984375 37.6875 4.875 
Q 33.59375 0.78125 26.5625 0.78125 
Q 17.578125 0.78125 11.90625 6.640625 
Q 6.25 12.5 6.25 23.4375 
Q 6.25 33.203125 11.90625 39.640625 
Q 17.578125 46.09375 25.78125 46.09375 
Q 33.203125 46.09375 38.671875 41.015625 
Q 44.140625 35.9375 44.140625 23.4375 
z
" id="SimSun-101"/>
      <path d="M 29.6875 42.578125 
Q 29.6875 40.234375 28.125 38.671875 
Q 26.5625 37.109375 24.21875 37.109375 
Q 21.875 37.109375 20.3125 38.671875 
Q 18.75 40.234375 18.75 42.578125 
Q 18.75 44.921875 20.3125 46.484375 
Q 21.875 48.046875 24.21875 48.046875 
Q 26.5625 48.046875 28.125 46.484375 
Q 29.6875 44.921875 29.6875 42.578125 
z
M 29.6875 5.859375 
Q 29.6875 3.515625 28.125 1.953125 
Q 26.5625 0.390625 24.21875 0.390625 
Q 21.875 0.390625 20.3125 1.953125 
Q 18.75 3.515625 18.75 5.859375 
Q 18.75 8.203125 20.3125 9.765625 
Q 21.875 11.328125 24.21875 11.328125 
Q 26.5625 11.328125 28.125 9.765625 
Q 29.6875 8.203125 29.6875 5.859375 
z
" id="SimSun-58"/>
      <path d="M 25.78125 12.5 
L 26.5625 12.5 
L 35.15625 38.671875 
Q 35.9375 40.625 34.953125 41.796875 
Q 33.984375 42.96875 32.421875 42.96875 
L 30.078125 42.96875 
L 30.078125 45.3125 
L 46.484375 45.3125 
L 46.484375 42.96875 
L 44.140625 42.96875 
Q 42.578125 42.96875 41.015625 41.796875 
Q 39.453125 40.625 38.671875 38.671875 
L 25.390625 0 
Q 23.4375 -5.859375 20.5 -9.171875 
Q 17.578125 -12.5 12.890625 -12.5 
Q 10.15625 -12.5 8.59375 -11.515625 
Q 7.03125 -10.546875 7.03125 -8.59375 
Q 7.03125 -7.421875 8 -6.25 
Q 8.984375 -5.078125 10.9375 -5.078125 
Q 12.5 -5.078125 14.0625 -6.640625 
Q 15.625 -7.8125 16.40625 -7.8125 
Q 17.578125 -7.8125 18.359375 -7.421875 
Q 19.140625 -7.03125 19.53125 -5.859375 
Q 20.703125 -3.90625 21.875 -0.96875 
Q 23.046875 1.953125 23.828125 5.078125 
L 10.546875 39.453125 
Q 10.15625 41.015625 8.78125 41.984375 
Q 7.421875 42.96875 5.859375 42.96875 
L 4.296875 42.96875 
L 4.296875 45.3125 
L 20.703125 45.3125 
L 20.703125 42.96875 
L 19.140625 42.96875 
Q 17.578125 42.96875 16.796875 41.984375 
Q 16.015625 41.015625 16.40625 39.0625 
z
M 14.84375 42.96875 
z
M 9.375 42.96875 
z
M 40.234375 42.96875 
z
M 36.328125 42.96875 
z
" id="SimSun-121"/>
      <path d="M 3.125 44.140625 
L 3.125 47.65625 
L 46.484375 47.65625 
L 46.484375 44.140625 
z
M 3.125 24.21875 
L 3.125 27.734375 
L 46.484375 27.734375 
L 46.484375 24.21875 
z
" id="SimSun-61"/>
      <path d="M 26.171875 28.515625 
L 33.203125 39.0625 
Q 34.375 40.625 34.171875 41.796875 
Q 33.984375 42.96875 31.25 42.96875 
L 28.90625 42.96875 
L 28.90625 45.3125 
L 44.140625 45.3125 
L 44.140625 42.96875 
L 42.1875 42.96875 
Q 41.40625 42.96875 40.234375 42.765625 
Q 39.0625 42.578125 38.28125 41.40625 
L 27.734375 25.78125 
L 38.671875 7.8125 
Q 39.84375 5.859375 41.59375 4.875 
Q 43.359375 3.90625 44.140625 3.90625 
L 45.703125 3.90625 
L 45.703125 1.5625 
L 28.515625 1.5625 
L 28.515625 3.90625 
L 30.859375 3.90625 
Q 33.203125 3.90625 33.390625 5.078125 
Q 33.59375 6.25 32.8125 7.8125 
L 24.609375 21.09375 
L 15.234375 7.421875 
Q 14.84375 5.46875 15.421875 4.6875 
Q 16.015625 3.90625 17.578125 3.90625 
L 18.75 3.90625 
L 18.75 1.5625 
L 3.515625 1.5625 
L 3.515625 3.90625 
L 5.859375 3.90625 
Q 7.421875 3.90625 9.375 5.078125 
Q 11.328125 6.25 12.5 8.59375 
L 22.65625 23.828125 
L 12.5 40.234375 
Q 12.109375 41.015625 10.9375 41.984375 
Q 9.765625 42.96875 7.8125 42.96875 
L 5.859375 42.96875 
L 5.859375 45.3125 
L 22.65625 45.3125 
L 22.65625 42.96875 
L 21.484375 42.96875 
Q 19.53125 42.96875 19.140625 41.796875 
Q 18.75 40.625 19.53125 39.0625 
z
M 9.375 3.90625 
z
M 12.890625 3.90625 
z
M 39.453125 42.96875 
z
M 35.9375 42.96875 
z
M 35.15625 3.90625 
z
M 41.015625 3.90625 
z
M 17.1875 42.96875 
z
M 10.9375 42.96875 
z
" id="SimSun-120"/>
     </defs>
     <g transform="translate(96.8 47.271412)scale(0.14 -0.14)">
      <use xlink:href="#SimSun-76"/>
      <use x="50" xlink:href="#SimSun-105"/>
      <use x="100" xlink:href="#SimSun-110"/>
      <use x="150" xlink:href="#SimSun-101"/>
      <use x="200" xlink:href="#SimSun-58"/>
      <use x="250" xlink:href="#SimSun-121"/>
      <use x="300" xlink:href="#SimSun-61"/>
      <use x="350" xlink:href="#SimSun-120"/>
     </g>
    </g>
    <g id="PathCollection_4">
     <g>
      <use style="fill:#ff0000;stroke:#ff0000;" x="71.6" xlink:href="#m45d64f2044" y="62.408912"/>
     </g>
    </g>
    <g id="text_14">
     <!-- RFE-LSTM -->
     <defs>
      <path d="M 44.140625 52.734375 
Q 44.140625 44.921875 39.84375 40.625 
Q 35.546875 36.328125 30.078125 35.546875 
L 41.796875 6.640625 
Q 42.578125 5.078125 43.546875 4.484375 
Q 44.53125 3.90625 45.703125 3.90625 
L 48.046875 3.90625 
L 48.046875 1.5625 
L 37.109375 1.5625 
L 24.21875 35.15625 
L 15.234375 35.15625 
L 15.234375 7.03125 
Q 15.234375 5.46875 16.203125 4.6875 
Q 17.1875 3.90625 18.75 3.90625 
L 21.09375 3.90625 
L 21.09375 1.5625 
L 3.125 1.5625 
L 3.125 3.90625 
L 5.46875 3.90625 
Q 7.421875 3.90625 8.203125 4.6875 
Q 8.984375 5.46875 8.984375 7.03125 
L 8.984375 62.890625 
Q 8.984375 64.453125 8.203125 65.234375 
Q 7.421875 66.015625 5.46875 66.015625 
L 3.125 66.015625 
L 3.125 68.359375 
L 25.390625 68.359375 
Q 34.375 68.359375 39.25 64.453125 
Q 44.140625 60.546875 44.140625 52.734375 
z
M 42.96875 3.90625 
z
M 15.234375 37.5 
L 23.828125 37.5 
Q 29.6875 37.5 33.59375 41.015625 
Q 37.5 44.53125 37.5 51.953125 
Q 37.5 58.59375 33.984375 62.296875 
Q 30.46875 66.015625 23.046875 66.015625 
L 18.75 66.015625 
Q 17.1875 66.015625 16.203125 65.234375 
Q 15.234375 64.453125 15.234375 62.890625 
z
" id="SimSun-82"/>
      <path d="M 21.09375 3.90625 
L 21.09375 1.5625 
L 2.34375 1.5625 
L 2.34375 3.90625 
L 5.078125 3.90625 
Q 7.03125 3.90625 7.8125 4.6875 
Q 8.59375 5.46875 8.59375 7.03125 
L 8.59375 62.890625 
Q 8.59375 64.453125 7.8125 65.234375 
Q 7.03125 66.015625 5.078125 66.015625 
L 2.734375 66.015625 
L 2.734375 68.359375 
L 43.359375 68.359375 
L 48.046875 54.296875 
L 46.09375 53.515625 
Q 42.96875 59.765625 38.671875 62.890625 
Q 34.375 66.015625 29.296875 66.015625 
L 18.359375 66.015625 
Q 16.796875 66.015625 15.8125 65.234375 
Q 14.84375 64.453125 14.84375 62.890625 
L 14.84375 37.890625 
L 27.734375 37.890625 
Q 31.640625 37.890625 33.390625 39.640625 
Q 35.15625 41.40625 35.15625 45.3125 
L 35.15625 47.265625 
L 37.5 47.265625 
L 37.5 24.609375 
L 35.15625 24.609375 
L 35.15625 26.171875 
Q 35.15625 30.859375 33.390625 33.203125 
Q 31.640625 35.546875 27.734375 35.546875 
L 14.84375 35.546875 
L 14.84375 7.03125 
Q 14.84375 5.46875 15.8125 4.6875 
Q 16.796875 3.90625 18.359375 3.90625 
z
" id="SimSun-70"/>
      <path d="M 3.125 66.015625 
L 3.125 68.359375 
L 41.40625 68.359375 
L 45.703125 55.078125 
L 43.75 54.296875 
Q 40.625 60.15625 37.109375 63.078125 
Q 33.59375 66.015625 29.296875 66.015625 
L 18.359375 66.015625 
Q 16.796875 66.015625 15.8125 65.234375 
Q 14.84375 64.453125 14.84375 62.890625 
L 14.84375 38.671875 
L 26.171875 38.671875 
Q 30.078125 38.671875 31.828125 40.625 
Q 33.59375 42.578125 33.59375 46.484375 
L 33.59375 48.828125 
L 35.9375 48.828125 
L 35.9375 25.78125 
L 33.59375 25.78125 
L 33.59375 27.34375 
Q 33.59375 31.640625 31.828125 33.984375 
Q 30.078125 36.328125 26.171875 36.328125 
L 14.84375 36.328125 
L 14.84375 7.03125 
Q 14.84375 5.46875 15.8125 4.6875 
Q 16.796875 3.90625 18.359375 3.90625 
L 28.515625 3.90625 
Q 34.375 3.90625 38.46875 7.21875 
Q 42.578125 10.546875 44.921875 17.578125 
L 46.875 16.796875 
L 42.578125 1.5625 
L 2.734375 1.5625 
L 2.734375 3.90625 
L 5.078125 3.90625 
Q 7.03125 3.90625 7.8125 4.6875 
Q 8.59375 5.46875 8.59375 7.03125 
L 8.59375 62.890625 
Q 8.59375 64.453125 7.8125 65.234375 
Q 7.03125 66.015625 5.078125 66.015625 
z
" id="SimSun-69"/>
      <path d="M 3.125 34.765625 
L 3.125 38.28125 
L 46.484375 38.28125 
L 46.484375 34.765625 
z
" id="SimSun-45"/>
      <path d="M 23.4375 33.59375 
Q 12.890625 38.28125 8.984375 41.796875 
Q 5.078125 45.3125 5.078125 52.734375 
Q 5.078125 58.59375 9.953125 63.859375 
Q 14.84375 69.140625 23.828125 69.140625 
Q 27.734375 69.140625 31.25 67.96875 
Q 34.765625 66.40625 36.328125 66.40625 
Q 37.5 66.40625 38.46875 66.984375 
Q 39.453125 67.578125 40.234375 69.140625 
L 41.796875 53.125 
L 39.84375 52.34375 
Q 36.328125 60.546875 32.609375 63.46875 
Q 28.90625 66.40625 23.046875 66.40625 
Q 15.625 66.40625 12.890625 62.296875 
Q 10.15625 58.203125 10.15625 53.515625 
Q 10.15625 49.21875 12.6875 46.671875 
Q 15.234375 44.140625 26.5625 39.0625 
Q 35.9375 35.15625 40.03125 30.265625 
Q 44.140625 25.390625 44.140625 18.75 
Q 44.140625 11.71875 39.25 6.25 
Q 34.375 0.78125 25 0.78125 
Q 21.09375 0.78125 17.96875 2.34375 
Q 14.453125 3.515625 12.5 3.515625 
Q 11.328125 3.515625 10.15625 2.734375 
Q 8.984375 1.953125 7.421875 0.78125 
L 4.296875 19.921875 
L 6.640625 20.703125 
Q 9.375 10.9375 14.25 7.21875 
Q 19.140625 3.515625 25.390625 3.515625 
Q 32.03125 3.515625 35.34375 7.421875 
Q 38.671875 11.328125 38.671875 18.75 
Q 38.671875 22.65625 34.953125 26.359375 
Q 31.25 30.078125 23.4375 33.59375 
z
" id="SimSun-83"/>
      <path d="M 34.765625 1.5625 
L 14.453125 1.5625 
L 14.453125 3.90625 
L 17.96875 3.90625 
Q 19.921875 3.90625 20.703125 4.6875 
Q 21.484375 5.46875 21.484375 7.03125 
L 21.484375 61.71875 
Q 21.484375 64.84375 21.09375 65.234375 
Q 20.703125 65.625 17.96875 65.625 
Q 12.5 65.625 10.34375 63.671875 
Q 8.203125 61.71875 5.078125 53.125 
L 2.734375 53.515625 
L 6.25 68.359375 
L 43.359375 68.359375 
L 46.484375 53.515625 
L 44.53125 53.125 
Q 41.40625 61.328125 39.640625 63.46875 
Q 37.890625 65.625 32.421875 65.625 
Q 28.515625 65.625 28.125 65.234375 
Q 27.734375 64.84375 27.734375 61.328125 
L 27.734375 7.03125 
Q 27.734375 5.46875 28.703125 4.6875 
Q 29.6875 3.90625 31.25 3.90625 
L 34.765625 3.90625 
z
" id="SimSun-84"/>
      <path d="M 43.75 7.03125 
Q 43.75 5.46875 44.71875 4.6875 
Q 45.703125 3.90625 47.265625 3.90625 
L 48.828125 3.90625 
L 48.828125 1.5625 
L 32.03125 1.5625 
L 32.03125 3.90625 
L 33.984375 3.90625 
Q 35.9375 3.90625 36.71875 4.6875 
Q 37.5 5.46875 37.5 7.03125 
L 37.5 58.203125 
L 36.71875 58.203125 
L 23.4375 1.5625 
L 21.09375 1.5625 
L 8.984375 57.03125 
L 8.203125 57.03125 
L 8.203125 7.03125 
Q 8.203125 5.46875 9.171875 4.6875 
Q 10.15625 3.90625 11.71875 3.90625 
L 12.890625 3.90625 
L 12.890625 1.5625 
L 1.171875 1.5625 
L 1.171875 3.90625 
L 2.34375 3.90625 
Q 4.296875 3.90625 5.078125 4.6875 
Q 5.859375 5.46875 5.859375 7.03125 
L 5.859375 62.890625 
Q 5.859375 64.453125 5.078125 65.234375 
Q 4.296875 66.015625 2.34375 66.015625 
L 0.78125 66.015625 
L 0.78125 68.359375 
L 12.109375 68.359375 
L 23.4375 16.015625 
L 24.21875 16.015625 
L 36.328125 68.359375 
L 48.828125 68.359375 
L 48.828125 66.015625 
L 47.265625 66.015625 
Q 45.703125 66.015625 44.71875 65.234375 
Q 43.75 64.453125 43.75 62.890625 
z
" id="SimSun-77"/>
     </defs>
     <g transform="translate(96.8 66.083912)scale(0.14 -0.14)">
      <use xlink:href="#SimSun-82"/>
      <use x="50" xlink:href="#SimSun-70"/>
      <use x="100" xlink:href="#SimSun-69"/>
      <use x="150" xlink:href="#SimSun-45"/>
      <use x="200" xlink:href="#SimSun-76"/>
      <use x="250" xlink:href="#SimSun-83"/>
      <use x="300" xlink:href="#SimSun-84"/>
      <use x="350" xlink:href="#SimSun-77"/>
     </g>
    </g>
    <g id="PathCollection_5">
     <g>
      <use style="fill:#32cd32;stroke:#32cd32;" x="71.6" xlink:href="#m7115750c5b" y="82.260475"/>
     </g>
    </g>
    <g id="text_15">
     <!-- 经典LSTM -->
     <defs>
      <path d="M 77.734375 69.921875 
Q 72.265625 62.5 66.40625 55.078125 
Q 79.296875 50 84.765625 46.875 
Q 90.234375 43.75 90.8125 40.625 
Q 91.40625 37.5 90.421875 36.125 
Q 89.453125 34.765625 88.671875 34.765625 
Q 87.109375 34.765625 84.375 38.671875 
Q 80.46875 44.140625 65.234375 53.515625 
Q 61.328125 49.21875 54.484375 44.140625 
Q 47.65625 39.0625 35.546875 33.984375 
L 35.15625 35.546875 
Q 48.046875 42.578125 56.25 50.78125 
Q 64.453125 58.984375 71.484375 71.484375 
L 53.90625 71.484375 
Q 48.828125 71.484375 44.53125 70.3125 
L 41.015625 73.828125 
L 71.875 73.828125 
L 75.78125 77.734375 
L 81.640625 71.875 
z
M 42.96875 28.125 
L 77.34375 28.125 
L 82.03125 32.8125 
L 88.671875 25.78125 
L 66.015625 25.78125 
L 66.015625 -0.78125 
L 84.375 -0.78125 
L 89.0625 3.90625 
L 95.703125 -3.125 
L 45.703125 -3.125 
Q 40.625 -3.125 36.328125 -4.296875 
L 32.8125 -0.78125 
L 60.546875 -0.78125 
L 60.546875 25.78125 
L 55.859375 25.78125 
Q 50.78125 25.78125 46.484375 24.609375 
z
M 14.0625 23.828125 
L 39.453125 28.125 
L 39.84375 26.5625 
Q 32.421875 24.609375 24.796875 22.0625 
Q 17.1875 19.53125 12.109375 16.015625 
L 7.421875 23.4375 
Q 11.328125 24.609375 16.984375 31.046875 
Q 22.65625 37.5 28.515625 46.484375 
Q 22.65625 45.3125 17.96875 44.140625 
Q 13.28125 42.96875 8.203125 39.84375 
L 4.6875 47.265625 
Q 9.375 48.4375 15.8125 60.15625 
Q 22.265625 71.875 24.21875 80.078125 
L 32.421875 75 
L 28.90625 72.65625 
Q 17.96875 54.6875 10.15625 47.265625 
L 29.6875 48.4375 
Q 34.765625 56.25 37.5 63.28125 
L 45.3125 57.421875 
L 41.015625 55.859375 
Q 28.515625 37.890625 14.0625 23.828125 
z
M 8.984375 -3.125 
L 5.078125 3.90625 
Q 24.21875 7.421875 42.1875 11.71875 
L 42.578125 10.15625 
Q 35.546875 7.8125 24.40625 3.90625 
Q 13.28125 0 8.984375 -3.125 
z
" id="SimSun-32463"/>
      <path d="M 35.9375 14.453125 
L 42.96875 7.421875 
Q 39.453125 7.03125 29.6875 0.390625 
Q 19.53125 -6.25 8.59375 -10.15625 
L 7.8125 -8.984375 
Q 17.96875 -3.515625 24.609375 2.53125 
Q 31.25 8.59375 35.9375 14.453125 
z
M 58.59375 12.109375 
L 59.375 13.671875 
Q 81.640625 3.90625 83.59375 0.78125 
Q 85.546875 -2.34375 85.546875 -4.6875 
Q 85.546875 -6.640625 84.765625 -8 
Q 83.984375 -9.375 83.59375 -9.375 
Q 81.640625 -9.375 77.34375 -3.515625 
Q 71.484375 4.296875 58.59375 12.109375 
z
M 21.09375 18.75 
L 21.09375 48.4375 
Q 21.09375 56.25 20.703125 65.234375 
L 26.171875 62.5 
L 38.28125 62.5 
L 38.28125 71.875 
Q 38.28125 76.953125 37.890625 81.640625 
L 46.09375 77.34375 
L 43.359375 74.609375 
L 43.359375 62.5 
L 55.078125 62.5 
L 55.078125 71.875 
Q 55.078125 77.34375 54.6875 81.640625 
L 63.28125 77.34375 
L 60.15625 74.21875 
L 60.15625 62.5 
L 71.875 62.5 
L 75.390625 66.40625 
L 81.640625 60.9375 
L 77.734375 58.59375 
L 77.734375 18.75 
L 81.25 18.75 
L 87.109375 24.609375 
L 95.3125 16.40625 
L 18.75 16.40625 
Q 13.671875 16.40625 9.375 15.234375 
L 5.859375 18.75 
z
M 26.171875 60.15625 
L 26.171875 41.796875 
L 38.28125 41.796875 
L 38.28125 60.15625 
z
M 43.359375 60.15625 
L 43.359375 41.796875 
L 55.078125 41.796875 
L 55.078125 60.15625 
z
M 60.15625 60.15625 
L 60.15625 41.796875 
L 72.65625 41.796875 
L 72.65625 60.15625 
z
M 26.171875 39.453125 
L 26.171875 18.75 
L 38.28125 18.75 
L 38.28125 39.453125 
z
M 43.359375 39.453125 
L 43.359375 18.75 
L 55.078125 18.75 
L 55.078125 39.453125 
z
M 60.15625 39.453125 
L 60.15625 18.75 
L 72.65625 18.75 
L 72.65625 39.453125 
z
" id="SimSun-20856"/>
     </defs>
     <g transform="translate(96.8 85.935475)scale(0.14 -0.14)">
      <use xlink:href="#SimSun-32463"/>
      <use x="100" xlink:href="#SimSun-20856"/>
      <use x="200" xlink:href="#SimSun-76"/>
      <use x="250" xlink:href="#SimSun-83"/>
      <use x="300" xlink:href="#SimSun-84"/>
      <use x="350" xlink:href="#SimSun-77"/>
     </g>
    </g>
    <g id="PathCollection_6">
     <g>
      <use style="fill:#ff8c00;stroke:#ff8c00;" x="71.6" xlink:href="#m3a000a0d68" y="101.072975"/>
     </g>
    </g>
    <g id="text_16">
     <!-- MLP -->
     <defs>
      <path d="M 14.84375 32.8125 
L 14.84375 7.03125 
Q 14.84375 5.46875 15.8125 4.6875 
Q 16.796875 3.90625 18.359375 3.90625 
L 21.09375 3.90625 
L 21.09375 1.5625 
L 2.34375 1.5625 
L 2.34375 3.90625 
L 5.078125 3.90625 
Q 7.03125 3.90625 7.8125 4.6875 
Q 8.59375 5.46875 8.59375 7.03125 
L 8.59375 62.890625 
Q 8.59375 64.453125 7.8125 65.234375 
Q 7.03125 66.015625 5.078125 66.015625 
L 2.734375 66.015625 
L 2.734375 68.359375 
L 25.78125 68.359375 
Q 35.546875 68.359375 40.8125 63.46875 
Q 46.09375 58.59375 46.09375 51.171875 
Q 46.09375 42.1875 40.421875 37.5 
Q 34.765625 32.8125 26.953125 32.8125 
z
M 24.609375 35.15625 
Q 30.46875 35.15625 34.953125 38.671875 
Q 39.453125 42.1875 39.453125 50.78125 
Q 39.453125 58.59375 35.734375 62.296875 
Q 32.03125 66.015625 23.828125 66.015625 
L 18.359375 66.015625 
Q 16.796875 66.015625 15.8125 65.234375 
Q 14.84375 64.453125 14.84375 62.890625 
L 14.84375 35.15625 
z
" id="SimSun-80"/>
     </defs>
     <g transform="translate(96.8 104.747975)scale(0.14 -0.14)">
      <use xlink:href="#SimSun-77"/>
      <use x="50" xlink:href="#SimSun-76"/>
      <use x="100" xlink:href="#SimSun-80"/>
     </g>
    </g>
   </g>
  </g>
 </g>
 <defs>
  <clipPath id="p4e474a3912">
   <rect height="313.038" width="288" x="45" y="24.6636"/>
  </clipPath>
 </defs>
</svg>
