<?xml version="1.0" encoding="utf-8" standalone="no"?>
<!DOCTYPE svg PUBLIC "-//W3C//DTD SVG 1.1//EN"
  "http://www.w3.org/Graphics/SVG/1.1/DTD/svg11.dtd">
<!-- Created with matplotlib (https://matplotlib.org/) -->
<svg height="414pt" version="1.1" viewBox="0 0 676.08 414" width="676.08pt" xmlns="http://www.w3.org/2000/svg" xmlns:xlink="http://www.w3.org/1999/xlink">
 <defs>
  <style type="text/css">
*{stroke-linecap:butt;stroke-linejoin:round;}
  </style>
 </defs>
 <g id="figure_1">
  <g id="patch_1">
   <path d="M 0 414 
L 676.08 414 
L 676.08 0 
L 0 0 
z
" style="fill:#ffffff;"/>
  </g>
  <g id="axes_1">
   <g id="patch_2">
    <path d="M 54.0864 376.74 
L 669.3192 376.74 
L 669.3192 4.14 
L 54.0864 4.14 
z
" style="fill:#ffffff;"/>
   </g>
   <g id="matplotlib.axis_1">
    <g id="xtick_1">
     <g id="line2d_1">
      <defs>
       <path d="M 0 0 
L 0 3.5 
" id="m420af09141" style="stroke:#000000;stroke-width:0.8;"/>
      </defs>
      <g>
       <use style="stroke:#000000;stroke-width:0.8;" x="82.051527" xlink:href="#m420af09141" y="376.74"/>
      </g>
     </g>
     <g id="text_1">
      <!-- 0 -->
      <defs>
       <path d="M 25 66.015625 
Q 19.53125 66.015625 15.8125 57.609375 
Q 12.109375 49.21875 12.109375 35.15625 
Q 12.109375 20.3125 15.8125 12.109375 
Q 19.53125 3.90625 25 3.90625 
Q 30.859375 3.90625 34.171875 12.109375 
Q 37.5 20.3125 37.5 35.15625 
Q 37.5 49.21875 34.375 57.609375 
Q 31.25 66.015625 25 66.015625 
z
M 25 0.78125 
Q 16.40625 0.78125 10.546875 9.765625 
Q 4.6875 18.75 4.6875 35.15625 
Q 4.6875 50.390625 10.34375 59.765625 
Q 16.015625 69.140625 25 69.140625 
Q 33.59375 69.140625 39.25 60.15625 
Q 44.921875 51.171875 44.921875 35.15625 
Q 44.921875 19.140625 39.25 9.953125 
Q 33.59375 0.78125 25 0.78125 
z
" id="SimSun-48"/>
      </defs>
      <g transform="translate(79.551527 390.888438)scale(0.1 -0.1)">
       <use xlink:href="#SimSun-48"/>
      </g>
     </g>
    </g>
    <g id="xtick_2">
     <g id="line2d_2">
      <g>
       <use style="stroke:#000000;stroke-width:0.8;" x="162.411088" xlink:href="#m420af09141" y="376.74"/>
      </g>
     </g>
     <g id="text_2">
      <!-- 100 -->
      <defs>
       <path d="M 28.515625 69.53125 
L 28.515625 10.15625 
Q 28.515625 7.03125 30.46875 5.46875 
Q 32.421875 3.90625 35.9375 3.90625 
L 39.84375 3.90625 
L 39.84375 1.5625 
L 11.328125 1.5625 
L 11.328125 3.90625 
L 14.84375 3.90625 
Q 18.75 3.90625 20.5 5.46875 
Q 22.265625 7.03125 22.265625 10.15625 
L 22.265625 57.421875 
Q 22.265625 58.984375 21.28125 59.953125 
Q 20.3125 60.9375 18.359375 60.9375 
L 11.328125 60.9375 
L 11.328125 63.28125 
L 14.84375 63.28125 
Q 19.53125 63.28125 22.453125 64.84375 
Q 25.390625 66.40625 26.953125 69.53125 
z
" id="SimSun-49"/>
      </defs>
      <g transform="translate(154.911088 390.888438)scale(0.1 -0.1)">
       <use xlink:href="#SimSun-49"/>
       <use x="50" xlink:href="#SimSun-48"/>
       <use x="100" xlink:href="#SimSun-48"/>
      </g>
     </g>
    </g>
    <g id="xtick_3">
     <g id="line2d_3">
      <g>
       <use style="stroke:#000000;stroke-width:0.8;" x="242.77065" xlink:href="#m420af09141" y="376.74"/>
      </g>
     </g>
     <g id="text_3">
      <!-- 200 -->
      <defs>
       <path d="M 36.328125 51.953125 
Q 36.328125 58.984375 33.203125 62.6875 
Q 30.078125 66.40625 23.828125 66.40625 
Q 19.140625 66.40625 15.8125 63.859375 
Q 12.5 61.328125 12.5 57.421875 
Q 12.5 55.078125 14.0625 53.515625 
Q 15.234375 51.953125 15.234375 50.390625 
Q 15.234375 48.4375 14.25 47.453125 
Q 13.28125 46.484375 11.328125 46.484375 
Q 8.984375 46.484375 7.609375 47.84375 
Q 6.25 49.21875 6.25 52.34375 
Q 6.25 60.546875 12.109375 64.84375 
Q 17.96875 69.140625 24.609375 69.140625 
Q 33.984375 69.140625 38.46875 64.453125 
Q 42.96875 59.765625 42.96875 52.734375 
Q 42.96875 48.046875 40.8125 43.359375 
Q 38.671875 38.671875 33.984375 34.375 
Q 22.65625 23.4375 16.59375 16.59375 
Q 10.546875 9.765625 9.375 7.421875 
L 32.421875 7.421875 
Q 35.9375 7.421875 38.28125 10.15625 
Q 40.625 12.890625 41.40625 18.359375 
L 43.75 18.359375 
L 41.40625 1.5625 
L 5.078125 1.5625 
L 5.078125 6.640625 
Q 7.03125 10.15625 11.515625 15.625 
Q 16.015625 21.09375 23.4375 28.515625 
Q 30.078125 35.15625 33.203125 41.015625 
Q 36.328125 46.875 36.328125 51.953125 
z
" id="SimSun-50"/>
      </defs>
      <g transform="translate(235.27065 390.888438)scale(0.1 -0.1)">
       <use xlink:href="#SimSun-50"/>
       <use x="50" xlink:href="#SimSun-48"/>
       <use x="100" xlink:href="#SimSun-48"/>
      </g>
     </g>
    </g>
    <g id="xtick_4">
     <g id="line2d_4">
      <g>
       <use style="stroke:#000000;stroke-width:0.8;" x="323.130211" xlink:href="#m420af09141" y="376.74"/>
      </g>
     </g>
     <g id="text_4">
      <!-- 300 -->
      <defs>
       <path d="M 43.75 19.53125 
Q 43.75 12.109375 38.28125 6.4375 
Q 32.8125 0.78125 23.046875 0.78125 
Q 16.015625 0.78125 10.9375 4.6875 
Q 5.859375 8.59375 5.859375 13.671875 
Q 5.859375 16.015625 7.421875 17.765625 
Q 8.984375 19.53125 10.546875 19.53125 
Q 12.890625 19.53125 13.859375 17.765625 
Q 14.84375 16.015625 14.84375 14.84375 
Q 14.84375 12.890625 14.0625 11.71875 
Q 13.28125 10.15625 13.28125 8.984375 
Q 13.28125 6.640625 16.203125 5.078125 
Q 19.140625 3.515625 22.65625 3.515625 
Q 29.6875 3.515625 33.203125 7.609375 
Q 36.71875 11.71875 36.71875 20.3125 
Q 36.71875 27.34375 33 31.640625 
Q 29.296875 35.9375 19.140625 35.9375 
L 19.140625 38.671875 
Q 26.953125 38.671875 30.65625 42.375 
Q 34.375 46.09375 34.375 52.734375 
Q 34.375 58.203125 31.4375 62.296875 
Q 28.515625 66.40625 22.265625 66.40625 
Q 19.53125 66.40625 16.40625 65.03125 
Q 13.28125 63.671875 13.28125 60.546875 
Q 13.28125 57.421875 14.0625 56.640625 
Q 14.84375 55.859375 14.84375 54.6875 
Q 14.84375 52.734375 14.0625 51.5625 
Q 13.28125 50.390625 11.328125 50.390625 
Q 9.765625 50.390625 8.390625 51.5625 
Q 7.03125 52.734375 7.03125 55.859375 
Q 7.03125 61.71875 12.109375 65.421875 
Q 17.1875 69.140625 23.828125 69.140625 
Q 31.640625 69.140625 36.328125 64.25 
Q 41.015625 59.375 41.015625 53.90625 
Q 41.015625 48.046875 38.078125 43.9375 
Q 35.15625 39.84375 28.90625 37.890625 
Q 37.5 34.765625 40.625 29.6875 
Q 43.75 24.609375 43.75 19.53125 
z
" id="SimSun-51"/>
      </defs>
      <g transform="translate(315.630211 390.888438)scale(0.1 -0.1)">
       <use xlink:href="#SimSun-51"/>
       <use x="50" xlink:href="#SimSun-48"/>
       <use x="100" xlink:href="#SimSun-48"/>
      </g>
     </g>
    </g>
    <g id="xtick_5">
     <g id="line2d_5">
      <g>
       <use style="stroke:#000000;stroke-width:0.8;" x="403.489772" xlink:href="#m420af09141" y="376.74"/>
      </g>
     </g>
     <g id="text_5">
      <!-- 400 -->
      <defs>
       <path d="M 35.9375 8.984375 
Q 35.9375 6.25 37.5 5.078125 
Q 39.0625 3.90625 41.796875 3.90625 
L 45.3125 3.90625 
L 45.3125 1.5625 
L 19.53125 1.5625 
L 19.53125 3.90625 
L 23.828125 3.90625 
Q 26.953125 3.90625 28.3125 5.078125 
Q 29.6875 6.25 29.6875 8.984375 
L 29.6875 21.875 
L 3.515625 21.875 
L 3.515625 23.828125 
L 32.03125 69.140625 
L 35.9375 69.140625 
L 35.9375 24.21875 
L 46.484375 24.21875 
L 46.484375 21.875 
L 35.9375 21.875 
z
M 29.296875 59.375 
L 7.03125 24.21875 
L 29.6875 24.21875 
L 29.6875 59.375 
z
" id="SimSun-52"/>
      </defs>
      <g transform="translate(395.989772 390.888438)scale(0.1 -0.1)">
       <use xlink:href="#SimSun-52"/>
       <use x="50" xlink:href="#SimSun-48"/>
       <use x="100" xlink:href="#SimSun-48"/>
      </g>
     </g>
    </g>
    <g id="xtick_6">
     <g id="line2d_6">
      <g>
       <use style="stroke:#000000;stroke-width:0.8;" x="483.849333" xlink:href="#m420af09141" y="376.74"/>
      </g>
     </g>
     <g id="text_6">
      <!-- 500 -->
      <defs>
       <path d="M 26.953125 44.53125 
Q 34.375 44.53125 39.0625 38.859375 
Q 43.75 33.203125 43.75 23.828125 
Q 43.75 13.28125 38.859375 7.03125 
Q 33.984375 0.78125 23.828125 0.78125 
Q 16.796875 0.78125 11.328125 4.875 
Q 5.859375 8.984375 5.859375 14.84375 
Q 5.859375 17.1875 7.21875 18.9375 
Q 8.59375 20.703125 10.9375 20.703125 
Q 13.28125 20.703125 14.0625 19.140625 
Q 14.84375 17.578125 14.84375 16.40625 
Q 14.84375 14.0625 13.671875 12.890625 
Q 12.5 11.328125 12.5 9.765625 
Q 12.5 6.640625 16.203125 5.078125 
Q 19.921875 3.515625 24.21875 3.515625 
Q 30.46875 3.515625 33.78125 8.59375 
Q 37.109375 13.671875 37.109375 23.046875 
Q 37.109375 30.859375 34.171875 35.734375 
Q 31.25 40.625 25.390625 40.625 
Q 21.09375 40.625 17.96875 39.0625 
Q 14.84375 37.5 12.109375 32.421875 
L 8.59375 32.8125 
L 10.546875 68.359375 
L 42.578125 68.359375 
L 41.40625 62.5 
L 13.28125 62.5 
L 11.71875 36.71875 
Q 15.625 42.1875 19.328125 43.359375 
Q 23.046875 44.53125 26.953125 44.53125 
z
" id="SimSun-53"/>
      </defs>
      <g transform="translate(476.349333 390.888438)scale(0.1 -0.1)">
       <use xlink:href="#SimSun-53"/>
       <use x="50" xlink:href="#SimSun-48"/>
       <use x="100" xlink:href="#SimSun-48"/>
      </g>
     </g>
    </g>
    <g id="xtick_7">
     <g id="line2d_7">
      <g>
       <use style="stroke:#000000;stroke-width:0.8;" x="564.208894" xlink:href="#m420af09141" y="376.74"/>
      </g>
     </g>
     <g id="text_7">
      <!-- 600 -->
      <defs>
       <path d="M 12.109375 28.125 
Q 12.109375 16.40625 16.203125 9.953125 
Q 20.3125 3.515625 26.171875 3.515625 
Q 32.03125 3.515625 35.15625 7.8125 
Q 38.28125 12.109375 38.28125 23.828125 
Q 38.28125 31.640625 34.953125 35.9375 
Q 31.640625 40.234375 26.953125 40.234375 
Q 22.65625 40.234375 18.9375 37.6875 
Q 15.234375 35.15625 12.109375 28.125 
z
M 27.34375 44.140625 
Q 36.71875 44.140625 40.8125 37.890625 
Q 44.921875 31.640625 44.921875 23.828125 
Q 44.921875 12.109375 39.25 6.4375 
Q 33.59375 0.78125 26.171875 0.78125 
Q 15.625 0.78125 10.15625 8.78125 
Q 4.6875 16.796875 4.6875 32.03125 
Q 4.6875 50 11.328125 59.5625 
Q 17.96875 69.140625 29.296875 69.140625 
Q 34.765625 69.140625 38.078125 66.015625 
Q 41.40625 62.890625 41.40625 60.546875 
Q 41.40625 58.203125 40.421875 57.03125 
Q 39.453125 55.859375 37.109375 55.859375 
Q 35.15625 55.859375 34.171875 56.828125 
Q 33.203125 57.8125 33.203125 59.765625 
Q 33.203125 60.546875 33.59375 61.328125 
Q 33.59375 62.109375 33.59375 62.890625 
Q 33.59375 64.453125 32.421875 65.421875 
Q 31.25 66.40625 28.125 66.40625 
Q 21.484375 66.40625 16.796875 60.34375 
Q 12.109375 54.296875 12.109375 33.984375 
Q 14.453125 39.0625 18.546875 41.59375 
Q 22.65625 44.140625 27.34375 44.140625 
z
" id="SimSun-54"/>
      </defs>
      <g transform="translate(556.708894 390.888438)scale(0.1 -0.1)">
       <use xlink:href="#SimSun-54"/>
       <use x="50" xlink:href="#SimSun-48"/>
       <use x="100" xlink:href="#SimSun-48"/>
      </g>
     </g>
    </g>
    <g id="xtick_8">
     <g id="line2d_8">
      <g>
       <use style="stroke:#000000;stroke-width:0.8;" x="644.568455" xlink:href="#m420af09141" y="376.74"/>
      </g>
     </g>
     <g id="text_8">
      <!-- 700 -->
      <defs>
       <path d="M 44.140625 65.625 
Q 35.9375 52.34375 31.046875 39.640625 
Q 26.171875 26.953125 26.171875 17.578125 
Q 26.171875 16.015625 26.5625 13.28125 
Q 26.5625 10.15625 26.5625 6.25 
Q 26.5625 3.125 25.578125 1.953125 
Q 24.609375 0.78125 22.265625 0.78125 
Q 20.3125 0.78125 18.9375 2.140625 
Q 17.578125 3.515625 17.578125 7.03125 
Q 17.578125 14.453125 20.890625 25.390625 
Q 24.21875 36.328125 38.671875 62.5 
L 19.140625 62.5 
Q 14.84375 62.5 12.296875 59.765625 
Q 9.765625 57.03125 8.59375 51.5625 
L 6.25 51.953125 
L 8.984375 68.359375 
L 44.140625 68.359375 
z
" id="SimSun-55"/>
      </defs>
      <g transform="translate(637.068455 390.888438)scale(0.1 -0.1)">
       <use xlink:href="#SimSun-55"/>
       <use x="50" xlink:href="#SimSun-48"/>
       <use x="100" xlink:href="#SimSun-48"/>
      </g>
     </g>
    </g>
    <g id="text_9">
     <!-- Epochs -->
     <defs>
      <path d="M 3.125 66.015625 
L 3.125 68.359375 
L 41.40625 68.359375 
L 45.703125 55.078125 
L 43.75 54.296875 
Q 40.625 60.15625 37.109375 63.078125 
Q 33.59375 66.015625 29.296875 66.015625 
L 18.359375 66.015625 
Q 16.796875 66.015625 15.8125 65.234375 
Q 14.84375 64.453125 14.84375 62.890625 
L 14.84375 38.671875 
L 26.171875 38.671875 
Q 30.078125 38.671875 31.828125 40.625 
Q 33.59375 42.578125 33.59375 46.484375 
L 33.59375 48.828125 
L 35.9375 48.828125 
L 35.9375 25.78125 
L 33.59375 25.78125 
L 33.59375 27.34375 
Q 33.59375 31.640625 31.828125 33.984375 
Q 30.078125 36.328125 26.171875 36.328125 
L 14.84375 36.328125 
L 14.84375 7.03125 
Q 14.84375 5.46875 15.8125 4.6875 
Q 16.796875 3.90625 18.359375 3.90625 
L 28.515625 3.90625 
Q 34.375 3.90625 38.46875 7.21875 
Q 42.578125 10.546875 44.921875 17.578125 
L 46.875 16.796875 
L 42.578125 1.5625 
L 2.734375 1.5625 
L 2.734375 3.90625 
L 5.078125 3.90625 
Q 7.03125 3.90625 7.8125 4.6875 
Q 8.59375 5.46875 8.59375 7.03125 
L 8.59375 62.890625 
Q 8.59375 64.453125 7.8125 65.234375 
Q 7.03125 66.015625 5.078125 66.015625 
z
" id="SimSun-69"/>
      <path d="M 17.96875 -10.546875 
L 20.703125 -10.546875 
L 20.703125 -12.890625 
L 2.734375 -12.890625 
L 2.734375 -10.546875 
L 5.078125 -10.546875 
Q 7.03125 -10.546875 7.8125 -9.765625 
Q 8.59375 -8.984375 8.59375 -7.03125 
L 8.59375 39.0625 
Q 8.59375 40.625 7.8125 41.59375 
Q 7.03125 42.578125 5.078125 42.578125 
L 2.734375 42.578125 
L 2.734375 44.921875 
L 6.25 44.921875 
Q 8.203125 44.921875 9.953125 45.3125 
Q 11.71875 45.703125 13.28125 46.875 
L 14.0625 46.875 
L 14.0625 37.890625 
Q 16.796875 41.796875 20.109375 43.75 
Q 23.4375 45.703125 27.34375 45.703125 
Q 35.15625 45.703125 40.234375 40.421875 
Q 45.3125 35.15625 45.3125 23.828125 
Q 45.3125 12.890625 39.84375 7.03125 
Q 34.375 1.171875 26.953125 1.171875 
Q 22.65625 1.171875 19.71875 2.53125 
Q 16.796875 3.90625 14.0625 6.640625 
L 14.0625 -7.03125 
Q 14.0625 -8.984375 15.234375 -9.765625 
Q 16.40625 -10.546875 17.96875 -10.546875 
z
M 14.0625 11.71875 
Q 16.015625 7.8125 18.9375 5.859375 
Q 21.875 3.90625 25.78125 3.90625 
Q 31.25 3.90625 35.15625 8.78125 
Q 39.0625 13.671875 39.0625 23.828125 
Q 39.0625 33.203125 36.125 37.890625 
Q 33.203125 42.578125 27.34375 42.578125 
Q 23.828125 42.578125 20.3125 40.421875 
Q 16.796875 38.28125 14.0625 33.59375 
z
" id="SimSun-112"/>
      <path d="M 45.3125 23.4375 
Q 45.3125 13.671875 39.453125 7.21875 
Q 33.59375 0.78125 25 0.78125 
Q 16.015625 0.78125 10.34375 7.421875 
Q 4.6875 14.0625 4.6875 23.4375 
Q 4.6875 32.03125 10.34375 39.0625 
Q 16.015625 46.09375 25 46.09375 
Q 34.375 46.09375 39.84375 39.0625 
Q 45.3125 32.03125 45.3125 23.4375 
z
M 10.9375 23.046875 
Q 10.9375 12.890625 15.03125 8 
Q 19.140625 3.125 25 3.125 
Q 31.640625 3.125 35.34375 8.390625 
Q 39.0625 13.671875 39.0625 23.046875 
Q 39.0625 33.203125 34.953125 38.46875 
Q 30.859375 43.75 25 43.75 
Q 19.53125 43.75 15.234375 38.46875 
Q 10.9375 33.203125 10.9375 23.046875 
z
" id="SimSun-111"/>
      <path d="M 33.59375 34.765625 
Q 33.59375 35.9375 33.984375 36.328125 
Q 33.984375 36.71875 34.375 37.890625 
Q 34.765625 39.453125 32.8125 41.59375 
Q 30.859375 43.75 26.171875 43.75 
Q 20.3125 43.75 16.203125 38.078125 
Q 12.109375 32.421875 12.109375 23.046875 
Q 12.109375 14.453125 15.625 9.171875 
Q 19.140625 3.90625 27.34375 3.90625 
Q 32.8125 3.90625 36.515625 7.421875 
Q 40.234375 10.9375 41.796875 15.625 
L 43.75 14.84375 
Q 42.1875 8.984375 37.890625 4.875 
Q 33.59375 0.78125 26.171875 0.78125 
Q 16.796875 0.78125 11.328125 6.640625 
Q 5.859375 12.5 5.859375 23.4375 
Q 5.859375 33.203125 11.71875 39.640625 
Q 17.578125 46.09375 26.953125 46.09375 
Q 33.59375 46.09375 37.296875 42.578125 
Q 41.015625 39.0625 41.015625 35.546875 
Q 41.015625 33.203125 40.03125 32.21875 
Q 39.0625 31.25 37.109375 31.25 
Q 35.546875 31.25 34.5625 32.21875 
Q 33.59375 33.203125 33.59375 34.765625 
z
" id="SimSun-99"/>
      <path d="M 3.125 1.5625 
L 3.125 3.90625 
L 5.078125 3.90625 
Q 7.03125 3.90625 7.8125 4.6875 
Q 8.59375 5.46875 8.59375 7.03125 
L 8.59375 62.890625 
Q 8.59375 64.453125 7.8125 65.234375 
Q 7.03125 66.015625 5.078125 66.015625 
L 2.734375 66.015625 
L 2.734375 68.359375 
L 7.03125 68.359375 
Q 8.59375 68.359375 10.15625 69.140625 
Q 11.71875 69.921875 13.28125 71.484375 
L 14.0625 71.484375 
L 14.0625 38.28125 
Q 17.578125 42.578125 21.28125 44.328125 
Q 25 46.09375 29.296875 46.09375 
Q 35.15625 46.09375 38.28125 42.765625 
Q 41.40625 39.453125 41.40625 32.421875 
L 41.40625 7.03125 
Q 41.40625 5.46875 42.375 4.6875 
Q 43.359375 3.90625 44.921875 3.90625 
L 46.875 3.90625 
L 46.875 1.5625 
L 30.46875 1.5625 
L 30.46875 3.90625 
L 32.421875 3.90625 
Q 34.375 3.90625 35.15625 4.6875 
Q 35.9375 5.46875 35.9375 7.03125 
L 35.9375 31.640625 
Q 35.9375 38.28125 33.78125 40.421875 
Q 31.640625 42.578125 28.125 42.578125 
Q 25 42.578125 21.28125 40.625 
Q 17.578125 38.671875 14.0625 33.984375 
L 14.0625 7.03125 
Q 14.0625 5.46875 15.03125 4.6875 
Q 16.015625 3.90625 17.578125 3.90625 
L 19.53125 3.90625 
L 19.53125 1.5625 
z
" id="SimSun-104"/>
      <path d="M 9.765625 33.984375 
Q 9.765625 39.84375 14.25 42.96875 
Q 18.75 46.09375 25 46.09375 
Q 28.515625 46.09375 31.640625 45.3125 
Q 34.765625 44.140625 35.9375 44.140625 
Q 37.109375 44.140625 37.890625 44.53125 
Q 38.671875 44.921875 39.84375 46.09375 
L 41.40625 33.203125 
L 39.0625 32.8125 
Q 37.5 37.890625 33.78125 40.8125 
Q 30.078125 43.75 25.390625 43.75 
Q 20.3125 43.75 17.375 41.796875 
Q 14.453125 39.84375 14.453125 36.328125 
Q 14.453125 33.203125 15.8125 31.4375 
Q 17.1875 29.6875 20.703125 28.90625 
Q 23.4375 27.734375 27.734375 26.5625 
Q 31.640625 25 35.15625 23.4375 
Q 38.28125 21.875 40.421875 19.328125 
Q 42.578125 16.796875 42.578125 13.671875 
Q 42.578125 7.8125 38.46875 4.484375 
Q 34.375 1.171875 26.5625 1.171875 
Q 21.484375 1.171875 19.140625 2.34375 
Q 16.40625 3.125 14.84375 3.125 
Q 13.671875 3.125 12.296875 2.53125 
Q 10.9375 1.953125 9.375 1.171875 
L 8.203125 15.625 
L 10.546875 16.015625 
Q 11.71875 9.765625 15.625 6.640625 
Q 19.53125 3.515625 26.5625 3.515625 
Q 32.03125 3.515625 34.953125 5.46875 
Q 37.890625 7.421875 37.890625 11.328125 
Q 37.890625 14.0625 36.328125 15.8125 
Q 34.765625 17.578125 33.203125 18.359375 
Q 29.296875 19.921875 24.609375 21.875 
Q 19.921875 23.4375 16.40625 25 
Q 12.890625 26.5625 11.328125 28.90625 
Q 9.765625 31.25 9.765625 33.984375 
z
" id="SimSun-115"/>
     </defs>
     <g transform="translate(340.7028 406.185313)scale(0.14 -0.14)">
      <use xlink:href="#SimSun-69"/>
      <use x="50" xlink:href="#SimSun-112"/>
      <use x="100" xlink:href="#SimSun-111"/>
      <use x="150" xlink:href="#SimSun-99"/>
      <use x="200" xlink:href="#SimSun-104"/>
      <use x="250" xlink:href="#SimSun-115"/>
     </g>
    </g>
   </g>
   <g id="matplotlib.axis_2">
    <g id="ytick_1">
     <g id="line2d_9">
      <defs>
       <path d="M 0 0 
L -3.5 0 
" id="m10a29ef098" style="stroke:#000000;stroke-width:0.8;"/>
      </defs>
      <g>
       <use style="stroke:#000000;stroke-width:0.8;" x="54.0864" xlink:href="#m10a29ef098" y="353.064827"/>
      </g>
     </g>
     <g id="text_10">
      <!-- 0.0025 -->
      <defs>
       <path d="M 12.5 0.390625 
Q 10.15625 0.390625 8.390625 1.953125 
Q 6.640625 3.515625 6.640625 6.25 
Q 6.640625 8.984375 8.390625 10.546875 
Q 10.15625 12.109375 12.5 12.109375 
Q 14.84375 12.109375 16.59375 10.34375 
Q 18.359375 8.59375 18.359375 6.25 
Q 18.359375 3.515625 16.59375 1.953125 
Q 14.84375 0.390625 12.5 0.390625 
z
" id="SimSun-46"/>
      </defs>
      <g transform="translate(17.0864 356.639046)scale(0.1 -0.1)">
       <use xlink:href="#SimSun-48"/>
       <use x="50" xlink:href="#SimSun-46"/>
       <use x="100" xlink:href="#SimSun-48"/>
       <use x="150" xlink:href="#SimSun-48"/>
       <use x="200" xlink:href="#SimSun-50"/>
       <use x="250" xlink:href="#SimSun-53"/>
      </g>
     </g>
    </g>
    <g id="ytick_2">
     <g id="line2d_10">
      <g>
       <use style="stroke:#000000;stroke-width:0.8;" x="54.0864" xlink:href="#m10a29ef098" y="310.377154"/>
      </g>
     </g>
     <g id="text_11">
      <!-- 0.0050 -->
      <g transform="translate(17.0864 313.951372)scale(0.1 -0.1)">
       <use xlink:href="#SimSun-48"/>
       <use x="50" xlink:href="#SimSun-46"/>
       <use x="100" xlink:href="#SimSun-48"/>
       <use x="150" xlink:href="#SimSun-48"/>
       <use x="200" xlink:href="#SimSun-53"/>
       <use x="250" xlink:href="#SimSun-48"/>
      </g>
     </g>
    </g>
    <g id="ytick_3">
     <g id="line2d_11">
      <g>
       <use style="stroke:#000000;stroke-width:0.8;" x="54.0864" xlink:href="#m10a29ef098" y="267.68948"/>
      </g>
     </g>
     <g id="text_12">
      <!-- 0.0075 -->
      <g transform="translate(17.0864 271.263699)scale(0.1 -0.1)">
       <use xlink:href="#SimSun-48"/>
       <use x="50" xlink:href="#SimSun-46"/>
       <use x="100" xlink:href="#SimSun-48"/>
       <use x="150" xlink:href="#SimSun-48"/>
       <use x="200" xlink:href="#SimSun-55"/>
       <use x="250" xlink:href="#SimSun-53"/>
      </g>
     </g>
    </g>
    <g id="ytick_4">
     <g id="line2d_12">
      <g>
       <use style="stroke:#000000;stroke-width:0.8;" x="54.0864" xlink:href="#m10a29ef098" y="225.001806"/>
      </g>
     </g>
     <g id="text_13">
      <!-- 0.0100 -->
      <g transform="translate(17.0864 228.576025)scale(0.1 -0.1)">
       <use xlink:href="#SimSun-48"/>
       <use x="50" xlink:href="#SimSun-46"/>
       <use x="100" xlink:href="#SimSun-48"/>
       <use x="150" xlink:href="#SimSun-49"/>
       <use x="200" xlink:href="#SimSun-48"/>
       <use x="250" xlink:href="#SimSun-48"/>
      </g>
     </g>
    </g>
    <g id="ytick_5">
     <g id="line2d_13">
      <g>
       <use style="stroke:#000000;stroke-width:0.8;" x="54.0864" xlink:href="#m10a29ef098" y="182.314132"/>
      </g>
     </g>
     <g id="text_14">
      <!-- 0.0125 -->
      <g transform="translate(17.0864 185.888351)scale(0.1 -0.1)">
       <use xlink:href="#SimSun-48"/>
       <use x="50" xlink:href="#SimSun-46"/>
       <use x="100" xlink:href="#SimSun-48"/>
       <use x="150" xlink:href="#SimSun-49"/>
       <use x="200" xlink:href="#SimSun-50"/>
       <use x="250" xlink:href="#SimSun-53"/>
      </g>
     </g>
    </g>
    <g id="ytick_6">
     <g id="line2d_14">
      <g>
       <use style="stroke:#000000;stroke-width:0.8;" x="54.0864" xlink:href="#m10a29ef098" y="139.626459"/>
      </g>
     </g>
     <g id="text_15">
      <!-- 0.0150 -->
      <g transform="translate(17.0864 143.200677)scale(0.1 -0.1)">
       <use xlink:href="#SimSun-48"/>
       <use x="50" xlink:href="#SimSun-46"/>
       <use x="100" xlink:href="#SimSun-48"/>
       <use x="150" xlink:href="#SimSun-49"/>
       <use x="200" xlink:href="#SimSun-53"/>
       <use x="250" xlink:href="#SimSun-48"/>
      </g>
     </g>
    </g>
    <g id="ytick_7">
     <g id="line2d_15">
      <g>
       <use style="stroke:#000000;stroke-width:0.8;" x="54.0864" xlink:href="#m10a29ef098" y="96.938785"/>
      </g>
     </g>
     <g id="text_16">
      <!-- 0.0175 -->
      <g transform="translate(17.0864 100.513004)scale(0.1 -0.1)">
       <use xlink:href="#SimSun-48"/>
       <use x="50" xlink:href="#SimSun-46"/>
       <use x="100" xlink:href="#SimSun-48"/>
       <use x="150" xlink:href="#SimSun-49"/>
       <use x="200" xlink:href="#SimSun-55"/>
       <use x="250" xlink:href="#SimSun-53"/>
      </g>
     </g>
    </g>
    <g id="ytick_8">
     <g id="line2d_16">
      <g>
       <use style="stroke:#000000;stroke-width:0.8;" x="54.0864" xlink:href="#m10a29ef098" y="54.251111"/>
      </g>
     </g>
     <g id="text_17">
      <!-- 0.0200 -->
      <g transform="translate(17.0864 57.82533)scale(0.1 -0.1)">
       <use xlink:href="#SimSun-48"/>
       <use x="50" xlink:href="#SimSun-46"/>
       <use x="100" xlink:href="#SimSun-48"/>
       <use x="150" xlink:href="#SimSun-50"/>
       <use x="200" xlink:href="#SimSun-48"/>
       <use x="250" xlink:href="#SimSun-48"/>
      </g>
     </g>
    </g>
    <g id="ytick_9">
     <g id="line2d_17">
      <g>
       <use style="stroke:#000000;stroke-width:0.8;" x="54.0864" xlink:href="#m10a29ef098" y="11.563437"/>
      </g>
     </g>
     <g id="text_18">
      <!-- 0.0225 -->
      <g transform="translate(17.0864 15.137656)scale(0.1 -0.1)">
       <use xlink:href="#SimSun-48"/>
       <use x="50" xlink:href="#SimSun-46"/>
       <use x="100" xlink:href="#SimSun-48"/>
       <use x="150" xlink:href="#SimSun-50"/>
       <use x="200" xlink:href="#SimSun-50"/>
       <use x="250" xlink:href="#SimSun-53"/>
      </g>
     </g>
    </g>
    <g id="text_19">
     <!-- Loss -->
     <defs>
      <path d="M 15.625 7.03125 
Q 15.625 5.46875 16.59375 4.6875 
Q 17.578125 3.90625 19.140625 3.90625 
L 29.6875 3.90625 
Q 35.15625 3.90625 39.0625 7.21875 
Q 42.96875 10.546875 44.921875 17.578125 
L 46.875 16.796875 
L 43.359375 1.5625 
L 3.125 1.5625 
L 3.125 3.90625 
L 5.859375 3.90625 
Q 7.8125 3.90625 8.59375 4.6875 
Q 9.375 5.46875 9.375 7.03125 
L 9.375 62.890625 
Q 9.375 64.453125 8.59375 65.234375 
Q 7.8125 66.015625 5.859375 66.015625 
L 3.515625 66.015625 
L 3.515625 68.359375 
L 21.875 68.359375 
L 21.875 66.015625 
L 19.140625 66.015625 
Q 17.578125 66.015625 16.59375 65.234375 
Q 15.625 64.453125 15.625 62.890625 
z
" id="SimSun-76"/>
     </defs>
     <g transform="translate(11.281712 204.44)rotate(-90)scale(0.14 -0.14)">
      <use xlink:href="#SimSun-76"/>
      <use x="50" xlink:href="#SimSun-111"/>
      <use x="100" xlink:href="#SimSun-115"/>
      <use x="150" xlink:href="#SimSun-115"/>
     </g>
    </g>
   </g>
   <g id="line2d_18">
    <path clip-path="url(#pa95584ea63)" d="M 82.051527 21.076364 
L 82.855123 162.706934 
L 83.658718 206.945178 
L 84.462314 226.174151 
L 85.26591 238.915279 
L 86.069505 248.327383 
L 86.873101 253.896371 
L 87.676697 256.849081 
L 88.480292 259.132999 
L 90.087483 264.354996 
L 90.891079 265.870956 
L 91.694675 268.436466 
L 92.49827 269.43485 
L 93.301866 270.650302 
L 94.909057 273.633942 
L 95.712653 274.332463 
L 96.516248 276.14641 
L 97.319844 276.740953 
L 98.123439 277.488262 
L 99.730631 280.237842 
L 100.534226 280.774127 
L 101.337822 281.138753 
L 102.141418 283.351134 
L 102.945013 283.544571 
L 103.748609 285.585238 
L 104.552204 285.548893 
L 105.3558 286.650293 
L 106.159396 286.728811 
L 106.962991 287.333929 
L 107.766587 288.898081 
L 108.570182 289.881422 
L 109.373778 290.103022 
L 110.177374 289.710503 
L 110.980969 291.058605 
L 111.784565 291.484662 
L 112.588161 292.267982 
L 113.391756 292.451496 
L 114.195352 294.343269 
L 114.998947 294.944594 
L 115.802543 296.261694 
L 116.606139 296.311111 
L 118.21333 297.063199 
L 119.016925 296.518518 
L 119.820521 296.440978 
L 120.624117 298.208108 
L 121.427712 297.024493 
L 122.231308 299.702615 
L 123.034903 298.500617 
L 123.838499 300.250946 
L 124.642095 300.1914 
L 125.44569 301.334042 
L 126.249286 301.33254 
L 127.052882 301.09654 
L 127.856477 303.030629 
L 128.660073 302.929872 
L 129.463668 303.021788 
L 130.267264 304.265705 
L 131.07086 304.107707 
L 131.874455 304.51981 
L 132.678051 303.91761 
L 133.481646 304.942392 
L 134.285242 305.475583 
L 135.088838 305.439485 
L 135.892433 305.959724 
L 136.696029 305.682084 
L 137.499624 305.814813 
L 138.30322 305.417047 
L 139.106816 307.305361 
L 139.910411 308.646752 
L 140.714007 308.337283 
L 141.517603 307.142051 
L 142.321198 307.917834 
L 143.124794 309.18256 
L 143.928389 309.058155 
L 144.731985 310.190946 
L 145.535581 310.443715 
L 146.339176 310.123902 
L 147.142772 310.557226 
L 147.946367 310.414121 
L 148.749963 311.32897 
L 149.553559 310.888513 
L 150.357154 312.234492 
L 151.16075 312.353943 
L 151.964345 313.39481 
L 152.767941 313.961826 
L 153.571537 311.929317 
L 154.375132 313.171588 
L 155.178728 313.511924 
L 155.982324 313.3678 
L 157.589515 314.332066 
L 158.39311 313.088061 
L 159.196706 313.939984 
L 160.000302 315.677313 
L 160.803897 315.193507 
L 161.607493 316.532894 
L 162.411088 316.531407 
L 163.214684 315.489435 
L 164.01828 316.081385 
L 164.821875 316.386998 
L 165.625471 317.338064 
L 166.429066 317.718816 
L 167.232662 314.391954 
L 168.036258 315.725386 
L 168.839853 318.038899 
L 169.643449 317.27191 
L 170.447045 317.415096 
L 172.054236 319.022343 
L 172.857831 319.046936 
L 173.661427 319.236365 
L 174.465023 319.036321 
L 176.072214 319.45333 
L 176.875809 318.072254 
L 177.679405 318.849548 
L 178.483001 319.959487 
L 179.286596 319.759387 
L 180.090192 321.440788 
L 180.893787 320.739921 
L 181.697383 320.921694 
L 182.500979 320.449599 
L 183.304574 321.168157 
L 184.10817 320.954556 
L 184.911766 321.723397 
L 185.715361 321.364361 
L 186.518957 321.34263 
L 187.322552 320.236062 
L 188.126148 322.127564 
L 188.929744 321.102385 
L 189.733339 322.584194 
L 190.536935 322.564531 
L 191.34053 322.346525 
L 192.144126 322.713703 
L 192.947722 322.040785 
L 194.554913 322.378226 
L 195.358508 322.972363 
L 196.162104 323.24963 
L 196.9657 323.763198 
L 197.769295 323.614971 
L 198.572891 322.473823 
L 199.376487 323.496936 
L 200.180082 323.906613 
L 200.983678 325.005628 
L 201.787273 324.064588 
L 202.590869 325.244578 
L 203.394465 324.654607 
L 204.19806 325.121739 
L 205.001656 325.109717 
L 205.805251 325.46974 
L 206.608847 325.594176 
L 207.412443 324.439654 
L 208.216038 326.309943 
L 209.019634 324.067816 
L 209.823229 326.071773 
L 210.626825 323.825901 
L 211.430421 325.934567 
L 212.234016 326.09693 
L 213.037612 326.420957 
L 213.841208 327.204437 
L 214.644803 326.524983 
L 215.448399 327.304606 
L 216.251994 326.162376 
L 217.05559 326.740619 
L 217.859186 327.154702 
L 218.662781 326.763288 
L 219.466377 326.897131 
L 221.073568 328.968712 
L 221.877164 327.750135 
L 223.484355 327.026298 
L 224.28795 326.705936 
L 226.698737 327.486863 
L 227.502333 328.413186 
L 228.305929 328.353655 
L 229.109524 329.819053 
L 229.91312 328.94276 
L 230.716715 329.116974 
L 231.520311 329.12058 
L 232.323907 327.830061 
L 233.127502 329.328858 
L 233.931098 329.314852 
L 234.734693 329.446178 
L 235.538289 329.873726 
L 236.341885 328.572607 
L 237.14548 330.5844 
L 237.949076 331.024101 
L 238.752671 329.666724 
L 239.556267 329.884698 
L 241.163458 331.498295 
L 241.967054 331.039391 
L 242.77065 330.032436 
L 243.574245 331.160027 
L 244.377841 331.842057 
L 245.181436 328.690047 
L 245.985032 331.634399 
L 246.788628 330.992519 
L 247.592223 330.643915 
L 248.395819 329.969112 
L 249.199414 329.942293 
L 250.00301 332.092373 
L 250.806606 330.602004 
L 251.610201 332.209045 
L 252.413797 331.703487 
L 253.217392 332.287507 
L 254.020988 331.73763 
L 254.824584 332.450618 
L 255.628179 333.592784 
L 256.431775 333.157865 
L 257.235371 332.300873 
L 258.038966 333.254317 
L 258.842562 333.550161 
L 259.646157 332.130972 
L 260.449753 332.103174 
L 261.253349 333.594875 
L 262.056944 332.94564 
L 262.86054 333.187551 
L 263.664135 334.300949 
L 264.467731 334.083635 
L 265.271327 333.733643 
L 266.074922 333.624537 
L 266.878518 333.364056 
L 267.682113 333.263191 
L 268.485709 334.839874 
L 269.289305 333.499385 
L 270.0929 333.53998 
L 270.896496 334.328854 
L 271.700092 334.224717 
L 272.503687 334.868538 
L 273.307283 334.665261 
L 274.110878 335.30709 
L 274.914474 335.124789 
L 275.71807 334.375941 
L 276.521665 335.060706 
L 277.325261 334.959472 
L 278.128856 334.356302 
L 279.736048 336.577226 
L 280.539643 336.190246 
L 281.343239 336.058061 
L 282.146834 335.516151 
L 282.95043 335.15271 
L 283.754026 336.759476 
L 284.557621 335.325716 
L 285.361217 335.600414 
L 286.164813 336.596941 
L 286.968408 336.515104 
L 287.772004 337.450292 
L 288.575599 336.913065 
L 289.379195 337.310963 
L 290.182791 336.946878 
L 290.986386 336.384052 
L 291.789982 337.169221 
L 292.593577 336.509081 
L 293.397173 335.653563 
L 294.200769 336.926312 
L 295.004364 337.415104 
L 295.80796 336.730975 
L 296.611555 337.457174 
L 297.415151 337.755638 
L 298.218747 337.046832 
L 299.825938 338.987509 
L 300.629534 337.080183 
L 301.433129 337.78204 
L 302.236725 335.971186 
L 303.04032 338.327039 
L 303.843916 338.279614 
L 304.647512 338.977654 
L 305.451107 338.134771 
L 306.254703 338.639342 
L 307.058298 338.112535 
L 307.861894 337.224025 
L 308.66549 339.633258 
L 309.469085 339.457238 
L 310.272681 338.400226 
L 311.076276 339.375432 
L 311.879872 338.847242 
L 312.683468 335.291291 
L 313.487063 338.536068 
L 315.094255 339.494287 
L 315.89785 338.103578 
L 316.701446 338.727461 
L 317.505041 339.518538 
L 318.308637 338.209564 
L 319.112233 339.083683 
L 319.915828 338.431307 
L 320.719424 339.753738 
L 321.523019 339.754188 
L 322.326615 338.5967 
L 323.933806 339.781401 
L 324.737402 340.154992 
L 325.540997 339.071434 
L 326.344593 341.03513 
L 327.148189 341.157427 
L 327.951784 340.476065 
L 328.75538 341.223219 
L 329.558976 339.984892 
L 330.362571 339.611571 
L 331.166167 339.768062 
L 332.773358 339.631823 
L 334.380549 341.987659 
L 335.184145 339.993523 
L 335.98774 341.149663 
L 336.791336 339.042456 
L 337.594932 341.429219 
L 338.398527 341.189439 
L 340.005718 341.338702 
L 340.809314 342.316139 
L 341.61291 342.681978 
L 342.416505 342.579873 
L 343.220101 340.598132 
L 344.023697 339.053595 
L 344.827292 341.115596 
L 345.630888 341.056522 
L 346.434483 342.650499 
L 347.238079 342.538972 
L 348.041675 343.044751 
L 348.84527 340.179974 
L 349.648866 342.174727 
L 350.452461 340.812607 
L 351.256057 342.757498 
L 352.059653 343.089171 
L 352.863248 340.983248 
L 353.666844 343.832942 
L 354.470439 343.362342 
L 355.274035 340.906849 
L 356.077631 342.793537 
L 356.881226 339.409889 
L 357.684822 343.369876 
L 358.488418 340.53187 
L 359.292013 340.769599 
L 360.095609 344.117857 
L 360.899204 341.92661 
L 361.7028 342.771819 
L 362.506396 343.167884 
L 363.309991 342.479306 
L 364.113587 344.981671 
L 364.917182 343.793496 
L 365.720778 344.52076 
L 366.524374 343.372043 
L 367.327969 344.387792 
L 368.131565 343.45856 
L 368.935161 342.901487 
L 369.738756 344.396125 
L 370.542352 344.180032 
L 371.345947 344.820461 
L 372.149543 345.137694 
L 372.953139 344.574288 
L 373.756734 344.569227 
L 375.363925 343.381552 
L 376.167521 343.934006 
L 376.971117 345.287677 
L 377.774712 342.64153 
L 378.578308 342.948458 
L 379.381903 343.528645 
L 380.185499 342.751289 
L 380.989095 345.126097 
L 381.79269 344.212202 
L 382.596286 344.529944 
L 383.399882 344.610923 
L 384.203477 345.589477 
L 385.007073 346.236903 
L 385.810668 345.5493 
L 386.614264 340.863976 
L 387.41786 344.620731 
L 388.221455 345.959251 
L 389.025051 343.598715 
L 389.828646 345.135519 
L 390.632242 345.898298 
L 391.435838 344.483402 
L 392.239433 345.367897 
L 393.043029 345.534097 
L 393.846624 343.953168 
L 394.65022 345.206436 
L 395.453816 343.849679 
L 396.257411 343.585954 
L 397.061007 345.72592 
L 397.864603 345.76139 
L 398.668198 345.069898 
L 399.471794 345.566474 
L 400.275389 346.937615 
L 401.078985 345.582464 
L 401.882581 344.82904 
L 402.686176 345.159019 
L 403.489772 347.605162 
L 404.293367 345.967493 
L 405.096963 343.819007 
L 405.900559 343.926643 
L 406.704154 347.178914 
L 407.50775 347.192498 
L 408.311345 345.475854 
L 409.918537 346.919263 
L 410.722132 347.082625 
L 411.525728 345.781232 
L 412.329324 346.966943 
L 413.132919 347.47116 
L 413.936515 346.450799 
L 414.74011 345.735672 
L 415.543706 346.868069 
L 416.347302 346.081871 
L 417.150897 346.784769 
L 417.954493 346.634773 
L 418.758088 348.398107 
L 419.561684 343.237985 
L 420.36528 348.469377 
L 421.168875 346.231393 
L 421.972471 348.326788 
L 422.776066 348.047499 
L 423.579662 346.917244 
L 424.383258 346.708477 
L 425.186853 347.633981 
L 425.990449 347.722 
L 426.794045 348.78508 
L 427.59764 347.336566 
L 428.401236 348.875799 
L 430.008427 347.277035 
L 430.812023 347.682988 
L 431.615618 348.346607 
L 432.419214 348.403108 
L 433.222809 347.841547 
L 434.026405 347.4633 
L 434.830001 348.937814 
L 435.633596 347.459245 
L 436.437192 348.214883 
L 437.240787 348.671457 
L 438.044383 347.968754 
L 438.847979 348.495266 
L 439.651574 347.859588 
L 440.45517 347.829847 
L 441.258766 349.504878 
L 442.865957 345.507476 
L 443.669552 349.161128 
L 444.473148 348.593448 
L 445.276744 350.060535 
L 446.080339 347.878997 
L 446.883935 350.191619 
L 447.68753 349.639364 
L 448.491126 348.443262 
L 449.294722 350.144122 
L 450.098317 350.418669 
L 450.901913 348.462356 
L 451.705508 348.945781 
L 452.509104 349.157613 
L 453.3127 350.389258 
L 454.116295 350.085963 
L 454.919891 347.464489 
L 455.723487 349.27289 
L 456.527082 348.257275 
L 457.330678 347.86214 
L 458.134273 349.413133 
L 459.741465 350.195002 
L 460.54506 350.562244 
L 461.348656 347.963578 
L 462.152251 350.666977 
L 462.955847 347.964572 
L 463.759443 349.759575 
L 464.563038 346.906402 
L 465.366634 349.953258 
L 466.170229 348.864186 
L 466.973825 349.733026 
L 467.777421 350.357175 
L 468.581016 350.7206 
L 469.384612 349.795498 
L 470.188208 351.192786 
L 470.991803 349.989285 
L 471.795399 348.143156 
L 472.598994 351.226623 
L 473.40259 351.379258 
L 474.206186 352.352516 
L 475.009781 350.705847 
L 475.813377 351.76831 
L 476.616972 349.412183 
L 477.420568 350.318508 
L 478.224164 350.68874 
L 479.027759 350.661861 
L 479.831355 350.511782 
L 480.63495 351.900224 
L 481.438546 351.402086 
L 482.242142 350.007008 
L 483.045737 352.16872 
L 483.849333 351.006386 
L 484.652929 347.869781 
L 485.456524 351.831816 
L 486.26012 351.711888 
L 487.063715 351.822326 
L 487.867311 352.059896 
L 488.670907 349.022033 
L 489.474502 350.192132 
L 490.278098 348.22159 
L 491.081693 350.677696 
L 491.885289 351.745275 
L 492.688885 350.456068 
L 493.49248 350.11935 
L 495.099671 352.067863 
L 495.903267 351.944027 
L 496.706863 350.946999 
L 497.510458 350.747833 
L 498.314054 352.864891 
L 499.11765 352.866871 
L 499.921245 353.56082 
L 500.724841 352.552386 
L 501.528436 349.287015 
L 502.332032 351.867708 
L 503.135628 353.318289 
L 503.939223 353.52339 
L 504.742819 350.925053 
L 505.546414 352.98216 
L 506.35001 352.981627 
L 507.153606 348.472995 
L 507.957201 351.38928 
L 509.564392 352.653783 
L 510.367988 351.485708 
L 511.171584 353.64362 
L 511.975179 353.358267 
L 512.778775 350.896672 
L 514.385966 352.76318 
L 515.189562 346.118005 
L 515.993157 353.761353 
L 517.600349 352.129366 
L 518.403944 352.49992 
L 519.20754 349.278253 
L 520.011135 352.955006 
L 520.814731 353.29983 
L 521.618327 354.232498 
L 522.421922 351.043542 
L 523.225518 353.361014 
L 524.029113 352.672361 
L 524.832709 353.017101 
L 525.636305 354.172796 
L 526.4399 354.063018 
L 527.243496 353.57196 
L 528.047092 352.483918 
L 528.850687 352.202199 
L 529.654283 353.975686 
L 530.457878 352.841086 
L 532.06507 354.535295 
L 532.868665 354.254284 
L 533.672261 352.775814 
L 534.475856 353.549311 
L 535.279452 353.720619 
L 536.083048 355.084866 
L 536.886643 354.494744 
L 537.690239 353.750246 
L 538.493834 351.924054 
L 539.29743 353.85604 
L 540.101026 354.340793 
L 540.904621 353.800453 
L 541.708217 353.058948 
L 542.511813 353.564013 
L 543.315408 352.700409 
L 544.119004 354.743442 
L 544.922599 354.380124 
L 545.726195 355.299863 
L 546.529791 354.361148 
L 547.333386 355.559708 
L 548.940577 354.991797 
L 550.547769 353.765186 
L 551.351364 354.010997 
L 552.15496 355.752823 
L 552.958555 354.159768 
L 553.762151 354.523388 
L 554.565747 355.63947 
L 555.369342 354.281107 
L 556.172938 354.16329 
L 556.976534 354.727583 
L 557.780129 354.871643 
L 558.583725 355.29473 
L 559.38732 353.029787 
L 560.190916 352.944006 
L 560.994512 356.37657 
L 561.798107 355.150106 
L 562.601703 352.894104 
L 563.405298 354.93887 
L 564.208894 355.114969 
L 565.01249 353.571463 
L 565.816085 354.087023 
L 566.619681 355.714752 
L 567.423276 353.753188 
L 568.226872 355.092615 
L 569.030468 352.888447 
L 569.834063 356.58257 
L 570.637659 354.841961 
L 571.441255 354.710504 
L 572.24485 355.413116 
L 573.048446 355.799739 
L 573.852041 355.04356 
L 574.655637 356.676207 
L 575.459233 354.693588 
L 576.262828 355.795874 
L 577.066424 356.326788 
L 577.870019 355.627726 
L 578.673615 355.619843 
L 579.477211 355.833094 
L 580.280806 356.343565 
L 581.084402 357.387752 
L 581.887997 355.339289 
L 582.691593 355.363218 
L 583.495189 355.875816 
L 584.298784 357.261523 
L 585.10238 356.191013 
L 585.905976 352.187263 
L 586.709571 356.665076 
L 587.513167 356.150438 
L 588.316762 356.937305 
L 589.120358 353.41971 
L 589.923954 355.733561 
L 590.727549 356.91945 
L 591.531145 355.277424 
L 592.33474 357.008667 
L 593.138336 357.05472 
L 593.941932 357.389867 
L 594.745527 356.575974 
L 595.549123 356.560891 
L 596.352718 356.974942 
L 597.156314 358.242414 
L 597.95991 355.021312 
L 598.763505 357.529558 
L 599.567101 356.573764 
L 600.370697 357.56593 
L 601.174292 357.783125 
L 601.977888 355.736785 
L 602.781483 357.237303 
L 603.585079 357.306503 
L 604.388675 355.413807 
L 605.19227 356.53328 
L 605.995866 356.342853 
L 606.799461 357.283389 
L 607.603057 355.875068 
L 608.406653 357.336328 
L 609.210248 351.760446 
L 610.013844 354.042794 
L 610.817439 357.975843 
L 611.621035 354.87509 
L 612.424631 357.867674 
L 613.228226 358.821683 
L 614.031822 357.483429 
L 614.835418 357.992552 
L 615.639013 357.675255 
L 616.442609 357.680909 
L 617.246204 356.242783 
L 618.0498 356.955266 
L 618.853396 357.217266 
L 619.656991 358.167856 
L 620.460587 358.489681 
L 621.264182 357.607535 
L 622.067778 358.387019 
L 622.871374 358.706896 
L 623.674969 354.540746 
L 624.478565 359.332456 
L 625.282161 357.569771 
L 626.085756 356.925235 
L 626.889352 355.822078 
L 627.692947 357.533875 
L 628.496543 354.911562 
L 629.300139 358.392509 
L 630.103734 357.444798 
L 630.90733 359.679355 
L 631.710925 359.089742 
L 632.514521 359.184504 
L 633.318117 357.862602 
L 634.121712 357.861807 
L 634.925308 358.441338 
L 635.728903 356.179766 
L 636.532499 357.83383 
L 637.336095 359.143906 
L 638.13969 356.935198 
L 638.943286 358.963075 
L 639.746882 358.779351 
L 640.550477 359.535689 
L 641.354073 359.803636 
L 641.354073 359.803636 
" style="fill:none;stroke:#008000;stroke-dasharray:6.4,1.6,1,1.6;stroke-dashoffset:0;"/>
   </g>
   <g id="line2d_19">
    <path clip-path="url(#pa95584ea63)" d="M 82.051527 64.661592 
L 82.855123 109.975029 
L 83.658718 134.486523 
L 84.462314 142.015307 
L 85.26591 154.415869 
L 86.069505 148.750131 
L 86.873101 158.683468 
L 87.676697 163.396367 
L 88.480292 164.262968 
L 89.283888 167.213944 
L 90.087483 162.303935 
L 90.891079 170.08078 
L 91.694675 158.694823 
L 92.49827 172.969387 
L 93.301866 173.100964 
L 94.105461 174.547891 
L 94.909057 173.187568 
L 95.712653 175.382624 
L 96.516248 172.511971 
L 97.319844 176.943047 
L 98.123439 171.088547 
L 98.927035 169.502903 
L 99.730631 161.756448 
L 100.534226 178.31509 
L 101.337822 181.504093 
L 102.141418 179.076035 
L 102.945013 169.674458 
L 103.748609 181.190704 
L 104.552204 184.607525 
L 105.3558 185.048038 
L 106.159396 184.950492 
L 106.962991 185.42731 
L 107.766587 186.59841 
L 108.570182 184.74031 
L 109.373778 185.236433 
L 110.177374 188.238536 
L 110.980969 187.975494 
L 111.784565 186.171622 
L 112.588161 189.305316 
L 113.391756 186.459741 
L 114.195352 190.365784 
L 114.998947 187.150828 
L 115.802543 191.134044 
L 116.606139 183.268957 
L 117.409734 191.090313 
L 118.21333 181.693777 
L 119.016925 185.599056 
L 119.820521 192.679026 
L 120.624117 192.436848 
L 121.427712 193.615788 
L 122.231308 191.646181 
L 123.034903 185.863847 
L 123.838499 194.578488 
L 124.642095 194.679118 
L 125.44569 194.208836 
L 126.249286 194.922965 
L 127.052882 192.275041 
L 127.856477 195.073132 
L 128.660073 191.509484 
L 129.463668 195.299757 
L 130.267264 195.923703 
L 131.07086 196.784516 
L 131.874455 191.737683 
L 132.678051 196.168171 
L 133.481646 197.382112 
L 134.285242 197.669325 
L 135.088838 197.260395 
L 135.892433 176.387512 
L 136.696029 198.378318 
L 138.30322 192.726272 
L 139.106816 195.608534 
L 139.910411 197.798946 
L 140.714007 195.115766 
L 141.517603 196.838839 
L 142.321198 199.298542 
L 143.124794 199.511173 
L 143.928389 192.760446 
L 144.731985 195.124608 
L 145.535581 196.049873 
L 146.339176 192.563431 
L 147.142772 200.54265 
L 147.946367 200.458876 
L 148.749963 191.575574 
L 149.553559 201.027991 
L 150.357154 194.576039 
L 151.16075 201.397309 
L 151.964345 201.000448 
L 152.767941 195.768035 
L 153.571537 201.763891 
L 154.375132 201.684554 
L 155.178728 202.162882 
L 155.982324 187.861983 
L 156.785919 196.692982 
L 157.589515 202.141477 
L 158.39311 200.577747 
L 159.196706 200.563371 
L 160.000302 198.527403 
L 160.803897 202.509522 
L 161.607493 202.815325 
L 162.411088 196.653751 
L 163.214684 193.689544 
L 164.01828 188.414114 
L 164.821875 202.644597 
L 165.625471 198.481858 
L 166.429066 201.685444 
L 167.232662 188.941008 
L 168.036258 201.687289 
L 168.839853 199.995926 
L 169.643449 196.604103 
L 170.447045 198.289805 
L 171.25064 201.813252 
L 172.054236 201.085685 
L 172.857831 203.024569 
L 173.661427 204.145752 
L 174.465023 194.593993 
L 175.268618 199.637517 
L 176.072214 192.968736 
L 176.875809 195.448428 
L 177.679405 200.0419 
L 178.483001 200.69525 
L 179.286596 203.866076 
L 180.090192 204.180705 
L 180.893787 200.966274 
L 181.697383 204.70197 
L 182.500979 204.619325 
L 183.304574 204.336851 
L 184.10817 195.86884 
L 184.911766 202.424953 
L 185.715361 202.778034 
L 186.518957 203.431782 
L 187.322552 202.751096 
L 188.126148 203.456399 
L 188.929744 200.990764 
L 189.733339 204.797384 
L 190.536935 201.589998 
L 191.34053 204.146531 
L 192.144126 200.071653 
L 192.947722 192.880891 
L 193.751317 204.305332 
L 194.554913 204.731533 
L 195.358508 200.967181 
L 196.162104 195.558568 
L 196.9657 202.999586 
L 197.769295 197.183459 
L 198.572891 205.353332 
L 199.376487 204.637104 
L 200.180082 204.215516 
L 200.983678 204.405804 
L 201.787273 205.121125 
L 203.394465 182.10285 
L 204.19806 203.278451 
L 205.001656 205.46352 
L 205.805251 203.151677 
L 206.608847 204.47517 
L 207.412443 204.054361 
L 208.216038 185.85739 
L 209.019634 203.356595 
L 209.823229 203.337322 
L 210.626825 199.417874 
L 211.430421 202.401465 
L 212.234016 203.359299 
L 213.037612 205.941784 
L 213.841208 205.691799 
L 214.644803 203.594098 
L 215.448399 201.96566 
L 216.251994 203.153267 
L 217.05559 191.670305 
L 217.859186 203.538996 
L 218.662781 205.678139 
L 219.466377 204.68629 
L 220.269972 191.386558 
L 221.073568 202.606098 
L 221.877164 192.966557 
L 222.680759 205.915498 
L 223.484355 201.754461 
L 224.28795 189.729767 
L 225.091546 206.246936 
L 225.895142 204.777808 
L 226.698737 200.409833 
L 227.502333 202.824294 
L 228.305929 202.631033 
L 229.109524 205.280706 
L 229.91312 206.142425 
L 230.716715 189.796239 
L 231.520311 205.932529 
L 232.323907 201.84151 
L 233.127502 206.465005 
L 233.931098 206.450359 
L 234.734693 198.805902 
L 235.538289 204.771702 
L 236.341885 204.605411 
L 237.14548 204.234455 
L 237.949076 186.430465 
L 238.752671 202.055684 
L 239.556267 194.061342 
L 240.359863 202.933496 
L 241.163458 203.472094 
L 241.967054 200.276062 
L 242.77065 200.505518 
L 243.574245 199.297174 
L 244.377841 205.001794 
L 245.181436 207.091369 
L 245.985032 204.050003 
L 246.788628 203.644238 
L 247.592223 206.149597 
L 248.395819 203.437872 
L 249.199414 206.530937 
L 250.00301 194.827901 
L 250.806606 199.519124 
L 251.610201 200.59085 
L 252.413797 206.661145 
L 254.020988 203.522934 
L 254.824584 204.876022 
L 255.628179 205.650214 
L 256.431775 204.08184 
L 257.235371 207.539832 
L 258.038966 203.003387 
L 258.842562 190.040898 
L 259.646157 205.809254 
L 260.449753 203.713811 
L 262.056944 207.711674 
L 262.86054 207.108162 
L 263.664135 190.071859 
L 264.467731 202.076659 
L 265.271327 201.886625 
L 266.074922 205.37814 
L 266.878518 201.323744 
L 267.682113 208.247489 
L 268.485709 206.406134 
L 269.289305 202.023179 
L 270.0929 207.40498 
L 270.896496 203.775131 
L 271.700092 207.171549 
L 272.503687 191.919893 
L 273.307283 185.946984 
L 274.110878 201.463478 
L 274.914474 204.663375 
L 275.71807 206.025781 
L 276.521665 204.86621 
L 277.325261 197.561793 
L 278.128856 207.720515 
L 278.932452 201.139292 
L 279.736048 207.234665 
L 280.539643 207.947331 
L 281.343239 205.608613 
L 282.146834 205.747235 
L 282.95043 206.553168 
L 283.754026 201.905613 
L 284.557621 199.676303 
L 285.361217 207.173521 
L 286.164813 205.125801 
L 286.968408 205.670076 
L 287.772004 205.307406 
L 288.575599 209.259041 
L 289.379195 209.002758 
L 290.986386 202.538226 
L 291.789982 207.975113 
L 292.593577 208.710869 
L 293.397173 201.268801 
L 294.200769 188.617204 
L 295.004364 198.842954 
L 295.80796 193.828101 
L 296.611555 206.437923 
L 297.415151 208.640246 
L 298.218747 208.531808 
L 299.022342 208.246598 
L 299.825938 193.789697 
L 300.629534 208.34416 
L 301.433129 207.538608 
L 302.236725 208.67388 
L 303.04032 199.040001 
L 303.843916 207.083926 
L 304.647512 208.158833 
L 305.451107 208.79318 
L 306.254703 203.566968 
L 307.058298 203.623469 
L 307.861894 205.551874 
L 308.66549 207.048989 
L 309.469085 207.934896 
L 310.272681 207.885996 
L 311.076276 202.935341 
L 311.879872 208.555773 
L 312.683468 208.750832 
L 313.487063 201.140485 
L 314.290659 201.160776 
L 315.094255 174.28609 
L 315.89785 204.928484 
L 316.701446 209.534041 
L 317.505041 173.148464 
L 318.308637 207.417734 
L 319.112233 208.753631 
L 319.915828 205.303271 
L 320.719424 205.041486 
L 321.523019 208.364117 
L 322.326615 207.581226 
L 323.130211 202.817329 
L 323.933806 206.030504 
L 324.737402 184.362199 
L 325.540997 197.830115 
L 326.344593 202.868074 
L 327.148189 209.045233 
L 327.951784 209.434205 
L 328.75538 207.065416 
L 329.558976 208.436569 
L 330.362571 204.072028 
L 331.166167 208.992803 
L 331.969762 200.484813 
L 332.773358 204.343275 
L 333.576954 209.024544 
L 334.380549 203.472397 
L 335.184145 193.751245 
L 335.98774 205.79817 
L 336.791336 207.936295 
L 337.594932 209.720751 
L 338.398527 209.541912 
L 339.202123 202.574197 
L 340.005718 207.216648 
L 340.809314 188.657802 
L 341.61291 197.041435 
L 342.416505 196.824813 
L 343.220101 189.581477 
L 344.023697 206.285006 
L 344.827292 202.106476 
L 345.630888 180.829815 
L 346.434483 209.741662 
L 347.238079 208.522251 
L 348.041675 206.689086 
L 348.84527 198.324631 
L 349.648866 193.611654 
L 350.452461 209.609466 
L 351.256057 208.338801 
L 352.059653 204.729274 
L 352.863248 199.157567 
L 353.666844 199.332398 
L 354.470439 209.059497 
L 355.274035 204.130199 
L 356.077631 205.788883 
L 356.881226 210.756585 
L 357.684822 193.170012 
L 358.488418 200.839182 
L 359.292013 199.814575 
L 360.095609 208.459945 
L 360.899204 206.821744 
L 361.7028 202.08919 
L 363.309991 207.160178 
L 364.113587 203.85566 
L 364.917182 205.370857 
L 365.720778 186.46871 
L 366.524374 194.68109 
L 367.327969 200.884552 
L 368.131565 203.027034 
L 368.935161 192.518316 
L 369.738756 199.701334 
L 370.542352 209.03822 
L 371.345947 209.635259 
L 372.149543 209.009596 
L 372.953139 209.566386 
L 373.756734 201.73603 
L 374.56033 210.987456 
L 375.363925 209.691474 
L 376.167521 207.580797 
L 376.971117 210.965384 
L 377.774712 209.626131 
L 378.578308 183.368808 
L 379.381903 208.24512 
L 380.185499 203.863325 
L 380.989095 207.50235 
L 381.79269 209.814305 
L 382.596286 203.125295 
L 383.399882 197.530466 
L 384.203477 202.614208 
L 385.007073 184.313903 
L 385.810668 189.268518 
L 386.614264 209.688453 
L 387.41786 202.212625 
L 388.221455 208.15869 
L 389.025051 209.580651 
L 389.828646 209.687244 
L 390.632242 207.938792 
L 391.435838 181.832207 
L 392.239433 207.830035 
L 393.043029 202.034041 
L 393.846624 199.444621 
L 394.65022 203.995506 
L 395.453816 205.146919 
L 396.257411 201.882554 
L 397.061007 207.000662 
L 397.864603 183.13948 
L 398.668198 211.050621 
L 399.471794 196.503203 
L 400.275389 211.879501 
L 401.078985 203.732528 
L 401.882581 210.844414 
L 402.686176 208.56727 
L 403.489772 211.442758 
L 404.293367 192.938505 
L 405.096963 210.496676 
L 405.900559 196.994507 
L 406.704154 200.671921 
L 407.50775 210.76064 
L 408.311345 208.511596 
L 409.114941 202.679519 
L 409.918537 210.264533 
L 410.722132 192.89867 
L 411.525728 205.35831 
L 413.132919 199.879695 
L 413.936515 184.002471 
L 414.74011 199.454719 
L 415.543706 209.655169 
L 416.347302 199.395849 
L 417.150897 209.881715 
L 417.954493 187.206597 
L 418.758088 199.887996 
L 419.561684 210.237674 
L 420.36528 196.961796 
L 421.168875 207.636583 
L 421.972471 209.179242 
L 422.776066 204.21251 
L 423.579662 210.147444 
L 424.383258 204.401431 
L 425.186853 207.434511 
L 425.990449 206.951237 
L 426.794045 206.650395 
L 427.59764 193.260783 
L 428.401236 193.138064 
L 429.204831 205.684261 
L 430.008427 209.319692 
L 430.812023 195.019684 
L 431.615618 184.025752 
L 432.419214 209.760602 
L 433.222809 211.534069 
L 434.026405 207.498534 
L 434.830001 207.384689 
L 435.633596 205.765475 
L 436.437192 210.49251 
L 437.240787 208.234783 
L 438.044383 185.12976 
L 438.847979 210.022849 
L 439.651574 194.893212 
L 440.45517 200.686599 
L 441.258766 202.933894 
L 442.062361 200.828591 
L 442.865957 201.84582 
L 443.669552 199.252345 
L 444.473148 196.03669 
L 445.276744 184.213957 
L 446.080339 207.498375 
L 446.883935 188.855819 
L 447.68753 209.503985 
L 448.491126 201.807845 
L 449.294722 209.987593 
L 450.098317 207.153531 
L 450.901913 207.803733 
L 451.705508 204.31128 
L 452.509104 207.522022 
L 453.3127 210.236831 
L 454.116295 208.933359 
L 454.919891 211.301719 
L 455.723487 208.064532 
L 456.527082 207.879333 
L 457.330678 211.036038 
L 458.134273 207.026662 
L 458.937869 210.113953 
L 459.741465 208.813551 
L 460.54506 203.771028 
L 461.348656 195.435547 
L 462.152251 209.084559 
L 462.955847 208.655767 
L 463.759443 207.837303 
L 464.563038 191.773352 
L 465.366634 205.668009 
L 466.170229 208.112017 
L 466.973825 191.582794 
L 467.777421 208.767323 
L 468.581016 186.30967 
L 469.384612 180.60257 
L 470.188208 188.718868 
L 470.991803 193.766702 
L 471.795399 206.04612 
L 472.598994 197.745291 
L 473.40259 207.314479 
L 474.206186 211.198513 
L 475.009781 195.673002 
L 475.813377 204.485204 
L 476.616972 190.993324 
L 477.420568 190.304194 
L 478.224164 206.801564 
L 479.027759 200.638478 
L 479.831355 190.897512 
L 480.63495 198.21834 
L 481.438546 197.755628 
L 483.045737 205.337843 
L 484.652929 208.413128 
L 485.456524 202.726129 
L 486.26012 187.790692 
L 487.063715 199.496829 
L 487.867311 185.775477 
L 488.670907 204.075177 
L 489.474502 170.092357 
L 490.278098 176.168664 
L 491.081693 202.782026 
L 491.885289 201.005394 
L 492.688885 209.659034 
L 494.296076 205.715636 
L 495.099671 211.27944 
L 495.903267 198.082152 
L 496.706863 208.790111 
L 497.510458 200.853526 
L 498.314054 199.265401 
L 499.11765 194.682489 
L 499.921245 204.4208 
L 500.724841 209.530049 
L 501.528436 200.312463 
L 502.332032 204.146881 
L 503.135628 205.288148 
L 503.939223 190.768877 
L 504.742819 206.997036 
L 505.546414 207.843727 
L 506.35001 207.702673 
L 507.153606 203.856201 
L 507.957201 192.861585 
L 508.760797 203.036082 
L 509.564392 210.64802 
L 510.367988 190.17117 
L 511.171584 207.02892 
L 511.975179 209.30123 
L 512.778775 198.98606 
L 513.582371 207.054539 
L 514.385966 210.381877 
L 515.189562 205.174382 
L 515.993157 208.152075 
L 516.796753 209.375351 
L 517.600349 208.181844 
L 518.403944 201.957789 
L 519.20754 198.533001 
L 520.011135 193.589247 
L 520.814731 202.575931 
L 521.618327 200.748252 
L 522.421922 208.347754 
L 523.225518 211.154702 
L 524.029113 190.189967 
L 524.832709 187.041562 
L 525.636305 209.485141 
L 526.4399 182.326008 
L 527.243496 210.329304 
L 528.047092 181.257749 
L 528.850687 209.554936 
L 529.654283 203.916423 
L 530.457878 201.442853 
L 531.261474 190.734846 
L 532.06507 203.61035 
L 532.868665 202.907432 
L 533.672261 206.188017 
L 534.475856 204.622808 
L 535.279452 210.215395 
L 536.083048 210.75412 
L 536.886643 204.710191 
L 537.690239 206.309114 
L 538.493834 210.654094 
L 539.29743 186.740673 
L 540.101026 210.925437 
L 540.904621 209.291911 
L 541.708217 184.029219 
L 542.511813 189.362231 
L 543.315408 209.003489 
L 544.119004 202.281434 
L 544.922599 208.586099 
L 545.726195 190.220929 
L 546.529791 194.328995 
L 547.333386 210.262673 
L 548.136982 209.678975 
L 548.940577 196.937736 
L 549.744173 163.538963 
L 550.547769 206.079595 
L 551.351364 205.58301 
L 552.15496 209.893626 
L 552.958555 205.615022 
L 553.762151 188.390181 
L 554.565747 198.895687 
L 555.369342 207.08857 
L 556.172938 204.045137 
L 556.976534 187.40261 
L 557.780129 208.461742 
L 558.583725 185.089034 
L 559.38732 205.170582 
L 560.190916 195.095904 
L 560.994512 195.795959 
L 561.798107 206.009417 
L 562.601703 202.301487 
L 563.405298 208.583252 
L 564.208894 206.136525 
L 565.01249 206.953479 
L 565.816085 196.889504 
L 566.619681 184.958205 
L 567.423276 196.974375 
L 568.226872 204.328693 
L 569.030468 207.959083 
L 569.834063 202.753672 
L 570.637659 199.704578 
L 571.441255 208.607965 
L 572.24485 185.267936 
L 573.048446 206.370768 
L 574.655637 200.066167 
L 576.262828 205.702072 
L 577.066424 201.752266 
L 577.870019 188.845212 
L 578.673615 202.024022 
L 579.477211 205.808888 
L 580.280806 204.053184 
L 581.084402 202.932876 
L 581.887997 198.885286 
L 582.691593 200.097224 
L 583.495189 199.994367 
L 584.298784 207.881527 
L 585.10238 172.054522 
L 585.905976 205.750479 
L 586.709571 205.257488 
L 587.513167 194.574639 
L 588.316762 204.756945 
L 589.120358 209.326546 
L 589.923954 194.753525 
L 590.727549 207.6442 
L 591.531145 207.896793 
L 592.33474 185.929412 
L 593.138336 199.004968 
L 593.941932 200.528497 
L 594.745527 195.567458 
L 595.549123 198.852193 
L 596.352718 208.900282 
L 597.156314 192.952833 
L 597.95991 202.303523 
L 598.763505 182.130488 
L 599.567101 199.623523 
L 600.370697 183.369651 
L 601.174292 207.895839 
L 602.781483 181.98196 
L 603.585079 206.630645 
L 604.388675 199.77687 
L 605.19227 201.540971 
L 605.995866 201.509071 
L 606.799461 203.2958 
L 607.603057 200.82452 
L 608.406653 189.854156 
L 609.210248 201.883286 
L 610.013844 206.348059 
L 610.817439 209.6847 
L 611.621035 208.095542 
L 612.424631 199.275817 
L 613.228226 177.788927 
L 614.031822 180.21293 
L 614.835418 201.566717 
L 616.442609 207.336377 
L 617.246204 204.217551 
L 618.0498 191.159743 
L 618.853396 175.880973 
L 619.656991 190.420297 
L 620.460587 191.633252 
L 621.264182 194.569503 
L 622.067778 194.861471 
L 622.871374 191.34227 
L 623.674969 194.213273 
L 624.478565 192.133605 
L 625.282161 189.292388 
L 626.085756 189.399872 
L 626.889352 166.256492 
L 627.692947 206.23124 
L 628.496543 196.945735 
L 629.300139 203.136904 
L 630.103734 194.182693 
L 630.90733 193.466481 
L 631.710925 194.821604 
L 632.514521 201.545885 
L 633.318117 203.44603 
L 634.121712 207.44957 
L 634.925308 189.256146 
L 635.728903 201.329278 
L 636.532499 201.331679 
L 637.336095 205.886078 
L 638.13969 193.571405 
L 638.943286 201.110493 
L 639.746882 189.995178 
L 640.550477 186.473051 
L 641.354073 191.072725 
L 641.354073 191.072725 
" style="fill:none;stroke:#ff8c00;stroke-linecap:square;"/>
   </g>
   <g id="patch_3">
    <path d="M 54.0864 376.74 
L 54.0864 4.14 
" style="fill:none;stroke:#000000;stroke-linecap:square;stroke-linejoin:miter;stroke-width:0.8;"/>
   </g>
   <g id="patch_4">
    <path d="M 669.3192 376.74 
L 669.3192 4.14 
" style="fill:none;stroke:#000000;stroke-linecap:square;stroke-linejoin:miter;stroke-width:0.8;"/>
   </g>
   <g id="patch_5">
    <path d="M 54.0864 376.74 
L 669.3192 376.74 
" style="fill:none;stroke:#000000;stroke-linecap:square;stroke-linejoin:miter;stroke-width:0.8;"/>
   </g>
   <g id="patch_6">
    <path d="M 54.0864 4.14 
L 669.3192 4.14 
" style="fill:none;stroke:#000000;stroke-linecap:square;stroke-linejoin:miter;stroke-width:0.8;"/>
   </g>
   <g id="legend_1">
    <g id="patch_7">
     <path d="M 572.7192 55.261875 
L 659.5192 55.261875 
Q 662.3192 55.261875 662.3192 52.461875 
L 662.3192 13.94 
Q 662.3192 11.14 659.5192 11.14 
L 572.7192 11.14 
Q 569.9192 11.14 569.9192 13.94 
L 569.9192 52.461875 
Q 569.9192 55.261875 572.7192 55.261875 
z
" style="fill:#ffffff;opacity:0.8;stroke:#cccccc;stroke-linejoin:miter;"/>
    </g>
    <g id="line2d_20">
     <path d="M 575.5192 22.99625 
L 603.5192 22.99625 
" style="fill:none;stroke:#008000;stroke-dasharray:6.4,1.6,1,1.6;stroke-dashoffset:0;"/>
    </g>
    <g id="line2d_21"/>
    <g id="text_20">
     <!--  -->
     <defs>
      <path d="M 61.328125 71.484375 
L 69.921875 67.96875 
L 66.796875 65.625 
L 66.796875 16.40625 
Q 66.796875 12.890625 67.1875 4.296875 
L 61.328125 1.171875 
Q 61.71875 16.40625 61.71875 36.90625 
Q 61.71875 57.421875 61.328125 71.484375 
z
M 80.46875 78.515625 
L 89.0625 75 
L 85.9375 72.265625 
L 85.9375 11.328125 
Q 85.9375 3.515625 86.328125 -5.46875 
L 80.46875 -8.59375 
Q 80.859375 -1.171875 80.859375 7.8125 
L 80.859375 64.453125 
Q 80.859375 68.75 80.46875 78.515625 
z
M 14.84375 76.171875 
L 15.625 76.953125 
Q 23.4375 73.046875 25.96875 70.703125 
Q 28.515625 68.359375 28.125 65.625 
Q 27.734375 62.890625 26.5625 61.71875 
Q 25.390625 60.546875 24.609375 60.546875 
Q 23.4375 60.546875 22.265625 64.0625 
Q 20.703125 68.75 14.84375 76.171875 
z
M 25.390625 10.9375 
L 37.5 23.828125 
L 38.28125 23.046875 
Q 27.34375 8.203125 23.828125 0 
L 18.75 6.25 
Q 20.703125 8.203125 20.3125 11.328125 
L 20.3125 44.53125 
L 16.015625 44.53125 
Q 12.890625 44.53125 8.59375 43.359375 
L 5.078125 46.875 
L 19.921875 46.875 
L 22.65625 50.78125 
L 28.515625 45.703125 
L 25.390625 43.359375 
z
M 43.359375 78.125 
L 52.34375 74.21875 
L 49.21875 71.09375 
Q 49.21875 48.828125 49.015625 35.9375 
Q 48.828125 23.046875 43.9375 11.71875 
Q 39.0625 0.390625 24.609375 -9.765625 
L 23.4375 -8.984375 
Q 35.9375 2.734375 39.84375 14.0625 
Q 43.75 25.390625 43.75 41.40625 
Q 43.75 57.421875 43.359375 78.125 
z
" id="SimSun-35757"/>
      <path d="M 10.9375 49.609375 
L 27.734375 50.78125 
Q 30.46875 55.078125 33.203125 61.328125 
L 40.625 55.46875 
L 37.109375 54.296875 
Q 24.609375 39.0625 12.109375 25.78125 
Q 22.265625 26.953125 36.71875 29.6875 
L 37.109375 28.125 
Q 13.671875 21.875 10.15625 17.578125 
L 5.078125 25.78125 
Q 8.59375 26.953125 12.5 31.046875 
Q 16.40625 35.15625 26.171875 48.4375 
Q 21.484375 48.046875 16.984375 46.671875 
Q 12.5 45.3125 9.765625 42.578125 
L 5.078125 50.390625 
Q 8.59375 51.171875 13.859375 60.9375 
Q 19.140625 70.703125 22.265625 81.640625 
L 30.859375 76.5625 
L 26.5625 74.21875 
Q 19.140625 62.109375 10.9375 49.609375 
z
M 4.6875 5.859375 
Q 19.53125 9.765625 37.890625 15.625 
L 38.28125 14.0625 
Q 24.21875 7.8125 11.71875 1.171875 
L 9.375 -1.5625 
z
M 42.1875 35.15625 
Q 45.3125 39.84375 48.4375 48.046875 
Q 46.484375 48.046875 42.1875 46.875 
L 38.671875 50.390625 
L 49.21875 50.390625 
L 54.6875 64.453125 
L 48.828125 64.453125 
Q 43.75 64.453125 39.453125 63.28125 
L 35.9375 66.796875 
L 55.46875 66.796875 
Q 58.984375 78.125 59.375 82.03125 
L 67.578125 77.34375 
L 64.0625 75.390625 
Q 62.890625 72.65625 60.546875 66.796875 
L 80.078125 66.796875 
L 85.15625 71.875 
L 92.1875 64.453125 
L 59.765625 64.453125 
L 54.296875 50.390625 
L 66.40625 50.390625 
L 69.140625 53.90625 
L 75.390625 49.21875 
L 72.265625 46.875 
L 72.265625 32.8125 
L 82.8125 32.8125 
L 87.5 37.5 
L 94.53125 30.46875 
L 72.265625 30.46875 
L 72.265625 2.34375 
Q 72.65625 -7.03125 62.890625 -9.375 
Q 62.890625 -3.515625 51.5625 -0.78125 
L 51.5625 0.78125 
Q 60.9375 0 64.0625 0 
Q 67.1875 0 67.1875 4.296875 
L 67.1875 30.46875 
L 46.484375 30.46875 
L 43.75 27.734375 
L 38.671875 33.203125 
z
M 53.90625 16.015625 
Q 41.40625 0 29.6875 -7.8125 
L 28.515625 -6.640625 
Q 35.546875 0 40.625 7.03125 
Q 45.703125 14.0625 49.609375 23.046875 
L 57.421875 17.1875 
z
M 76.5625 21.484375 
Q 90.234375 12.890625 92.765625 9.953125 
Q 95.3125 7.03125 95.3125 4.296875 
Q 95.3125 1.953125 94.140625 -0.578125 
Q 92.96875 -3.125 92.1875 -3.125 
Q 91.015625 -3.125 89.0625 1.953125 
Q 86.328125 8.984375 75.78125 20.3125 
z
M 53.515625 48.046875 
Q 50.390625 41.015625 46.09375 32.8125 
L 67.1875 32.8125 
L 67.1875 48.046875 
z
" id="SimSun-32451"/>
      <path d="M 27.734375 41.40625 
L 27.734375 32.421875 
L 50 32.421875 
L 50 41.40625 
z
M 22.265625 23.4375 
Q 22.65625 39.0625 22.65625 58.59375 
Q 15.234375 50 4.6875 42.96875 
L 3.90625 44.140625 
Q 12.5 51.5625 19.53125 61.90625 
Q 26.5625 72.265625 30.078125 82.421875 
L 37.890625 76.953125 
L 34.375 75.78125 
L 28.515625 66.40625 
L 77.734375 66.40625 
L 82.421875 71.09375 
L 89.0625 64.0625 
L 55.078125 64.0625 
L 55.078125 54.6875 
L 73.4375 54.6875 
L 77.734375 58.984375 
L 83.984375 52.34375 
L 55.078125 52.34375 
L 55.078125 43.75 
L 72.65625 43.75 
L 76.953125 48.046875 
L 83.203125 41.40625 
L 55.078125 41.40625 
L 55.078125 32.421875 
L 76.953125 32.421875 
L 81.640625 37.109375 
L 88.28125 30.078125 
L 27.734375 30.078125 
L 27.734375 25.390625 
z
M 46.484375 81.25 
Q 53.90625 78.515625 55.859375 76.359375 
Q 57.8125 74.21875 57.8125 72.65625 
Q 57.8125 71.09375 56.4375 69.140625 
Q 55.078125 67.1875 54.6875 67.1875 
Q 53.125 67.1875 51.953125 70.703125 
Q 50 75.78125 45.703125 80.078125 
z
M 27.734375 64.0625 
L 27.734375 54.6875 
L 50 54.6875 
L 50 64.0625 
z
M 27.734375 52.34375 
L 27.734375 43.75 
L 50 43.75 
L 50 52.34375 
z
M 48.046875 20.3125 
Q 48.046875 26.171875 47.65625 29.6875 
L 56.25 26.5625 
L 53.125 23.828125 
L 53.125 20.3125 
L 84.375 20.3125 
L 89.0625 25 
L 95.703125 17.96875 
L 57.421875 17.96875 
Q 64.84375 9.375 74.21875 4.6875 
Q 83.59375 0 96.09375 -1.171875 
L 96.09375 -2.34375 
Q 90.234375 -3.515625 89.0625 -7.421875 
Q 78.90625 -4.296875 70.703125 1.359375 
Q 62.5 7.03125 55.46875 17.96875 
L 53.125 17.96875 
Q 53.125 -1.5625 53.515625 -7.03125 
L 47.65625 -10.15625 
Q 48.046875 2.34375 48.046875 17.578125 
Q 39.84375 8.59375 29.484375 2.34375 
Q 19.140625 -3.90625 4.6875 -8.984375 
L 4.296875 -7.421875 
Q 18.359375 -1.171875 28.125 6.046875 
Q 37.890625 13.28125 41.40625 17.96875 
L 17.1875 17.96875 
Q 12.109375 17.96875 7.8125 16.796875 
L 4.296875 20.3125 
z
" id="SimSun-38598"/>
     </defs>
     <g transform="translate(614.7192 27.89625)scale(0.14 -0.14)">
      <use xlink:href="#SimSun-35757"/>
      <use x="100" xlink:href="#SimSun-32451"/>
      <use x="200" xlink:href="#SimSun-38598"/>
     </g>
    </g>
    <g id="line2d_22">
     <path d="M 575.5192 42.957187 
L 603.5192 42.957187 
" style="fill:none;stroke:#ff8c00;stroke-linecap:square;"/>
    </g>
    <g id="line2d_23"/>
    <g id="text_21">
     <!--  -->
     <defs>
      <path d="M 63.28125 81.640625 
L 71.09375 76.953125 
L 67.96875 75 
Q 78.90625 50.390625 95.703125 46.484375 
L 95.703125 45.3125 
Q 89.84375 44.53125 88.28125 40.625 
Q 73.4375 51.953125 66.796875 73.828125 
Q 55.859375 50.390625 39.453125 38.671875 
L 38.671875 39.84375 
Q 48.046875 49.21875 54.6875 61.328125 
Q 61.328125 73.4375 63.28125 81.640625 
z
M 47.265625 43.75 
L 72.65625 43.75 
L 77.34375 48.4375 
L 83.59375 41.40625 
L 60.15625 41.40625 
Q 55.078125 41.40625 50.78125 40.234375 
z
M 45.703125 31.25 
L 46.875 32.03125 
Q 54.296875 20.3125 55.265625 17.1875 
Q 56.25 14.0625 56.25 12.109375 
Q 56.25 9.765625 54.875 7.421875 
Q 53.515625 5.078125 51.75 5.265625 
Q 50 5.46875 49.609375 12.5 
Q 49.21875 19.53125 45.703125 31.25 
z
M 57.03125 34.765625 
L 58.203125 35.546875 
Q 68.359375 22.65625 69.140625 17.1875 
Q 69.921875 11.71875 67.765625 10.15625 
Q 65.625 8.59375 65.234375 8.59375 
Q 63.671875 8.59375 63.28125 12.5 
Q 62.890625 17.96875 60.9375 24.40625 
Q 58.984375 30.859375 57.03125 34.765625 
z
M 80.859375 35.9375 
L 89.0625 30.46875 
Q 86.328125 29.296875 83.203125 22.0625 
Q 80.078125 14.84375 73.046875 -2.34375 
L 82.8125 -2.34375 
L 88.28125 3.125 
L 95.3125 -4.6875 
L 52.734375 -4.6875 
Q 47.65625 -4.6875 43.359375 -5.859375 
L 39.84375 -2.34375 
L 70.703125 -2.34375 
Q 80.859375 29.6875 80.859375 35.9375 
z
M 6.25 73.046875 
L 30.46875 73.046875 
L 33.59375 76.953125 
L 39.453125 71.875 
L 35.9375 69.53125 
L 32.03125 35.546875 
L 34.765625 35.546875 
L 37.109375 38.671875 
L 42.96875 33.984375 
L 39.84375 31.640625 
Q 37.890625 7.8125 35.9375 2.734375 
Q 33.984375 -2.34375 30.859375 -4.484375 
Q 27.734375 -6.640625 24.21875 -7.421875 
Q 23.828125 -1.953125 12.890625 1.5625 
L 13.28125 3.125 
Q 24.21875 0.78125 26.953125 0.96875 
Q 29.6875 1.171875 31.4375 6.828125 
Q 33.203125 12.5 34.765625 33.203125 
L 15.625 33.203125 
L 12.890625 30.078125 
L 7.8125 34.765625 
L 10.546875 36.328125 
Q 13.671875 58.59375 14.0625 65.625 
L 21.875 61.328125 
L 18.75 58.984375 
L 15.625 35.546875 
L 26.953125 35.546875 
L 30.859375 70.703125 
L 19.140625 70.703125 
Q 14.0625 70.703125 9.765625 69.53125 
z
M 3.515625 16.796875 
Q 11.328125 17.578125 31.25 21.484375 
L 31.640625 19.921875 
Q 9.375 13.28125 7.8125 10.15625 
z
" id="SimSun-39564"/>
      <path d="M 12.890625 74.609375 
L 13.671875 75.390625 
Q 20.703125 71.484375 23.4375 68.75 
Q 26.171875 66.015625 25.578125 63.46875 
Q 25 60.9375 23.625 59.765625 
Q 22.265625 58.59375 21.875 58.59375 
Q 20.3125 58.59375 19.921875 62.109375 
Q 18.75 66.40625 12.890625 74.609375 
z
M 23.046875 7.421875 
L 35.9375 19.921875 
L 37.109375 19.140625 
Q 30.859375 10.546875 27.734375 6.25 
Q 24.21875 1.953125 21.875 -3.515625 
L 16.40625 2.34375 
Q 18.359375 4.296875 17.96875 9.375 
L 17.96875 43.75 
L 14.453125 43.75 
Q 11.71875 43.75 7.421875 42.578125 
L 3.90625 46.09375 
L 17.1875 46.09375 
L 19.921875 50 
L 26.5625 45.3125 
L 23.046875 42.578125 
z
M 33.984375 71.09375 
L 80.078125 71.09375 
L 86.328125 76.953125 
L 93.75 68.75 
L 66.40625 68.75 
L 66.40625 37.5 
L 78.125 37.5 
L 83.984375 42.96875 
L 91.40625 35.15625 
L 66.40625 35.15625 
L 66.40625 -0.78125 
L 83.203125 -0.78125 
L 89.0625 4.6875 
L 95.703125 -3.125 
L 38.671875 -3.125 
Q 35.9375 -3.125 31.640625 -4.296875 
L 28.125 -0.78125 
L 42.578125 -0.78125 
L 42.578125 39.84375 
L 42.578125 50.78125 
L 51.171875 46.09375 
L 47.65625 43.359375 
L 47.65625 -0.78125 
L 61.328125 -0.78125 
L 61.328125 68.75 
L 44.921875 68.75 
Q 41.796875 68.75 37.5 67.578125 
z
" id="SimSun-35777"/>
     </defs>
     <g transform="translate(614.7192 47.857187)scale(0.14 -0.14)">
      <use xlink:href="#SimSun-39564"/>
      <use x="100" xlink:href="#SimSun-35777"/>
      <use x="200" xlink:href="#SimSun-38598"/>
     </g>
    </g>
   </g>
  </g>
 </g>
 <defs>
  <clipPath id="pa95584ea63">
   <rect height="372.6" width="615.2328" x="54.0864" y="4.14"/>
  </clipPath>
 </defs>
</svg>
