<?xml version="1.0" encoding="utf-8" standalone="no"?>
<!DOCTYPE svg PUBLIC "-//W3C//DTD SVG 1.1//EN"
  "http://www.w3.org/Graphics/SVG/1.1/DTD/svg11.dtd">
<!-- Created with matplotlib (https://matplotlib.org/) -->
<svg height="415.44pt" version="1.1" viewBox="0 0 676.8 415.44" width="676.8pt" xmlns="http://www.w3.org/2000/svg" xmlns:xlink="http://www.w3.org/1999/xlink">
 <defs>
  <style type="text/css">
*{stroke-linecap:butt;stroke-linejoin:round;}
  </style>
 </defs>
 <g id="figure_1">
  <g id="patch_1">
   <path d="M 0 415.44 
L 676.8 415.44 
L 676.8 0 
L 0 0 
z
" style="fill:#ffffff;"/>
  </g>
  <g id="axes_1">
   <g id="patch_2">
    <path d="M 54.144 378.0504 
L 670.032 378.0504 
L 670.032 4.1544 
L 54.144 4.1544 
z
" style="fill:#ffffff;"/>
   </g>
   <g id="matplotlib.axis_1">
    <g id="xtick_1">
     <g id="line2d_1">
      <defs>
       <path d="M 0 0 
L 0 3.5 
" id="mbf21754d7a" style="stroke:#000000;stroke-width:0.8;"/>
      </defs>
      <g>
       <use style="stroke:#000000;stroke-width:0.8;" x="82.138909" xlink:href="#mbf21754d7a" y="378.0504"/>
      </g>
     </g>
     <g id="text_1">
      <!-- 0 -->
      <defs>
       <path d="M 25 66.015625 
Q 19.53125 66.015625 15.8125 57.609375 
Q 12.109375 49.21875 12.109375 35.15625 
Q 12.109375 20.3125 15.8125 12.109375 
Q 19.53125 3.90625 25 3.90625 
Q 30.859375 3.90625 34.171875 12.109375 
Q 37.5 20.3125 37.5 35.15625 
Q 37.5 49.21875 34.375 57.609375 
Q 31.25 66.015625 25 66.015625 
z
M 25 0.78125 
Q 16.40625 0.78125 10.546875 9.765625 
Q 4.6875 18.75 4.6875 35.15625 
Q 4.6875 50.390625 10.34375 59.765625 
Q 16.015625 69.140625 25 69.140625 
Q 33.59375 69.140625 39.25 60.15625 
Q 44.921875 51.171875 44.921875 35.15625 
Q 44.921875 19.140625 39.25 9.953125 
Q 33.59375 0.78125 25 0.78125 
z
" id="SimSun-48"/>
      </defs>
      <g transform="translate(79.638909 392.198837)scale(0.1 -0.1)">
       <use xlink:href="#SimSun-48"/>
      </g>
     </g>
    </g>
    <g id="xtick_2">
     <g id="line2d_2">
      <g>
       <use style="stroke:#000000;stroke-width:0.8;" x="196.403844" xlink:href="#mbf21754d7a" y="378.0504"/>
      </g>
     </g>
     <g id="text_2">
      <!-- 10 -->
      <defs>
       <path d="M 28.515625 69.53125 
L 28.515625 10.15625 
Q 28.515625 7.03125 30.46875 5.46875 
Q 32.421875 3.90625 35.9375 3.90625 
L 39.84375 3.90625 
L 39.84375 1.5625 
L 11.328125 1.5625 
L 11.328125 3.90625 
L 14.84375 3.90625 
Q 18.75 3.90625 20.5 5.46875 
Q 22.265625 7.03125 22.265625 10.15625 
L 22.265625 57.421875 
Q 22.265625 58.984375 21.28125 59.953125 
Q 20.3125 60.9375 18.359375 60.9375 
L 11.328125 60.9375 
L 11.328125 63.28125 
L 14.84375 63.28125 
Q 19.53125 63.28125 22.453125 64.84375 
Q 25.390625 66.40625 26.953125 69.53125 
z
" id="SimSun-49"/>
      </defs>
      <g transform="translate(191.403844 392.198837)scale(0.1 -0.1)">
       <use xlink:href="#SimSun-49"/>
       <use x="50" xlink:href="#SimSun-48"/>
      </g>
     </g>
    </g>
    <g id="xtick_3">
     <g id="line2d_3">
      <g>
       <use style="stroke:#000000;stroke-width:0.8;" x="310.668779" xlink:href="#mbf21754d7a" y="378.0504"/>
      </g>
     </g>
     <g id="text_3">
      <!-- 20 -->
      <defs>
       <path d="M 36.328125 51.953125 
Q 36.328125 58.984375 33.203125 62.6875 
Q 30.078125 66.40625 23.828125 66.40625 
Q 19.140625 66.40625 15.8125 63.859375 
Q 12.5 61.328125 12.5 57.421875 
Q 12.5 55.078125 14.0625 53.515625 
Q 15.234375 51.953125 15.234375 50.390625 
Q 15.234375 48.4375 14.25 47.453125 
Q 13.28125 46.484375 11.328125 46.484375 
Q 8.984375 46.484375 7.609375 47.84375 
Q 6.25 49.21875 6.25 52.34375 
Q 6.25 60.546875 12.109375 64.84375 
Q 17.96875 69.140625 24.609375 69.140625 
Q 33.984375 69.140625 38.46875 64.453125 
Q 42.96875 59.765625 42.96875 52.734375 
Q 42.96875 48.046875 40.8125 43.359375 
Q 38.671875 38.671875 33.984375 34.375 
Q 22.65625 23.4375 16.59375 16.59375 
Q 10.546875 9.765625 9.375 7.421875 
L 32.421875 7.421875 
Q 35.9375 7.421875 38.28125 10.15625 
Q 40.625 12.890625 41.40625 18.359375 
L 43.75 18.359375 
L 41.40625 1.5625 
L 5.078125 1.5625 
L 5.078125 6.640625 
Q 7.03125 10.15625 11.515625 15.625 
Q 16.015625 21.09375 23.4375 28.515625 
Q 30.078125 35.15625 33.203125 41.015625 
Q 36.328125 46.875 36.328125 51.953125 
z
" id="SimSun-50"/>
      </defs>
      <g transform="translate(305.668779 392.198837)scale(0.1 -0.1)">
       <use xlink:href="#SimSun-50"/>
       <use x="50" xlink:href="#SimSun-48"/>
      </g>
     </g>
    </g>
    <g id="xtick_4">
     <g id="line2d_4">
      <g>
       <use style="stroke:#000000;stroke-width:0.8;" x="424.933714" xlink:href="#mbf21754d7a" y="378.0504"/>
      </g>
     </g>
     <g id="text_4">
      <!-- 30 -->
      <defs>
       <path d="M 43.75 19.53125 
Q 43.75 12.109375 38.28125 6.4375 
Q 32.8125 0.78125 23.046875 0.78125 
Q 16.015625 0.78125 10.9375 4.6875 
Q 5.859375 8.59375 5.859375 13.671875 
Q 5.859375 16.015625 7.421875 17.765625 
Q 8.984375 19.53125 10.546875 19.53125 
Q 12.890625 19.53125 13.859375 17.765625 
Q 14.84375 16.015625 14.84375 14.84375 
Q 14.84375 12.890625 14.0625 11.71875 
Q 13.28125 10.15625 13.28125 8.984375 
Q 13.28125 6.640625 16.203125 5.078125 
Q 19.140625 3.515625 22.65625 3.515625 
Q 29.6875 3.515625 33.203125 7.609375 
Q 36.71875 11.71875 36.71875 20.3125 
Q 36.71875 27.34375 33 31.640625 
Q 29.296875 35.9375 19.140625 35.9375 
L 19.140625 38.671875 
Q 26.953125 38.671875 30.65625 42.375 
Q 34.375 46.09375 34.375 52.734375 
Q 34.375 58.203125 31.4375 62.296875 
Q 28.515625 66.40625 22.265625 66.40625 
Q 19.53125 66.40625 16.40625 65.03125 
Q 13.28125 63.671875 13.28125 60.546875 
Q 13.28125 57.421875 14.0625 56.640625 
Q 14.84375 55.859375 14.84375 54.6875 
Q 14.84375 52.734375 14.0625 51.5625 
Q 13.28125 50.390625 11.328125 50.390625 
Q 9.765625 50.390625 8.390625 51.5625 
Q 7.03125 52.734375 7.03125 55.859375 
Q 7.03125 61.71875 12.109375 65.421875 
Q 17.1875 69.140625 23.828125 69.140625 
Q 31.640625 69.140625 36.328125 64.25 
Q 41.015625 59.375 41.015625 53.90625 
Q 41.015625 48.046875 38.078125 43.9375 
Q 35.15625 39.84375 28.90625 37.890625 
Q 37.5 34.765625 40.625 29.6875 
Q 43.75 24.609375 43.75 19.53125 
z
" id="SimSun-51"/>
      </defs>
      <g transform="translate(419.933714 392.198837)scale(0.1 -0.1)">
       <use xlink:href="#SimSun-51"/>
       <use x="50" xlink:href="#SimSun-48"/>
      </g>
     </g>
    </g>
    <g id="xtick_5">
     <g id="line2d_5">
      <g>
       <use style="stroke:#000000;stroke-width:0.8;" x="539.198649" xlink:href="#mbf21754d7a" y="378.0504"/>
      </g>
     </g>
     <g id="text_5">
      <!-- 40 -->
      <defs>
       <path d="M 35.9375 8.984375 
Q 35.9375 6.25 37.5 5.078125 
Q 39.0625 3.90625 41.796875 3.90625 
L 45.3125 3.90625 
L 45.3125 1.5625 
L 19.53125 1.5625 
L 19.53125 3.90625 
L 23.828125 3.90625 
Q 26.953125 3.90625 28.3125 5.078125 
Q 29.6875 6.25 29.6875 8.984375 
L 29.6875 21.875 
L 3.515625 21.875 
L 3.515625 23.828125 
L 32.03125 69.140625 
L 35.9375 69.140625 
L 35.9375 24.21875 
L 46.484375 24.21875 
L 46.484375 21.875 
L 35.9375 21.875 
z
M 29.296875 59.375 
L 7.03125 24.21875 
L 29.6875 24.21875 
L 29.6875 59.375 
z
" id="SimSun-52"/>
      </defs>
      <g transform="translate(534.198649 392.198837)scale(0.1 -0.1)">
       <use xlink:href="#SimSun-52"/>
       <use x="50" xlink:href="#SimSun-48"/>
      </g>
     </g>
    </g>
    <g id="xtick_6">
     <g id="line2d_6">
      <g>
       <use style="stroke:#000000;stroke-width:0.8;" x="653.463584" xlink:href="#mbf21754d7a" y="378.0504"/>
      </g>
     </g>
     <g id="text_6">
      <!-- 50 -->
      <defs>
       <path d="M 26.953125 44.53125 
Q 34.375 44.53125 39.0625 38.859375 
Q 43.75 33.203125 43.75 23.828125 
Q 43.75 13.28125 38.859375 7.03125 
Q 33.984375 0.78125 23.828125 0.78125 
Q 16.796875 0.78125 11.328125 4.875 
Q 5.859375 8.984375 5.859375 14.84375 
Q 5.859375 17.1875 7.21875 18.9375 
Q 8.59375 20.703125 10.9375 20.703125 
Q 13.28125 20.703125 14.0625 19.140625 
Q 14.84375 17.578125 14.84375 16.40625 
Q 14.84375 14.0625 13.671875 12.890625 
Q 12.5 11.328125 12.5 9.765625 
Q 12.5 6.640625 16.203125 5.078125 
Q 19.921875 3.515625 24.21875 3.515625 
Q 30.46875 3.515625 33.78125 8.59375 
Q 37.109375 13.671875 37.109375 23.046875 
Q 37.109375 30.859375 34.171875 35.734375 
Q 31.25 40.625 25.390625 40.625 
Q 21.09375 40.625 17.96875 39.0625 
Q 14.84375 37.5 12.109375 32.421875 
L 8.59375 32.8125 
L 10.546875 68.359375 
L 42.578125 68.359375 
L 41.40625 62.5 
L 13.28125 62.5 
L 11.71875 36.71875 
Q 15.625 42.1875 19.328125 43.359375 
Q 23.046875 44.53125 26.953125 44.53125 
z
" id="SimSun-53"/>
      </defs>
      <g transform="translate(648.463584 392.198837)scale(0.1 -0.1)">
       <use xlink:href="#SimSun-53"/>
       <use x="50" xlink:href="#SimSun-48"/>
      </g>
     </g>
    </g>
    <g id="text_7">
     <!-- 预测时刻 -->
     <defs>
      <path d="M 7.421875 75.390625 
L 34.765625 75.390625 
L 37.890625 79.296875 
L 44.140625 73.046875 
Q 40.625 72.265625 37.296875 68.9375 
Q 33.984375 65.625 28.125 58.59375 
Q 32.03125 55.859375 31.828125 53.125 
Q 31.640625 50.390625 30.265625 49.21875 
Q 28.90625 48.046875 28.515625 48.046875 
Q 26.953125 48.046875 25.78125 51.5625 
Q 23.828125 56.25 16.40625 64.0625 
L 17.1875 64.84375 
Q 23.046875 62.109375 26.5625 59.765625 
L 34.765625 73.046875 
L 20.3125 73.046875 
Q 15.234375 73.046875 10.9375 71.875 
z
M 11.328125 1.5625 
Q 18.359375 0.78125 21.28125 0.578125 
Q 24.21875 0.390625 24.21875 4.296875 
L 24.21875 44.921875 
L 17.578125 44.921875 
Q 12.5 44.921875 8.203125 43.75 
L 4.6875 47.265625 
L 39.453125 47.265625 
L 42.578125 51.171875 
L 49.21875 44.921875 
Q 43.75 44.140625 35.546875 32.421875 
L 34.375 33.203125 
L 39.84375 44.921875 
L 29.296875 44.921875 
L 29.296875 2.34375 
Q 29.296875 -6.25 21.09375 -7.8125 
Q 20.703125 -2.734375 11.328125 0 
z
M 50.78125 12.109375 
Q 51.171875 22.265625 51.171875 35.734375 
Q 51.171875 49.21875 50.78125 60.9375 
L 56.25 57.8125 
L 63.28125 57.8125 
Q 65.234375 68.75 65.625 73.046875 
L 57.03125 73.046875 
Q 51.953125 73.046875 47.65625 71.875 
L 44.140625 75.390625 
L 83.203125 75.390625 
L 88.671875 80.46875 
L 95.703125 73.046875 
L 73.046875 73.046875 
Q 70.3125 69.140625 65.234375 57.8125 
L 82.8125 57.8125 
L 85.546875 62.109375 
L 91.796875 57.421875 
L 88.671875 54.296875 
L 88.671875 30.46875 
Q 88.671875 23.828125 89.0625 16.796875 
L 83.59375 13.671875 
L 83.59375 55.46875 
L 56.25 55.46875 
L 56.25 15.625 
z
M 75.78125 44.921875 
L 72.265625 41.796875 
Q 72.265625 23.046875 69.921875 14.640625 
Q 67.578125 6.25 60.9375 0.78125 
Q 54.296875 -4.6875 37.890625 -9.765625 
L 37.5 -8.59375 
Q 54.6875 -0.78125 59.953125 6.25 
Q 65.234375 13.28125 66.203125 24.796875 
Q 67.1875 36.328125 66.796875 49.609375 
z
M 72.65625 14.84375 
Q 89.453125 5.859375 91.796875 3.3125 
Q 94.140625 0.78125 94.140625 -1.953125 
Q 94.140625 -3.515625 93.15625 -6.046875 
Q 92.1875 -8.59375 91.40625 -8.59375 
Q 90.625 -8.59375 89.84375 -7.03125 
Q 87.890625 -3.90625 84.953125 0 
Q 82.03125 3.90625 71.875 13.671875 
z
" id="SimSun-39044"/>
      <path d="M 30.859375 15.625 
Q 31.25 23.046875 31.25 45.703125 
Q 31.25 68.359375 30.859375 78.125 
L 36.71875 74.609375 
L 55.859375 74.609375 
L 58.984375 77.734375 
L 64.0625 72.65625 
L 60.9375 70.3125 
L 60.9375 36.71875 
Q 60.9375 28.90625 61.328125 21.09375 
L 56.25 18.75 
L 56.25 72.265625 
L 36.328125 72.265625 
L 36.328125 17.96875 
z
M 43.359375 62.109375 
L 51.5625 57.8125 
L 48.828125 55.078125 
Q 49.21875 28.515625 44.921875 14.640625 
Q 40.625 0.78125 21.484375 -9.375 
L 20.703125 -7.8125 
Q 34.375 1.5625 38.671875 11.328125 
Q 42.96875 21.09375 43.359375 34.171875 
Q 43.75 47.265625 43.359375 62.109375 
z
M 48.4375 14.84375 
Q 59.765625 7.03125 61.515625 4.09375 
Q 63.28125 1.171875 63.28125 -0.390625 
Q 63.28125 -2.34375 62.109375 -4.09375 
Q 60.9375 -5.859375 60.15625 -5.859375 
Q 58.59375 -5.859375 57.03125 -1.171875 
Q 54.6875 5.859375 47.65625 13.671875 
z
M 69.921875 12.890625 
Q 70.3125 18.75 70.3125 26.5625 
L 70.3125 53.125 
Q 70.3125 61.71875 69.921875 67.1875 
L 78.515625 62.890625 
L 75.390625 59.765625 
L 75.390625 26.5625 
Q 75.390625 20.703125 75.78125 14.84375 
z
M 83.984375 2.34375 
L 83.984375 63.28125 
Q 83.984375 74.21875 83.59375 80.078125 
L 91.796875 76.171875 
L 89.0625 73.4375 
L 89.0625 1.171875 
Q 89.0625 -3.125 87.5 -5.46875 
Q 85.9375 -7.8125 81.25 -9.375 
Q 78.515625 -3.515625 69.53125 -0.78125 
L 69.53125 0.78125 
Q 80.078125 -0.78125 82.03125 -0.578125 
Q 83.984375 -0.390625 83.984375 2.34375 
z
M 28.90625 54.6875 
Q 21.484375 23.828125 20.3125 19.140625 
Q 18.75 14.0625 18.9375 7.03125 
Q 19.140625 0 19.53125 -2.734375 
Q 19.53125 -4.296875 17.578125 -4.296875 
Q 16.015625 -4.296875 13.671875 -3.515625 
Q 11.328125 -2.734375 11.328125 0 
Q 11.328125 1.953125 12.5 5.859375 
Q 13.671875 9.765625 13.671875 12.109375 
Q 13.671875 14.84375 11.90625 16.40625 
Q 10.15625 17.96875 4.296875 19.53125 
L 4.296875 21.09375 
Q 11.328125 20.3125 13.078125 20.5 
Q 14.84375 20.703125 16.984375 24.015625 
Q 19.140625 27.34375 27.34375 55.078125 
z
M 5.859375 58.984375 
Q 16.796875 52.34375 17.375 48.4375 
Q 17.96875 44.53125 16.40625 43.359375 
Q 14.84375 42.1875 14.0625 42.1875 
Q 12.5 42.1875 11.328125 46.484375 
Q 9.375 52.34375 5.078125 57.8125 
z
M 12.5 79.6875 
Q 23.046875 73.828125 24.21875 70.5 
Q 25.390625 67.1875 23.828125 65.421875 
Q 22.265625 63.671875 21.09375 63.671875 
Q 19.921875 63.671875 18.75 67.1875 
Q 16.796875 72.65625 11.71875 78.515625 
z
" id="SimSun-27979"/>
      <path d="M 70.3125 56.25 
Q 70.3125 71.484375 69.921875 81.640625 
L 79.6875 76.5625 
L 75.78125 73.828125 
L 75.78125 56.25 
L 81.640625 56.25 
L 86.71875 61.328125 
L 94.140625 53.90625 
L 75.78125 53.90625 
L 75.78125 1.5625 
Q 75.78125 -5.859375 67.1875 -8.984375 
Q 66.796875 -3.125 54.296875 -0.390625 
L 54.296875 1.5625 
Q 64.84375 0 67.578125 0.390625 
Q 70.3125 0.78125 70.3125 5.078125 
L 70.3125 53.90625 
L 50 53.90625 
Q 44.921875 53.90625 40.625 52.734375 
L 37.109375 56.25 
z
M 44.921875 44.140625 
Q 55.078125 37.109375 56.828125 34.375 
Q 58.59375 31.640625 58.59375 30.078125 
Q 58.59375 28.125 56.828125 25.578125 
Q 55.078125 23.046875 54.296875 23.046875 
Q 53.125 23.046875 51.953125 27.734375 
Q 50 34.765625 43.75 42.96875 
z
M 14.453125 64.84375 
L 14.453125 41.40625 
L 30.46875 41.40625 
L 30.46875 64.84375 
z
M 14.453125 39.0625 
L 14.453125 14.0625 
L 30.46875 14.0625 
L 30.46875 39.0625 
z
M 35.9375 31.25 
Q 35.9375 12.5 36.328125 7.03125 
L 30.46875 3.90625 
L 30.46875 11.71875 
L 14.453125 11.71875 
L 14.453125 3.515625 
L 8.59375 0.390625 
Q 8.984375 12.890625 8.984375 37.890625 
Q 8.984375 62.890625 8.59375 70.3125 
L 14.84375 67.1875 
L 29.6875 67.1875 
L 32.8125 71.09375 
L 39.0625 66.015625 
L 35.9375 63.28125 
z
" id="SimSun-26102"/>
      <path d="M 34.375 56.640625 
Q 23.828125 44.921875 19.140625 41.015625 
L 39.84375 41.40625 
Q 44.140625 48.828125 46.09375 54.296875 
L 54.296875 48.046875 
L 50 46.875 
Q 39.453125 31.25 28.515625 22.65625 
Q 17.578125 14.0625 5.46875 9.375 
L 4.6875 10.546875 
Q 14.0625 15.625 22.84375 23.046875 
Q 31.640625 30.46875 38.28125 39.453125 
Q 32.421875 39.0625 26.75 38.28125 
Q 21.09375 37.5 16.40625 34.765625 
L 12.890625 41.40625 
Q 17.578125 42.578125 22.265625 48.828125 
Q 26.953125 55.078125 29.296875 61.328125 
L 18.359375 61.328125 
Q 13.28125 61.328125 8.984375 60.15625 
L 5.46875 63.671875 
L 50.390625 63.671875 
L 55.46875 68.75 
L 62.890625 61.328125 
L 32.421875 61.328125 
L 37.890625 57.421875 
z
M 55.46875 30.078125 
Q 48.828125 21.875 42.96875 15.625 
Q 56.640625 7.421875 56.828125 3.703125 
Q 57.03125 0 55.65625 -1.75 
Q 54.296875 -3.515625 53.515625 -3.515625 
Q 51.953125 -3.515625 50.78125 0.390625 
Q 48.828125 5.859375 41.40625 14.0625 
Q 27.34375 0 5.078125 -8.203125 
L 4.6875 -6.640625 
Q 23.828125 3.125 34.375 13.671875 
Q 44.921875 24.21875 52.734375 38.28125 
L 60.15625 31.25 
z
M 26.953125 80.46875 
L 28.125 81.25 
Q 38.671875 74.609375 38.671875 71.484375 
Q 38.671875 68.359375 37.109375 66.796875 
Q 35.546875 65.234375 34.765625 65.234375 
Q 33.203125 65.234375 32.421875 69.140625 
Q 31.25 74.609375 26.953125 80.46875 
z
M 73.828125 60.15625 
L 73.828125 26.171875 
Q 73.828125 20.3125 74.21875 15.234375 
L 68.359375 12.5 
Q 68.75 24.609375 68.75 39.84375 
Q 68.75 55.078125 68.359375 66.796875 
L 77.34375 63.28125 
z
M 85.546875 66.015625 
Q 85.546875 75 85.15625 81.25 
L 93.359375 77.734375 
L 90.625 75 
L 90.625 2.34375 
Q 91.015625 -7.03125 82.8125 -10.15625 
Q 82.03125 -3.515625 70.3125 -1.953125 
L 70.3125 0 
Q 78.515625 -0.78125 82.21875 -0.578125 
Q 85.9375 -0.390625 85.546875 5.078125 
z
" id="SimSun-21051"/>
     </defs>
     <g transform="translate(334.088 408.534775)scale(0.14 -0.14)">
      <use xlink:href="#SimSun-39044"/>
      <use x="100" xlink:href="#SimSun-27979"/>
      <use x="200" xlink:href="#SimSun-26102"/>
      <use x="300" xlink:href="#SimSun-21051"/>
     </g>
    </g>
   </g>
   <g id="matplotlib.axis_2">
    <g id="ytick_1">
     <g id="line2d_7">
      <defs>
       <path d="M 0 0 
L -3.5 0 
" id="m78dbd7652d" style="stroke:#000000;stroke-width:0.8;"/>
      </defs>
      <g>
       <use style="stroke:#000000;stroke-width:0.8;" x="54.144" xlink:href="#m78dbd7652d" y="378.005732"/>
      </g>
     </g>
     <g id="text_8">
      <!-- 38 -->
      <defs>
       <path d="M 9.765625 17.578125 
Q 9.765625 11.328125 13.859375 7.421875 
Q 17.96875 3.515625 24.21875 3.515625 
Q 31.640625 3.515625 34.953125 7.421875 
Q 38.28125 11.328125 38.28125 17.1875 
Q 38.28125 22.265625 33.59375 26.953125 
Q 28.90625 31.640625 19.53125 35.546875 
Q 14.84375 32.421875 12.296875 27.734375 
Q 9.765625 23.046875 9.765625 17.578125 
z
M 44.140625 18.359375 
Q 44.140625 10.9375 38.671875 5.859375 
Q 33.203125 0.78125 24.21875 0.78125 
Q 16.015625 0.78125 10.15625 5.859375 
Q 4.296875 10.9375 4.296875 17.578125 
Q 4.296875 24.21875 7.609375 28.90625 
Q 10.9375 33.59375 17.1875 37.109375 
Q 11.71875 39.84375 8.78125 43.9375 
Q 5.859375 48.046875 5.859375 53.125 
Q 5.859375 59.765625 10.9375 64.453125 
Q 16.015625 69.140625 25 69.140625 
Q 33.203125 69.140625 38.28125 64.453125 
Q 43.359375 59.765625 43.359375 53.125 
Q 43.359375 48.4375 40.421875 44.328125 
Q 37.5 40.234375 31.25 37.109375 
Q 37.890625 33.203125 41.015625 28.515625 
Q 44.140625 23.828125 44.140625 18.359375 
z
M 37.890625 52.734375 
Q 37.890625 58.203125 34.765625 62.296875 
Q 31.640625 66.40625 25 66.40625 
Q 17.578125 66.40625 14.453125 62.5 
Q 11.328125 58.59375 11.328125 54.296875 
Q 11.328125 50 15.8125 45.890625 
Q 20.3125 41.796875 28.515625 38.671875 
Q 33.203125 41.015625 35.546875 44.53125 
Q 37.890625 48.046875 37.890625 52.734375 
z
" id="SimSun-56"/>
      </defs>
      <g transform="translate(37.144 381.579951)scale(0.1 -0.1)">
       <use xlink:href="#SimSun-51"/>
       <use x="50" xlink:href="#SimSun-56"/>
      </g>
     </g>
    </g>
    <g id="ytick_2">
     <g id="line2d_8">
      <g>
       <use style="stroke:#000000;stroke-width:0.8;" x="54.144" xlink:href="#m78dbd7652d" y="335.179274"/>
      </g>
     </g>
     <g id="text_9">
      <!-- 40 -->
      <g transform="translate(37.144 338.753493)scale(0.1 -0.1)">
       <use xlink:href="#SimSun-52"/>
       <use x="50" xlink:href="#SimSun-48"/>
      </g>
     </g>
    </g>
    <g id="ytick_3">
     <g id="line2d_9">
      <g>
       <use style="stroke:#000000;stroke-width:0.8;" x="54.144" xlink:href="#m78dbd7652d" y="292.352817"/>
      </g>
     </g>
     <g id="text_10">
      <!-- 42 -->
      <g transform="translate(37.144 295.927035)scale(0.1 -0.1)">
       <use xlink:href="#SimSun-52"/>
       <use x="50" xlink:href="#SimSun-50"/>
      </g>
     </g>
    </g>
    <g id="ytick_4">
     <g id="line2d_10">
      <g>
       <use style="stroke:#000000;stroke-width:0.8;" x="54.144" xlink:href="#m78dbd7652d" y="249.526359"/>
      </g>
     </g>
     <g id="text_11">
      <!-- 44 -->
      <g transform="translate(37.144 253.100578)scale(0.1 -0.1)">
       <use xlink:href="#SimSun-52"/>
       <use x="50" xlink:href="#SimSun-52"/>
      </g>
     </g>
    </g>
    <g id="ytick_5">
     <g id="line2d_11">
      <g>
       <use style="stroke:#000000;stroke-width:0.8;" x="54.144" xlink:href="#m78dbd7652d" y="206.699901"/>
      </g>
     </g>
     <g id="text_12">
      <!-- 46 -->
      <defs>
       <path d="M 12.109375 28.125 
Q 12.109375 16.40625 16.203125 9.953125 
Q 20.3125 3.515625 26.171875 3.515625 
Q 32.03125 3.515625 35.15625 7.8125 
Q 38.28125 12.109375 38.28125 23.828125 
Q 38.28125 31.640625 34.953125 35.9375 
Q 31.640625 40.234375 26.953125 40.234375 
Q 22.65625 40.234375 18.9375 37.6875 
Q 15.234375 35.15625 12.109375 28.125 
z
M 27.34375 44.140625 
Q 36.71875 44.140625 40.8125 37.890625 
Q 44.921875 31.640625 44.921875 23.828125 
Q 44.921875 12.109375 39.25 6.4375 
Q 33.59375 0.78125 26.171875 0.78125 
Q 15.625 0.78125 10.15625 8.78125 
Q 4.6875 16.796875 4.6875 32.03125 
Q 4.6875 50 11.328125 59.5625 
Q 17.96875 69.140625 29.296875 69.140625 
Q 34.765625 69.140625 38.078125 66.015625 
Q 41.40625 62.890625 41.40625 60.546875 
Q 41.40625 58.203125 40.421875 57.03125 
Q 39.453125 55.859375 37.109375 55.859375 
Q 35.15625 55.859375 34.171875 56.828125 
Q 33.203125 57.8125 33.203125 59.765625 
Q 33.203125 60.546875 33.59375 61.328125 
Q 33.59375 62.109375 33.59375 62.890625 
Q 33.59375 64.453125 32.421875 65.421875 
Q 31.25 66.40625 28.125 66.40625 
Q 21.484375 66.40625 16.796875 60.34375 
Q 12.109375 54.296875 12.109375 33.984375 
Q 14.453125 39.0625 18.546875 41.59375 
Q 22.65625 44.140625 27.34375 44.140625 
z
" id="SimSun-54"/>
      </defs>
      <g transform="translate(37.144 210.27412)scale(0.1 -0.1)">
       <use xlink:href="#SimSun-52"/>
       <use x="50" xlink:href="#SimSun-54"/>
      </g>
     </g>
    </g>
    <g id="ytick_6">
     <g id="line2d_12">
      <g>
       <use style="stroke:#000000;stroke-width:0.8;" x="54.144" xlink:href="#m78dbd7652d" y="163.873443"/>
      </g>
     </g>
     <g id="text_13">
      <!-- 48 -->
      <g transform="translate(37.144 167.447662)scale(0.1 -0.1)">
       <use xlink:href="#SimSun-52"/>
       <use x="50" xlink:href="#SimSun-56"/>
      </g>
     </g>
    </g>
    <g id="ytick_7">
     <g id="line2d_13">
      <g>
       <use style="stroke:#000000;stroke-width:0.8;" x="54.144" xlink:href="#m78dbd7652d" y="121.046985"/>
      </g>
     </g>
     <g id="text_14">
      <!-- 50 -->
      <g transform="translate(37.144 124.621204)scale(0.1 -0.1)">
       <use xlink:href="#SimSun-53"/>
       <use x="50" xlink:href="#SimSun-48"/>
      </g>
     </g>
    </g>
    <g id="ytick_8">
     <g id="line2d_14">
      <g>
       <use style="stroke:#000000;stroke-width:0.8;" x="54.144" xlink:href="#m78dbd7652d" y="78.220528"/>
      </g>
     </g>
     <g id="text_15">
      <!-- 52 -->
      <g transform="translate(37.144 81.794746)scale(0.1 -0.1)">
       <use xlink:href="#SimSun-53"/>
       <use x="50" xlink:href="#SimSun-50"/>
      </g>
     </g>
    </g>
    <g id="ytick_9">
     <g id="line2d_15">
      <g>
       <use style="stroke:#000000;stroke-width:0.8;" x="54.144" xlink:href="#m78dbd7652d" y="35.39407"/>
      </g>
     </g>
     <g id="text_16">
      <!-- 54 -->
      <g transform="translate(37.144 38.968288)scale(0.1 -0.1)">
       <use xlink:href="#SimSun-53"/>
       <use x="50" xlink:href="#SimSun-52"/>
      </g>
     </g>
    </g>
    <g id="text_17">
     <!-- 出水COD浓度(mg/L) -->
     <defs>
      <path d="M 80.859375 62.109375 
L 80.859375 46.875 
Q 80.859375 42.96875 81.640625 35.9375 
L 75.390625 33.59375 
L 75.390625 38.28125 
L 52.34375 38.28125 
L 52.34375 0.390625 
L 79.296875 0.390625 
L 79.296875 17.578125 
Q 79.296875 23.046875 78.90625 29.6875 
L 87.890625 24.609375 
L 84.765625 22.265625 
L 84.765625 7.8125 
Q 84.765625 0.78125 85.15625 -6.25 
L 79.296875 -8.203125 
L 79.296875 -1.953125 
L 20.703125 -1.953125 
L 17.96875 -4.6875 
L 12.5 -0.390625 
L 15.234375 2.34375 
L 15.234375 17.578125 
Q 15.234375 23.4375 14.84375 30.46875 
L 23.828125 25.78125 
L 20.703125 23.046875 
L 20.703125 0.390625 
L 46.875 0.390625 
L 46.875 38.28125 
L 24.21875 38.28125 
L 21.09375 35.546875 
L 15.625 39.84375 
L 18.359375 42.1875 
L 18.359375 58.203125 
Q 18.359375 62.890625 17.96875 68.359375 
L 27.34375 63.671875 
L 23.828125 61.328125 
L 23.828125 40.625 
L 46.875 40.625 
L 46.875 66.40625 
Q 46.875 73.4375 46.484375 80.078125 
L 55.46875 75.78125 
L 52.34375 72.265625 
L 52.34375 40.625 
L 75.390625 40.625 
L 75.390625 58.203125 
Q 75.390625 62.890625 75 69.140625 
L 83.984375 64.84375 
z
" id="SimSun-20986"/>
      <path d="M 46.09375 81.25 
L 56.25 76.953125 
L 52.34375 73.828125 
Q 51.953125 64.84375 53.90625 58.59375 
Q 55.859375 52.34375 60.15625 43.359375 
Q 75.390625 55.859375 80.859375 64.84375 
L 87.5 57.8125 
Q 83.59375 57.421875 77.734375 53.125 
Q 71.484375 48.828125 60.9375 41.40625 
Q 76.171875 12.109375 95.3125 5.859375 
L 95.3125 4.296875 
Q 87.890625 3.90625 86.328125 -0.390625 
Q 62.5 17.1875 52.34375 56.640625 
L 52.34375 1.953125 
Q 52.734375 -7.8125 42.96875 -10.15625 
Q 43.359375 -4.6875 30.859375 -1.5625 
L 30.859375 0 
Q 39.84375 -0.78125 43.15625 -0.78125 
Q 46.484375 -0.78125 46.484375 3.90625 
L 46.484375 66.796875 
Q 46.484375 74.21875 46.09375 81.25 
z
M 5.859375 -2.34375 
L 5.078125 -1.171875 
Q 24.609375 18.359375 32.03125 48.828125 
L 19.921875 48.828125 
Q 14.84375 48.828125 10.546875 47.65625 
L 7.03125 51.171875 
L 31.640625 51.171875 
L 35.15625 55.859375 
L 42.1875 49.609375 
L 38.28125 47.65625 
Q 28.515625 12.890625 5.859375 -2.34375 
z
" id="SimSun-27700"/>
      <path d="M 26.953125 0.78125 
Q 16.015625 0.78125 9.5625 8.984375 
Q 3.125 17.1875 3.125 34.765625 
Q 3.125 49.609375 9.953125 59.375 
Q 16.796875 69.140625 28.515625 69.140625 
Q 31.25 69.140625 33.984375 68.359375 
Q 36.71875 67.1875 38.671875 67.1875 
Q 40.234375 67.1875 41.203125 67.578125 
Q 42.1875 67.96875 42.96875 69.140625 
L 46.484375 51.953125 
L 44.140625 51.171875 
Q 41.796875 58.59375 37.890625 62.5 
Q 33.984375 66.40625 27.734375 66.40625 
Q 19.53125 66.40625 15.03125 57.421875 
Q 10.546875 48.4375 10.546875 35.15625 
Q 10.546875 20.703125 14.453125 12.5 
Q 18.359375 4.296875 27.34375 4.296875 
Q 33.59375 4.296875 38.078125 8.78125 
Q 42.578125 13.28125 44.140625 20.703125 
L 46.484375 19.53125 
Q 44.53125 11.328125 39.25 6.046875 
Q 33.984375 0.78125 26.953125 0.78125 
z
" id="SimSun-67"/>
      <path d="M 10.9375 35.15625 
Q 10.9375 18.359375 15.03125 10.734375 
Q 19.140625 3.125 25.390625 3.125 
Q 32.03125 3.125 35.9375 10.34375 
Q 39.84375 17.578125 39.84375 35.15625 
Q 39.84375 49.21875 36.515625 57.8125 
Q 33.203125 66.40625 25.390625 66.40625 
Q 18.75 66.40625 14.84375 58.59375 
Q 10.9375 50.78125 10.9375 35.15625 
z
M 47.265625 35.15625 
Q 47.265625 19.140625 41.015625 9.953125 
Q 34.765625 0.78125 25.390625 0.78125 
Q 16.40625 0.78125 9.953125 10.15625 
Q 3.515625 19.53125 3.515625 35.15625 
Q 3.515625 50.390625 9.5625 59.765625 
Q 15.625 69.140625 25.390625 69.140625 
Q 35.546875 69.140625 41.40625 59.171875 
Q 47.265625 49.21875 47.265625 35.15625 
z
" id="SimSun-79"/>
      <path d="M 39.0625 35.546875 
Q 39.0625 52.34375 33.984375 59.171875 
Q 28.90625 66.015625 19.921875 66.015625 
Q 17.1875 66.015625 15.8125 65.234375 
Q 14.453125 64.453125 14.453125 62.890625 
L 14.453125 7.03125 
Q 14.453125 5.46875 15.625 4.6875 
Q 16.796875 3.90625 18.75 3.90625 
Q 27.34375 3.90625 33.203125 10.34375 
Q 39.0625 16.796875 39.0625 35.546875 
z
M 8.203125 62.890625 
Q 8.203125 64.453125 7.421875 65.234375 
Q 6.640625 66.015625 4.6875 66.015625 
L 2.34375 66.015625 
L 2.34375 68.359375 
L 19.921875 68.359375 
Q 32.03125 68.359375 39.25 60.546875 
Q 46.484375 52.734375 46.484375 36.328125 
Q 46.484375 18.359375 39.453125 9.953125 
Q 32.421875 1.5625 18.75 1.5625 
L 1.953125 1.5625 
L 1.953125 3.90625 
L 4.6875 3.90625 
Q 6.640625 3.90625 7.421875 4.6875 
Q 8.203125 5.46875 8.203125 7.03125 
z
" id="SimSun-68"/>
      <path d="M 76.5625 50 
L 82.03125 60.546875 
L 58.59375 60.546875 
Q 57.8125 58.203125 57.03125 55.859375 
Q 61.328125 38.28125 67.1875 30.078125 
Q 78.90625 40.625 82.03125 46.484375 
L 88.28125 39.453125 
Q 82.421875 38.28125 77.53125 34.765625 
Q 72.65625 31.25 68.359375 28.125 
Q 79.296875 11.71875 95.3125 5.46875 
L 95.3125 3.90625 
Q 88.28125 4.296875 85.9375 -0.390625 
Q 60.9375 19.53125 55.859375 52.734375 
Q 51.953125 43.75 48.046875 37.109375 
L 52.734375 34.765625 
L 50.390625 32.421875 
L 50.390625 1.5625 
L 65.234375 9.375 
L 66.015625 7.8125 
Q 52.34375 -1.5625 48.4375 -7.8125 
L 43.359375 -1.953125 
Q 45.3125 -0.78125 44.921875 6.640625 
L 44.921875 31.25 
Q 34.375 18.359375 23.046875 9.765625 
L 22.265625 10.9375 
Q 44.53125 33.59375 53.125 60.546875 
L 40.234375 60.546875 
Q 40.625 54.296875 38.671875 52.140625 
Q 36.71875 50 34.171875 50.390625 
Q 31.640625 50.78125 31.640625 51.953125 
Q 31.640625 53.125 33.59375 55.46875 
Q 37.109375 59.375 38.671875 67.1875 
L 40.234375 67.1875 
L 40.234375 62.890625 
L 53.515625 62.890625 
Q 54.6875 67.578125 55.46875 72.453125 
Q 56.25 77.34375 56.640625 81.640625 
L 65.234375 77.34375 
L 62.109375 75 
Q 60.546875 68.359375 58.984375 62.890625 
L 81.25 62.890625 
L 85.15625 67.1875 
L 92.1875 59.375 
Q 85.9375 59.375 77.734375 49.21875 
z
M 30.859375 60.9375 
Q 21.09375 21.875 20.109375 16.984375 
Q 19.140625 12.109375 19.140625 5.078125 
Q 19.140625 -1.953125 19.140625 -4.484375 
Q 19.140625 -7.03125 17.578125 -7.03125 
Q 16.40625 -7.03125 13.859375 -5.859375 
Q 11.328125 -4.6875 11.328125 -1.5625 
Q 11.328125 1.171875 12.109375 3.90625 
Q 13.28125 7.8125 13.28125 10.546875 
Q 13.28125 12.890625 11.71875 14.453125 
Q 10.15625 16.015625 4.296875 17.578125 
L 4.296875 19.140625 
Q 11.328125 18.359375 12.6875 18.75 
Q 14.0625 19.140625 16.203125 22.65625 
Q 18.359375 26.171875 29.296875 61.328125 
z
M 4.6875 54.6875 
Q 17.578125 49.21875 17.765625 45.3125 
Q 17.96875 41.40625 16.40625 39.640625 
Q 14.84375 37.890625 14.453125 37.890625 
Q 13.28125 37.890625 12.109375 41.796875 
Q 10.15625 46.875 3.90625 53.515625 
z
M 13.671875 77.34375 
Q 24.21875 72.65625 25.390625 70.703125 
Q 26.5625 68.75 26.5625 67.1875 
Q 26.5625 65.234375 25 62.890625 
Q 23.4375 60.546875 22.65625 60.546875 
Q 21.09375 60.546875 19.921875 64.453125 
Q 17.96875 70.703125 12.890625 76.171875 
z
" id="SimSun-27987"/>
      <path d="M 39.84375 31.640625 
Q 40.234375 39.453125 40.234375 49.609375 
L 30.078125 49.609375 
L 25.390625 48.828125 
L 22.265625 51.953125 
L 40.234375 51.953125 
Q 40.234375 57.8125 39.84375 64.84375 
L 48.4375 60.546875 
L 45.3125 58.59375 
L 45.3125 51.953125 
L 67.1875 51.953125 
Q 67.1875 58.59375 66.796875 64.453125 
L 75.78125 60.546875 
L 72.265625 58.203125 
L 72.265625 51.953125 
L 79.6875 51.953125 
L 84.765625 57.03125 
L 92.1875 49.609375 
L 72.265625 49.609375 
Q 72.265625 38.28125 72.65625 34.765625 
L 67.1875 32.421875 
L 67.1875 35.9375 
L 45.3125 35.9375 
L 45.3125 33.984375 
z
M 76.171875 23.4375 
Q 67.1875 12.109375 60.9375 6.640625 
Q 73.4375 -1.171875 94.140625 -1.953125 
L 94.140625 -3.515625 
Q 87.890625 -4.6875 86.71875 -8.59375 
Q 68.359375 -5.078125 57.421875 3.515625 
Q 38.671875 -7.03125 16.796875 -9.765625 
L 16.40625 -8.203125 
Q 37.109375 -4.296875 53.90625 7.03125 
Q 46.484375 14.453125 40.234375 25.390625 
L 36.328125 25.390625 
L 32.8125 24.609375 
L 29.6875 27.734375 
L 70.703125 27.734375 
L 74.21875 31.25 
L 80.078125 25.390625 
z
M 42.1875 25.390625 
Q 49.609375 15.234375 57.03125 9.765625 
Q 64.84375 17.1875 70.3125 25.390625 
z
M 45.3125 49.609375 
L 45.3125 38.28125 
L 67.1875 38.28125 
L 67.1875 49.609375 
z
M 15.234375 72.65625 
L 21.875 68.75 
L 52.734375 68.75 
Q 52.34375 71.09375 50.96875 73.828125 
Q 49.609375 76.5625 45.3125 81.640625 
L 46.484375 82.421875 
Q 55.46875 78.515625 56.828125 76.359375 
Q 58.203125 74.21875 58.203125 73.828125 
Q 58.203125 71.484375 55.078125 68.75 
L 80.46875 68.75 
L 85.9375 74.21875 
L 93.75 66.40625 
L 21.484375 66.40625 
Q 21.875 42.96875 20.109375 29.875 
Q 18.359375 16.796875 14.453125 7.421875 
Q 10.546875 -1.953125 4.6875 -9.765625 
L 3.515625 -8.984375 
Q 11.328125 4.6875 13.46875 19.53125 
Q 15.625 34.375 15.8125 49.796875 
Q 16.015625 65.234375 15.234375 72.65625 
z
" id="SimSun-24230"/>
      <path d="M 45.3125 78.515625 
Q 36.328125 69.140625 31.828125 58.390625 
Q 27.34375 47.65625 27.34375 35.9375 
Q 27.34375 23.828125 31.828125 13.28125 
Q 36.328125 2.734375 45.3125 -6.640625 
L 43.359375 -8.59375 
Q 32.421875 1.171875 26.953125 12.296875 
Q 21.484375 23.4375 21.484375 35.9375 
Q 21.484375 48.046875 26.953125 59.171875 
Q 32.421875 70.3125 43.359375 80.46875 
z
" id="SimSun-40"/>
      <path d="M 2.734375 45.3125 
Q 4.6875 45.3125 6.640625 45.703125 
Q 8.59375 46.09375 9.765625 46.875 
L 10.546875 46.875 
L 10.546875 40.234375 
Q 12.5 43.359375 14.84375 44.71875 
Q 17.1875 46.09375 19.921875 46.09375 
Q 23.4375 46.09375 25.390625 44.71875 
Q 27.34375 43.359375 27.734375 40.234375 
Q 29.6875 43.359375 32.21875 44.71875 
Q 34.765625 46.09375 37.5 46.09375 
Q 42.1875 46.09375 43.9375 43.359375 
Q 45.703125 40.625 45.703125 36.328125 
L 45.703125 6.640625 
Q 45.703125 5.078125 46.484375 4.484375 
Q 47.265625 3.90625 48.828125 3.90625 
L 49.609375 3.90625 
L 49.609375 1.5625 
L 36.328125 1.5625 
L 36.328125 3.90625 
L 37.109375 3.90625 
Q 38.671875 3.90625 39.453125 4.484375 
Q 40.234375 5.078125 40.234375 6.640625 
L 40.234375 35.9375 
Q 40.234375 40.234375 39.25 41.59375 
Q 38.28125 42.96875 36.328125 42.96875 
Q 33.59375 42.96875 31.4375 41.015625 
Q 29.296875 39.0625 28.125 35.546875 
L 28.125 6.640625 
Q 28.125 5.078125 28.90625 4.484375 
Q 29.6875 3.90625 31.25 3.90625 
L 32.03125 3.90625 
L 32.03125 1.5625 
L 18.75 1.5625 
L 18.75 3.90625 
L 19.53125 3.90625 
Q 21.09375 3.90625 21.875 4.484375 
Q 22.65625 5.078125 22.65625 6.640625 
L 22.65625 35.9375 
Q 22.65625 39.453125 21.875 41.203125 
Q 21.09375 42.96875 18.75 42.96875 
Q 16.015625 42.96875 13.859375 41.015625 
Q 11.71875 39.0625 10.546875 35.15625 
L 10.546875 6.640625 
Q 10.546875 5.078125 11.328125 4.484375 
Q 12.109375 3.90625 13.671875 3.90625 
L 14.453125 3.90625 
L 14.453125 1.5625 
L 1.171875 1.5625 
L 1.171875 3.90625 
L 1.953125 3.90625 
Q 3.515625 3.90625 4.296875 4.484375 
Q 5.078125 5.078125 5.078125 6.640625 
L 5.078125 40.625 
Q 5.078125 41.796875 4.6875 42.375 
Q 4.296875 42.96875 3.125 42.96875 
L 1.5625 42.96875 
L 1.5625 45.3125 
z
" id="SimSun-109"/>
      <path d="M 13.671875 30.859375 
Q 13.671875 26.171875 16.40625 22.84375 
Q 19.140625 19.53125 23.828125 19.53125 
Q 28.90625 19.53125 31.4375 22.453125 
Q 33.984375 25.390625 33.984375 30.859375 
Q 33.984375 37.5 31.046875 40.421875 
Q 28.125 43.359375 23.828125 43.359375 
Q 19.53125 43.359375 16.59375 40.421875 
Q 13.671875 37.5 13.671875 30.859375 
z
M 32.8125 9.765625 
Q 38.671875 8.984375 41.40625 6.4375 
Q 44.140625 3.90625 44.140625 -0.390625 
Q 44.140625 -6.25 39.25 -9.765625 
Q 34.375 -13.28125 23.828125 -13.28125 
Q 15.625 -13.28125 10.546875 -9.953125 
Q 5.46875 -6.640625 5.46875 -2.34375 
Q 5.46875 0.390625 7.421875 3.125 
Q 9.375 5.859375 13.671875 7.421875 
Q 11.328125 8.59375 9.953125 9.953125 
Q 8.59375 11.328125 8.59375 13.28125 
Q 8.59375 15.625 10.15625 17.375 
Q 11.71875 19.140625 14.0625 20.3125 
Q 11.71875 22.265625 9.953125 25 
Q 8.203125 27.734375 8.203125 30.859375 
Q 8.203125 36.71875 12.296875 41.203125 
Q 16.40625 45.703125 23.828125 45.703125 
Q 26.953125 45.703125 29.875 44.921875 
Q 32.8125 44.140625 34.765625 42.1875 
Q 37.5 44.140625 39.640625 45.109375 
Q 41.796875 46.09375 43.359375 46.09375 
Q 45.3125 46.09375 46.09375 44.71875 
Q 46.875 43.359375 46.875 42.1875 
Q 46.875 40.625 46.28125 39.640625 
Q 45.703125 38.671875 44.140625 38.671875 
Q 42.96875 38.671875 42.1875 39.25 
Q 41.40625 39.84375 41.015625 41.015625 
Q 40.625 42.1875 39.25 41.984375 
Q 37.890625 41.796875 36.328125 40.625 
Q 37.890625 39.0625 38.671875 36.328125 
Q 39.453125 33.59375 39.453125 30.859375 
Q 39.453125 26.171875 35.734375 21.671875 
Q 32.03125 17.1875 23.828125 17.1875 
Q 21.484375 17.1875 19.53125 17.765625 
Q 17.578125 18.359375 16.40625 19.140625 
Q 14.84375 18.359375 14.0625 17.1875 
Q 13.28125 16.015625 13.28125 15.234375 
Q 13.28125 13.671875 14.0625 12.890625 
Q 14.84375 12.109375 16.40625 12.109375 
Q 21.484375 11.328125 25.578125 10.734375 
Q 29.6875 10.15625 32.8125 9.765625 
z
M 16.796875 6.640625 
Q 13.28125 5.078125 11.90625 2.921875 
Q 10.546875 0.78125 10.546875 -2.34375 
Q 10.546875 -5.46875 14.0625 -8.203125 
Q 17.578125 -10.9375 24.609375 -10.9375 
Q 31.25 -10.9375 35.15625 -8.78125 
Q 39.0625 -6.640625 39.0625 -2.34375 
Q 39.0625 0.390625 38.078125 1.953125 
Q 37.109375 3.515625 35.15625 3.90625 
Q 31.25 4.6875 26.5625 5.46875 
Q 21.875 5.859375 16.796875 6.640625 
z
" id="SimSun-103"/>
      <path d="M 6.25 -7.421875 
L 3.515625 -5.859375 
L 43.359375 77.734375 
L 46.09375 76.171875 
z
" id="SimSun-47"/>
      <path d="M 15.625 7.03125 
Q 15.625 5.46875 16.59375 4.6875 
Q 17.578125 3.90625 19.140625 3.90625 
L 29.6875 3.90625 
Q 35.15625 3.90625 39.0625 7.21875 
Q 42.96875 10.546875 44.921875 17.578125 
L 46.875 16.796875 
L 43.359375 1.5625 
L 3.125 1.5625 
L 3.125 3.90625 
L 5.859375 3.90625 
Q 7.8125 3.90625 8.59375 4.6875 
Q 9.375 5.46875 9.375 7.03125 
L 9.375 62.890625 
Q 9.375 64.453125 8.59375 65.234375 
Q 7.8125 66.015625 5.859375 66.015625 
L 3.515625 66.015625 
L 3.515625 68.359375 
L 21.875 68.359375 
L 21.875 66.015625 
L 19.140625 66.015625 
Q 17.578125 66.015625 16.59375 65.234375 
Q 15.625 64.453125 15.625 62.890625 
z
" id="SimSun-76"/>
      <path d="M 4.296875 78.515625 
L 6.25 80.46875 
Q 17.1875 70.3125 22.65625 59.171875 
Q 28.125 48.046875 28.125 35.9375 
Q 28.125 23.4375 22.65625 12.296875 
Q 17.1875 1.171875 6.25 -8.59375 
L 4.296875 -6.640625 
Q 13.28125 2.734375 17.765625 13.28125 
Q 22.265625 23.828125 22.265625 35.9375 
Q 22.265625 47.65625 17.765625 58.390625 
Q 13.28125 69.140625 4.296875 78.515625 
z
" id="SimSun-41"/>
     </defs>
     <g transform="translate(31.284625 250.6024)rotate(-90)scale(0.14 -0.14)">
      <use xlink:href="#SimSun-20986"/>
      <use x="100" xlink:href="#SimSun-27700"/>
      <use x="200" xlink:href="#SimSun-67"/>
      <use x="250" xlink:href="#SimSun-79"/>
      <use x="300" xlink:href="#SimSun-68"/>
      <use x="350" xlink:href="#SimSun-27987"/>
      <use x="450" xlink:href="#SimSun-24230"/>
      <use x="550" xlink:href="#SimSun-40"/>
      <use x="600" xlink:href="#SimSun-109"/>
      <use x="650" xlink:href="#SimSun-103"/>
      <use x="700" xlink:href="#SimSun-47"/>
      <use x="750" xlink:href="#SimSun-76"/>
      <use x="800" xlink:href="#SimSun-41"/>
     </g>
    </g>
   </g>
   <g id="line2d_16">
    <path clip-path="url(#p4afd9ea504)" d="M 82.138909 191.404879 
L 93.565403 240.931182 
L 104.991896 237.084052 
L 116.41839 198.574503 
L 127.844883 39.96144 
L 139.271377 21.149673 
L 150.69787 74.223021 
L 162.124364 168.592496 
L 173.550857 199.867676 
L 184.977351 263.78124 
L 196.403844 260.320471 
L 207.830338 137.259881 
L 219.256831 161.670271 
L 230.683325 205.377968 
L 242.109818 207.298048 
L 253.536312 196.832347 
L 264.962805 102.416107 
L 276.389299 33.631628 
L 287.815792 82.503646 
L 299.242286 152.416419 
L 310.668779 175.251261 
L 322.095273 229.283615 
L 333.521766 230.540785 
L 344.94826 90.696724 
L 356.374753 198.575901 
L 367.801247 239.225397 
L 379.22774 314.347021 
L 390.654234 287.82684 
L 402.080727 244.914271 
L 413.507221 209.923193 
L 424.933714 218.258356 
L 436.360208 220.400355 
L 447.786701 295.169655 
L 459.213195 278.205015 
L 470.639688 309.94891 
L 482.066182 162.483188 
L 493.492675 213.047947 
L 504.919169 274.740505 
L 516.345662 288.397611 
L 527.772156 268.473981 
L 539.198649 228.281713 
L 550.625143 246.812476 
L 562.051636 224.320464 
L 573.47813 271.886286 
L 584.904623 278.953004 
L 596.331117 287.431811 
L 607.75761 313.660968 
L 619.184104 178.225152 
L 630.610597 252.422345 
L 642.037091 268.724394 
" style="fill:none;stroke:#1e90ff;stroke-linecap:square;stroke-width:1.6;"/>
    <defs>
     <path d="M 0 3 
C 0.795609 3 1.55874 2.683901 2.12132 2.12132 
C 2.683901 1.55874 3 0.795609 3 0 
C 3 -0.795609 2.683901 -1.55874 2.12132 -2.12132 
C 1.55874 -2.683901 0.795609 -3 0 -3 
C -0.795609 -3 -1.55874 -2.683901 -2.12132 -2.12132 
C -2.683901 -1.55874 -3 -0.795609 -3 0 
C -3 0.795609 -2.683901 1.55874 -2.12132 2.12132 
C -1.55874 2.683901 -0.795609 3 0 3 
z
" id="m0035ad0b69" style="stroke:#1e90ff;"/>
    </defs>
    <g clip-path="url(#p4afd9ea504)">
     <use style="fill:#1e90ff;stroke:#1e90ff;" x="82.138909" xlink:href="#m0035ad0b69" y="191.404879"/>
     <use style="fill:#1e90ff;stroke:#1e90ff;" x="93.565403" xlink:href="#m0035ad0b69" y="240.931182"/>
     <use style="fill:#1e90ff;stroke:#1e90ff;" x="104.991896" xlink:href="#m0035ad0b69" y="237.084052"/>
     <use style="fill:#1e90ff;stroke:#1e90ff;" x="116.41839" xlink:href="#m0035ad0b69" y="198.574503"/>
     <use style="fill:#1e90ff;stroke:#1e90ff;" x="127.844883" xlink:href="#m0035ad0b69" y="39.96144"/>
     <use style="fill:#1e90ff;stroke:#1e90ff;" x="139.271377" xlink:href="#m0035ad0b69" y="21.149673"/>
     <use style="fill:#1e90ff;stroke:#1e90ff;" x="150.69787" xlink:href="#m0035ad0b69" y="74.223021"/>
     <use style="fill:#1e90ff;stroke:#1e90ff;" x="162.124364" xlink:href="#m0035ad0b69" y="168.592496"/>
     <use style="fill:#1e90ff;stroke:#1e90ff;" x="173.550857" xlink:href="#m0035ad0b69" y="199.867676"/>
     <use style="fill:#1e90ff;stroke:#1e90ff;" x="184.977351" xlink:href="#m0035ad0b69" y="263.78124"/>
     <use style="fill:#1e90ff;stroke:#1e90ff;" x="196.403844" xlink:href="#m0035ad0b69" y="260.320471"/>
     <use style="fill:#1e90ff;stroke:#1e90ff;" x="207.830338" xlink:href="#m0035ad0b69" y="137.259881"/>
     <use style="fill:#1e90ff;stroke:#1e90ff;" x="219.256831" xlink:href="#m0035ad0b69" y="161.670271"/>
     <use style="fill:#1e90ff;stroke:#1e90ff;" x="230.683325" xlink:href="#m0035ad0b69" y="205.377968"/>
     <use style="fill:#1e90ff;stroke:#1e90ff;" x="242.109818" xlink:href="#m0035ad0b69" y="207.298048"/>
     <use style="fill:#1e90ff;stroke:#1e90ff;" x="253.536312" xlink:href="#m0035ad0b69" y="196.832347"/>
     <use style="fill:#1e90ff;stroke:#1e90ff;" x="264.962805" xlink:href="#m0035ad0b69" y="102.416107"/>
     <use style="fill:#1e90ff;stroke:#1e90ff;" x="276.389299" xlink:href="#m0035ad0b69" y="33.631628"/>
     <use style="fill:#1e90ff;stroke:#1e90ff;" x="287.815792" xlink:href="#m0035ad0b69" y="82.503646"/>
     <use style="fill:#1e90ff;stroke:#1e90ff;" x="299.242286" xlink:href="#m0035ad0b69" y="152.416419"/>
     <use style="fill:#1e90ff;stroke:#1e90ff;" x="310.668779" xlink:href="#m0035ad0b69" y="175.251261"/>
     <use style="fill:#1e90ff;stroke:#1e90ff;" x="322.095273" xlink:href="#m0035ad0b69" y="229.283615"/>
     <use style="fill:#1e90ff;stroke:#1e90ff;" x="333.521766" xlink:href="#m0035ad0b69" y="230.540785"/>
     <use style="fill:#1e90ff;stroke:#1e90ff;" x="344.94826" xlink:href="#m0035ad0b69" y="90.696724"/>
     <use style="fill:#1e90ff;stroke:#1e90ff;" x="356.374753" xlink:href="#m0035ad0b69" y="198.575901"/>
     <use style="fill:#1e90ff;stroke:#1e90ff;" x="367.801247" xlink:href="#m0035ad0b69" y="239.225397"/>
     <use style="fill:#1e90ff;stroke:#1e90ff;" x="379.22774" xlink:href="#m0035ad0b69" y="314.347021"/>
     <use style="fill:#1e90ff;stroke:#1e90ff;" x="390.654234" xlink:href="#m0035ad0b69" y="287.82684"/>
     <use style="fill:#1e90ff;stroke:#1e90ff;" x="402.080727" xlink:href="#m0035ad0b69" y="244.914271"/>
     <use style="fill:#1e90ff;stroke:#1e90ff;" x="413.507221" xlink:href="#m0035ad0b69" y="209.923193"/>
     <use style="fill:#1e90ff;stroke:#1e90ff;" x="424.933714" xlink:href="#m0035ad0b69" y="218.258356"/>
     <use style="fill:#1e90ff;stroke:#1e90ff;" x="436.360208" xlink:href="#m0035ad0b69" y="220.400355"/>
     <use style="fill:#1e90ff;stroke:#1e90ff;" x="447.786701" xlink:href="#m0035ad0b69" y="295.169655"/>
     <use style="fill:#1e90ff;stroke:#1e90ff;" x="459.213195" xlink:href="#m0035ad0b69" y="278.205015"/>
     <use style="fill:#1e90ff;stroke:#1e90ff;" x="470.639688" xlink:href="#m0035ad0b69" y="309.94891"/>
     <use style="fill:#1e90ff;stroke:#1e90ff;" x="482.066182" xlink:href="#m0035ad0b69" y="162.483188"/>
     <use style="fill:#1e90ff;stroke:#1e90ff;" x="493.492675" xlink:href="#m0035ad0b69" y="213.047947"/>
     <use style="fill:#1e90ff;stroke:#1e90ff;" x="504.919169" xlink:href="#m0035ad0b69" y="274.740505"/>
     <use style="fill:#1e90ff;stroke:#1e90ff;" x="516.345662" xlink:href="#m0035ad0b69" y="288.397611"/>
     <use style="fill:#1e90ff;stroke:#1e90ff;" x="527.772156" xlink:href="#m0035ad0b69" y="268.473981"/>
     <use style="fill:#1e90ff;stroke:#1e90ff;" x="539.198649" xlink:href="#m0035ad0b69" y="228.281713"/>
     <use style="fill:#1e90ff;stroke:#1e90ff;" x="550.625143" xlink:href="#m0035ad0b69" y="246.812476"/>
     <use style="fill:#1e90ff;stroke:#1e90ff;" x="562.051636" xlink:href="#m0035ad0b69" y="224.320464"/>
     <use style="fill:#1e90ff;stroke:#1e90ff;" x="573.47813" xlink:href="#m0035ad0b69" y="271.886286"/>
     <use style="fill:#1e90ff;stroke:#1e90ff;" x="584.904623" xlink:href="#m0035ad0b69" y="278.953004"/>
     <use style="fill:#1e90ff;stroke:#1e90ff;" x="596.331117" xlink:href="#m0035ad0b69" y="287.431811"/>
     <use style="fill:#1e90ff;stroke:#1e90ff;" x="607.75761" xlink:href="#m0035ad0b69" y="313.660968"/>
     <use style="fill:#1e90ff;stroke:#1e90ff;" x="619.184104" xlink:href="#m0035ad0b69" y="178.225152"/>
     <use style="fill:#1e90ff;stroke:#1e90ff;" x="630.610597" xlink:href="#m0035ad0b69" y="252.422345"/>
     <use style="fill:#1e90ff;stroke:#1e90ff;" x="642.037091" xlink:href="#m0035ad0b69" y="268.724394"/>
    </g>
   </g>
   <g id="line2d_17">
    <path clip-path="url(#p4afd9ea504)" d="M 82.138909 177.074549 
L 93.565403 247.894542 
L 104.991896 258.02377 
L 116.41839 187.99551 
L 127.844883 54.539723 
L 139.271377 37.740788 
L 150.69787 104.398114 
L 162.124364 166.167871 
L 173.550857 224.731703 
L 184.977351 249.095396 
L 196.403844 258.248031 
L 207.830338 136.763996 
L 219.256831 143.908734 
L 230.683325 177.128703 
L 242.109818 192.047685 
L 253.536312 179.707584 
L 264.962805 90.322813 
L 276.389299 58.317081 
L 287.815792 98.270376 
L 299.242286 140.10583 
L 310.668779 196.697246 
L 322.095273 232.666503 
L 333.521766 257.624842 
L 344.94826 134.824471 
L 356.374753 193.307575 
L 367.801247 269.731132 
L 379.22774 312.796026 
L 390.654234 295.701503 
L 402.080727 234.106114 
L 413.507221 225.471937 
L 424.933714 247.337863 
L 436.360208 271.455004 
L 447.786701 282.278599 
L 459.213195 311.906307 
L 470.639688 303.940071 
L 482.066182 193.06113 
L 493.492675 211.676892 
L 504.919169 277.092465 
L 516.345662 294.266517 
L 527.772156 280.109161 
L 539.198649 219.365483 
L 550.625143 212.919223 
L 562.051636 237.339234 
L 573.47813 266.277928 
L 584.904623 280.827874 
L 596.331117 315.641288 
L 607.75761 304.202897 
L 619.184104 203.775068 
L 630.610597 231.132524 
L 642.037091 301.379777 
" style="fill:none;stroke:#ff0000;stroke-linecap:square;stroke-width:1.6;"/>
    <defs>
     <path d="M 0 -3 
L -3 3 
L 3 3 
z
" id="mc1c5ffa1e1" style="stroke:#ff0000;stroke-linejoin:miter;"/>
    </defs>
    <g clip-path="url(#p4afd9ea504)">
     <use style="fill:#ff0000;stroke:#ff0000;stroke-linejoin:miter;" x="82.138909" xlink:href="#mc1c5ffa1e1" y="177.074549"/>
     <use style="fill:#ff0000;stroke:#ff0000;stroke-linejoin:miter;" x="93.565403" xlink:href="#mc1c5ffa1e1" y="247.894542"/>
     <use style="fill:#ff0000;stroke:#ff0000;stroke-linejoin:miter;" x="104.991896" xlink:href="#mc1c5ffa1e1" y="258.02377"/>
     <use style="fill:#ff0000;stroke:#ff0000;stroke-linejoin:miter;" x="116.41839" xlink:href="#mc1c5ffa1e1" y="187.99551"/>
     <use style="fill:#ff0000;stroke:#ff0000;stroke-linejoin:miter;" x="127.844883" xlink:href="#mc1c5ffa1e1" y="54.539723"/>
     <use style="fill:#ff0000;stroke:#ff0000;stroke-linejoin:miter;" x="139.271377" xlink:href="#mc1c5ffa1e1" y="37.740788"/>
     <use style="fill:#ff0000;stroke:#ff0000;stroke-linejoin:miter;" x="150.69787" xlink:href="#mc1c5ffa1e1" y="104.398114"/>
     <use style="fill:#ff0000;stroke:#ff0000;stroke-linejoin:miter;" x="162.124364" xlink:href="#mc1c5ffa1e1" y="166.167871"/>
     <use style="fill:#ff0000;stroke:#ff0000;stroke-linejoin:miter;" x="173.550857" xlink:href="#mc1c5ffa1e1" y="224.731703"/>
     <use style="fill:#ff0000;stroke:#ff0000;stroke-linejoin:miter;" x="184.977351" xlink:href="#mc1c5ffa1e1" y="249.095396"/>
     <use style="fill:#ff0000;stroke:#ff0000;stroke-linejoin:miter;" x="196.403844" xlink:href="#mc1c5ffa1e1" y="258.248031"/>
     <use style="fill:#ff0000;stroke:#ff0000;stroke-linejoin:miter;" x="207.830338" xlink:href="#mc1c5ffa1e1" y="136.763996"/>
     <use style="fill:#ff0000;stroke:#ff0000;stroke-linejoin:miter;" x="219.256831" xlink:href="#mc1c5ffa1e1" y="143.908734"/>
     <use style="fill:#ff0000;stroke:#ff0000;stroke-linejoin:miter;" x="230.683325" xlink:href="#mc1c5ffa1e1" y="177.128703"/>
     <use style="fill:#ff0000;stroke:#ff0000;stroke-linejoin:miter;" x="242.109818" xlink:href="#mc1c5ffa1e1" y="192.047685"/>
     <use style="fill:#ff0000;stroke:#ff0000;stroke-linejoin:miter;" x="253.536312" xlink:href="#mc1c5ffa1e1" y="179.707584"/>
     <use style="fill:#ff0000;stroke:#ff0000;stroke-linejoin:miter;" x="264.962805" xlink:href="#mc1c5ffa1e1" y="90.322813"/>
     <use style="fill:#ff0000;stroke:#ff0000;stroke-linejoin:miter;" x="276.389299" xlink:href="#mc1c5ffa1e1" y="58.317081"/>
     <use style="fill:#ff0000;stroke:#ff0000;stroke-linejoin:miter;" x="287.815792" xlink:href="#mc1c5ffa1e1" y="98.270376"/>
     <use style="fill:#ff0000;stroke:#ff0000;stroke-linejoin:miter;" x="299.242286" xlink:href="#mc1c5ffa1e1" y="140.10583"/>
     <use style="fill:#ff0000;stroke:#ff0000;stroke-linejoin:miter;" x="310.668779" xlink:href="#mc1c5ffa1e1" y="196.697246"/>
     <use style="fill:#ff0000;stroke:#ff0000;stroke-linejoin:miter;" x="322.095273" xlink:href="#mc1c5ffa1e1" y="232.666503"/>
     <use style="fill:#ff0000;stroke:#ff0000;stroke-linejoin:miter;" x="333.521766" xlink:href="#mc1c5ffa1e1" y="257.624842"/>
     <use style="fill:#ff0000;stroke:#ff0000;stroke-linejoin:miter;" x="344.94826" xlink:href="#mc1c5ffa1e1" y="134.824471"/>
     <use style="fill:#ff0000;stroke:#ff0000;stroke-linejoin:miter;" x="356.374753" xlink:href="#mc1c5ffa1e1" y="193.307575"/>
     <use style="fill:#ff0000;stroke:#ff0000;stroke-linejoin:miter;" x="367.801247" xlink:href="#mc1c5ffa1e1" y="269.731132"/>
     <use style="fill:#ff0000;stroke:#ff0000;stroke-linejoin:miter;" x="379.22774" xlink:href="#mc1c5ffa1e1" y="312.796026"/>
     <use style="fill:#ff0000;stroke:#ff0000;stroke-linejoin:miter;" x="390.654234" xlink:href="#mc1c5ffa1e1" y="295.701503"/>
     <use style="fill:#ff0000;stroke:#ff0000;stroke-linejoin:miter;" x="402.080727" xlink:href="#mc1c5ffa1e1" y="234.106114"/>
     <use style="fill:#ff0000;stroke:#ff0000;stroke-linejoin:miter;" x="413.507221" xlink:href="#mc1c5ffa1e1" y="225.471937"/>
     <use style="fill:#ff0000;stroke:#ff0000;stroke-linejoin:miter;" x="424.933714" xlink:href="#mc1c5ffa1e1" y="247.337863"/>
     <use style="fill:#ff0000;stroke:#ff0000;stroke-linejoin:miter;" x="436.360208" xlink:href="#mc1c5ffa1e1" y="271.455004"/>
     <use style="fill:#ff0000;stroke:#ff0000;stroke-linejoin:miter;" x="447.786701" xlink:href="#mc1c5ffa1e1" y="282.278599"/>
     <use style="fill:#ff0000;stroke:#ff0000;stroke-linejoin:miter;" x="459.213195" xlink:href="#mc1c5ffa1e1" y="311.906307"/>
     <use style="fill:#ff0000;stroke:#ff0000;stroke-linejoin:miter;" x="470.639688" xlink:href="#mc1c5ffa1e1" y="303.940071"/>
     <use style="fill:#ff0000;stroke:#ff0000;stroke-linejoin:miter;" x="482.066182" xlink:href="#mc1c5ffa1e1" y="193.06113"/>
     <use style="fill:#ff0000;stroke:#ff0000;stroke-linejoin:miter;" x="493.492675" xlink:href="#mc1c5ffa1e1" y="211.676892"/>
     <use style="fill:#ff0000;stroke:#ff0000;stroke-linejoin:miter;" x="504.919169" xlink:href="#mc1c5ffa1e1" y="277.092465"/>
     <use style="fill:#ff0000;stroke:#ff0000;stroke-linejoin:miter;" x="516.345662" xlink:href="#mc1c5ffa1e1" y="294.266517"/>
     <use style="fill:#ff0000;stroke:#ff0000;stroke-linejoin:miter;" x="527.772156" xlink:href="#mc1c5ffa1e1" y="280.109161"/>
     <use style="fill:#ff0000;stroke:#ff0000;stroke-linejoin:miter;" x="539.198649" xlink:href="#mc1c5ffa1e1" y="219.365483"/>
     <use style="fill:#ff0000;stroke:#ff0000;stroke-linejoin:miter;" x="550.625143" xlink:href="#mc1c5ffa1e1" y="212.919223"/>
     <use style="fill:#ff0000;stroke:#ff0000;stroke-linejoin:miter;" x="562.051636" xlink:href="#mc1c5ffa1e1" y="237.339234"/>
     <use style="fill:#ff0000;stroke:#ff0000;stroke-linejoin:miter;" x="573.47813" xlink:href="#mc1c5ffa1e1" y="266.277928"/>
     <use style="fill:#ff0000;stroke:#ff0000;stroke-linejoin:miter;" x="584.904623" xlink:href="#mc1c5ffa1e1" y="280.827874"/>
     <use style="fill:#ff0000;stroke:#ff0000;stroke-linejoin:miter;" x="596.331117" xlink:href="#mc1c5ffa1e1" y="315.641288"/>
     <use style="fill:#ff0000;stroke:#ff0000;stroke-linejoin:miter;" x="607.75761" xlink:href="#mc1c5ffa1e1" y="304.202897"/>
     <use style="fill:#ff0000;stroke:#ff0000;stroke-linejoin:miter;" x="619.184104" xlink:href="#mc1c5ffa1e1" y="203.775068"/>
     <use style="fill:#ff0000;stroke:#ff0000;stroke-linejoin:miter;" x="630.610597" xlink:href="#mc1c5ffa1e1" y="231.132524"/>
     <use style="fill:#ff0000;stroke:#ff0000;stroke-linejoin:miter;" x="642.037091" xlink:href="#mc1c5ffa1e1" y="301.379777"/>
    </g>
   </g>
   <g id="line2d_18">
    <path clip-path="url(#p4afd9ea504)" d="M 82.138909 202.418454 
L 93.565403 290.875732 
L 104.991896 300.100872 
L 116.41839 235.437825 
L 127.844883 92.905078 
L 139.271377 62.15461 
L 150.69787 130.193089 
L 162.124364 189.452937 
L 173.550857 232.118796 
L 184.977351 253.349798 
L 196.403844 266.456086 
L 207.830338 163.986933 
L 219.256831 191.698371 
L 230.683325 215.028084 
L 242.109818 226.833261 
L 253.536312 219.471393 
L 264.962805 142.475161 
L 276.389299 112.137926 
L 287.815792 107.725559 
L 299.242286 190.760107 
L 310.668779 211.73201 
L 322.095273 225.794998 
L 333.521766 232.365155 
L 344.94826 137.144808 
L 356.374753 201.019121 
L 367.801247 291.025839 
L 379.22774 329.906995 
L 390.654234 344.648847 
L 402.080727 261.107575 
L 413.507221 235.596839 
L 424.933714 269.913294 
L 436.360208 305.815806 
L 447.786701 327.142247 
L 459.213195 336.950041 
L 470.639688 305.586021 
L 482.066182 192.145329 
L 493.492675 234.557441 
L 504.919169 301.252304 
L 516.345662 323.358894 
L 527.772156 307.652355 
L 539.198649 268.829657 
L 550.625143 258.697431 
L 562.051636 268.430064 
L 573.47813 298.323981 
L 584.904623 321.511082 
L 596.331117 338.413314 
L 607.75761 320.241192 
L 619.184104 200.010301 
L 630.610597 258.885739 
L 642.037091 324.453816 
" style="fill:none;stroke:#32cd32;stroke-dasharray:5.92,2.56;stroke-dashoffset:0;stroke-width:1.6;"/>
    <defs>
     <path d="M 0 -3 
L -0.673542 -0.927051 
L -2.85317 -0.927051 
L -1.089814 0.354102 
L -1.763356 2.427051 
L -0 1.145898 
L 1.763356 2.427051 
L 1.089814 0.354102 
L 2.85317 -0.927051 
L 0.673542 -0.927051 
z
" id="m4c888deb7a" style="stroke:#32cd32;stroke-linejoin:bevel;"/>
    </defs>
    <g clip-path="url(#p4afd9ea504)">
     <use style="fill:#32cd32;stroke:#32cd32;stroke-linejoin:bevel;" x="82.138909" xlink:href="#m4c888deb7a" y="202.418454"/>
     <use style="fill:#32cd32;stroke:#32cd32;stroke-linejoin:bevel;" x="93.565403" xlink:href="#m4c888deb7a" y="290.875732"/>
     <use style="fill:#32cd32;stroke:#32cd32;stroke-linejoin:bevel;" x="104.991896" xlink:href="#m4c888deb7a" y="300.100872"/>
     <use style="fill:#32cd32;stroke:#32cd32;stroke-linejoin:bevel;" x="116.41839" xlink:href="#m4c888deb7a" y="235.437825"/>
     <use style="fill:#32cd32;stroke:#32cd32;stroke-linejoin:bevel;" x="127.844883" xlink:href="#m4c888deb7a" y="92.905078"/>
     <use style="fill:#32cd32;stroke:#32cd32;stroke-linejoin:bevel;" x="139.271377" xlink:href="#m4c888deb7a" y="62.15461"/>
     <use style="fill:#32cd32;stroke:#32cd32;stroke-linejoin:bevel;" x="150.69787" xlink:href="#m4c888deb7a" y="130.193089"/>
     <use style="fill:#32cd32;stroke:#32cd32;stroke-linejoin:bevel;" x="162.124364" xlink:href="#m4c888deb7a" y="189.452937"/>
     <use style="fill:#32cd32;stroke:#32cd32;stroke-linejoin:bevel;" x="173.550857" xlink:href="#m4c888deb7a" y="232.118796"/>
     <use style="fill:#32cd32;stroke:#32cd32;stroke-linejoin:bevel;" x="184.977351" xlink:href="#m4c888deb7a" y="253.349798"/>
     <use style="fill:#32cd32;stroke:#32cd32;stroke-linejoin:bevel;" x="196.403844" xlink:href="#m4c888deb7a" y="266.456086"/>
     <use style="fill:#32cd32;stroke:#32cd32;stroke-linejoin:bevel;" x="207.830338" xlink:href="#m4c888deb7a" y="163.986933"/>
     <use style="fill:#32cd32;stroke:#32cd32;stroke-linejoin:bevel;" x="219.256831" xlink:href="#m4c888deb7a" y="191.698371"/>
     <use style="fill:#32cd32;stroke:#32cd32;stroke-linejoin:bevel;" x="230.683325" xlink:href="#m4c888deb7a" y="215.028084"/>
     <use style="fill:#32cd32;stroke:#32cd32;stroke-linejoin:bevel;" x="242.109818" xlink:href="#m4c888deb7a" y="226.833261"/>
     <use style="fill:#32cd32;stroke:#32cd32;stroke-linejoin:bevel;" x="253.536312" xlink:href="#m4c888deb7a" y="219.471393"/>
     <use style="fill:#32cd32;stroke:#32cd32;stroke-linejoin:bevel;" x="264.962805" xlink:href="#m4c888deb7a" y="142.475161"/>
     <use style="fill:#32cd32;stroke:#32cd32;stroke-linejoin:bevel;" x="276.389299" xlink:href="#m4c888deb7a" y="112.137926"/>
     <use style="fill:#32cd32;stroke:#32cd32;stroke-linejoin:bevel;" x="287.815792" xlink:href="#m4c888deb7a" y="107.725559"/>
     <use style="fill:#32cd32;stroke:#32cd32;stroke-linejoin:bevel;" x="299.242286" xlink:href="#m4c888deb7a" y="190.760107"/>
     <use style="fill:#32cd32;stroke:#32cd32;stroke-linejoin:bevel;" x="310.668779" xlink:href="#m4c888deb7a" y="211.73201"/>
     <use style="fill:#32cd32;stroke:#32cd32;stroke-linejoin:bevel;" x="322.095273" xlink:href="#m4c888deb7a" y="225.794998"/>
     <use style="fill:#32cd32;stroke:#32cd32;stroke-linejoin:bevel;" x="333.521766" xlink:href="#m4c888deb7a" y="232.365155"/>
     <use style="fill:#32cd32;stroke:#32cd32;stroke-linejoin:bevel;" x="344.94826" xlink:href="#m4c888deb7a" y="137.144808"/>
     <use style="fill:#32cd32;stroke:#32cd32;stroke-linejoin:bevel;" x="356.374753" xlink:href="#m4c888deb7a" y="201.019121"/>
     <use style="fill:#32cd32;stroke:#32cd32;stroke-linejoin:bevel;" x="367.801247" xlink:href="#m4c888deb7a" y="291.025839"/>
     <use style="fill:#32cd32;stroke:#32cd32;stroke-linejoin:bevel;" x="379.22774" xlink:href="#m4c888deb7a" y="329.906995"/>
     <use style="fill:#32cd32;stroke:#32cd32;stroke-linejoin:bevel;" x="390.654234" xlink:href="#m4c888deb7a" y="344.648847"/>
     <use style="fill:#32cd32;stroke:#32cd32;stroke-linejoin:bevel;" x="402.080727" xlink:href="#m4c888deb7a" y="261.107575"/>
     <use style="fill:#32cd32;stroke:#32cd32;stroke-linejoin:bevel;" x="413.507221" xlink:href="#m4c888deb7a" y="235.596839"/>
     <use style="fill:#32cd32;stroke:#32cd32;stroke-linejoin:bevel;" x="424.933714" xlink:href="#m4c888deb7a" y="269.913294"/>
     <use style="fill:#32cd32;stroke:#32cd32;stroke-linejoin:bevel;" x="436.360208" xlink:href="#m4c888deb7a" y="305.815806"/>
     <use style="fill:#32cd32;stroke:#32cd32;stroke-linejoin:bevel;" x="447.786701" xlink:href="#m4c888deb7a" y="327.142247"/>
     <use style="fill:#32cd32;stroke:#32cd32;stroke-linejoin:bevel;" x="459.213195" xlink:href="#m4c888deb7a" y="336.950041"/>
     <use style="fill:#32cd32;stroke:#32cd32;stroke-linejoin:bevel;" x="470.639688" xlink:href="#m4c888deb7a" y="305.586021"/>
     <use style="fill:#32cd32;stroke:#32cd32;stroke-linejoin:bevel;" x="482.066182" xlink:href="#m4c888deb7a" y="192.145329"/>
     <use style="fill:#32cd32;stroke:#32cd32;stroke-linejoin:bevel;" x="493.492675" xlink:href="#m4c888deb7a" y="234.557441"/>
     <use style="fill:#32cd32;stroke:#32cd32;stroke-linejoin:bevel;" x="504.919169" xlink:href="#m4c888deb7a" y="301.252304"/>
     <use style="fill:#32cd32;stroke:#32cd32;stroke-linejoin:bevel;" x="516.345662" xlink:href="#m4c888deb7a" y="323.358894"/>
     <use style="fill:#32cd32;stroke:#32cd32;stroke-linejoin:bevel;" x="527.772156" xlink:href="#m4c888deb7a" y="307.652355"/>
     <use style="fill:#32cd32;stroke:#32cd32;stroke-linejoin:bevel;" x="539.198649" xlink:href="#m4c888deb7a" y="268.829657"/>
     <use style="fill:#32cd32;stroke:#32cd32;stroke-linejoin:bevel;" x="550.625143" xlink:href="#m4c888deb7a" y="258.697431"/>
     <use style="fill:#32cd32;stroke:#32cd32;stroke-linejoin:bevel;" x="562.051636" xlink:href="#m4c888deb7a" y="268.430064"/>
     <use style="fill:#32cd32;stroke:#32cd32;stroke-linejoin:bevel;" x="573.47813" xlink:href="#m4c888deb7a" y="298.323981"/>
     <use style="fill:#32cd32;stroke:#32cd32;stroke-linejoin:bevel;" x="584.904623" xlink:href="#m4c888deb7a" y="321.511082"/>
     <use style="fill:#32cd32;stroke:#32cd32;stroke-linejoin:bevel;" x="596.331117" xlink:href="#m4c888deb7a" y="338.413314"/>
     <use style="fill:#32cd32;stroke:#32cd32;stroke-linejoin:bevel;" x="607.75761" xlink:href="#m4c888deb7a" y="320.241192"/>
     <use style="fill:#32cd32;stroke:#32cd32;stroke-linejoin:bevel;" x="619.184104" xlink:href="#m4c888deb7a" y="200.010301"/>
     <use style="fill:#32cd32;stroke:#32cd32;stroke-linejoin:bevel;" x="630.610597" xlink:href="#m4c888deb7a" y="258.885739"/>
     <use style="fill:#32cd32;stroke:#32cd32;stroke-linejoin:bevel;" x="642.037091" xlink:href="#m4c888deb7a" y="324.453816"/>
    </g>
   </g>
   <g id="line2d_19">
    <path clip-path="url(#p4afd9ea504)" d="M 82.138909 218.011867 
L 93.565403 283.42335 
L 104.991896 287.81955 
L 116.41839 230.691347 
L 127.844883 101.157843 
L 139.271377 71.213477 
L 150.69787 142.495503 
L 162.124364 214.761125 
L 173.550857 251.298603 
L 184.977351 282.271897 
L 196.403844 287.384562 
L 207.830338 164.631407 
L 219.256831 186.839131 
L 230.683325 199.889488 
L 242.109818 206.026562 
L 253.536312 213.242071 
L 264.962805 133.112419 
L 276.389299 91.87842 
L 287.815792 118.250739 
L 299.242286 177.271422 
L 310.668779 233.666565 
L 322.095273 275.760562 
L 333.521766 281.943118 
L 344.94826 167.3823 
L 356.374753 243.929583 
L 367.801247 322.373949 
L 379.22774 345.811478 
L 390.654234 339.912347 
L 402.080727 270.127962 
L 413.507221 246.340284 
L 424.933714 265.445703 
L 436.360208 303.912213 
L 447.786701 320.468215 
L 459.213195 342.308381 
L 470.639688 327.496315 
L 482.066182 223.185411 
L 493.492675 276.718718 
L 504.919169 342.260843 
L 516.345662 341.919602 
L 527.772156 316.066255 
L 539.198649 270.921301 
L 550.625143 267.729209 
L 562.051636 283.515898 
L 573.47813 309.474834 
L 584.904623 329.25524 
L 596.331117 361.055127 
L 607.75761 341.664977 
L 619.184104 230.07137 
L 630.610597 267.642036 
L 642.037091 314.361762 
" style="fill:none;stroke:#ff8c00;stroke-dasharray:5.92,2.56;stroke-dashoffset:0;stroke-width:1.6;"/>
    <defs>
     <path d="M -3 3 
L 3 3 
L 3 -3 
L -3 -3 
z
" id="mb16e4f8f2f" style="stroke:#ff8c00;stroke-linejoin:miter;"/>
    </defs>
    <g clip-path="url(#p4afd9ea504)">
     <use style="fill:#ff8c00;stroke:#ff8c00;stroke-linejoin:miter;" x="82.138909" xlink:href="#mb16e4f8f2f" y="218.011867"/>
     <use style="fill:#ff8c00;stroke:#ff8c00;stroke-linejoin:miter;" x="93.565403" xlink:href="#mb16e4f8f2f" y="283.42335"/>
     <use style="fill:#ff8c00;stroke:#ff8c00;stroke-linejoin:miter;" x="104.991896" xlink:href="#mb16e4f8f2f" y="287.81955"/>
     <use style="fill:#ff8c00;stroke:#ff8c00;stroke-linejoin:miter;" x="116.41839" xlink:href="#mb16e4f8f2f" y="230.691347"/>
     <use style="fill:#ff8c00;stroke:#ff8c00;stroke-linejoin:miter;" x="127.844883" xlink:href="#mb16e4f8f2f" y="101.157843"/>
     <use style="fill:#ff8c00;stroke:#ff8c00;stroke-linejoin:miter;" x="139.271377" xlink:href="#mb16e4f8f2f" y="71.213477"/>
     <use style="fill:#ff8c00;stroke:#ff8c00;stroke-linejoin:miter;" x="150.69787" xlink:href="#mb16e4f8f2f" y="142.495503"/>
     <use style="fill:#ff8c00;stroke:#ff8c00;stroke-linejoin:miter;" x="162.124364" xlink:href="#mb16e4f8f2f" y="214.761125"/>
     <use style="fill:#ff8c00;stroke:#ff8c00;stroke-linejoin:miter;" x="173.550857" xlink:href="#mb16e4f8f2f" y="251.298603"/>
     <use style="fill:#ff8c00;stroke:#ff8c00;stroke-linejoin:miter;" x="184.977351" xlink:href="#mb16e4f8f2f" y="282.271897"/>
     <use style="fill:#ff8c00;stroke:#ff8c00;stroke-linejoin:miter;" x="196.403844" xlink:href="#mb16e4f8f2f" y="287.384562"/>
     <use style="fill:#ff8c00;stroke:#ff8c00;stroke-linejoin:miter;" x="207.830338" xlink:href="#mb16e4f8f2f" y="164.631407"/>
     <use style="fill:#ff8c00;stroke:#ff8c00;stroke-linejoin:miter;" x="219.256831" xlink:href="#mb16e4f8f2f" y="186.839131"/>
     <use style="fill:#ff8c00;stroke:#ff8c00;stroke-linejoin:miter;" x="230.683325" xlink:href="#mb16e4f8f2f" y="199.889488"/>
     <use style="fill:#ff8c00;stroke:#ff8c00;stroke-linejoin:miter;" x="242.109818" xlink:href="#mb16e4f8f2f" y="206.026562"/>
     <use style="fill:#ff8c00;stroke:#ff8c00;stroke-linejoin:miter;" x="253.536312" xlink:href="#mb16e4f8f2f" y="213.242071"/>
     <use style="fill:#ff8c00;stroke:#ff8c00;stroke-linejoin:miter;" x="264.962805" xlink:href="#mb16e4f8f2f" y="133.112419"/>
     <use style="fill:#ff8c00;stroke:#ff8c00;stroke-linejoin:miter;" x="276.389299" xlink:href="#mb16e4f8f2f" y="91.87842"/>
     <use style="fill:#ff8c00;stroke:#ff8c00;stroke-linejoin:miter;" x="287.815792" xlink:href="#mb16e4f8f2f" y="118.250739"/>
     <use style="fill:#ff8c00;stroke:#ff8c00;stroke-linejoin:miter;" x="299.242286" xlink:href="#mb16e4f8f2f" y="177.271422"/>
     <use style="fill:#ff8c00;stroke:#ff8c00;stroke-linejoin:miter;" x="310.668779" xlink:href="#mb16e4f8f2f" y="233.666565"/>
     <use style="fill:#ff8c00;stroke:#ff8c00;stroke-linejoin:miter;" x="322.095273" xlink:href="#mb16e4f8f2f" y="275.760562"/>
     <use style="fill:#ff8c00;stroke:#ff8c00;stroke-linejoin:miter;" x="333.521766" xlink:href="#mb16e4f8f2f" y="281.943118"/>
     <use style="fill:#ff8c00;stroke:#ff8c00;stroke-linejoin:miter;" x="344.94826" xlink:href="#mb16e4f8f2f" y="167.3823"/>
     <use style="fill:#ff8c00;stroke:#ff8c00;stroke-linejoin:miter;" x="356.374753" xlink:href="#mb16e4f8f2f" y="243.929583"/>
     <use style="fill:#ff8c00;stroke:#ff8c00;stroke-linejoin:miter;" x="367.801247" xlink:href="#mb16e4f8f2f" y="322.373949"/>
     <use style="fill:#ff8c00;stroke:#ff8c00;stroke-linejoin:miter;" x="379.22774" xlink:href="#mb16e4f8f2f" y="345.811478"/>
     <use style="fill:#ff8c00;stroke:#ff8c00;stroke-linejoin:miter;" x="390.654234" xlink:href="#mb16e4f8f2f" y="339.912347"/>
     <use style="fill:#ff8c00;stroke:#ff8c00;stroke-linejoin:miter;" x="402.080727" xlink:href="#mb16e4f8f2f" y="270.127962"/>
     <use style="fill:#ff8c00;stroke:#ff8c00;stroke-linejoin:miter;" x="413.507221" xlink:href="#mb16e4f8f2f" y="246.340284"/>
     <use style="fill:#ff8c00;stroke:#ff8c00;stroke-linejoin:miter;" x="424.933714" xlink:href="#mb16e4f8f2f" y="265.445703"/>
     <use style="fill:#ff8c00;stroke:#ff8c00;stroke-linejoin:miter;" x="436.360208" xlink:href="#mb16e4f8f2f" y="303.912213"/>
     <use style="fill:#ff8c00;stroke:#ff8c00;stroke-linejoin:miter;" x="447.786701" xlink:href="#mb16e4f8f2f" y="320.468215"/>
     <use style="fill:#ff8c00;stroke:#ff8c00;stroke-linejoin:miter;" x="459.213195" xlink:href="#mb16e4f8f2f" y="342.308381"/>
     <use style="fill:#ff8c00;stroke:#ff8c00;stroke-linejoin:miter;" x="470.639688" xlink:href="#mb16e4f8f2f" y="327.496315"/>
     <use style="fill:#ff8c00;stroke:#ff8c00;stroke-linejoin:miter;" x="482.066182" xlink:href="#mb16e4f8f2f" y="223.185411"/>
     <use style="fill:#ff8c00;stroke:#ff8c00;stroke-linejoin:miter;" x="493.492675" xlink:href="#mb16e4f8f2f" y="276.718718"/>
     <use style="fill:#ff8c00;stroke:#ff8c00;stroke-linejoin:miter;" x="504.919169" xlink:href="#mb16e4f8f2f" y="342.260843"/>
     <use style="fill:#ff8c00;stroke:#ff8c00;stroke-linejoin:miter;" x="516.345662" xlink:href="#mb16e4f8f2f" y="341.919602"/>
     <use style="fill:#ff8c00;stroke:#ff8c00;stroke-linejoin:miter;" x="527.772156" xlink:href="#mb16e4f8f2f" y="316.066255"/>
     <use style="fill:#ff8c00;stroke:#ff8c00;stroke-linejoin:miter;" x="539.198649" xlink:href="#mb16e4f8f2f" y="270.921301"/>
     <use style="fill:#ff8c00;stroke:#ff8c00;stroke-linejoin:miter;" x="550.625143" xlink:href="#mb16e4f8f2f" y="267.729209"/>
     <use style="fill:#ff8c00;stroke:#ff8c00;stroke-linejoin:miter;" x="562.051636" xlink:href="#mb16e4f8f2f" y="283.515898"/>
     <use style="fill:#ff8c00;stroke:#ff8c00;stroke-linejoin:miter;" x="573.47813" xlink:href="#mb16e4f8f2f" y="309.474834"/>
     <use style="fill:#ff8c00;stroke:#ff8c00;stroke-linejoin:miter;" x="584.904623" xlink:href="#mb16e4f8f2f" y="329.25524"/>
     <use style="fill:#ff8c00;stroke:#ff8c00;stroke-linejoin:miter;" x="596.331117" xlink:href="#mb16e4f8f2f" y="361.055127"/>
     <use style="fill:#ff8c00;stroke:#ff8c00;stroke-linejoin:miter;" x="607.75761" xlink:href="#mb16e4f8f2f" y="341.664977"/>
     <use style="fill:#ff8c00;stroke:#ff8c00;stroke-linejoin:miter;" x="619.184104" xlink:href="#mb16e4f8f2f" y="230.07137"/>
     <use style="fill:#ff8c00;stroke:#ff8c00;stroke-linejoin:miter;" x="630.610597" xlink:href="#mb16e4f8f2f" y="267.642036"/>
     <use style="fill:#ff8c00;stroke:#ff8c00;stroke-linejoin:miter;" x="642.037091" xlink:href="#mb16e4f8f2f" y="314.361762"/>
    </g>
   </g>
   <g id="patch_3">
    <path d="M 54.144 378.0504 
L 54.144 4.1544 
" style="fill:none;stroke:#000000;stroke-linecap:square;stroke-linejoin:miter;stroke-width:0.8;"/>
   </g>
   <g id="patch_4">
    <path d="M 670.032 378.0504 
L 670.032 4.1544 
" style="fill:none;stroke:#000000;stroke-linecap:square;stroke-linejoin:miter;stroke-width:0.8;"/>
   </g>
   <g id="patch_5">
    <path d="M 54.144 378.0504 
L 670.032 378.0504 
" style="fill:none;stroke:#000000;stroke-linecap:square;stroke-linejoin:miter;stroke-width:0.8;"/>
   </g>
   <g id="patch_6">
    <path d="M 54.144 4.1544 
L 670.032 4.1544 
" style="fill:none;stroke:#000000;stroke-linecap:square;stroke-linejoin:miter;stroke-width:0.8;"/>
   </g>
   <g id="legend_1">
    <g id="patch_7">
     <path d="M 517.432 94.870025 
L 660.232 94.870025 
Q 663.032 94.870025 663.032 92.070025 
L 663.032 13.9544 
Q 663.032 11.1544 660.232 11.1544 
L 517.432 11.1544 
Q 514.632 11.1544 514.632 13.9544 
L 514.632 92.070025 
Q 514.632 94.870025 517.432 94.870025 
z
" style="fill:#ffffff;opacity:0.8;stroke:#cccccc;stroke-linejoin:miter;"/>
    </g>
    <g id="line2d_20">
     <path d="M 520.232 23.01065 
L 548.232 23.01065 
" style="fill:none;stroke:#1e90ff;stroke-linecap:square;stroke-width:1.6;"/>
    </g>
    <g id="line2d_21">
     <g>
      <use style="fill:#1e90ff;stroke:#1e90ff;" x="534.232" xlink:href="#m0035ad0b69" y="23.01065"/>
     </g>
    </g>
    <g id="text_18">
     <!-- 真实值 -->
     <defs>
      <path d="M 32.03125 53.90625 
L 32.03125 45.3125 
L 67.1875 45.3125 
L 67.1875 53.90625 
z
M 32.03125 42.96875 
L 32.03125 34.765625 
L 67.1875 34.765625 
L 67.1875 42.96875 
z
M 32.03125 32.421875 
L 32.03125 24.21875 
L 67.1875 24.21875 
L 67.1875 32.421875 
z
M 32.03125 21.875 
L 32.03125 13.671875 
L 67.1875 13.671875 
L 67.1875 21.875 
z
M 44.921875 56.25 
L 45.703125 67.578125 
L 23.828125 67.578125 
Q 18.75 67.578125 14.453125 66.40625 
L 10.9375 69.921875 
L 46.09375 69.921875 
Q 46.484375 75.390625 46.484375 82.421875 
L 55.46875 78.515625 
L 52.734375 76.953125 
L 51.5625 69.921875 
L 78.125 69.921875 
L 83.203125 75.390625 
L 90.234375 67.578125 
L 51.171875 67.578125 
L 50 56.25 
L 66.796875 56.25 
L 69.53125 60.546875 
L 75.78125 55.859375 
L 72.65625 52.734375 
L 72.65625 13.671875 
L 82.8125 13.671875 
L 88.671875 19.140625 
L 95.703125 11.328125 
L 17.96875 11.328125 
Q 12.890625 11.328125 8.59375 10.15625 
L 5.078125 13.671875 
L 26.5625 13.671875 
Q 26.5625 50 26.171875 58.984375 
L 32.03125 56.25 
z
M 37.890625 11.328125 
L 44.140625 5.46875 
L 40.234375 4.6875 
Q 23.4375 -6.640625 12.5 -10.15625 
L 12.109375 -8.984375 
Q 30.46875 1.953125 37.890625 11.328125 
z
M 59.375 10.9375 
Q 71.484375 5.859375 77.53125 3.125 
Q 83.59375 0.390625 84.375 -1.75 
Q 85.15625 -3.90625 85.15625 -5.078125 
Q 85.15625 -6.25 84.375 -8.203125 
Q 83.59375 -10.15625 83.203125 -10.15625 
Q 82.03125 -10.15625 79.6875 -7.03125 
Q 76.171875 -2.34375 58.59375 9.765625 
z
" id="SimSun-30495"/>
      <path d="M 30.46875 56.640625 
Q 40.234375 53.125 42.1875 50.78125 
Q 44.140625 48.4375 44.140625 46.484375 
Q 44.140625 44.53125 42.96875 42.1875 
Q 41.796875 39.84375 41.015625 39.84375 
Q 39.84375 39.84375 38.28125 43.75 
Q 35.546875 49.609375 29.6875 55.46875 
z
M 55.859375 20.703125 
Q 54.6875 17.1875 53.515625 14.453125 
Q 72.65625 8.59375 79.484375 5.078125 
Q 86.328125 1.5625 86.125 -3.515625 
Q 85.9375 -8.59375 84.375 -8.59375 
Q 82.8125 -8.59375 79.296875 -4.6875 
Q 72.265625 2.734375 52.734375 12.5 
Q 47.265625 2.734375 35.9375 -2.34375 
Q 24.609375 -7.421875 6.640625 -9.765625 
L 6.640625 -8.203125 
Q 23.046875 -5.078125 34.375 1.5625 
Q 45.703125 8.203125 50 20.703125 
L 19.140625 20.703125 
Q 14.0625 20.703125 9.765625 19.53125 
L 6.25 23.046875 
L 50.390625 23.046875 
Q 51.953125 30.46875 52.734375 40.234375 
Q 53.515625 50 53.515625 57.8125 
L 63.28125 53.125 
L 60.15625 50.390625 
Q 58.59375 35.9375 56.640625 23.046875 
L 80.859375 23.046875 
L 86.71875 28.90625 
L 94.921875 20.703125 
z
M 19.921875 42.1875 
Q 30.859375 37.890625 32.8125 35.34375 
Q 34.765625 32.8125 34.765625 30.859375 
Q 34.765625 28.90625 33.59375 26.5625 
Q 32.421875 24.21875 31.640625 24.21875 
Q 30.46875 24.21875 28.90625 28.125 
Q 26.171875 33.984375 19.140625 41.015625 
z
M 42.96875 81.640625 
L 44.140625 82.421875 
Q 50.390625 79.6875 53.515625 76.953125 
Q 56.640625 74.21875 56.640625 71.875 
Q 56.640625 69.53125 54.875 67.1875 
Q 53.125 64.84375 51.953125 64.84375 
Q 50.78125 64.84375 50 68.75 
Q 48.4375 74.609375 42.96875 81.640625 
z
M 77.734375 50.390625 
L 83.59375 61.328125 
L 18.359375 61.328125 
Q 19.140625 55.078125 17.578125 51.5625 
Q 16.015625 48.046875 12.296875 48.4375 
Q 8.59375 48.828125 8.59375 50 
Q 8.59375 51.5625 10.9375 54.296875 
Q 15.234375 59.765625 16.40625 68.359375 
L 17.96875 68.359375 
L 18.359375 63.671875 
L 82.8125 63.671875 
L 87.109375 67.96875 
L 94.53125 59.375 
Q 87.890625 59.765625 78.90625 49.609375 
z
" id="SimSun-23454"/>
      <path d="M 23.828125 10.15625 
Q 23.828125 -3.515625 24.21875 -8.203125 
L 18.359375 -10.15625 
Q 18.75 3.90625 18.75 8.59375 
L 18.75 47.265625 
Q 11.71875 35.9375 5.078125 28.90625 
L 3.90625 29.6875 
Q 11.328125 41.015625 17.1875 55.078125 
Q 23.046875 69.140625 26.171875 81.25 
L 34.375 76.171875 
L 30.46875 73.828125 
Q 24.21875 59.375 22.265625 54.296875 
L 26.953125 51.5625 
L 23.828125 49.21875 
z
M 44.921875 50.390625 
L 44.921875 38.671875 
L 75 38.671875 
L 75 50.390625 
z
M 44.921875 36.328125 
L 44.921875 24.609375 
L 75 24.609375 
L 75 36.328125 
z
M 44.921875 22.265625 
L 44.921875 10.546875 
L 75 10.546875 
L 75 22.265625 
z
M 44.921875 8.203125 
L 44.921875 -3.515625 
L 75 -3.515625 
L 75 8.203125 
z
M 55.46875 66.40625 
Q 55.859375 75.390625 55.46875 81.640625 
L 64.453125 77.34375 
L 61.328125 75 
L 60.9375 66.40625 
L 78.515625 66.40625 
L 83.59375 71.484375 
L 91.015625 64.0625 
L 60.9375 64.0625 
L 60.546875 52.734375 
L 74.21875 52.734375 
L 77.734375 56.640625 
L 83.59375 51.5625 
L 80.078125 49.21875 
L 80.078125 -3.515625 
L 83.59375 -3.515625 
L 88.671875 1.5625 
L 96.09375 -5.859375 
L 38.28125 -5.859375 
Q 33.203125 -5.859375 28.90625 -7.03125 
L 25.390625 -3.515625 
L 39.84375 -3.515625 
L 39.84375 39.84375 
Q 39.84375 44.53125 39.453125 55.859375 
L 44.921875 52.734375 
L 55.078125 52.734375 
L 55.46875 64.0625 
L 43.75 64.0625 
Q 38.671875 64.0625 34.375 62.890625 
L 30.859375 66.40625 
z
" id="SimSun-20540"/>
     </defs>
     <g transform="translate(559.432 27.91065)scale(0.14 -0.14)">
      <use xlink:href="#SimSun-30495"/>
      <use x="100" xlink:href="#SimSun-23454"/>
      <use x="200" xlink:href="#SimSun-20540"/>
     </g>
    </g>
    <g id="line2d_22">
     <path d="M 520.232 42.862212 
L 548.232 42.862212 
" style="fill:none;stroke:#ff0000;stroke-linecap:square;stroke-width:1.6;"/>
    </g>
    <g id="line2d_23">
     <g>
      <use style="fill:#ff0000;stroke:#ff0000;stroke-linejoin:miter;" x="534.232" xlink:href="#mc1c5ffa1e1" y="42.862212"/>
     </g>
    </g>
    <g id="text_19">
     <!-- RFE-LSTM预测值 -->
     <defs>
      <path d="M 44.140625 52.734375 
Q 44.140625 44.921875 39.84375 40.625 
Q 35.546875 36.328125 30.078125 35.546875 
L 41.796875 6.640625 
Q 42.578125 5.078125 43.546875 4.484375 
Q 44.53125 3.90625 45.703125 3.90625 
L 48.046875 3.90625 
L 48.046875 1.5625 
L 37.109375 1.5625 
L 24.21875 35.15625 
L 15.234375 35.15625 
L 15.234375 7.03125 
Q 15.234375 5.46875 16.203125 4.6875 
Q 17.1875 3.90625 18.75 3.90625 
L 21.09375 3.90625 
L 21.09375 1.5625 
L 3.125 1.5625 
L 3.125 3.90625 
L 5.46875 3.90625 
Q 7.421875 3.90625 8.203125 4.6875 
Q 8.984375 5.46875 8.984375 7.03125 
L 8.984375 62.890625 
Q 8.984375 64.453125 8.203125 65.234375 
Q 7.421875 66.015625 5.46875 66.015625 
L 3.125 66.015625 
L 3.125 68.359375 
L 25.390625 68.359375 
Q 34.375 68.359375 39.25 64.453125 
Q 44.140625 60.546875 44.140625 52.734375 
z
M 42.96875 3.90625 
z
M 15.234375 37.5 
L 23.828125 37.5 
Q 29.6875 37.5 33.59375 41.015625 
Q 37.5 44.53125 37.5 51.953125 
Q 37.5 58.59375 33.984375 62.296875 
Q 30.46875 66.015625 23.046875 66.015625 
L 18.75 66.015625 
Q 17.1875 66.015625 16.203125 65.234375 
Q 15.234375 64.453125 15.234375 62.890625 
z
" id="SimSun-82"/>
      <path d="M 21.09375 3.90625 
L 21.09375 1.5625 
L 2.34375 1.5625 
L 2.34375 3.90625 
L 5.078125 3.90625 
Q 7.03125 3.90625 7.8125 4.6875 
Q 8.59375 5.46875 8.59375 7.03125 
L 8.59375 62.890625 
Q 8.59375 64.453125 7.8125 65.234375 
Q 7.03125 66.015625 5.078125 66.015625 
L 2.734375 66.015625 
L 2.734375 68.359375 
L 43.359375 68.359375 
L 48.046875 54.296875 
L 46.09375 53.515625 
Q 42.96875 59.765625 38.671875 62.890625 
Q 34.375 66.015625 29.296875 66.015625 
L 18.359375 66.015625 
Q 16.796875 66.015625 15.8125 65.234375 
Q 14.84375 64.453125 14.84375 62.890625 
L 14.84375 37.890625 
L 27.734375 37.890625 
Q 31.640625 37.890625 33.390625 39.640625 
Q 35.15625 41.40625 35.15625 45.3125 
L 35.15625 47.265625 
L 37.5 47.265625 
L 37.5 24.609375 
L 35.15625 24.609375 
L 35.15625 26.171875 
Q 35.15625 30.859375 33.390625 33.203125 
Q 31.640625 35.546875 27.734375 35.546875 
L 14.84375 35.546875 
L 14.84375 7.03125 
Q 14.84375 5.46875 15.8125 4.6875 
Q 16.796875 3.90625 18.359375 3.90625 
z
" id="SimSun-70"/>
      <path d="M 3.125 66.015625 
L 3.125 68.359375 
L 41.40625 68.359375 
L 45.703125 55.078125 
L 43.75 54.296875 
Q 40.625 60.15625 37.109375 63.078125 
Q 33.59375 66.015625 29.296875 66.015625 
L 18.359375 66.015625 
Q 16.796875 66.015625 15.8125 65.234375 
Q 14.84375 64.453125 14.84375 62.890625 
L 14.84375 38.671875 
L 26.171875 38.671875 
Q 30.078125 38.671875 31.828125 40.625 
Q 33.59375 42.578125 33.59375 46.484375 
L 33.59375 48.828125 
L 35.9375 48.828125 
L 35.9375 25.78125 
L 33.59375 25.78125 
L 33.59375 27.34375 
Q 33.59375 31.640625 31.828125 33.984375 
Q 30.078125 36.328125 26.171875 36.328125 
L 14.84375 36.328125 
L 14.84375 7.03125 
Q 14.84375 5.46875 15.8125 4.6875 
Q 16.796875 3.90625 18.359375 3.90625 
L 28.515625 3.90625 
Q 34.375 3.90625 38.46875 7.21875 
Q 42.578125 10.546875 44.921875 17.578125 
L 46.875 16.796875 
L 42.578125 1.5625 
L 2.734375 1.5625 
L 2.734375 3.90625 
L 5.078125 3.90625 
Q 7.03125 3.90625 7.8125 4.6875 
Q 8.59375 5.46875 8.59375 7.03125 
L 8.59375 62.890625 
Q 8.59375 64.453125 7.8125 65.234375 
Q 7.03125 66.015625 5.078125 66.015625 
z
" id="SimSun-69"/>
      <path d="M 3.125 34.765625 
L 3.125 38.28125 
L 46.484375 38.28125 
L 46.484375 34.765625 
z
" id="SimSun-45"/>
      <path d="M 23.4375 33.59375 
Q 12.890625 38.28125 8.984375 41.796875 
Q 5.078125 45.3125 5.078125 52.734375 
Q 5.078125 58.59375 9.953125 63.859375 
Q 14.84375 69.140625 23.828125 69.140625 
Q 27.734375 69.140625 31.25 67.96875 
Q 34.765625 66.40625 36.328125 66.40625 
Q 37.5 66.40625 38.46875 66.984375 
Q 39.453125 67.578125 40.234375 69.140625 
L 41.796875 53.125 
L 39.84375 52.34375 
Q 36.328125 60.546875 32.609375 63.46875 
Q 28.90625 66.40625 23.046875 66.40625 
Q 15.625 66.40625 12.890625 62.296875 
Q 10.15625 58.203125 10.15625 53.515625 
Q 10.15625 49.21875 12.6875 46.671875 
Q 15.234375 44.140625 26.5625 39.0625 
Q 35.9375 35.15625 40.03125 30.265625 
Q 44.140625 25.390625 44.140625 18.75 
Q 44.140625 11.71875 39.25 6.25 
Q 34.375 0.78125 25 0.78125 
Q 21.09375 0.78125 17.96875 2.34375 
Q 14.453125 3.515625 12.5 3.515625 
Q 11.328125 3.515625 10.15625 2.734375 
Q 8.984375 1.953125 7.421875 0.78125 
L 4.296875 19.921875 
L 6.640625 20.703125 
Q 9.375 10.9375 14.25 7.21875 
Q 19.140625 3.515625 25.390625 3.515625 
Q 32.03125 3.515625 35.34375 7.421875 
Q 38.671875 11.328125 38.671875 18.75 
Q 38.671875 22.65625 34.953125 26.359375 
Q 31.25 30.078125 23.4375 33.59375 
z
" id="SimSun-83"/>
      <path d="M 34.765625 1.5625 
L 14.453125 1.5625 
L 14.453125 3.90625 
L 17.96875 3.90625 
Q 19.921875 3.90625 20.703125 4.6875 
Q 21.484375 5.46875 21.484375 7.03125 
L 21.484375 61.71875 
Q 21.484375 64.84375 21.09375 65.234375 
Q 20.703125 65.625 17.96875 65.625 
Q 12.5 65.625 10.34375 63.671875 
Q 8.203125 61.71875 5.078125 53.125 
L 2.734375 53.515625 
L 6.25 68.359375 
L 43.359375 68.359375 
L 46.484375 53.515625 
L 44.53125 53.125 
Q 41.40625 61.328125 39.640625 63.46875 
Q 37.890625 65.625 32.421875 65.625 
Q 28.515625 65.625 28.125 65.234375 
Q 27.734375 64.84375 27.734375 61.328125 
L 27.734375 7.03125 
Q 27.734375 5.46875 28.703125 4.6875 
Q 29.6875 3.90625 31.25 3.90625 
L 34.765625 3.90625 
z
" id="SimSun-84"/>
      <path d="M 43.75 7.03125 
Q 43.75 5.46875 44.71875 4.6875 
Q 45.703125 3.90625 47.265625 3.90625 
L 48.828125 3.90625 
L 48.828125 1.5625 
L 32.03125 1.5625 
L 32.03125 3.90625 
L 33.984375 3.90625 
Q 35.9375 3.90625 36.71875 4.6875 
Q 37.5 5.46875 37.5 7.03125 
L 37.5 58.203125 
L 36.71875 58.203125 
L 23.4375 1.5625 
L 21.09375 1.5625 
L 8.984375 57.03125 
L 8.203125 57.03125 
L 8.203125 7.03125 
Q 8.203125 5.46875 9.171875 4.6875 
Q 10.15625 3.90625 11.71875 3.90625 
L 12.890625 3.90625 
L 12.890625 1.5625 
L 1.171875 1.5625 
L 1.171875 3.90625 
L 2.34375 3.90625 
Q 4.296875 3.90625 5.078125 4.6875 
Q 5.859375 5.46875 5.859375 7.03125 
L 5.859375 62.890625 
Q 5.859375 64.453125 5.078125 65.234375 
Q 4.296875 66.015625 2.34375 66.015625 
L 0.78125 66.015625 
L 0.78125 68.359375 
L 12.109375 68.359375 
L 23.4375 16.015625 
L 24.21875 16.015625 
L 36.328125 68.359375 
L 48.828125 68.359375 
L 48.828125 66.015625 
L 47.265625 66.015625 
Q 45.703125 66.015625 44.71875 65.234375 
Q 43.75 64.453125 43.75 62.890625 
z
" id="SimSun-77"/>
     </defs>
     <g transform="translate(559.432 47.762212)scale(0.14 -0.14)">
      <use xlink:href="#SimSun-82"/>
      <use x="50" xlink:href="#SimSun-70"/>
      <use x="100" xlink:href="#SimSun-69"/>
      <use x="150" xlink:href="#SimSun-45"/>
      <use x="200" xlink:href="#SimSun-76"/>
      <use x="250" xlink:href="#SimSun-83"/>
      <use x="300" xlink:href="#SimSun-84"/>
      <use x="350" xlink:href="#SimSun-77"/>
      <use x="400" xlink:href="#SimSun-39044"/>
      <use x="500" xlink:href="#SimSun-27979"/>
      <use x="600" xlink:href="#SimSun-20540"/>
     </g>
    </g>
    <g id="line2d_24">
     <path d="M 520.232 62.713775 
L 548.232 62.713775 
" style="fill:none;stroke:#32cd32;stroke-dasharray:5.92,2.56;stroke-dashoffset:0;stroke-width:1.6;"/>
    </g>
    <g id="line2d_25">
     <g>
      <use style="fill:#32cd32;stroke:#32cd32;stroke-linejoin:bevel;" x="534.232" xlink:href="#m4c888deb7a" y="62.713775"/>
     </g>
    </g>
    <g id="text_20">
     <!-- 经典LSTM预测值 -->
     <defs>
      <path d="M 77.734375 69.921875 
Q 72.265625 62.5 66.40625 55.078125 
Q 79.296875 50 84.765625 46.875 
Q 90.234375 43.75 90.8125 40.625 
Q 91.40625 37.5 90.421875 36.125 
Q 89.453125 34.765625 88.671875 34.765625 
Q 87.109375 34.765625 84.375 38.671875 
Q 80.46875 44.140625 65.234375 53.515625 
Q 61.328125 49.21875 54.484375 44.140625 
Q 47.65625 39.0625 35.546875 33.984375 
L 35.15625 35.546875 
Q 48.046875 42.578125 56.25 50.78125 
Q 64.453125 58.984375 71.484375 71.484375 
L 53.90625 71.484375 
Q 48.828125 71.484375 44.53125 70.3125 
L 41.015625 73.828125 
L 71.875 73.828125 
L 75.78125 77.734375 
L 81.640625 71.875 
z
M 42.96875 28.125 
L 77.34375 28.125 
L 82.03125 32.8125 
L 88.671875 25.78125 
L 66.015625 25.78125 
L 66.015625 -0.78125 
L 84.375 -0.78125 
L 89.0625 3.90625 
L 95.703125 -3.125 
L 45.703125 -3.125 
Q 40.625 -3.125 36.328125 -4.296875 
L 32.8125 -0.78125 
L 60.546875 -0.78125 
L 60.546875 25.78125 
L 55.859375 25.78125 
Q 50.78125 25.78125 46.484375 24.609375 
z
M 14.0625 23.828125 
L 39.453125 28.125 
L 39.84375 26.5625 
Q 32.421875 24.609375 24.796875 22.0625 
Q 17.1875 19.53125 12.109375 16.015625 
L 7.421875 23.4375 
Q 11.328125 24.609375 16.984375 31.046875 
Q 22.65625 37.5 28.515625 46.484375 
Q 22.65625 45.3125 17.96875 44.140625 
Q 13.28125 42.96875 8.203125 39.84375 
L 4.6875 47.265625 
Q 9.375 48.4375 15.8125 60.15625 
Q 22.265625 71.875 24.21875 80.078125 
L 32.421875 75 
L 28.90625 72.65625 
Q 17.96875 54.6875 10.15625 47.265625 
L 29.6875 48.4375 
Q 34.765625 56.25 37.5 63.28125 
L 45.3125 57.421875 
L 41.015625 55.859375 
Q 28.515625 37.890625 14.0625 23.828125 
z
M 8.984375 -3.125 
L 5.078125 3.90625 
Q 24.21875 7.421875 42.1875 11.71875 
L 42.578125 10.15625 
Q 35.546875 7.8125 24.40625 3.90625 
Q 13.28125 0 8.984375 -3.125 
z
" id="SimSun-32463"/>
      <path d="M 35.9375 14.453125 
L 42.96875 7.421875 
Q 39.453125 7.03125 29.6875 0.390625 
Q 19.53125 -6.25 8.59375 -10.15625 
L 7.8125 -8.984375 
Q 17.96875 -3.515625 24.609375 2.53125 
Q 31.25 8.59375 35.9375 14.453125 
z
M 58.59375 12.109375 
L 59.375 13.671875 
Q 81.640625 3.90625 83.59375 0.78125 
Q 85.546875 -2.34375 85.546875 -4.6875 
Q 85.546875 -6.640625 84.765625 -8 
Q 83.984375 -9.375 83.59375 -9.375 
Q 81.640625 -9.375 77.34375 -3.515625 
Q 71.484375 4.296875 58.59375 12.109375 
z
M 21.09375 18.75 
L 21.09375 48.4375 
Q 21.09375 56.25 20.703125 65.234375 
L 26.171875 62.5 
L 38.28125 62.5 
L 38.28125 71.875 
Q 38.28125 76.953125 37.890625 81.640625 
L 46.09375 77.34375 
L 43.359375 74.609375 
L 43.359375 62.5 
L 55.078125 62.5 
L 55.078125 71.875 
Q 55.078125 77.34375 54.6875 81.640625 
L 63.28125 77.34375 
L 60.15625 74.21875 
L 60.15625 62.5 
L 71.875 62.5 
L 75.390625 66.40625 
L 81.640625 60.9375 
L 77.734375 58.59375 
L 77.734375 18.75 
L 81.25 18.75 
L 87.109375 24.609375 
L 95.3125 16.40625 
L 18.75 16.40625 
Q 13.671875 16.40625 9.375 15.234375 
L 5.859375 18.75 
z
M 26.171875 60.15625 
L 26.171875 41.796875 
L 38.28125 41.796875 
L 38.28125 60.15625 
z
M 43.359375 60.15625 
L 43.359375 41.796875 
L 55.078125 41.796875 
L 55.078125 60.15625 
z
M 60.15625 60.15625 
L 60.15625 41.796875 
L 72.65625 41.796875 
L 72.65625 60.15625 
z
M 26.171875 39.453125 
L 26.171875 18.75 
L 38.28125 18.75 
L 38.28125 39.453125 
z
M 43.359375 39.453125 
L 43.359375 18.75 
L 55.078125 18.75 
L 55.078125 39.453125 
z
M 60.15625 39.453125 
L 60.15625 18.75 
L 72.65625 18.75 
L 72.65625 39.453125 
z
" id="SimSun-20856"/>
     </defs>
     <g transform="translate(559.432 67.613775)scale(0.14 -0.14)">
      <use xlink:href="#SimSun-32463"/>
      <use x="100" xlink:href="#SimSun-20856"/>
      <use x="200" xlink:href="#SimSun-76"/>
      <use x="250" xlink:href="#SimSun-83"/>
      <use x="300" xlink:href="#SimSun-84"/>
      <use x="350" xlink:href="#SimSun-77"/>
      <use x="400" xlink:href="#SimSun-39044"/>
      <use x="500" xlink:href="#SimSun-27979"/>
      <use x="600" xlink:href="#SimSun-20540"/>
     </g>
    </g>
    <g id="line2d_26">
     <path d="M 520.232 82.565337 
L 548.232 82.565337 
" style="fill:none;stroke:#ff8c00;stroke-dasharray:5.92,2.56;stroke-dashoffset:0;stroke-width:1.6;"/>
    </g>
    <g id="line2d_27">
     <g>
      <use style="fill:#ff8c00;stroke:#ff8c00;stroke-linejoin:miter;" x="534.232" xlink:href="#mb16e4f8f2f" y="82.565337"/>
     </g>
    </g>
    <g id="text_21">
     <!-- MLP预测值 -->
     <defs>
      <path d="M 14.84375 32.8125 
L 14.84375 7.03125 
Q 14.84375 5.46875 15.8125 4.6875 
Q 16.796875 3.90625 18.359375 3.90625 
L 21.09375 3.90625 
L 21.09375 1.5625 
L 2.34375 1.5625 
L 2.34375 3.90625 
L 5.078125 3.90625 
Q 7.03125 3.90625 7.8125 4.6875 
Q 8.59375 5.46875 8.59375 7.03125 
L 8.59375 62.890625 
Q 8.59375 64.453125 7.8125 65.234375 
Q 7.03125 66.015625 5.078125 66.015625 
L 2.734375 66.015625 
L 2.734375 68.359375 
L 25.78125 68.359375 
Q 35.546875 68.359375 40.8125 63.46875 
Q 46.09375 58.59375 46.09375 51.171875 
Q 46.09375 42.1875 40.421875 37.5 
Q 34.765625 32.8125 26.953125 32.8125 
z
M 24.609375 35.15625 
Q 30.46875 35.15625 34.953125 38.671875 
Q 39.453125 42.1875 39.453125 50.78125 
Q 39.453125 58.59375 35.734375 62.296875 
Q 32.03125 66.015625 23.828125 66.015625 
L 18.359375 66.015625 
Q 16.796875 66.015625 15.8125 65.234375 
Q 14.84375 64.453125 14.84375 62.890625 
L 14.84375 35.15625 
z
" id="SimSun-80"/>
     </defs>
     <g transform="translate(559.432 87.465337)scale(0.14 -0.14)">
      <use xlink:href="#SimSun-77"/>
      <use x="50" xlink:href="#SimSun-76"/>
      <use x="100" xlink:href="#SimSun-80"/>
      <use x="150" xlink:href="#SimSun-39044"/>
      <use x="250" xlink:href="#SimSun-27979"/>
      <use x="350" xlink:href="#SimSun-20540"/>
     </g>
    </g>
   </g>
  </g>
 </g>
 <defs>
  <clipPath id="p4afd9ea504">
   <rect height="373.896" width="615.888" x="54.144" y="4.1544"/>
  </clipPath>
 </defs>
</svg>
