<?xml version="1.0" encoding="utf-8" standalone="no"?>
<!DOCTYPE svg PUBLIC "-//W3C//DTD SVG 1.1//EN"
  "http://www.w3.org/Graphics/SVG/1.1/DTD/svg11.dtd">
<!-- Created with matplotlib (https://matplotlib.org/) -->
<svg height="402.48pt" version="1.1" viewBox="0 0 643.68 402.48" width="643.68pt" xmlns="http://www.w3.org/2000/svg" xmlns:xlink="http://www.w3.org/1999/xlink">
 <defs>
  <style type="text/css">
*{stroke-linecap:butt;stroke-linejoin:round;}
  </style>
 </defs>
 <g id="figure_1">
  <g id="patch_1">
   <path d="M 0 402.48 
L 643.68 402.48 
L 643.68 0 
L 0 0 
z
" style="fill:#ffffff;"/>
  </g>
  <g id="axes_1">
   <g id="patch_2">
    <path d="M 25.7472 376.3188 
L 627.588 376.3188 
L 627.588 4.0248 
L 25.7472 4.0248 
z
" style="fill:#ffffff;"/>
   </g>
   <g id="PathCollection_1">
    <defs>
     <path d="M 0 3 
C 0.795609 3 1.55874 2.683901 2.12132 2.12132 
C 2.683901 1.55874 3 0.795609 3 0 
C 3 -0.795609 2.683901 -1.55874 2.12132 -2.12132 
C 1.55874 -2.683901 0.795609 -3 0 -3 
C -0.795609 -3 -1.55874 -2.683901 -2.12132 -2.12132 
C -2.683901 -1.55874 -3 -0.795609 -3 0 
C -3 0.795609 -2.683901 1.55874 -2.12132 2.12132 
C -1.55874 2.683901 -0.795609 3 0 3 
z
" id="mdd7f8f1ec2" style="stroke:#ff0000;"/>
    </defs>
    <g clip-path="url(#p753319c5a7)">
     <use style="fill:#ff0000;stroke:#ff0000;" x="79.365728" xlink:href="#mdd7f8f1ec2" y="331.24447"/>
     <use style="fill:#ff0000;stroke:#ff0000;" x="127.512989" xlink:href="#mdd7f8f1ec2" y="330.877025"/>
     <use style="fill:#ff0000;stroke:#ff0000;" x="248.318839" xlink:href="#mdd7f8f1ec2" y="319.306453"/>
     <use style="fill:#ff0000;stroke:#ff0000;" x="383.131229" xlink:href="#mdd7f8f1ec2" y="297.036296"/>
     <use style="fill:#ff0000;stroke:#ff0000;" x="381.38043" xlink:href="#mdd7f8f1ec2" y="264.180317"/>
     <use style="fill:#ff0000;stroke:#ff0000;" x="245.692641" xlink:href="#mdd7f8f1ec2" y="223.677126"/>
     <use style="fill:#ff0000;stroke:#ff0000;" x="162.529109" xlink:href="#mdd7f8f1ec2" y="190.064177"/>
     <use style="fill:#ff0000;stroke:#ff0000;" x="119.634396" xlink:href="#mdd7f8f1ec2" y="202.908158"/>
     <use style="fill:#ff0000;stroke:#ff0000;" x="112.63105" xlink:href="#mdd7f8f1ec2" y="254.480492"/>
     <use style="fill:#ff0000;stroke:#ff0000;" x="145.896524" xlink:href="#mdd7f8f1ec2" y="289.458784"/>
     <use style="fill:#ff0000;stroke:#ff0000;" x="174.78485" xlink:href="#mdd7f8f1ec2" y="300.618823"/>
     <use style="fill:#ff0000;stroke:#ff0000;" x="194.919183" xlink:href="#mdd7f8f1ec2" y="291.803053"/>
     <use style="fill:#ff0000;stroke:#ff0000;" x="212.427319" xlink:href="#mdd7f8f1ec2" y="263.819705"/>
     <use style="fill:#ff0000;stroke:#ff0000;" x="229.935304" xlink:href="#mdd7f8f1ec2" y="224.14122"/>
     <use style="fill:#ff0000;stroke:#ff0000;" x="253.571235" xlink:href="#mdd7f8f1ec2" y="184.374719"/>
     <use style="fill:#ff0000;stroke:#ff0000;" x="348.114957" xlink:href="#mdd7f8f1ec2" y="159.695527"/>
     <use style="fill:#ff0000;stroke:#ff0000;" x="305.220243" xlink:href="#mdd7f8f1ec2" y="222.429104"/>
     <use style="fill:#ff0000;stroke:#ff0000;" x="263.200777" xlink:href="#mdd7f8f1ec2" y="244.809727"/>
     <use style="fill:#ff0000;stroke:#ff0000;" x="220.305912" xlink:href="#mdd7f8f1ec2" y="257.843112"/>
     <use style="fill:#ff0000;stroke:#ff0000;" x="196.669982" xlink:href="#mdd7f8f1ec2" y="274.832586"/>
     <use style="fill:#ff0000;stroke:#ff0000;" x="187.040439" xlink:href="#mdd7f8f1ec2" y="272.729336"/>
     <use style="fill:#ff0000;stroke:#ff0000;" x="213.302567" xlink:href="#mdd7f8f1ec2" y="253.942604"/>
     <use style="fill:#ff0000;stroke:#ff0000;" x="249.194238" xlink:href="#mdd7f8f1ec2" y="238.292443"/>
     <use style="fill:#ff0000;stroke:#ff0000;" x="271.079371" xlink:href="#mdd7f8f1ec2" y="226.800757"/>
     <use style="fill:#ff0000;stroke:#ff0000;" x="286.836708" xlink:href="#mdd7f8f1ec2" y="215.613393"/>
     <use style="fill:#ff0000;stroke:#ff0000;" x="287.712107" xlink:href="#mdd7f8f1ec2" y="202.12443"/>
     <use style="fill:#ff0000;stroke:#ff0000;" x="432.153888" xlink:href="#mdd7f8f1ec2" y="98.080706"/>
     <use style="fill:#ff0000;stroke:#ff0000;" x="406.767159" xlink:href="#mdd7f8f1ec2" y="106.060163"/>
     <use style="fill:#ff0000;stroke:#ff0000;" x="398.888415" xlink:href="#mdd7f8f1ec2" y="112.958138"/>
     <use style="fill:#ff0000;stroke:#ff0000;" x="381.38043" xlink:href="#mdd7f8f1ec2" y="130.070727"/>
     <use style="fill:#ff0000;stroke:#ff0000;" x="355.993701" xlink:href="#mdd7f8f1ec2" y="147.325256"/>
     <use style="fill:#ff0000;stroke:#ff0000;" x="330.606972" xlink:href="#mdd7f8f1ec2" y="166.131474"/>
     <use style="fill:#ff0000;stroke:#ff0000;" x="348.114957" xlink:href="#mdd7f8f1ec2" y="153.195074"/>
     <use style="fill:#ff0000;stroke:#ff0000;" x="440.032481" xlink:href="#mdd7f8f1ec2" y="133.671981"/>
     <use style="fill:#ff0000;stroke:#ff0000;" x="532.825405" xlink:href="#mdd7f8f1ec2" y="139.330669"/>
     <use style="fill:#ff0000;stroke:#ff0000;" x="583.598863" xlink:href="#mdd7f8f1ec2" y="156.044252"/>
     <use style="fill:#ff0000;stroke:#ff0000;" x="508.314075" xlink:href="#mdd7f8f1ec2" y="156.260695"/>
     <use style="fill:#ff0000;stroke:#ff0000;" x="424.275144" xlink:href="#mdd7f8f1ec2" y="178.191763"/>
     <use style="fill:#ff0000;stroke:#ff0000;" x="348.114957" xlink:href="#mdd7f8f1ec2" y="169.336987"/>
     <use style="fill:#ff0000;stroke:#ff0000;" x="313.974235" xlink:href="#mdd7f8f1ec2" y="181.074877"/>
     <use style="fill:#ff0000;stroke:#ff0000;" x="305.220243" xlink:href="#mdd7f8f1ec2" y="186.898331"/>
     <use style="fill:#ff0000;stroke:#ff0000;" x="295.5907" xlink:href="#mdd7f8f1ec2" y="203.045821"/>
     <use style="fill:#ff0000;stroke:#ff0000;" x="279.833363" xlink:href="#mdd7f8f1ec2" y="214.290448"/>
     <use style="fill:#ff0000;stroke:#ff0000;" x="254.446634" xlink:href="#mdd7f8f1ec2" y="219.049425"/>
     <use style="fill:#ff0000;stroke:#ff0000;" x="279.833363" xlink:href="#mdd7f8f1ec2" y="189.029469"/>
     <use style="fill:#ff0000;stroke:#ff0000;" x="407.642559" xlink:href="#mdd7f8f1ec2" y="161.104594"/>
     <use style="fill:#ff0000;stroke:#ff0000;" x="532.825405" xlink:href="#mdd7f8f1ec2" y="148.166366"/>
     <use style="fill:#ff0000;stroke:#ff0000;" x="600.2316" xlink:href="#mdd7f8f1ec2" y="128.18764"/>
     <use style="fill:#ff0000;stroke:#ff0000;" x="591.477456" xlink:href="#mdd7f8f1ec2" y="111.131796"/>
     <use style="fill:#ff0000;stroke:#ff0000;" x="507.438676" xlink:href="#mdd7f8f1ec2" y="108.996482"/>
     <use style="fill:#ff0000;stroke:#ff0000;" x="440.032481" xlink:href="#mdd7f8f1ec2" y="120.641725"/>
     <use style="fill:#ff0000;stroke:#ff0000;" x="398.013016" xlink:href="#mdd7f8f1ec2" y="122.11347"/>
     <use style="fill:#ff0000;stroke:#ff0000;" x="372.626287" xlink:href="#mdd7f8f1ec2" y="144.309911"/>
     <use style="fill:#ff0000;stroke:#ff0000;" x="330.606972" xlink:href="#mdd7f8f1ec2" y="160.478227"/>
     <use style="fill:#ff0000;stroke:#ff0000;" x="288.587506" xlink:href="#mdd7f8f1ec2" y="178.953638"/>
     <use style="fill:#ff0000;stroke:#ff0000;" x="238.689296" xlink:href="#mdd7f8f1ec2" y="197.471864"/>
     <use style="fill:#ff0000;stroke:#ff0000;" x="221.181312" xlink:href="#mdd7f8f1ec2" y="200.205178"/>
     <use style="fill:#ff0000;stroke:#ff0000;" x="255.322033" xlink:href="#mdd7f8f1ec2" y="182.846148"/>
     <use style="fill:#ff0000;stroke:#ff0000;" x="323.603627" xlink:href="#mdd7f8f1ec2" y="188.946476"/>
     <use style="fill:#ff0000;stroke:#ff0000;" x="338.485565" xlink:href="#mdd7f8f1ec2" y="202.886022"/>
     <use style="fill:#ff0000;stroke:#ff0000;" x="305.220243" xlink:href="#mdd7f8f1ec2" y="223.483691"/>
     <use style="fill:#ff0000;stroke:#ff0000;" x="229.935304" xlink:href="#mdd7f8f1ec2" y="237.130034"/>
     <use style="fill:#ff0000;stroke:#ff0000;" x="179.161846" xlink:href="#mdd7f8f1ec2" y="257.434353"/>
     <use style="fill:#ff0000;stroke:#ff0000;" x="162.529109" xlink:href="#mdd7f8f1ec2" y="266.604578"/>
     <use style="fill:#ff0000;stroke:#ff0000;" x="162.529109" xlink:href="#mdd7f8f1ec2" y="292.71793"/>
     <use style="fill:#ff0000;stroke:#ff0000;" x="162.529109" xlink:href="#mdd7f8f1ec2" y="296.54821"/>
     <use style="fill:#ff0000;stroke:#ff0000;" x="154.650516" xlink:href="#mdd7f8f1ec2" y="305.513746"/>
     <use style="fill:#ff0000;stroke:#ff0000;" x="162.529109" xlink:href="#mdd7f8f1ec2" y="302.235894"/>
     <use style="fill:#ff0000;stroke:#ff0000;" x="145.896524" xlink:href="#mdd7f8f1ec2" y="273.69657"/>
     <use style="fill:#ff0000;stroke:#ff0000;" x="196.669982" xlink:href="#mdd7f8f1ec2" y="263.342046"/>
     <use style="fill:#ff0000;stroke:#ff0000;" x="264.076177" xlink:href="#mdd7f8f1ec2" y="245.572702"/>
     <use style="fill:#ff0000;stroke:#ff0000;" x="246.568041" xlink:href="#mdd7f8f1ec2" y="246.76579"/>
     <use style="fill:#ff0000;stroke:#ff0000;" x="187.915838" xlink:href="#mdd7f8f1ec2" y="252.38955"/>
     <use style="fill:#ff0000;stroke:#ff0000;" x="153.775117" xlink:href="#mdd7f8f1ec2" y="282.057261"/>
     <use style="fill:#ff0000;stroke:#ff0000;" x="145.896524" xlink:href="#mdd7f8f1ec2" y="304.042175"/>
     <use style="fill:#ff0000;stroke:#ff0000;" x="137.14238" xlink:href="#mdd7f8f1ec2" y="311.400781"/>
     <use style="fill:#ff0000;stroke:#ff0000;" x="137.14238" xlink:href="#mdd7f8f1ec2" y="300.777583"/>
     <use style="fill:#ff0000;stroke:#ff0000;" x="136.266981" xlink:href="#mdd7f8f1ec2" y="292.925953"/>
     <use style="fill:#ff0000;stroke:#ff0000;" x="138.017779" xlink:href="#mdd7f8f1ec2" y="288.090275"/>
     <use style="fill:#ff0000;stroke:#ff0000;" x="137.14238" xlink:href="#mdd7f8f1ec2" y="285.025185"/>
     <use style="fill:#ff0000;stroke:#ff0000;" x="145.021125" xlink:href="#mdd7f8f1ec2" y="278.815177"/>
     <use style="fill:#ff0000;stroke:#ff0000;" x="222.056711" xlink:href="#mdd7f8f1ec2" y="256.25402"/>
     <use style="fill:#ff0000;stroke:#ff0000;" x="330.606972" xlink:href="#mdd7f8f1ec2" y="241.532811"/>
     <use style="fill:#ff0000;stroke:#ff0000;" x="322.728228" xlink:href="#mdd7f8f1ec2" y="246.643511"/>
     <use style="fill:#ff0000;stroke:#ff0000;" x="271.95477" xlink:href="#mdd7f8f1ec2" y="247.227782"/>
     <use style="fill:#ff0000;stroke:#ff0000;" x="179.161846" xlink:href="#mdd7f8f1ec2" y="245.428524"/>
     <use style="fill:#ff0000;stroke:#ff0000;" x="145.896524" xlink:href="#mdd7f8f1ec2" y="256.54717"/>
     <use style="fill:#ff0000;stroke:#ff0000;" x="145.896524" xlink:href="#mdd7f8f1ec2" y="264.862784"/>
     <use style="fill:#ff0000;stroke:#ff0000;" x="204.548575" xlink:href="#mdd7f8f1ec2" y="281.321516"/>
     <use style="fill:#ff0000;stroke:#ff0000;" x="204.548575" xlink:href="#mdd7f8f1ec2" y="286.335826"/>
     <use style="fill:#ff0000;stroke:#ff0000;" x="145.896524" xlink:href="#mdd7f8f1ec2" y="280.943449"/>
     <use style="fill:#ff0000;stroke:#ff0000;" x="237.814048" xlink:href="#mdd7f8f1ec2" y="260.546666"/>
     <use style="fill:#ff0000;stroke:#ff0000;" x="196.669982" xlink:href="#mdd7f8f1ec2" y="265.749466"/>
     <use style="fill:#ff0000;stroke:#ff0000;" x="187.040439" xlink:href="#mdd7f8f1ec2" y="274.728945"/>
     <use style="fill:#ff0000;stroke:#ff0000;" x="221.181312" xlink:href="#mdd7f8f1ec2" y="253.656769"/>
     <use style="fill:#ff0000;stroke:#ff0000;" x="246.568041" xlink:href="#mdd7f8f1ec2" y="255.873192"/>
     <use style="fill:#ff0000;stroke:#ff0000;" x="212.427319" xlink:href="#mdd7f8f1ec2" y="264.245432"/>
     <use style="fill:#ff0000;stroke:#ff0000;" x="153.775117" xlink:href="#mdd7f8f1ec2" y="284.939341"/>
     <use style="fill:#ff0000;stroke:#ff0000;" x="69.736185" xlink:href="#mdd7f8f1ec2" y="339.325199"/>
     <use style="fill:#ff0000;stroke:#ff0000;" x="53.1036" xlink:href="#mdd7f8f1ec2" y="334.450449"/>
    </g>
   </g>
   <g id="PathCollection_2">
    <defs>
     <path d="M 0 3 
C 0.795609 3 1.55874 2.683901 2.12132 2.12132 
C 2.683901 1.55874 3 0.795609 3 0 
C 3 -0.795609 2.683901 -1.55874 2.12132 -2.12132 
C 1.55874 -2.683901 0.795609 -3 0 -3 
C -0.795609 -3 -1.55874 -2.683901 -2.12132 -2.12132 
C -2.683901 -1.55874 -3 -0.795609 -3 0 
C -3 0.795609 -2.683901 1.55874 -2.12132 2.12132 
C -1.55874 2.683901 -0.795609 3 0 3 
z
" id="md8df2d3fce" style="stroke:#32cd32;"/>
    </defs>
    <g clip-path="url(#p753319c5a7)">
     <use style="fill:#32cd32;stroke:#32cd32;" x="79.365728" xlink:href="#md8df2d3fce" y="341.913247"/>
     <use style="fill:#32cd32;stroke:#32cd32;" x="127.512989" xlink:href="#md8df2d3fce" y="335.848363"/>
     <use style="fill:#32cd32;stroke:#32cd32;" x="248.318839" xlink:href="#md8df2d3fce" y="322.20456"/>
     <use style="fill:#32cd32;stroke:#32cd32;" x="383.131229" xlink:href="#md8df2d3fce" y="310.896671"/>
     <use style="fill:#32cd32;stroke:#32cd32;" x="381.38043" xlink:href="#md8df2d3fce" y="298.261543"/>
     <use style="fill:#32cd32;stroke:#32cd32;" x="245.692641" xlink:href="#md8df2d3fce" y="281.531277"/>
     <use style="fill:#32cd32;stroke:#32cd32;" x="162.529109" xlink:href="#md8df2d3fce" y="261.664485"/>
     <use style="fill:#32cd32;stroke:#32cd32;" x="119.634396" xlink:href="#md8df2d3fce" y="245.744802"/>
     <use style="fill:#32cd32;stroke:#32cd32;" x="112.63105" xlink:href="#md8df2d3fce" y="253.551304"/>
     <use style="fill:#32cd32;stroke:#32cd32;" x="145.896524" xlink:href="#md8df2d3fce" y="274.678913"/>
     <use style="fill:#32cd32;stroke:#32cd32;" x="174.78485" xlink:href="#md8df2d3fce" y="297.267215"/>
     <use style="fill:#32cd32;stroke:#32cd32;" x="194.919183" xlink:href="#md8df2d3fce" y="318.460786"/>
     <use style="fill:#32cd32;stroke:#32cd32;" x="212.427319" xlink:href="#md8df2d3fce" y="308.877758"/>
     <use style="fill:#32cd32;stroke:#32cd32;" x="229.935304" xlink:href="#md8df2d3fce" y="265.701482"/>
     <use style="fill:#32cd32;stroke:#32cd32;" x="253.571235" xlink:href="#md8df2d3fce" y="210.977695"/>
     <use style="fill:#32cd32;stroke:#32cd32;" x="348.114957" xlink:href="#md8df2d3fce" y="174.296022"/>
     <use style="fill:#32cd32;stroke:#32cd32;" x="305.220243" xlink:href="#md8df2d3fce" y="174.551897"/>
     <use style="fill:#32cd32;stroke:#32cd32;" x="263.200777" xlink:href="#md8df2d3fce" y="211.030346"/>
     <use style="fill:#32cd32;stroke:#32cd32;" x="220.305912" xlink:href="#md8df2d3fce" y="243.700732"/>
     <use style="fill:#32cd32;stroke:#32cd32;" x="196.669982" xlink:href="#md8df2d3fce" y="274.687071"/>
     <use style="fill:#32cd32;stroke:#32cd32;" x="187.040439" xlink:href="#md8df2d3fce" y="290.115293"/>
     <use style="fill:#32cd32;stroke:#32cd32;" x="213.302567" xlink:href="#md8df2d3fce" y="302.255791"/>
     <use style="fill:#32cd32;stroke:#32cd32;" x="249.194238" xlink:href="#md8df2d3fce" y="297.64646"/>
     <use style="fill:#32cd32;stroke:#32cd32;" x="271.079371" xlink:href="#md8df2d3fce" y="284.816399"/>
     <use style="fill:#32cd32;stroke:#32cd32;" x="286.836708" xlink:href="#md8df2d3fce" y="265.291995"/>
     <use style="fill:#32cd32;stroke:#32cd32;" x="287.712107" xlink:href="#md8df2d3fce" y="234.497563"/>
     <use style="fill:#32cd32;stroke:#32cd32;" x="432.153888" xlink:href="#md8df2d3fce" y="75.954611"/>
     <use style="fill:#32cd32;stroke:#32cd32;" x="406.767159" xlink:href="#md8df2d3fce" y="111.063578"/>
     <use style="fill:#32cd32;stroke:#32cd32;" x="398.888415" xlink:href="#md8df2d3fce" y="145.26108"/>
     <use style="fill:#32cd32;stroke:#32cd32;" x="381.38043" xlink:href="#md8df2d3fce" y="185.06209"/>
     <use style="fill:#32cd32;stroke:#32cd32;" x="355.993701" xlink:href="#md8df2d3fce" y="221.335959"/>
     <use style="fill:#32cd32;stroke:#32cd32;" x="330.606972" xlink:href="#md8df2d3fce" y="231.649978"/>
     <use style="fill:#32cd32;stroke:#32cd32;" x="348.114957" xlink:href="#md8df2d3fce" y="217.120293"/>
     <use style="fill:#32cd32;stroke:#32cd32;" x="440.032481" xlink:href="#md8df2d3fce" y="186.246334"/>
     <use style="fill:#32cd32;stroke:#32cd32;" x="532.825405" xlink:href="#md8df2d3fce" y="169.492037"/>
     <use style="fill:#32cd32;stroke:#32cd32;" x="583.598863" xlink:href="#md8df2d3fce" y="169.392067"/>
     <use style="fill:#32cd32;stroke:#32cd32;" x="508.314075" xlink:href="#md8df2d3fce" y="187.836308"/>
     <use style="fill:#32cd32;stroke:#32cd32;" x="424.275144" xlink:href="#md8df2d3fce" y="214.540437"/>
     <use style="fill:#32cd32;stroke:#32cd32;" x="348.114957" xlink:href="#md8df2d3fce" y="241.633745"/>
     <use style="fill:#32cd32;stroke:#32cd32;" x="313.974235" xlink:href="#md8df2d3fce" y="255.325824"/>
     <use style="fill:#32cd32;stroke:#32cd32;" x="305.220243" xlink:href="#md8df2d3fce" y="257.523787"/>
     <use style="fill:#32cd32;stroke:#32cd32;" x="295.5907" xlink:href="#md8df2d3fce" y="251.827952"/>
     <use style="fill:#32cd32;stroke:#32cd32;" x="279.833363" xlink:href="#md8df2d3fce" y="256.636322"/>
     <use style="fill:#32cd32;stroke:#32cd32;" x="254.446634" xlink:href="#md8df2d3fce" y="261.584876"/>
     <use style="fill:#32cd32;stroke:#32cd32;" x="279.833363" xlink:href="#md8df2d3fce" y="249.747745"/>
     <use style="fill:#32cd32;stroke:#32cd32;" x="407.642559" xlink:href="#md8df2d3fce" y="227.667896"/>
     <use style="fill:#32cd32;stroke:#32cd32;" x="532.825405" xlink:href="#md8df2d3fce" y="215.912866"/>
     <use style="fill:#32cd32;stroke:#32cd32;" x="600.2316" xlink:href="#md8df2d3fce" y="217.271758"/>
     <use style="fill:#32cd32;stroke:#32cd32;" x="591.477456" xlink:href="#md8df2d3fce" y="225.991709"/>
     <use style="fill:#32cd32;stroke:#32cd32;" x="507.438676" xlink:href="#md8df2d3fce" y="229.431971"/>
     <use style="fill:#32cd32;stroke:#32cd32;" x="440.032481" xlink:href="#md8df2d3fce" y="225.173381"/>
     <use style="fill:#32cd32;stroke:#32cd32;" x="398.013016" xlink:href="#md8df2d3fce" y="223.48794"/>
     <use style="fill:#32cd32;stroke:#32cd32;" x="372.626287" xlink:href="#md8df2d3fce" y="221.185704"/>
     <use style="fill:#32cd32;stroke:#32cd32;" x="330.606972" xlink:href="#md8df2d3fce" y="241.545066"/>
     <use style="fill:#32cd32;stroke:#32cd32;" x="288.587506" xlink:href="#md8df2d3fce" y="265.791499"/>
     <use style="fill:#32cd32;stroke:#32cd32;" x="238.689296" xlink:href="#md8df2d3fce" y="281.389997"/>
     <use style="fill:#32cd32;stroke:#32cd32;" x="221.181312" xlink:href="#md8df2d3fce" y="273.180396"/>
     <use style="fill:#32cd32;stroke:#32cd32;" x="255.322033" xlink:href="#md8df2d3fce" y="251.82545"/>
     <use style="fill:#32cd32;stroke:#32cd32;" x="323.603627" xlink:href="#md8df2d3fce" y="232.273425"/>
     <use style="fill:#32cd32;stroke:#32cd32;" x="338.485565" xlink:href="#md8df2d3fce" y="217.516524"/>
     <use style="fill:#32cd32;stroke:#32cd32;" x="305.220243" xlink:href="#md8df2d3fce" y="221.086289"/>
     <use style="fill:#32cd32;stroke:#32cd32;" x="229.935304" xlink:href="#md8df2d3fce" y="235.853543"/>
     <use style="fill:#32cd32;stroke:#32cd32;" x="179.161846" xlink:href="#md8df2d3fce" y="260.934799"/>
     <use style="fill:#32cd32;stroke:#32cd32;" x="162.529109" xlink:href="#md8df2d3fce" y="292.66255"/>
     <use style="fill:#32cd32;stroke:#32cd32;" x="162.529109" xlink:href="#md8df2d3fce" y="317.636334"/>
     <use style="fill:#32cd32;stroke:#32cd32;" x="162.529109" xlink:href="#md8df2d3fce" y="335.214902"/>
     <use style="fill:#32cd32;stroke:#32cd32;" x="154.650516" xlink:href="#md8df2d3fce" y="338.632871"/>
     <use style="fill:#32cd32;stroke:#32cd32;" x="162.529109" xlink:href="#md8df2d3fce" y="327.309876"/>
     <use style="fill:#32cd32;stroke:#32cd32;" x="145.896524" xlink:href="#md8df2d3fce" y="296.415765"/>
     <use style="fill:#32cd32;stroke:#32cd32;" x="196.669982" xlink:href="#md8df2d3fce" y="273.273017"/>
     <use style="fill:#32cd32;stroke:#32cd32;" x="264.076177" xlink:href="#md8df2d3fce" y="248.211723"/>
     <use style="fill:#32cd32;stroke:#32cd32;" x="246.568041" xlink:href="#md8df2d3fce" y="239.553439"/>
     <use style="fill:#32cd32;stroke:#32cd32;" x="187.915838" xlink:href="#md8df2d3fce" y="247.068565"/>
     <use style="fill:#32cd32;stroke:#32cd32;" x="153.775117" xlink:href="#md8df2d3fce" y="272.506548"/>
     <use style="fill:#32cd32;stroke:#32cd32;" x="145.896524" xlink:href="#md8df2d3fce" y="303.723651"/>
     <use style="fill:#32cd32;stroke:#32cd32;" x="137.14238" xlink:href="#md8df2d3fce" y="318.645222"/>
     <use style="fill:#32cd32;stroke:#32cd32;" x="137.14238" xlink:href="#md8df2d3fce" y="319.595737"/>
     <use style="fill:#32cd32;stroke:#32cd32;" x="136.266981" xlink:href="#md8df2d3fce" y="316.902807"/>
     <use style="fill:#32cd32;stroke:#32cd32;" x="138.017779" xlink:href="#md8df2d3fce" y="310.438109"/>
     <use style="fill:#32cd32;stroke:#32cd32;" x="137.14238" xlink:href="#md8df2d3fce" y="303.804975"/>
     <use style="fill:#32cd32;stroke:#32cd32;" x="145.021125" xlink:href="#md8df2d3fce" y="289.122727"/>
     <use style="fill:#32cd32;stroke:#32cd32;" x="222.056711" xlink:href="#md8df2d3fce" y="266.917034"/>
     <use style="fill:#32cd32;stroke:#32cd32;" x="330.606972" xlink:href="#md8df2d3fce" y="249.340578"/>
     <use style="fill:#32cd32;stroke:#32cd32;" x="322.728228" xlink:href="#md8df2d3fce" y="241.274889"/>
     <use style="fill:#32cd32;stroke:#32cd32;" x="271.95477" xlink:href="#md8df2d3fce" y="247.76204"/>
     <use style="fill:#32cd32;stroke:#32cd32;" x="179.161846" xlink:href="#md8df2d3fce" y="255.097798"/>
     <use style="fill:#32cd32;stroke:#32cd32;" x="145.896524" xlink:href="#md8df2d3fce" y="270.62831"/>
     <use style="fill:#32cd32;stroke:#32cd32;" x="145.896524" xlink:href="#md8df2d3fce" y="277.873114"/>
     <use style="fill:#32cd32;stroke:#32cd32;" x="204.548575" xlink:href="#md8df2d3fce" y="289.475842"/>
     <use style="fill:#32cd32;stroke:#32cd32;" x="204.548575" xlink:href="#md8df2d3fce" y="298.211688"/>
     <use style="fill:#32cd32;stroke:#32cd32;" x="145.896524" xlink:href="#md8df2d3fce" y="302.631943"/>
     <use style="fill:#32cd32;stroke:#32cd32;" x="237.814048" xlink:href="#md8df2d3fce" y="306.332871"/>
     <use style="fill:#32cd32;stroke:#32cd32;" x="196.669982" xlink:href="#md8df2d3fce" y="313.546932"/>
     <use style="fill:#32cd32;stroke:#32cd32;" x="187.040439" xlink:href="#md8df2d3fce" y="302.608361"/>
     <use style="fill:#32cd32;stroke:#32cd32;" x="221.181312" xlink:href="#md8df2d3fce" y="286.467934"/>
     <use style="fill:#32cd32;stroke:#32cd32;" x="246.568041" xlink:href="#md8df2d3fce" y="278.363347"/>
     <use style="fill:#32cd32;stroke:#32cd32;" x="212.427319" xlink:href="#md8df2d3fce" y="274.278621"/>
     <use style="fill:#32cd32;stroke:#32cd32;" x="153.775117" xlink:href="#md8df2d3fce" y="276.688429"/>
     <use style="fill:#32cd32;stroke:#32cd32;" x="69.736185" xlink:href="#md8df2d3fce" y="335.053"/>
     <use style="fill:#32cd32;stroke:#32cd32;" x="53.1036" xlink:href="#md8df2d3fce" y="334.542475"/>
    </g>
   </g>
   <g id="PathCollection_3">
    <defs>
     <path d="M 0 3 
C 0.795609 3 1.55874 2.683901 2.12132 2.12132 
C 2.683901 1.55874 3 0.795609 3 0 
C 3 -0.795609 2.683901 -1.55874 2.12132 -2.12132 
C 1.55874 -2.683901 0.795609 -3 0 -3 
C -0.795609 -3 -1.55874 -2.683901 -2.12132 -2.12132 
C -2.683901 -1.55874 -3 -0.795609 -3 0 
C -3 0.795609 -2.683901 1.55874 -2.12132 2.12132 
C -1.55874 2.683901 -0.795609 3 0 3 
z
" id="maabadb4593" style="stroke:#ff8c00;"/>
    </defs>
    <g clip-path="url(#p753319c5a7)">
     <use style="fill:#ff8c00;stroke:#ff8c00;" x="79.365728" xlink:href="#maabadb4593" y="322.472763"/>
     <use style="fill:#ff8c00;stroke:#ff8c00;" x="127.512989" xlink:href="#maabadb4593" y="314.656832"/>
     <use style="fill:#ff8c00;stroke:#ff8c00;" x="248.318839" xlink:href="#maabadb4593" y="309.238807"/>
     <use style="fill:#ff8c00;stroke:#ff8c00;" x="383.131229" xlink:href="#maabadb4593" y="303.4756"/>
     <use style="fill:#ff8c00;stroke:#ff8c00;" x="381.38043" xlink:href="#maabadb4593" y="290.730274"/>
     <use style="fill:#ff8c00;stroke:#ff8c00;" x="245.692641" xlink:href="#maabadb4593" y="267.894014"/>
     <use style="fill:#ff8c00;stroke:#ff8c00;" x="162.529109" xlink:href="#maabadb4593" y="237.781503"/>
     <use style="fill:#ff8c00;stroke:#ff8c00;" x="119.634396" xlink:href="#maabadb4593" y="219.614572"/>
     <use style="fill:#ff8c00;stroke:#ff8c00;" x="112.63105" xlink:href="#maabadb4593" y="236.831425"/>
     <use style="fill:#ff8c00;stroke:#ff8c00;" x="145.896524" xlink:href="#maabadb4593" y="262.156437"/>
     <use style="fill:#ff8c00;stroke:#ff8c00;" x="174.78485" xlink:href="#maabadb4593" y="286.410918"/>
     <use style="fill:#ff8c00;stroke:#ff8c00;" x="194.919183" xlink:href="#maabadb4593" y="305.174833"/>
     <use style="fill:#ff8c00;stroke:#ff8c00;" x="212.427319" xlink:href="#maabadb4593" y="303.038059"/>
     <use style="fill:#ff8c00;stroke:#ff8c00;" x="229.935304" xlink:href="#maabadb4593" y="267.90606"/>
     <use style="fill:#ff8c00;stroke:#ff8c00;" x="253.571235" xlink:href="#maabadb4593" y="217.410658"/>
     <use style="fill:#ff8c00;stroke:#ff8c00;" x="348.114957" xlink:href="#maabadb4593" y="180.135225"/>
     <use style="fill:#ff8c00;stroke:#ff8c00;" x="305.220243" xlink:href="#maabadb4593" y="190.940505"/>
     <use style="fill:#ff8c00;stroke:#ff8c00;" x="263.200777" xlink:href="#maabadb4593" y="227.663902"/>
     <use style="fill:#ff8c00;stroke:#ff8c00;" x="220.305912" xlink:href="#maabadb4593" y="265.489588"/>
     <use style="fill:#ff8c00;stroke:#ff8c00;" x="196.669982" xlink:href="#maabadb4593" y="289.725658"/>
     <use style="fill:#ff8c00;stroke:#ff8c00;" x="187.040439" xlink:href="#maabadb4593" y="307.071983"/>
     <use style="fill:#ff8c00;stroke:#ff8c00;" x="213.302567" xlink:href="#maabadb4593" y="311.022807"/>
     <use style="fill:#ff8c00;stroke:#ff8c00;" x="249.194238" xlink:href="#maabadb4593" y="305.521798"/>
     <use style="fill:#ff8c00;stroke:#ff8c00;" x="271.079371" xlink:href="#maabadb4593" y="292.272045"/>
     <use style="fill:#ff8c00;stroke:#ff8c00;" x="286.836708" xlink:href="#maabadb4593" y="269.268837"/>
     <use style="fill:#ff8c00;stroke:#ff8c00;" x="287.712107" xlink:href="#maabadb4593" y="235.721785"/>
     <use style="fill:#ff8c00;stroke:#ff8c00;" x="432.153888" xlink:href="#maabadb4593" y="81.702133"/>
     <use style="fill:#ff8c00;stroke:#ff8c00;" x="406.767159" xlink:href="#maabadb4593" y="112.174729"/>
     <use style="fill:#ff8c00;stroke:#ff8c00;" x="398.888415" xlink:href="#maabadb4593" y="148.013217"/>
     <use style="fill:#ff8c00;stroke:#ff8c00;" x="381.38043" xlink:href="#maabadb4593" y="180.110497"/>
     <use style="fill:#ff8c00;stroke:#ff8c00;" x="355.993701" xlink:href="#maabadb4593" y="203.440051"/>
     <use style="fill:#ff8c00;stroke:#ff8c00;" x="330.606972" xlink:href="#maabadb4593" y="211.365311"/>
     <use style="fill:#ff8c00;stroke:#ff8c00;" x="348.114957" xlink:href="#maabadb4593" y="195.688028"/>
     <use style="fill:#ff8c00;stroke:#ff8c00;" x="440.032481" xlink:href="#maabadb4593" y="166.738344"/>
     <use style="fill:#ff8c00;stroke:#ff8c00;" x="532.825405" xlink:href="#maabadb4593" y="151.480856"/>
     <use style="fill:#ff8c00;stroke:#ff8c00;" x="583.598863" xlink:href="#maabadb4593" y="149.951639"/>
     <use style="fill:#ff8c00;stroke:#ff8c00;" x="508.314075" xlink:href="#maabadb4593" y="171.222076"/>
     <use style="fill:#ff8c00;stroke:#ff8c00;" x="424.275144" xlink:href="#maabadb4593" y="203.882309"/>
     <use style="fill:#ff8c00;stroke:#ff8c00;" x="348.114957" xlink:href="#maabadb4593" y="233.279256"/>
     <use style="fill:#ff8c00;stroke:#ff8c00;" x="313.974235" xlink:href="#maabadb4593" y="240.759518"/>
     <use style="fill:#ff8c00;stroke:#ff8c00;" x="305.220243" xlink:href="#maabadb4593" y="234.198473"/>
     <use style="fill:#ff8c00;stroke:#ff8c00;" x="295.5907" xlink:href="#maabadb4593" y="234.725662"/>
     <use style="fill:#ff8c00;stroke:#ff8c00;" x="279.833363" xlink:href="#maabadb4593" y="246.516638"/>
     <use style="fill:#ff8c00;stroke:#ff8c00;" x="254.446634" xlink:href="#maabadb4593" y="252.468148"/>
     <use style="fill:#ff8c00;stroke:#ff8c00;" x="279.833363" xlink:href="#maabadb4593" y="240.908818"/>
     <use style="fill:#ff8c00;stroke:#ff8c00;" x="407.642559" xlink:href="#maabadb4593" y="219.828759"/>
     <use style="fill:#ff8c00;stroke:#ff8c00;" x="532.825405" xlink:href="#maabadb4593" y="209.608996"/>
     <use style="fill:#ff8c00;stroke:#ff8c00;" x="600.2316" xlink:href="#maabadb4593" y="214.603232"/>
     <use style="fill:#ff8c00;stroke:#ff8c00;" x="591.477456" xlink:href="#maabadb4593" y="224.544411"/>
     <use style="fill:#ff8c00;stroke:#ff8c00;" x="507.438676" xlink:href="#maabadb4593" y="217.587589"/>
     <use style="fill:#ff8c00;stroke:#ff8c00;" x="440.032481" xlink:href="#maabadb4593" y="209.778985"/>
     <use style="fill:#ff8c00;stroke:#ff8c00;" x="398.013016" xlink:href="#maabadb4593" y="203.338853"/>
     <use style="fill:#ff8c00;stroke:#ff8c00;" x="372.626287" xlink:href="#maabadb4593" y="207.261442"/>
     <use style="fill:#ff8c00;stroke:#ff8c00;" x="330.606972" xlink:href="#maabadb4593" y="229.689029"/>
     <use style="fill:#ff8c00;stroke:#ff8c00;" x="288.587506" xlink:href="#maabadb4593" y="255.7213"/>
     <use style="fill:#ff8c00;stroke:#ff8c00;" x="238.689296" xlink:href="#maabadb4593" y="274.784957"/>
     <use style="fill:#ff8c00;stroke:#ff8c00;" x="221.181312" xlink:href="#maabadb4593" y="264.941064"/>
     <use style="fill:#ff8c00;stroke:#ff8c00;" x="255.322033" xlink:href="#maabadb4593" y="242.481242"/>
     <use style="fill:#ff8c00;stroke:#ff8c00;" x="323.603627" xlink:href="#maabadb4593" y="227.167246"/>
     <use style="fill:#ff8c00;stroke:#ff8c00;" x="338.485565" xlink:href="#maabadb4593" y="219.254378"/>
     <use style="fill:#ff8c00;stroke:#ff8c00;" x="305.220243" xlink:href="#maabadb4593" y="223.814671"/>
     <use style="fill:#ff8c00;stroke:#ff8c00;" x="229.935304" xlink:href="#maabadb4593" y="245.991788"/>
     <use style="fill:#ff8c00;stroke:#ff8c00;" x="179.161846" xlink:href="#maabadb4593" y="277.156075"/>
     <use style="fill:#ff8c00;stroke:#ff8c00;" x="162.529109" xlink:href="#maabadb4593" y="311.392126"/>
     <use style="fill:#ff8c00;stroke:#ff8c00;" x="162.529109" xlink:href="#maabadb4593" y="343.49601"/>
     <use style="fill:#ff8c00;stroke:#ff8c00;" x="162.529109" xlink:href="#maabadb4593" y="359.396345"/>
     <use style="fill:#ff8c00;stroke:#ff8c00;" x="154.650516" xlink:href="#maabadb4593" y="355.903843"/>
     <use style="fill:#ff8c00;stroke:#ff8c00;" x="162.529109" xlink:href="#maabadb4593" y="338.171214"/>
     <use style="fill:#ff8c00;stroke:#ff8c00;" x="145.896524" xlink:href="#maabadb4593" y="290.44605"/>
     <use style="fill:#ff8c00;stroke:#ff8c00;" x="196.669982" xlink:href="#maabadb4593" y="274.121588"/>
     <use style="fill:#ff8c00;stroke:#ff8c00;" x="264.076177" xlink:href="#maabadb4593" y="252.830098"/>
     <use style="fill:#ff8c00;stroke:#ff8c00;" x="246.568041" xlink:href="#maabadb4593" y="244.172632"/>
     <use style="fill:#ff8c00;stroke:#ff8c00;" x="187.915838" xlink:href="#maabadb4593" y="247.552848"/>
     <use style="fill:#ff8c00;stroke:#ff8c00;" x="153.775117" xlink:href="#maabadb4593" y="271.047223"/>
     <use style="fill:#ff8c00;stroke:#ff8c00;" x="145.896524" xlink:href="#maabadb4593" y="297.749264"/>
     <use style="fill:#ff8c00;stroke:#ff8c00;" x="137.14238" xlink:href="#maabadb4593" y="319.225427"/>
     <use style="fill:#ff8c00;stroke:#ff8c00;" x="137.14238" xlink:href="#maabadb4593" y="327.279486"/>
     <use style="fill:#ff8c00;stroke:#ff8c00;" x="136.266981" xlink:href="#maabadb4593" y="326.280373"/>
     <use style="fill:#ff8c00;stroke:#ff8c00;" x="138.017779" xlink:href="#maabadb4593" y="314.475579"/>
     <use style="fill:#ff8c00;stroke:#ff8c00;" x="137.14238" xlink:href="#maabadb4593" y="302.14101"/>
     <use style="fill:#ff8c00;stroke:#ff8c00;" x="145.021125" xlink:href="#maabadb4593" y="286.826007"/>
     <use style="fill:#ff8c00;stroke:#ff8c00;" x="222.056711" xlink:href="#maabadb4593" y="268.075421"/>
     <use style="fill:#ff8c00;stroke:#ff8c00;" x="330.606972" xlink:href="#maabadb4593" y="248.609946"/>
     <use style="fill:#ff8c00;stroke:#ff8c00;" x="322.728228" xlink:href="#maabadb4593" y="241.164074"/>
     <use style="fill:#ff8c00;stroke:#ff8c00;" x="271.95477" xlink:href="#maabadb4593" y="245.038644"/>
     <use style="fill:#ff8c00;stroke:#ff8c00;" x="179.161846" xlink:href="#maabadb4593" y="255.298921"/>
     <use style="fill:#ff8c00;stroke:#ff8c00;" x="145.896524" xlink:href="#maabadb4593" y="268.43021"/>
     <use style="fill:#ff8c00;stroke:#ff8c00;" x="145.896524" xlink:href="#maabadb4593" y="277.260473"/>
     <use style="fill:#ff8c00;stroke:#ff8c00;" x="204.548575" xlink:href="#maabadb4593" y="286.460615"/>
     <use style="fill:#ff8c00;stroke:#ff8c00;" x="204.548575" xlink:href="#maabadb4593" y="293.340741"/>
     <use style="fill:#ff8c00;stroke:#ff8c00;" x="145.896524" xlink:href="#maabadb4593" y="295.787404"/>
     <use style="fill:#ff8c00;stroke:#ff8c00;" x="237.814048" xlink:href="#maabadb4593" y="306.672935"/>
     <use style="fill:#ff8c00;stroke:#ff8c00;" x="196.669982" xlink:href="#maabadb4593" y="309.097073"/>
     <use style="fill:#ff8c00;stroke:#ff8c00;" x="187.040439" xlink:href="#maabadb4593" y="300.559919"/>
     <use style="fill:#ff8c00;stroke:#ff8c00;" x="221.181312" xlink:href="#maabadb4593" y="278.879646"/>
     <use style="fill:#ff8c00;stroke:#ff8c00;" x="246.568041" xlink:href="#maabadb4593" y="266.584562"/>
     <use style="fill:#ff8c00;stroke:#ff8c00;" x="212.427319" xlink:href="#maabadb4593" y="265.903351"/>
     <use style="fill:#ff8c00;stroke:#ff8c00;" x="153.775117" xlink:href="#maabadb4593" y="275.663251"/>
     <use style="fill:#ff8c00;stroke:#ff8c00;" x="69.736185" xlink:href="#maabadb4593" y="339.333552"/>
     <use style="fill:#ff8c00;stroke:#ff8c00;" x="53.1036" xlink:href="#maabadb4593" y="338.991442"/>
    </g>
   </g>
   <g id="matplotlib.axis_1">
    <g id="text_1">
     <!-- 出水氨氮浓度真实值(mg/L) -->
     <defs>
      <path d="M 80.859375 62.109375 
L 80.859375 46.875 
Q 80.859375 42.96875 81.640625 35.9375 
L 75.390625 33.59375 
L 75.390625 38.28125 
L 52.34375 38.28125 
L 52.34375 0.390625 
L 79.296875 0.390625 
L 79.296875 17.578125 
Q 79.296875 23.046875 78.90625 29.6875 
L 87.890625 24.609375 
L 84.765625 22.265625 
L 84.765625 7.8125 
Q 84.765625 0.78125 85.15625 -6.25 
L 79.296875 -8.203125 
L 79.296875 -1.953125 
L 20.703125 -1.953125 
L 17.96875 -4.6875 
L 12.5 -0.390625 
L 15.234375 2.34375 
L 15.234375 17.578125 
Q 15.234375 23.4375 14.84375 30.46875 
L 23.828125 25.78125 
L 20.703125 23.046875 
L 20.703125 0.390625 
L 46.875 0.390625 
L 46.875 38.28125 
L 24.21875 38.28125 
L 21.09375 35.546875 
L 15.625 39.84375 
L 18.359375 42.1875 
L 18.359375 58.203125 
Q 18.359375 62.890625 17.96875 68.359375 
L 27.34375 63.671875 
L 23.828125 61.328125 
L 23.828125 40.625 
L 46.875 40.625 
L 46.875 66.40625 
Q 46.875 73.4375 46.484375 80.078125 
L 55.46875 75.78125 
L 52.34375 72.265625 
L 52.34375 40.625 
L 75.390625 40.625 
L 75.390625 58.203125 
Q 75.390625 62.890625 75 69.140625 
L 83.984375 64.84375 
z
" id="SimSun-20986"/>
      <path d="M 46.09375 81.25 
L 56.25 76.953125 
L 52.34375 73.828125 
Q 51.953125 64.84375 53.90625 58.59375 
Q 55.859375 52.34375 60.15625 43.359375 
Q 75.390625 55.859375 80.859375 64.84375 
L 87.5 57.8125 
Q 83.59375 57.421875 77.734375 53.125 
Q 71.484375 48.828125 60.9375 41.40625 
Q 76.171875 12.109375 95.3125 5.859375 
L 95.3125 4.296875 
Q 87.890625 3.90625 86.328125 -0.390625 
Q 62.5 17.1875 52.34375 56.640625 
L 52.34375 1.953125 
Q 52.734375 -7.8125 42.96875 -10.15625 
Q 43.359375 -4.6875 30.859375 -1.5625 
L 30.859375 0 
Q 39.84375 -0.78125 43.15625 -0.78125 
Q 46.484375 -0.78125 46.484375 3.90625 
L 46.484375 66.796875 
Q 46.484375 74.21875 46.09375 81.25 
z
M 5.859375 -2.34375 
L 5.078125 -1.171875 
Q 24.609375 18.359375 32.03125 48.828125 
L 19.921875 48.828125 
Q 14.84375 48.828125 10.546875 47.65625 
L 7.03125 51.171875 
L 31.640625 51.171875 
L 35.15625 55.859375 
L 42.1875 49.609375 
L 38.28125 47.65625 
Q 28.515625 12.890625 5.859375 -2.34375 
z
" id="SimSun-27700"/>
      <path d="M 54.6875 28.515625 
L 58.59375 36.328125 
L 35.546875 36.328125 
L 42.1875 32.421875 
Q 38.671875 31.25 36.71875 28.125 
Q 34.375 24.609375 32.8125 22.265625 
L 57.421875 22.265625 
L 61.71875 26.5625 
L 68.359375 19.921875 
L 55.46875 19.921875 
Q 52.34375 12.890625 47.265625 7.03125 
Q 58.203125 3.90625 62.296875 1.5625 
Q 66.40625 -0.78125 66.015625 -4.09375 
Q 65.625 -7.421875 64.0625 -7.421875 
Q 62.109375 -7.421875 59.375 -5.078125 
Q 53.515625 -0.390625 44.140625 3.125 
Q 32.03125 -5.859375 8.984375 -9.375 
L 8.59375 -7.8125 
Q 30.078125 -2.34375 39.453125 5.46875 
Q 34.765625 7.03125 19.140625 10.546875 
Q 22.65625 14.453125 26.5625 19.921875 
L 20.703125 19.921875 
Q 15.625 19.921875 11.328125 18.75 
L 7.8125 22.265625 
L 27.734375 22.265625 
Q 32.03125 29.296875 34.375 36.328125 
L 18.75 36.328125 
Q 18.359375 31.640625 16.984375 29.875 
Q 15.625 28.125 13.28125 27.921875 
Q 10.9375 27.734375 10.15625 29.484375 
Q 9.375 31.25 12.5 33.203125 
Q 15.234375 34.765625 17.578125 42.96875 
L 18.75 42.96875 
L 18.75 38.671875 
L 57.8125 38.671875 
L 61.328125 42.578125 
L 67.578125 36.328125 
Q 64.0625 35.546875 62.109375 34.171875 
Q 60.15625 32.8125 55.859375 27.734375 
z
M 31.640625 19.921875 
Q 29.296875 17.1875 25.390625 12.109375 
Q 37.5 9.765625 42.1875 8.59375 
Q 47.265625 14.453125 49.609375 19.921875 
z
M 30.078125 77.734375 
L 26.953125 75.78125 
L 23.828125 70.703125 
L 78.90625 70.703125 
L 83.59375 75.390625 
L 90.234375 68.359375 
L 22.65625 68.359375 
Q 13.671875 54.6875 4.296875 47.65625 
L 3.90625 49.21875 
Q 10.546875 57.03125 15.03125 65.625 
Q 19.53125 74.21875 21.875 82.421875 
z
M 22.65625 61.71875 
L 69.53125 61.71875 
L 73.828125 66.015625 
L 80.078125 59.375 
L 35.546875 59.375 
Q 30.46875 59.375 26.171875 58.203125 
z
M 87.890625 -1.171875 
L 91.796875 11.71875 
L 93.359375 11.328125 
Q 92.1875 3.125 92.1875 -0.96875 
Q 92.1875 -5.078125 93.75 -8.203125 
Q 94.53125 -9.765625 92.96875 -9.765625 
Q 91.015625 -9.765625 86.71875 -8 
Q 82.421875 -6.25 77.734375 1.171875 
Q 73.046875 8.59375 71.28125 19.921875 
Q 69.53125 31.25 69.921875 50.390625 
L 28.515625 50.390625 
Q 23.4375 50.390625 19.140625 49.21875 
L 15.625 52.734375 
L 69.53125 52.734375 
L 73.046875 56.25 
L 78.515625 50.78125 
L 75.390625 48.4375 
Q 75 36.71875 75.78125 26.5625 
Q 76.5625 16.40625 79.875 9.171875 
Q 83.203125 1.953125 87.890625 -1.171875 
z
M 34.375 50 
Q 41.015625 47.65625 42.375 45.890625 
Q 43.75 44.140625 43.75 42.96875 
Q 43.75 41.796875 42.578125 40.421875 
Q 41.40625 39.0625 41.015625 39.0625 
Q 39.84375 39.0625 38.671875 41.796875 
Q 37.109375 46.09375 33.984375 48.828125 
z
" id="SimSun-27688"/>
      <path d="M 26.171875 47.265625 
Q 25.78125 41.015625 24.40625 37.109375 
Q 23.046875 33.203125 21.28125 32.421875 
Q 19.53125 31.640625 18.359375 31.640625 
Q 17.1875 31.640625 16.015625 32.609375 
Q 14.84375 33.59375 14.84375 33.984375 
Q 14.84375 35.15625 17.96875 37.5 
Q 21.875 40.234375 24.609375 47.265625 
z
M 25.78125 18.75 
Q 24.609375 11.328125 23.4375 7.421875 
Q 22.265625 3.515625 20.5 2.734375 
Q 18.75 1.953125 17.578125 1.953125 
Q 16.015625 1.953125 15.03125 2.734375 
Q 14.0625 3.515625 14.0625 4.296875 
Q 14.0625 5.46875 16.796875 7.421875 
Q 20.703125 10.15625 24.21875 18.75 
z
M 23.4375 82.421875 
L 31.25 78.125 
Q 28.90625 76.953125 28.125 75.78125 
Q 27.34375 74.609375 25.78125 72.265625 
L 76.5625 72.265625 
L 81.25 76.953125 
L 87.890625 69.921875 
L 24.609375 69.921875 
Q 20.3125 63.671875 15.421875 58 
Q 10.546875 52.34375 3.90625 47.265625 
L 3.125 48.4375 
Q 11.328125 57.421875 15.8125 65.421875 
Q 20.3125 73.4375 23.4375 82.421875 
z
M 25 63.671875 
L 70.703125 63.671875 
L 75 67.96875 
L 81.25 61.328125 
L 37.890625 61.328125 
Q 32.8125 61.328125 28.515625 60.15625 
z
M 92.578125 13.671875 
L 94.140625 13.28125 
Q 93.359375 4.296875 93.359375 0.1875 
Q 93.359375 -3.90625 94.53125 -6.640625 
Q 95.703125 -8.984375 92.1875 -8.203125 
Q 88.671875 -7.421875 83.984375 -3.125 
Q 79.296875 1.171875 76.171875 8 
Q 73.046875 14.84375 71.671875 24.609375 
Q 70.3125 34.375 70.703125 51.953125 
L 28.90625 51.953125 
Q 23.828125 51.953125 19.53125 50.78125 
L 16.015625 54.296875 
L 70.3125 54.296875 
L 74.21875 58.203125 
L 79.6875 52.734375 
L 76.171875 50.390625 
Q 75.78125 27.734375 78.703125 16.984375 
Q 81.640625 6.25 89.0625 0.78125 
z
M 43.359375 18.75 
Q 42.578125 14.453125 42.1875 11.71875 
Q 55.859375 17.578125 58.59375 21.09375 
L 62.890625 14.0625 
Q 59.375 14.0625 52.921875 12.5 
Q 46.484375 10.9375 41.796875 9.765625 
Q 41.40625 8.203125 40.625 6.640625 
Q 53.125 3.515625 59.5625 0.578125 
Q 66.015625 -2.34375 65.625 -6.4375 
Q 65.234375 -10.546875 64.0625 -10.546875 
Q 63.28125 -10.546875 62.5 -9.765625 
Q 59.375 -7.03125 55.265625 -3.703125 
Q 51.171875 -0.390625 39.84375 4.6875 
Q 37.5 0.78125 30.859375 -3.3125 
Q 24.21875 -7.421875 7.8125 -10.15625 
L 7.8125 -8.59375 
Q 22.65625 -4.296875 28.3125 -0.1875 
Q 33.984375 3.90625 35.734375 9.5625 
Q 37.5 15.234375 37.5 24.609375 
L 45.703125 21.09375 
z
M 47.265625 33.59375 
L 46.484375 34.375 
Q 55.46875 43.75 57.03125 48.046875 
L 62.890625 42.96875 
Q 59.765625 42.1875 55.078125 39.0625 
Q 50.390625 35.546875 47.265625 33.59375 
z
M 42.578125 44.921875 
Q 42.1875 43.359375 40.625 37.109375 
Q 52.734375 32.8125 58.59375 29.484375 
Q 64.453125 26.171875 64.25 22.453125 
Q 64.0625 18.75 62.890625 18.75 
Q 61.71875 18.75 59.765625 21.09375 
Q 55.46875 26.171875 39.84375 35.15625 
Q 36.71875 28.125 29.875 24.21875 
Q 23.046875 20.3125 9.765625 17.578125 
L 9.375 19.140625 
Q 22.65625 23.4375 28.3125 28.3125 
Q 33.984375 33.203125 35.34375 38.28125 
Q 36.71875 43.359375 36.71875 51.171875 
L 45.3125 47.65625 
L 42.578125 44.921875 
z
" id="SimSun-27694"/>
      <path d="M 76.5625 50 
L 82.03125 60.546875 
L 58.59375 60.546875 
Q 57.8125 58.203125 57.03125 55.859375 
Q 61.328125 38.28125 67.1875 30.078125 
Q 78.90625 40.625 82.03125 46.484375 
L 88.28125 39.453125 
Q 82.421875 38.28125 77.53125 34.765625 
Q 72.65625 31.25 68.359375 28.125 
Q 79.296875 11.71875 95.3125 5.46875 
L 95.3125 3.90625 
Q 88.28125 4.296875 85.9375 -0.390625 
Q 60.9375 19.53125 55.859375 52.734375 
Q 51.953125 43.75 48.046875 37.109375 
L 52.734375 34.765625 
L 50.390625 32.421875 
L 50.390625 1.5625 
L 65.234375 9.375 
L 66.015625 7.8125 
Q 52.34375 -1.5625 48.4375 -7.8125 
L 43.359375 -1.953125 
Q 45.3125 -0.78125 44.921875 6.640625 
L 44.921875 31.25 
Q 34.375 18.359375 23.046875 9.765625 
L 22.265625 10.9375 
Q 44.53125 33.59375 53.125 60.546875 
L 40.234375 60.546875 
Q 40.625 54.296875 38.671875 52.140625 
Q 36.71875 50 34.171875 50.390625 
Q 31.640625 50.78125 31.640625 51.953125 
Q 31.640625 53.125 33.59375 55.46875 
Q 37.109375 59.375 38.671875 67.1875 
L 40.234375 67.1875 
L 40.234375 62.890625 
L 53.515625 62.890625 
Q 54.6875 67.578125 55.46875 72.453125 
Q 56.25 77.34375 56.640625 81.640625 
L 65.234375 77.34375 
L 62.109375 75 
Q 60.546875 68.359375 58.984375 62.890625 
L 81.25 62.890625 
L 85.15625 67.1875 
L 92.1875 59.375 
Q 85.9375 59.375 77.734375 49.21875 
z
M 30.859375 60.9375 
Q 21.09375 21.875 20.109375 16.984375 
Q 19.140625 12.109375 19.140625 5.078125 
Q 19.140625 -1.953125 19.140625 -4.484375 
Q 19.140625 -7.03125 17.578125 -7.03125 
Q 16.40625 -7.03125 13.859375 -5.859375 
Q 11.328125 -4.6875 11.328125 -1.5625 
Q 11.328125 1.171875 12.109375 3.90625 
Q 13.28125 7.8125 13.28125 10.546875 
Q 13.28125 12.890625 11.71875 14.453125 
Q 10.15625 16.015625 4.296875 17.578125 
L 4.296875 19.140625 
Q 11.328125 18.359375 12.6875 18.75 
Q 14.0625 19.140625 16.203125 22.65625 
Q 18.359375 26.171875 29.296875 61.328125 
z
M 4.6875 54.6875 
Q 17.578125 49.21875 17.765625 45.3125 
Q 17.96875 41.40625 16.40625 39.640625 
Q 14.84375 37.890625 14.453125 37.890625 
Q 13.28125 37.890625 12.109375 41.796875 
Q 10.15625 46.875 3.90625 53.515625 
z
M 13.671875 77.34375 
Q 24.21875 72.65625 25.390625 70.703125 
Q 26.5625 68.75 26.5625 67.1875 
Q 26.5625 65.234375 25 62.890625 
Q 23.4375 60.546875 22.65625 60.546875 
Q 21.09375 60.546875 19.921875 64.453125 
Q 17.96875 70.703125 12.890625 76.171875 
z
" id="SimSun-27987"/>
      <path d="M 39.84375 31.640625 
Q 40.234375 39.453125 40.234375 49.609375 
L 30.078125 49.609375 
L 25.390625 48.828125 
L 22.265625 51.953125 
L 40.234375 51.953125 
Q 40.234375 57.8125 39.84375 64.84375 
L 48.4375 60.546875 
L 45.3125 58.59375 
L 45.3125 51.953125 
L 67.1875 51.953125 
Q 67.1875 58.59375 66.796875 64.453125 
L 75.78125 60.546875 
L 72.265625 58.203125 
L 72.265625 51.953125 
L 79.6875 51.953125 
L 84.765625 57.03125 
L 92.1875 49.609375 
L 72.265625 49.609375 
Q 72.265625 38.28125 72.65625 34.765625 
L 67.1875 32.421875 
L 67.1875 35.9375 
L 45.3125 35.9375 
L 45.3125 33.984375 
z
M 76.171875 23.4375 
Q 67.1875 12.109375 60.9375 6.640625 
Q 73.4375 -1.171875 94.140625 -1.953125 
L 94.140625 -3.515625 
Q 87.890625 -4.6875 86.71875 -8.59375 
Q 68.359375 -5.078125 57.421875 3.515625 
Q 38.671875 -7.03125 16.796875 -9.765625 
L 16.40625 -8.203125 
Q 37.109375 -4.296875 53.90625 7.03125 
Q 46.484375 14.453125 40.234375 25.390625 
L 36.328125 25.390625 
L 32.8125 24.609375 
L 29.6875 27.734375 
L 70.703125 27.734375 
L 74.21875 31.25 
L 80.078125 25.390625 
z
M 42.1875 25.390625 
Q 49.609375 15.234375 57.03125 9.765625 
Q 64.84375 17.1875 70.3125 25.390625 
z
M 45.3125 49.609375 
L 45.3125 38.28125 
L 67.1875 38.28125 
L 67.1875 49.609375 
z
M 15.234375 72.65625 
L 21.875 68.75 
L 52.734375 68.75 
Q 52.34375 71.09375 50.96875 73.828125 
Q 49.609375 76.5625 45.3125 81.640625 
L 46.484375 82.421875 
Q 55.46875 78.515625 56.828125 76.359375 
Q 58.203125 74.21875 58.203125 73.828125 
Q 58.203125 71.484375 55.078125 68.75 
L 80.46875 68.75 
L 85.9375 74.21875 
L 93.75 66.40625 
L 21.484375 66.40625 
Q 21.875 42.96875 20.109375 29.875 
Q 18.359375 16.796875 14.453125 7.421875 
Q 10.546875 -1.953125 4.6875 -9.765625 
L 3.515625 -8.984375 
Q 11.328125 4.6875 13.46875 19.53125 
Q 15.625 34.375 15.8125 49.796875 
Q 16.015625 65.234375 15.234375 72.65625 
z
" id="SimSun-24230"/>
      <path d="M 32.03125 53.90625 
L 32.03125 45.3125 
L 67.1875 45.3125 
L 67.1875 53.90625 
z
M 32.03125 42.96875 
L 32.03125 34.765625 
L 67.1875 34.765625 
L 67.1875 42.96875 
z
M 32.03125 32.421875 
L 32.03125 24.21875 
L 67.1875 24.21875 
L 67.1875 32.421875 
z
M 32.03125 21.875 
L 32.03125 13.671875 
L 67.1875 13.671875 
L 67.1875 21.875 
z
M 44.921875 56.25 
L 45.703125 67.578125 
L 23.828125 67.578125 
Q 18.75 67.578125 14.453125 66.40625 
L 10.9375 69.921875 
L 46.09375 69.921875 
Q 46.484375 75.390625 46.484375 82.421875 
L 55.46875 78.515625 
L 52.734375 76.953125 
L 51.5625 69.921875 
L 78.125 69.921875 
L 83.203125 75.390625 
L 90.234375 67.578125 
L 51.171875 67.578125 
L 50 56.25 
L 66.796875 56.25 
L 69.53125 60.546875 
L 75.78125 55.859375 
L 72.65625 52.734375 
L 72.65625 13.671875 
L 82.8125 13.671875 
L 88.671875 19.140625 
L 95.703125 11.328125 
L 17.96875 11.328125 
Q 12.890625 11.328125 8.59375 10.15625 
L 5.078125 13.671875 
L 26.5625 13.671875 
Q 26.5625 50 26.171875 58.984375 
L 32.03125 56.25 
z
M 37.890625 11.328125 
L 44.140625 5.46875 
L 40.234375 4.6875 
Q 23.4375 -6.640625 12.5 -10.15625 
L 12.109375 -8.984375 
Q 30.46875 1.953125 37.890625 11.328125 
z
M 59.375 10.9375 
Q 71.484375 5.859375 77.53125 3.125 
Q 83.59375 0.390625 84.375 -1.75 
Q 85.15625 -3.90625 85.15625 -5.078125 
Q 85.15625 -6.25 84.375 -8.203125 
Q 83.59375 -10.15625 83.203125 -10.15625 
Q 82.03125 -10.15625 79.6875 -7.03125 
Q 76.171875 -2.34375 58.59375 9.765625 
z
" id="SimSun-30495"/>
      <path d="M 30.46875 56.640625 
Q 40.234375 53.125 42.1875 50.78125 
Q 44.140625 48.4375 44.140625 46.484375 
Q 44.140625 44.53125 42.96875 42.1875 
Q 41.796875 39.84375 41.015625 39.84375 
Q 39.84375 39.84375 38.28125 43.75 
Q 35.546875 49.609375 29.6875 55.46875 
z
M 55.859375 20.703125 
Q 54.6875 17.1875 53.515625 14.453125 
Q 72.65625 8.59375 79.484375 5.078125 
Q 86.328125 1.5625 86.125 -3.515625 
Q 85.9375 -8.59375 84.375 -8.59375 
Q 82.8125 -8.59375 79.296875 -4.6875 
Q 72.265625 2.734375 52.734375 12.5 
Q 47.265625 2.734375 35.9375 -2.34375 
Q 24.609375 -7.421875 6.640625 -9.765625 
L 6.640625 -8.203125 
Q 23.046875 -5.078125 34.375 1.5625 
Q 45.703125 8.203125 50 20.703125 
L 19.140625 20.703125 
Q 14.0625 20.703125 9.765625 19.53125 
L 6.25 23.046875 
L 50.390625 23.046875 
Q 51.953125 30.46875 52.734375 40.234375 
Q 53.515625 50 53.515625 57.8125 
L 63.28125 53.125 
L 60.15625 50.390625 
Q 58.59375 35.9375 56.640625 23.046875 
L 80.859375 23.046875 
L 86.71875 28.90625 
L 94.921875 20.703125 
z
M 19.921875 42.1875 
Q 30.859375 37.890625 32.8125 35.34375 
Q 34.765625 32.8125 34.765625 30.859375 
Q 34.765625 28.90625 33.59375 26.5625 
Q 32.421875 24.21875 31.640625 24.21875 
Q 30.46875 24.21875 28.90625 28.125 
Q 26.171875 33.984375 19.140625 41.015625 
z
M 42.96875 81.640625 
L 44.140625 82.421875 
Q 50.390625 79.6875 53.515625 76.953125 
Q 56.640625 74.21875 56.640625 71.875 
Q 56.640625 69.53125 54.875 67.1875 
Q 53.125 64.84375 51.953125 64.84375 
Q 50.78125 64.84375 50 68.75 
Q 48.4375 74.609375 42.96875 81.640625 
z
M 77.734375 50.390625 
L 83.59375 61.328125 
L 18.359375 61.328125 
Q 19.140625 55.078125 17.578125 51.5625 
Q 16.015625 48.046875 12.296875 48.4375 
Q 8.59375 48.828125 8.59375 50 
Q 8.59375 51.5625 10.9375 54.296875 
Q 15.234375 59.765625 16.40625 68.359375 
L 17.96875 68.359375 
L 18.359375 63.671875 
L 82.8125 63.671875 
L 87.109375 67.96875 
L 94.53125 59.375 
Q 87.890625 59.765625 78.90625 49.609375 
z
" id="SimSun-23454"/>
      <path d="M 23.828125 10.15625 
Q 23.828125 -3.515625 24.21875 -8.203125 
L 18.359375 -10.15625 
Q 18.75 3.90625 18.75 8.59375 
L 18.75 47.265625 
Q 11.71875 35.9375 5.078125 28.90625 
L 3.90625 29.6875 
Q 11.328125 41.015625 17.1875 55.078125 
Q 23.046875 69.140625 26.171875 81.25 
L 34.375 76.171875 
L 30.46875 73.828125 
Q 24.21875 59.375 22.265625 54.296875 
L 26.953125 51.5625 
L 23.828125 49.21875 
z
M 44.921875 50.390625 
L 44.921875 38.671875 
L 75 38.671875 
L 75 50.390625 
z
M 44.921875 36.328125 
L 44.921875 24.609375 
L 75 24.609375 
L 75 36.328125 
z
M 44.921875 22.265625 
L 44.921875 10.546875 
L 75 10.546875 
L 75 22.265625 
z
M 44.921875 8.203125 
L 44.921875 -3.515625 
L 75 -3.515625 
L 75 8.203125 
z
M 55.46875 66.40625 
Q 55.859375 75.390625 55.46875 81.640625 
L 64.453125 77.34375 
L 61.328125 75 
L 60.9375 66.40625 
L 78.515625 66.40625 
L 83.59375 71.484375 
L 91.015625 64.0625 
L 60.9375 64.0625 
L 60.546875 52.734375 
L 74.21875 52.734375 
L 77.734375 56.640625 
L 83.59375 51.5625 
L 80.078125 49.21875 
L 80.078125 -3.515625 
L 83.59375 -3.515625 
L 88.671875 1.5625 
L 96.09375 -5.859375 
L 38.28125 -5.859375 
Q 33.203125 -5.859375 28.90625 -7.03125 
L 25.390625 -3.515625 
L 39.84375 -3.515625 
L 39.84375 39.84375 
Q 39.84375 44.53125 39.453125 55.859375 
L 44.921875 52.734375 
L 55.078125 52.734375 
L 55.46875 64.0625 
L 43.75 64.0625 
Q 38.671875 64.0625 34.375 62.890625 
L 30.859375 66.40625 
z
" id="SimSun-20540"/>
      <path d="M 45.3125 78.515625 
Q 36.328125 69.140625 31.828125 58.390625 
Q 27.34375 47.65625 27.34375 35.9375 
Q 27.34375 23.828125 31.828125 13.28125 
Q 36.328125 2.734375 45.3125 -6.640625 
L 43.359375 -8.59375 
Q 32.421875 1.171875 26.953125 12.296875 
Q 21.484375 23.4375 21.484375 35.9375 
Q 21.484375 48.046875 26.953125 59.171875 
Q 32.421875 70.3125 43.359375 80.46875 
z
" id="SimSun-40"/>
      <path d="M 2.734375 45.3125 
Q 4.6875 45.3125 6.640625 45.703125 
Q 8.59375 46.09375 9.765625 46.875 
L 10.546875 46.875 
L 10.546875 40.234375 
Q 12.5 43.359375 14.84375 44.71875 
Q 17.1875 46.09375 19.921875 46.09375 
Q 23.4375 46.09375 25.390625 44.71875 
Q 27.34375 43.359375 27.734375 40.234375 
Q 29.6875 43.359375 32.21875 44.71875 
Q 34.765625 46.09375 37.5 46.09375 
Q 42.1875 46.09375 43.9375 43.359375 
Q 45.703125 40.625 45.703125 36.328125 
L 45.703125 6.640625 
Q 45.703125 5.078125 46.484375 4.484375 
Q 47.265625 3.90625 48.828125 3.90625 
L 49.609375 3.90625 
L 49.609375 1.5625 
L 36.328125 1.5625 
L 36.328125 3.90625 
L 37.109375 3.90625 
Q 38.671875 3.90625 39.453125 4.484375 
Q 40.234375 5.078125 40.234375 6.640625 
L 40.234375 35.9375 
Q 40.234375 40.234375 39.25 41.59375 
Q 38.28125 42.96875 36.328125 42.96875 
Q 33.59375 42.96875 31.4375 41.015625 
Q 29.296875 39.0625 28.125 35.546875 
L 28.125 6.640625 
Q 28.125 5.078125 28.90625 4.484375 
Q 29.6875 3.90625 31.25 3.90625 
L 32.03125 3.90625 
L 32.03125 1.5625 
L 18.75 1.5625 
L 18.75 3.90625 
L 19.53125 3.90625 
Q 21.09375 3.90625 21.875 4.484375 
Q 22.65625 5.078125 22.65625 6.640625 
L 22.65625 35.9375 
Q 22.65625 39.453125 21.875 41.203125 
Q 21.09375 42.96875 18.75 42.96875 
Q 16.015625 42.96875 13.859375 41.015625 
Q 11.71875 39.0625 10.546875 35.15625 
L 10.546875 6.640625 
Q 10.546875 5.078125 11.328125 4.484375 
Q 12.109375 3.90625 13.671875 3.90625 
L 14.453125 3.90625 
L 14.453125 1.5625 
L 1.171875 1.5625 
L 1.171875 3.90625 
L 1.953125 3.90625 
Q 3.515625 3.90625 4.296875 4.484375 
Q 5.078125 5.078125 5.078125 6.640625 
L 5.078125 40.625 
Q 5.078125 41.796875 4.6875 42.375 
Q 4.296875 42.96875 3.125 42.96875 
L 1.5625 42.96875 
L 1.5625 45.3125 
z
" id="SimSun-109"/>
      <path d="M 13.671875 30.859375 
Q 13.671875 26.171875 16.40625 22.84375 
Q 19.140625 19.53125 23.828125 19.53125 
Q 28.90625 19.53125 31.4375 22.453125 
Q 33.984375 25.390625 33.984375 30.859375 
Q 33.984375 37.5 31.046875 40.421875 
Q 28.125 43.359375 23.828125 43.359375 
Q 19.53125 43.359375 16.59375 40.421875 
Q 13.671875 37.5 13.671875 30.859375 
z
M 32.8125 9.765625 
Q 38.671875 8.984375 41.40625 6.4375 
Q 44.140625 3.90625 44.140625 -0.390625 
Q 44.140625 -6.25 39.25 -9.765625 
Q 34.375 -13.28125 23.828125 -13.28125 
Q 15.625 -13.28125 10.546875 -9.953125 
Q 5.46875 -6.640625 5.46875 -2.34375 
Q 5.46875 0.390625 7.421875 3.125 
Q 9.375 5.859375 13.671875 7.421875 
Q 11.328125 8.59375 9.953125 9.953125 
Q 8.59375 11.328125 8.59375 13.28125 
Q 8.59375 15.625 10.15625 17.375 
Q 11.71875 19.140625 14.0625 20.3125 
Q 11.71875 22.265625 9.953125 25 
Q 8.203125 27.734375 8.203125 30.859375 
Q 8.203125 36.71875 12.296875 41.203125 
Q 16.40625 45.703125 23.828125 45.703125 
Q 26.953125 45.703125 29.875 44.921875 
Q 32.8125 44.140625 34.765625 42.1875 
Q 37.5 44.140625 39.640625 45.109375 
Q 41.796875 46.09375 43.359375 46.09375 
Q 45.3125 46.09375 46.09375 44.71875 
Q 46.875 43.359375 46.875 42.1875 
Q 46.875 40.625 46.28125 39.640625 
Q 45.703125 38.671875 44.140625 38.671875 
Q 42.96875 38.671875 42.1875 39.25 
Q 41.40625 39.84375 41.015625 41.015625 
Q 40.625 42.1875 39.25 41.984375 
Q 37.890625 41.796875 36.328125 40.625 
Q 37.890625 39.0625 38.671875 36.328125 
Q 39.453125 33.59375 39.453125 30.859375 
Q 39.453125 26.171875 35.734375 21.671875 
Q 32.03125 17.1875 23.828125 17.1875 
Q 21.484375 17.1875 19.53125 17.765625 
Q 17.578125 18.359375 16.40625 19.140625 
Q 14.84375 18.359375 14.0625 17.1875 
Q 13.28125 16.015625 13.28125 15.234375 
Q 13.28125 13.671875 14.0625 12.890625 
Q 14.84375 12.109375 16.40625 12.109375 
Q 21.484375 11.328125 25.578125 10.734375 
Q 29.6875 10.15625 32.8125 9.765625 
z
M 16.796875 6.640625 
Q 13.28125 5.078125 11.90625 2.921875 
Q 10.546875 0.78125 10.546875 -2.34375 
Q 10.546875 -5.46875 14.0625 -8.203125 
Q 17.578125 -10.9375 24.609375 -10.9375 
Q 31.25 -10.9375 35.15625 -8.78125 
Q 39.0625 -6.640625 39.0625 -2.34375 
Q 39.0625 0.390625 38.078125 1.953125 
Q 37.109375 3.515625 35.15625 3.90625 
Q 31.25 4.6875 26.5625 5.46875 
Q 21.875 5.859375 16.796875 6.640625 
z
" id="SimSun-103"/>
      <path d="M 6.25 -7.421875 
L 3.515625 -5.859375 
L 43.359375 77.734375 
L 46.09375 76.171875 
z
" id="SimSun-47"/>
      <path d="M 15.625 7.03125 
Q 15.625 5.46875 16.59375 4.6875 
Q 17.578125 3.90625 19.140625 3.90625 
L 29.6875 3.90625 
Q 35.15625 3.90625 39.0625 7.21875 
Q 42.96875 10.546875 44.921875 17.578125 
L 46.875 16.796875 
L 43.359375 1.5625 
L 3.125 1.5625 
L 3.125 3.90625 
L 5.859375 3.90625 
Q 7.8125 3.90625 8.59375 4.6875 
Q 9.375 5.46875 9.375 7.03125 
L 9.375 62.890625 
Q 9.375 64.453125 8.59375 65.234375 
Q 7.8125 66.015625 5.859375 66.015625 
L 3.515625 66.015625 
L 3.515625 68.359375 
L 21.875 68.359375 
L 21.875 66.015625 
L 19.140625 66.015625 
Q 17.578125 66.015625 16.59375 65.234375 
Q 15.625 64.453125 15.625 62.890625 
z
" id="SimSun-76"/>
      <path d="M 4.296875 78.515625 
L 6.25 80.46875 
Q 17.1875 70.3125 22.65625 59.171875 
Q 28.125 48.046875 28.125 35.9375 
Q 28.125 23.4375 22.65625 12.296875 
Q 17.1875 1.171875 6.25 -8.59375 
L 4.296875 -6.640625 
Q 13.28125 2.734375 17.765625 13.28125 
Q 22.265625 23.828125 22.265625 35.9375 
Q 22.265625 47.65625 17.765625 58.390625 
Q 13.28125 69.140625 4.296875 78.515625 
z
" id="SimSun-41"/>
     </defs>
     <g transform="translate(242.6676 391.857863)scale(0.14 -0.14)">
      <use xlink:href="#SimSun-20986"/>
      <use x="100" xlink:href="#SimSun-27700"/>
      <use x="200" xlink:href="#SimSun-27688"/>
      <use x="300" xlink:href="#SimSun-27694"/>
      <use x="400" xlink:href="#SimSun-27987"/>
      <use x="500" xlink:href="#SimSun-24230"/>
      <use x="600" xlink:href="#SimSun-30495"/>
      <use x="700" xlink:href="#SimSun-23454"/>
      <use x="800" xlink:href="#SimSun-20540"/>
      <use x="900" xlink:href="#SimSun-40"/>
      <use x="950" xlink:href="#SimSun-109"/>
      <use x="1000" xlink:href="#SimSun-103"/>
      <use x="1050" xlink:href="#SimSun-47"/>
      <use x="1100" xlink:href="#SimSun-76"/>
      <use x="1150" xlink:href="#SimSun-41"/>
     </g>
    </g>
   </g>
   <g id="matplotlib.axis_2">
    <g id="text_2">
     <!-- 出水氨氮浓度预测值(mg/L) -->
     <defs>
      <path d="M 7.421875 75.390625 
L 34.765625 75.390625 
L 37.890625 79.296875 
L 44.140625 73.046875 
Q 40.625 72.265625 37.296875 68.9375 
Q 33.984375 65.625 28.125 58.59375 
Q 32.03125 55.859375 31.828125 53.125 
Q 31.640625 50.390625 30.265625 49.21875 
Q 28.90625 48.046875 28.515625 48.046875 
Q 26.953125 48.046875 25.78125 51.5625 
Q 23.828125 56.25 16.40625 64.0625 
L 17.1875 64.84375 
Q 23.046875 62.109375 26.5625 59.765625 
L 34.765625 73.046875 
L 20.3125 73.046875 
Q 15.234375 73.046875 10.9375 71.875 
z
M 11.328125 1.5625 
Q 18.359375 0.78125 21.28125 0.578125 
Q 24.21875 0.390625 24.21875 4.296875 
L 24.21875 44.921875 
L 17.578125 44.921875 
Q 12.5 44.921875 8.203125 43.75 
L 4.6875 47.265625 
L 39.453125 47.265625 
L 42.578125 51.171875 
L 49.21875 44.921875 
Q 43.75 44.140625 35.546875 32.421875 
L 34.375 33.203125 
L 39.84375 44.921875 
L 29.296875 44.921875 
L 29.296875 2.34375 
Q 29.296875 -6.25 21.09375 -7.8125 
Q 20.703125 -2.734375 11.328125 0 
z
M 50.78125 12.109375 
Q 51.171875 22.265625 51.171875 35.734375 
Q 51.171875 49.21875 50.78125 60.9375 
L 56.25 57.8125 
L 63.28125 57.8125 
Q 65.234375 68.75 65.625 73.046875 
L 57.03125 73.046875 
Q 51.953125 73.046875 47.65625 71.875 
L 44.140625 75.390625 
L 83.203125 75.390625 
L 88.671875 80.46875 
L 95.703125 73.046875 
L 73.046875 73.046875 
Q 70.3125 69.140625 65.234375 57.8125 
L 82.8125 57.8125 
L 85.546875 62.109375 
L 91.796875 57.421875 
L 88.671875 54.296875 
L 88.671875 30.46875 
Q 88.671875 23.828125 89.0625 16.796875 
L 83.59375 13.671875 
L 83.59375 55.46875 
L 56.25 55.46875 
L 56.25 15.625 
z
M 75.78125 44.921875 
L 72.265625 41.796875 
Q 72.265625 23.046875 69.921875 14.640625 
Q 67.578125 6.25 60.9375 0.78125 
Q 54.296875 -4.6875 37.890625 -9.765625 
L 37.5 -8.59375 
Q 54.6875 -0.78125 59.953125 6.25 
Q 65.234375 13.28125 66.203125 24.796875 
Q 67.1875 36.328125 66.796875 49.609375 
z
M 72.65625 14.84375 
Q 89.453125 5.859375 91.796875 3.3125 
Q 94.140625 0.78125 94.140625 -1.953125 
Q 94.140625 -3.515625 93.15625 -6.046875 
Q 92.1875 -8.59375 91.40625 -8.59375 
Q 90.625 -8.59375 89.84375 -7.03125 
Q 87.890625 -3.90625 84.953125 0 
Q 82.03125 3.90625 71.875 13.671875 
z
" id="SimSun-39044"/>
      <path d="M 30.859375 15.625 
Q 31.25 23.046875 31.25 45.703125 
Q 31.25 68.359375 30.859375 78.125 
L 36.71875 74.609375 
L 55.859375 74.609375 
L 58.984375 77.734375 
L 64.0625 72.65625 
L 60.9375 70.3125 
L 60.9375 36.71875 
Q 60.9375 28.90625 61.328125 21.09375 
L 56.25 18.75 
L 56.25 72.265625 
L 36.328125 72.265625 
L 36.328125 17.96875 
z
M 43.359375 62.109375 
L 51.5625 57.8125 
L 48.828125 55.078125 
Q 49.21875 28.515625 44.921875 14.640625 
Q 40.625 0.78125 21.484375 -9.375 
L 20.703125 -7.8125 
Q 34.375 1.5625 38.671875 11.328125 
Q 42.96875 21.09375 43.359375 34.171875 
Q 43.75 47.265625 43.359375 62.109375 
z
M 48.4375 14.84375 
Q 59.765625 7.03125 61.515625 4.09375 
Q 63.28125 1.171875 63.28125 -0.390625 
Q 63.28125 -2.34375 62.109375 -4.09375 
Q 60.9375 -5.859375 60.15625 -5.859375 
Q 58.59375 -5.859375 57.03125 -1.171875 
Q 54.6875 5.859375 47.65625 13.671875 
z
M 69.921875 12.890625 
Q 70.3125 18.75 70.3125 26.5625 
L 70.3125 53.125 
Q 70.3125 61.71875 69.921875 67.1875 
L 78.515625 62.890625 
L 75.390625 59.765625 
L 75.390625 26.5625 
Q 75.390625 20.703125 75.78125 14.84375 
z
M 83.984375 2.34375 
L 83.984375 63.28125 
Q 83.984375 74.21875 83.59375 80.078125 
L 91.796875 76.171875 
L 89.0625 73.4375 
L 89.0625 1.171875 
Q 89.0625 -3.125 87.5 -5.46875 
Q 85.9375 -7.8125 81.25 -9.375 
Q 78.515625 -3.515625 69.53125 -0.78125 
L 69.53125 0.78125 
Q 80.078125 -0.78125 82.03125 -0.578125 
Q 83.984375 -0.390625 83.984375 2.34375 
z
M 28.90625 54.6875 
Q 21.484375 23.828125 20.3125 19.140625 
Q 18.75 14.0625 18.9375 7.03125 
Q 19.140625 0 19.53125 -2.734375 
Q 19.53125 -4.296875 17.578125 -4.296875 
Q 16.015625 -4.296875 13.671875 -3.515625 
Q 11.328125 -2.734375 11.328125 0 
Q 11.328125 1.953125 12.5 5.859375 
Q 13.671875 9.765625 13.671875 12.109375 
Q 13.671875 14.84375 11.90625 16.40625 
Q 10.15625 17.96875 4.296875 19.53125 
L 4.296875 21.09375 
Q 11.328125 20.3125 13.078125 20.5 
Q 14.84375 20.703125 16.984375 24.015625 
Q 19.140625 27.34375 27.34375 55.078125 
z
M 5.859375 58.984375 
Q 16.796875 52.34375 17.375 48.4375 
Q 17.96875 44.53125 16.40625 43.359375 
Q 14.84375 42.1875 14.0625 42.1875 
Q 12.5 42.1875 11.328125 46.484375 
Q 9.375 52.34375 5.078125 57.8125 
z
M 12.5 79.6875 
Q 23.046875 73.828125 24.21875 70.5 
Q 25.390625 67.1875 23.828125 65.421875 
Q 22.265625 63.671875 21.09375 63.671875 
Q 19.921875 63.671875 18.75 67.1875 
Q 16.796875 72.65625 11.71875 78.515625 
z
" id="SimSun-27979"/>
     </defs>
     <g transform="translate(19.887825 274.1718)rotate(-90)scale(0.14 -0.14)">
      <use xlink:href="#SimSun-20986"/>
      <use x="100" xlink:href="#SimSun-27700"/>
      <use x="200" xlink:href="#SimSun-27688"/>
      <use x="300" xlink:href="#SimSun-27694"/>
      <use x="400" xlink:href="#SimSun-27987"/>
      <use x="500" xlink:href="#SimSun-24230"/>
      <use x="600" xlink:href="#SimSun-39044"/>
      <use x="700" xlink:href="#SimSun-27979"/>
      <use x="800" xlink:href="#SimSun-20540"/>
      <use x="900" xlink:href="#SimSun-40"/>
      <use x="950" xlink:href="#SimSun-109"/>
      <use x="1000" xlink:href="#SimSun-103"/>
      <use x="1050" xlink:href="#SimSun-47"/>
      <use x="1100" xlink:href="#SimSun-76"/>
      <use x="1150" xlink:href="#SimSun-41"/>
     </g>
    </g>
   </g>
   <g id="line2d_1">
    <path clip-path="url(#p753319c5a7)" d="M 79.365728 334.220784 
L 127.512989 305.26273 
L 248.318839 232.604341 
L 383.131229 151.521752 
L 381.38043 152.574766 
L 245.692641 234.183861 
L 162.529109 284.202368 
L 119.634396 310.001291 
L 112.63105 314.213436 
L 145.896524 294.205997 
L 174.78485 276.831182 
L 194.919183 264.721436 
L 212.427319 254.191209 
L 229.935304 243.661074 
L 253.571235 229.4453 
L 348.114957 172.582205 
L 305.220243 198.381128 
L 263.200777 223.653635 
L 220.305912 249.452648 
L 196.669982 263.668422 
L 187.040439 269.460088 
L 213.302567 253.664794 
L 249.194238 232.077834 
L 271.079371 218.915074 
L 286.836708 209.437861 
L 287.712107 208.911354 
L 432.153888 122.037191 
L 406.767159 137.305979 
L 398.888415 142.04463 
L 381.38043 152.574766 
L 355.993701 167.843553 
L 330.606972 183.11234 
L 348.114957 172.582205 
L 440.032481 117.29863 
L 532.825405 61.488549 
L 583.598863 30.950974 
L 508.314075 76.230829 
L 424.275144 126.775843 
L 348.114957 172.582205 
L 313.974235 193.11606 
L 305.220243 198.381128 
L 295.5907 204.172793 
L 279.833363 213.650006 
L 254.446634 228.918793 
L 279.833363 213.650006 
L 407.642559 136.779472 
L 532.825405 61.488549 
L 600.2316 20.947255 
L 591.477456 26.212413 
L 507.438676 76.757336 
L 440.032481 117.29863 
L 398.013016 142.571137 
L 372.626287 157.839925 
L 330.606972 183.11234 
L 288.587506 208.384847 
L 238.689296 238.396006 
L 221.181312 248.926142 
L 255.322033 228.392287 
L 323.603627 187.324486 
L 338.485565 178.37378 
L 305.220243 198.381128 
L 229.935304 243.661074 
L 179.161846 274.198649 
L 162.529109 284.202368 
L 162.529109 284.202368 
L 162.529109 284.202368 
L 154.650516 288.940929 
L 162.529109 284.202368 
L 145.896524 294.205997 
L 196.669982 263.668422 
L 264.076177 223.127128 
L 246.568041 233.657354 
L 187.915838 268.933581 
L 153.775117 289.467436 
L 145.896524 294.205997 
L 137.14238 299.471155 
L 137.14238 299.471155 
L 136.266981 299.997662 
L 138.017779 298.944649 
L 137.14238 299.471155 
L 145.021125 294.732504 
L 222.056711 248.399635 
L 330.606972 183.11234 
L 322.728228 187.850992 
L 271.95477 218.388567 
L 179.161846 274.198649 
L 145.896524 294.205997 
L 145.896524 294.205997 
L 204.548575 258.929861 
L 204.548575 258.929861 
L 145.896524 294.205997 
L 237.814048 238.922422 
L 196.669982 263.668422 
L 187.040439 269.460088 
L 221.181312 248.926142 
L 246.568041 233.657354 
L 212.427319 254.191209 
L 153.775117 289.467436 
L 69.736185 340.01245 
L 53.1036 350.016078 
" style="fill:none;stroke:#1e90ff;stroke-linecap:square;stroke-width:2;"/>
   </g>
   <g id="patch_3">
    <path d="M 25.7472 376.3188 
L 25.7472 4.0248 
" style="fill:none;stroke:#000000;stroke-linecap:square;stroke-linejoin:miter;stroke-width:0.8;"/>
   </g>
   <g id="patch_4">
    <path d="M 627.588 376.3188 
L 627.588 4.0248 
" style="fill:none;stroke:#000000;stroke-linecap:square;stroke-linejoin:miter;stroke-width:0.8;"/>
   </g>
   <g id="patch_5">
    <path d="M 25.7472 376.3188 
L 627.588 376.3188 
" style="fill:none;stroke:#000000;stroke-linecap:square;stroke-linejoin:miter;stroke-width:0.8;"/>
   </g>
   <g id="patch_6">
    <path d="M 25.7472 4.0248 
L 627.588 4.0248 
" style="fill:none;stroke:#000000;stroke-linecap:square;stroke-linejoin:miter;stroke-width:0.8;"/>
   </g>
   <g id="legend_1">
    <g id="patch_7">
     <path d="M 35.5472 91.513863 
L 136.3472 91.513863 
Q 139.1472 91.513863 139.1472 88.713863 
L 139.1472 13.8248 
Q 139.1472 11.0248 136.3472 11.0248 
L 35.5472 11.0248 
Q 32.7472 11.0248 32.7472 13.8248 
L 32.7472 88.713863 
Q 32.7472 91.513863 35.5472 91.513863 
z
" style="fill:#ffffff;opacity:0.8;stroke:#cccccc;stroke-linejoin:miter;"/>
    </g>
    <g id="line2d_2">
     <path d="M 38.3472 21.732613 
L 66.3472 21.732613 
" style="fill:none;stroke:#1e90ff;stroke-linecap:square;stroke-width:2;"/>
    </g>
    <g id="line2d_3"/>
    <g id="text_3">
     <!-- Line:y=x -->
     <defs>
      <path d="M 22.265625 39.453125 
Q 22.265625 41.015625 21.484375 41.984375 
Q 20.703125 42.96875 18.75 42.96875 
L 10.546875 42.96875 
L 10.546875 45.3125 
L 14.453125 45.3125 
Q 17.96875 45.3125 21.09375 45.890625 
Q 24.21875 46.484375 26.953125 48.046875 
L 27.734375 48.046875 
L 27.734375 7.03125 
Q 27.734375 5.46875 28.703125 4.6875 
Q 29.6875 3.90625 31.25 3.90625 
L 39.453125 3.90625 
L 39.453125 1.5625 
L 10.546875 1.5625 
L 10.546875 3.90625 
L 18.75 3.90625 
Q 20.703125 3.90625 21.484375 4.6875 
Q 22.265625 5.46875 22.265625 7.03125 
z
M 26.953125 47.265625 
z
M 25.390625 69.140625 
Q 27.34375 69.140625 28.90625 67.765625 
Q 30.46875 66.40625 30.46875 64.453125 
Q 30.46875 62.5 28.90625 60.9375 
Q 27.34375 59.375 25.390625 59.375 
Q 23.4375 59.375 21.875 60.9375 
Q 20.3125 62.5 20.3125 64.453125 
Q 20.3125 66.40625 21.875 67.765625 
Q 23.4375 69.140625 25.390625 69.140625 
z
" id="SimSun-105"/>
      <path d="M 3.125 1.5625 
L 3.125 3.90625 
L 5.078125 3.90625 
Q 7.03125 3.90625 7.8125 4.6875 
Q 8.59375 5.46875 8.59375 7.03125 
L 8.59375 40.625 
Q 8.59375 41.796875 8.203125 42.375 
Q 7.8125 42.96875 6.640625 42.96875 
L 3.515625 42.96875 
L 3.515625 45.3125 
L 6.25 45.3125 
Q 8.203125 45.3125 9.953125 45.703125 
Q 11.71875 46.09375 13.28125 47.265625 
L 14.0625 47.265625 
L 14.0625 38.28125 
Q 17.578125 42.1875 21.09375 44.140625 
Q 24.609375 46.09375 28.515625 46.09375 
Q 35.15625 46.09375 38.28125 42.578125 
Q 41.40625 39.0625 41.40625 32.03125 
L 41.40625 7.03125 
Q 41.40625 5.46875 42.375 4.6875 
Q 43.359375 3.90625 44.921875 3.90625 
L 46.875 3.90625 
L 46.875 1.5625 
L 30.46875 1.5625 
L 30.46875 3.90625 
L 32.421875 3.90625 
Q 34.375 3.90625 35.15625 4.6875 
Q 35.9375 5.46875 35.9375 7.03125 
L 35.9375 33.203125 
Q 35.9375 37.890625 33.984375 40.421875 
Q 32.03125 42.96875 28.125 42.96875 
Q 24.609375 42.96875 20.890625 40.625 
Q 17.1875 38.28125 14.0625 33.984375 
L 14.0625 7.03125 
Q 14.0625 5.46875 15.03125 4.6875 
Q 16.015625 3.90625 17.578125 3.90625 
L 19.53125 3.90625 
L 19.53125 1.5625 
z
" id="SimSun-110"/>
      <path d="M 37.5 25.78125 
Q 37.890625 34.375 34.5625 38.859375 
Q 31.25 43.359375 25.78125 43.359375 
Q 19.921875 43.359375 16.203125 38.671875 
Q 12.5 33.984375 12.5 25.78125 
z
M 12.5 23.4375 
Q 12.5 12.890625 16.59375 8.390625 
Q 20.703125 3.90625 27.34375 3.90625 
Q 32.421875 3.90625 35.9375 6.828125 
Q 39.453125 9.765625 41.015625 14.0625 
L 42.96875 13.28125 
Q 41.796875 8.984375 37.6875 4.875 
Q 33.59375 0.78125 26.5625 0.78125 
Q 17.578125 0.78125 11.90625 6.640625 
Q 6.25 12.5 6.25 23.4375 
Q 6.25 33.203125 11.90625 39.640625 
Q 17.578125 46.09375 25.78125 46.09375 
Q 33.203125 46.09375 38.671875 41.015625 
Q 44.140625 35.9375 44.140625 23.4375 
z
" id="SimSun-101"/>
      <path d="M 29.6875 42.578125 
Q 29.6875 40.234375 28.125 38.671875 
Q 26.5625 37.109375 24.21875 37.109375 
Q 21.875 37.109375 20.3125 38.671875 
Q 18.75 40.234375 18.75 42.578125 
Q 18.75 44.921875 20.3125 46.484375 
Q 21.875 48.046875 24.21875 48.046875 
Q 26.5625 48.046875 28.125 46.484375 
Q 29.6875 44.921875 29.6875 42.578125 
z
M 29.6875 5.859375 
Q 29.6875 3.515625 28.125 1.953125 
Q 26.5625 0.390625 24.21875 0.390625 
Q 21.875 0.390625 20.3125 1.953125 
Q 18.75 3.515625 18.75 5.859375 
Q 18.75 8.203125 20.3125 9.765625 
Q 21.875 11.328125 24.21875 11.328125 
Q 26.5625 11.328125 28.125 9.765625 
Q 29.6875 8.203125 29.6875 5.859375 
z
" id="SimSun-58"/>
      <path d="M 25.78125 12.5 
L 26.5625 12.5 
L 35.15625 38.671875 
Q 35.9375 40.625 34.953125 41.796875 
Q 33.984375 42.96875 32.421875 42.96875 
L 30.078125 42.96875 
L 30.078125 45.3125 
L 46.484375 45.3125 
L 46.484375 42.96875 
L 44.140625 42.96875 
Q 42.578125 42.96875 41.015625 41.796875 
Q 39.453125 40.625 38.671875 38.671875 
L 25.390625 0 
Q 23.4375 -5.859375 20.5 -9.171875 
Q 17.578125 -12.5 12.890625 -12.5 
Q 10.15625 -12.5 8.59375 -11.515625 
Q 7.03125 -10.546875 7.03125 -8.59375 
Q 7.03125 -7.421875 8 -6.25 
Q 8.984375 -5.078125 10.9375 -5.078125 
Q 12.5 -5.078125 14.0625 -6.640625 
Q 15.625 -7.8125 16.40625 -7.8125 
Q 17.578125 -7.8125 18.359375 -7.421875 
Q 19.140625 -7.03125 19.53125 -5.859375 
Q 20.703125 -3.90625 21.875 -0.96875 
Q 23.046875 1.953125 23.828125 5.078125 
L 10.546875 39.453125 
Q 10.15625 41.015625 8.78125 41.984375 
Q 7.421875 42.96875 5.859375 42.96875 
L 4.296875 42.96875 
L 4.296875 45.3125 
L 20.703125 45.3125 
L 20.703125 42.96875 
L 19.140625 42.96875 
Q 17.578125 42.96875 16.796875 41.984375 
Q 16.015625 41.015625 16.40625 39.0625 
z
M 14.84375 42.96875 
z
M 9.375 42.96875 
z
M 40.234375 42.96875 
z
M 36.328125 42.96875 
z
" id="SimSun-121"/>
      <path d="M 3.125 44.140625 
L 3.125 47.65625 
L 46.484375 47.65625 
L 46.484375 44.140625 
z
M 3.125 24.21875 
L 3.125 27.734375 
L 46.484375 27.734375 
L 46.484375 24.21875 
z
" id="SimSun-61"/>
      <path d="M 26.171875 28.515625 
L 33.203125 39.0625 
Q 34.375 40.625 34.171875 41.796875 
Q 33.984375 42.96875 31.25 42.96875 
L 28.90625 42.96875 
L 28.90625 45.3125 
L 44.140625 45.3125 
L 44.140625 42.96875 
L 42.1875 42.96875 
Q 41.40625 42.96875 40.234375 42.765625 
Q 39.0625 42.578125 38.28125 41.40625 
L 27.734375 25.78125 
L 38.671875 7.8125 
Q 39.84375 5.859375 41.59375 4.875 
Q 43.359375 3.90625 44.140625 3.90625 
L 45.703125 3.90625 
L 45.703125 1.5625 
L 28.515625 1.5625 
L 28.515625 3.90625 
L 30.859375 3.90625 
Q 33.203125 3.90625 33.390625 5.078125 
Q 33.59375 6.25 32.8125 7.8125 
L 24.609375 21.09375 
L 15.234375 7.421875 
Q 14.84375 5.46875 15.421875 4.6875 
Q 16.015625 3.90625 17.578125 3.90625 
L 18.75 3.90625 
L 18.75 1.5625 
L 3.515625 1.5625 
L 3.515625 3.90625 
L 5.859375 3.90625 
Q 7.421875 3.90625 9.375 5.078125 
Q 11.328125 6.25 12.5 8.59375 
L 22.65625 23.828125 
L 12.5 40.234375 
Q 12.109375 41.015625 10.9375 41.984375 
Q 9.765625 42.96875 7.8125 42.96875 
L 5.859375 42.96875 
L 5.859375 45.3125 
L 22.65625 45.3125 
L 22.65625 42.96875 
L 21.484375 42.96875 
Q 19.53125 42.96875 19.140625 41.796875 
Q 18.75 40.625 19.53125 39.0625 
z
M 9.375 3.90625 
z
M 12.890625 3.90625 
z
M 39.453125 42.96875 
z
M 35.9375 42.96875 
z
M 35.15625 3.90625 
z
M 41.015625 3.90625 
z
M 17.1875 42.96875 
z
M 10.9375 42.96875 
z
" id="SimSun-120"/>
     </defs>
     <g transform="translate(77.5472 26.632613)scale(0.14 -0.14)">
      <use xlink:href="#SimSun-76"/>
      <use x="50" xlink:href="#SimSun-105"/>
      <use x="100" xlink:href="#SimSun-110"/>
      <use x="150" xlink:href="#SimSun-101"/>
      <use x="200" xlink:href="#SimSun-58"/>
      <use x="250" xlink:href="#SimSun-121"/>
      <use x="300" xlink:href="#SimSun-61"/>
      <use x="350" xlink:href="#SimSun-120"/>
     </g>
    </g>
    <g id="PathCollection_4">
     <g>
      <use style="fill:#ff0000;stroke:#ff0000;" x="52.3472" xlink:href="#mdd7f8f1ec2" y="41.770113"/>
     </g>
    </g>
    <g id="text_4">
     <!-- LSTM-AM -->
     <defs>
      <path d="M 23.4375 33.59375 
Q 12.890625 38.28125 8.984375 41.796875 
Q 5.078125 45.3125 5.078125 52.734375 
Q 5.078125 58.59375 9.953125 63.859375 
Q 14.84375 69.140625 23.828125 69.140625 
Q 27.734375 69.140625 31.25 67.96875 
Q 34.765625 66.40625 36.328125 66.40625 
Q 37.5 66.40625 38.46875 66.984375 
Q 39.453125 67.578125 40.234375 69.140625 
L 41.796875 53.125 
L 39.84375 52.34375 
Q 36.328125 60.546875 32.609375 63.46875 
Q 28.90625 66.40625 23.046875 66.40625 
Q 15.625 66.40625 12.890625 62.296875 
Q 10.15625 58.203125 10.15625 53.515625 
Q 10.15625 49.21875 12.6875 46.671875 
Q 15.234375 44.140625 26.5625 39.0625 
Q 35.9375 35.15625 40.03125 30.265625 
Q 44.140625 25.390625 44.140625 18.75 
Q 44.140625 11.71875 39.25 6.25 
Q 34.375 0.78125 25 0.78125 
Q 21.09375 0.78125 17.96875 2.34375 
Q 14.453125 3.515625 12.5 3.515625 
Q 11.328125 3.515625 10.15625 2.734375 
Q 8.984375 1.953125 7.421875 0.78125 
L 4.296875 19.921875 
L 6.640625 20.703125 
Q 9.375 10.9375 14.25 7.21875 
Q 19.140625 3.515625 25.390625 3.515625 
Q 32.03125 3.515625 35.34375 7.421875 
Q 38.671875 11.328125 38.671875 18.75 
Q 38.671875 22.65625 34.953125 26.359375 
Q 31.25 30.078125 23.4375 33.59375 
z
" id="SimSun-83"/>
      <path d="M 34.765625 1.5625 
L 14.453125 1.5625 
L 14.453125 3.90625 
L 17.96875 3.90625 
Q 19.921875 3.90625 20.703125 4.6875 
Q 21.484375 5.46875 21.484375 7.03125 
L 21.484375 61.71875 
Q 21.484375 64.84375 21.09375 65.234375 
Q 20.703125 65.625 17.96875 65.625 
Q 12.5 65.625 10.34375 63.671875 
Q 8.203125 61.71875 5.078125 53.125 
L 2.734375 53.515625 
L 6.25 68.359375 
L 43.359375 68.359375 
L 46.484375 53.515625 
L 44.53125 53.125 
Q 41.40625 61.328125 39.640625 63.46875 
Q 37.890625 65.625 32.421875 65.625 
Q 28.515625 65.625 28.125 65.234375 
Q 27.734375 64.84375 27.734375 61.328125 
L 27.734375 7.03125 
Q 27.734375 5.46875 28.703125 4.6875 
Q 29.6875 3.90625 31.25 3.90625 
L 34.765625 3.90625 
z
" id="SimSun-84"/>
      <path d="M 43.75 7.03125 
Q 43.75 5.46875 44.71875 4.6875 
Q 45.703125 3.90625 47.265625 3.90625 
L 48.828125 3.90625 
L 48.828125 1.5625 
L 32.03125 1.5625 
L 32.03125 3.90625 
L 33.984375 3.90625 
Q 35.9375 3.90625 36.71875 4.6875 
Q 37.5 5.46875 37.5 7.03125 
L 37.5 58.203125 
L 36.71875 58.203125 
L 23.4375 1.5625 
L 21.09375 1.5625 
L 8.984375 57.03125 
L 8.203125 57.03125 
L 8.203125 7.03125 
Q 8.203125 5.46875 9.171875 4.6875 
Q 10.15625 3.90625 11.71875 3.90625 
L 12.890625 3.90625 
L 12.890625 1.5625 
L 1.171875 1.5625 
L 1.171875 3.90625 
L 2.34375 3.90625 
Q 4.296875 3.90625 5.078125 4.6875 
Q 5.859375 5.46875 5.859375 7.03125 
L 5.859375 62.890625 
Q 5.859375 64.453125 5.078125 65.234375 
Q 4.296875 66.015625 2.34375 66.015625 
L 0.78125 66.015625 
L 0.78125 68.359375 
L 12.109375 68.359375 
L 23.4375 16.015625 
L 24.21875 16.015625 
L 36.328125 68.359375 
L 48.828125 68.359375 
L 48.828125 66.015625 
L 47.265625 66.015625 
Q 45.703125 66.015625 44.71875 65.234375 
Q 43.75 64.453125 43.75 62.890625 
z
" id="SimSun-77"/>
      <path d="M 3.125 34.765625 
L 3.125 38.28125 
L 46.484375 38.28125 
L 46.484375 34.765625 
z
" id="SimSun-45"/>
      <path d="M 31.640625 26.5625 
L 14.0625 26.5625 
L 10.546875 11.71875 
Q 10.15625 9.765625 10.15625 8.59375 
Q 10.15625 7.03125 10.734375 5.46875 
Q 11.328125 3.90625 14.0625 3.90625 
L 15.234375 3.90625 
L 15.234375 1.5625 
L 0.78125 1.5625 
L 0.78125 3.90625 
L 1.953125 3.90625 
Q 3.515625 3.90625 4.6875 4.875 
Q 5.859375 5.859375 6.25 8.203125 
L 21.484375 67.96875 
L 27.34375 69.921875 
L 42.1875 8.203125 
Q 42.96875 5.859375 44.140625 4.875 
Q 45.3125 3.90625 46.875 3.90625 
L 48.046875 3.90625 
L 48.046875 1.5625 
L 31.25 1.5625 
L 31.25 3.90625 
L 32.8125 3.90625 
Q 35.15625 3.90625 35.546875 4.875 
Q 35.9375 5.859375 35.9375 6.640625 
Q 35.9375 8.203125 35.546875 9.375 
z
M 5.078125 3.90625 
z
M 8.984375 3.90625 
z
M 36.71875 3.90625 
z
M 43.359375 3.90625 
z
M 23.4375 61.328125 
L 23.046875 61.328125 
L 14.84375 28.90625 
L 31.25 28.90625 
z
" id="SimSun-65"/>
     </defs>
     <g transform="translate(77.5472 45.445113)scale(0.14 -0.14)">
      <use xlink:href="#SimSun-76"/>
      <use x="50" xlink:href="#SimSun-83"/>
      <use x="100" xlink:href="#SimSun-84"/>
      <use x="150" xlink:href="#SimSun-77"/>
      <use x="200" xlink:href="#SimSun-45"/>
      <use x="250" xlink:href="#SimSun-65"/>
      <use x="300" xlink:href="#SimSun-77"/>
     </g>
    </g>
    <g id="PathCollection_5">
     <g>
      <use style="fill:#32cd32;stroke:#32cd32;" x="52.3472" xlink:href="#md8df2d3fce" y="61.621675"/>
     </g>
    </g>
    <g id="text_5">
     <!-- 经典LSTM -->
     <defs>
      <path d="M 77.734375 69.921875 
Q 72.265625 62.5 66.40625 55.078125 
Q 79.296875 50 84.765625 46.875 
Q 90.234375 43.75 90.8125 40.625 
Q 91.40625 37.5 90.421875 36.125 
Q 89.453125 34.765625 88.671875 34.765625 
Q 87.109375 34.765625 84.375 38.671875 
Q 80.46875 44.140625 65.234375 53.515625 
Q 61.328125 49.21875 54.484375 44.140625 
Q 47.65625 39.0625 35.546875 33.984375 
L 35.15625 35.546875 
Q 48.046875 42.578125 56.25 50.78125 
Q 64.453125 58.984375 71.484375 71.484375 
L 53.90625 71.484375 
Q 48.828125 71.484375 44.53125 70.3125 
L 41.015625 73.828125 
L 71.875 73.828125 
L 75.78125 77.734375 
L 81.640625 71.875 
z
M 42.96875 28.125 
L 77.34375 28.125 
L 82.03125 32.8125 
L 88.671875 25.78125 
L 66.015625 25.78125 
L 66.015625 -0.78125 
L 84.375 -0.78125 
L 89.0625 3.90625 
L 95.703125 -3.125 
L 45.703125 -3.125 
Q 40.625 -3.125 36.328125 -4.296875 
L 32.8125 -0.78125 
L 60.546875 -0.78125 
L 60.546875 25.78125 
L 55.859375 25.78125 
Q 50.78125 25.78125 46.484375 24.609375 
z
M 14.0625 23.828125 
L 39.453125 28.125 
L 39.84375 26.5625 
Q 32.421875 24.609375 24.796875 22.0625 
Q 17.1875 19.53125 12.109375 16.015625 
L 7.421875 23.4375 
Q 11.328125 24.609375 16.984375 31.046875 
Q 22.65625 37.5 28.515625 46.484375 
Q 22.65625 45.3125 17.96875 44.140625 
Q 13.28125 42.96875 8.203125 39.84375 
L 4.6875 47.265625 
Q 9.375 48.4375 15.8125 60.15625 
Q 22.265625 71.875 24.21875 80.078125 
L 32.421875 75 
L 28.90625 72.65625 
Q 17.96875 54.6875 10.15625 47.265625 
L 29.6875 48.4375 
Q 34.765625 56.25 37.5 63.28125 
L 45.3125 57.421875 
L 41.015625 55.859375 
Q 28.515625 37.890625 14.0625 23.828125 
z
M 8.984375 -3.125 
L 5.078125 3.90625 
Q 24.21875 7.421875 42.1875 11.71875 
L 42.578125 10.15625 
Q 35.546875 7.8125 24.40625 3.90625 
Q 13.28125 0 8.984375 -3.125 
z
" id="SimSun-32463"/>
      <path d="M 35.9375 14.453125 
L 42.96875 7.421875 
Q 39.453125 7.03125 29.6875 0.390625 
Q 19.53125 -6.25 8.59375 -10.15625 
L 7.8125 -8.984375 
Q 17.96875 -3.515625 24.609375 2.53125 
Q 31.25 8.59375 35.9375 14.453125 
z
M 58.59375 12.109375 
L 59.375 13.671875 
Q 81.640625 3.90625 83.59375 0.78125 
Q 85.546875 -2.34375 85.546875 -4.6875 
Q 85.546875 -6.640625 84.765625 -8 
Q 83.984375 -9.375 83.59375 -9.375 
Q 81.640625 -9.375 77.34375 -3.515625 
Q 71.484375 4.296875 58.59375 12.109375 
z
M 21.09375 18.75 
L 21.09375 48.4375 
Q 21.09375 56.25 20.703125 65.234375 
L 26.171875 62.5 
L 38.28125 62.5 
L 38.28125 71.875 
Q 38.28125 76.953125 37.890625 81.640625 
L 46.09375 77.34375 
L 43.359375 74.609375 
L 43.359375 62.5 
L 55.078125 62.5 
L 55.078125 71.875 
Q 55.078125 77.34375 54.6875 81.640625 
L 63.28125 77.34375 
L 60.15625 74.21875 
L 60.15625 62.5 
L 71.875 62.5 
L 75.390625 66.40625 
L 81.640625 60.9375 
L 77.734375 58.59375 
L 77.734375 18.75 
L 81.25 18.75 
L 87.109375 24.609375 
L 95.3125 16.40625 
L 18.75 16.40625 
Q 13.671875 16.40625 9.375 15.234375 
L 5.859375 18.75 
z
M 26.171875 60.15625 
L 26.171875 41.796875 
L 38.28125 41.796875 
L 38.28125 60.15625 
z
M 43.359375 60.15625 
L 43.359375 41.796875 
L 55.078125 41.796875 
L 55.078125 60.15625 
z
M 60.15625 60.15625 
L 60.15625 41.796875 
L 72.65625 41.796875 
L 72.65625 60.15625 
z
M 26.171875 39.453125 
L 26.171875 18.75 
L 38.28125 18.75 
L 38.28125 39.453125 
z
M 43.359375 39.453125 
L 43.359375 18.75 
L 55.078125 18.75 
L 55.078125 39.453125 
z
M 60.15625 39.453125 
L 60.15625 18.75 
L 72.65625 18.75 
L 72.65625 39.453125 
z
" id="SimSun-20856"/>
     </defs>
     <g transform="translate(77.5472 65.296675)scale(0.14 -0.14)">
      <use xlink:href="#SimSun-32463"/>
      <use x="100" xlink:href="#SimSun-20856"/>
      <use x="200" xlink:href="#SimSun-76"/>
      <use x="250" xlink:href="#SimSun-83"/>
      <use x="300" xlink:href="#SimSun-84"/>
      <use x="350" xlink:href="#SimSun-77"/>
     </g>
    </g>
    <g id="PathCollection_6">
     <g>
      <use style="fill:#ff8c00;stroke:#ff8c00;" x="52.3472" xlink:href="#maabadb4593" y="80.434175"/>
     </g>
    </g>
    <g id="text_6">
     <!-- Bi-LSTM -->
     <defs>
      <path d="M 1.5625 1.5625 
L 1.5625 3.90625 
L 4.6875 3.90625 
Q 6.640625 3.90625 7.421875 4.6875 
Q 8.203125 5.46875 8.203125 7.03125 
L 8.203125 62.890625 
Q 8.203125 64.453125 7.421875 65.234375 
Q 6.640625 66.015625 4.6875 66.015625 
L 2.34375 66.015625 
L 2.34375 68.359375 
L 25 68.359375 
Q 34.375 68.359375 38.859375 64.640625 
Q 43.359375 60.9375 43.359375 53.125 
Q 43.359375 47.65625 41.015625 44.140625 
Q 38.671875 40.625 31.25 37.890625 
Q 40.234375 35.15625 43.359375 30.078125 
Q 46.484375 25 46.484375 18.75 
Q 46.484375 10.9375 41.015625 6.25 
Q 35.546875 1.5625 26.171875 1.5625 
z
M 25 3.90625 
Q 31.640625 3.90625 35.34375 8 
Q 39.0625 12.109375 39.0625 19.53125 
Q 39.0625 28.125 35.15625 32.21875 
Q 31.25 36.328125 23.4375 36.328125 
L 14.453125 36.328125 
L 14.453125 7.03125 
Q 14.453125 5.46875 15.421875 4.6875 
Q 16.40625 3.90625 17.96875 3.90625 
z
M 36.71875 53.125 
Q 36.71875 60.15625 32.8125 63.078125 
Q 28.90625 66.015625 22.65625 66.015625 
L 17.96875 66.015625 
Q 16.40625 66.015625 15.421875 65.234375 
Q 14.453125 64.453125 14.453125 62.890625 
L 14.453125 38.671875 
L 24.609375 38.671875 
Q 28.90625 38.671875 32.8125 42.1875 
Q 36.71875 45.703125 36.71875 53.125 
z
" id="SimSun-66"/>
     </defs>
     <g transform="translate(77.5472 84.109175)scale(0.14 -0.14)">
      <use xlink:href="#SimSun-66"/>
      <use x="50" xlink:href="#SimSun-105"/>
      <use x="100" xlink:href="#SimSun-45"/>
      <use x="150" xlink:href="#SimSun-76"/>
      <use x="200" xlink:href="#SimSun-83"/>
      <use x="250" xlink:href="#SimSun-84"/>
      <use x="300" xlink:href="#SimSun-77"/>
     </g>
    </g>
   </g>
  </g>
 </g>
 <defs>
  <clipPath id="p753319c5a7">
   <rect height="372.294" width="601.8408" x="25.7472" y="4.0248"/>
  </clipPath>
 </defs>
</svg>
