<?xml version="1.0" encoding="utf-8" standalone="no"?>
<!DOCTYPE svg PUBLIC "-//W3C//DTD SVG 1.1//EN"
  "http://www.w3.org/Graphics/SVG/1.1/DTD/svg11.dtd">
<!-- Created with matplotlib (https://matplotlib.org/) -->
<svg height="414.72pt" version="1.1" viewBox="0 0 678.96 414.72" width="678.96pt" xmlns="http://www.w3.org/2000/svg" xmlns:xlink="http://www.w3.org/1999/xlink">
 <defs>
  <style type="text/css">
*{stroke-linecap:butt;stroke-linejoin:round;}
  </style>
 </defs>
 <g id="figure_1">
  <g id="patch_1">
   <path d="M 0 414.72 
L 678.96 414.72 
L 678.96 0 
L 0 0 
z
" style="fill:#ffffff;"/>
  </g>
  <g id="axes_1">
   <g id="patch_2">
    <path d="M 54.3168 377.3952 
L 672.1704 377.3952 
L 672.1704 4.1472 
L 54.3168 4.1472 
z
" style="fill:#ffffff;"/>
   </g>
   <g id="matplotlib.axis_1">
    <g id="xtick_1">
     <g id="line2d_1">
      <defs>
       <path d="M 0 0 
L 0 3.5 
" id="md7cc0c1fd0" style="stroke:#000000;stroke-width:0.8;"/>
      </defs>
      <g>
       <use style="stroke:#000000;stroke-width:0.8;" x="82.401055" xlink:href="#md7cc0c1fd0" y="377.3952"/>
      </g>
     </g>
     <g id="text_1">
      <!-- 0 -->
      <defs>
       <path d="M 25 66.015625 
Q 19.53125 66.015625 15.8125 57.609375 
Q 12.109375 49.21875 12.109375 35.15625 
Q 12.109375 20.3125 15.8125 12.109375 
Q 19.53125 3.90625 25 3.90625 
Q 30.859375 3.90625 34.171875 12.109375 
Q 37.5 20.3125 37.5 35.15625 
Q 37.5 49.21875 34.375 57.609375 
Q 31.25 66.015625 25 66.015625 
z
M 25 0.78125 
Q 16.40625 0.78125 10.546875 9.765625 
Q 4.6875 18.75 4.6875 35.15625 
Q 4.6875 50.390625 10.34375 59.765625 
Q 16.015625 69.140625 25 69.140625 
Q 33.59375 69.140625 39.25 60.15625 
Q 44.921875 51.171875 44.921875 35.15625 
Q 44.921875 19.140625 39.25 9.953125 
Q 33.59375 0.78125 25 0.78125 
z
" id="SimSun-48"/>
      </defs>
      <g transform="translate(79.901055 391.543637)scale(0.1 -0.1)">
       <use xlink:href="#SimSun-48"/>
      </g>
     </g>
    </g>
    <g id="xtick_2">
     <g id="line2d_2">
      <g>
       <use style="stroke:#000000;stroke-width:0.8;" x="197.030665" xlink:href="#md7cc0c1fd0" y="377.3952"/>
      </g>
     </g>
     <g id="text_2">
      <!-- 10 -->
      <defs>
       <path d="M 28.515625 69.53125 
L 28.515625 10.15625 
Q 28.515625 7.03125 30.46875 5.46875 
Q 32.421875 3.90625 35.9375 3.90625 
L 39.84375 3.90625 
L 39.84375 1.5625 
L 11.328125 1.5625 
L 11.328125 3.90625 
L 14.84375 3.90625 
Q 18.75 3.90625 20.5 5.46875 
Q 22.265625 7.03125 22.265625 10.15625 
L 22.265625 57.421875 
Q 22.265625 58.984375 21.28125 59.953125 
Q 20.3125 60.9375 18.359375 60.9375 
L 11.328125 60.9375 
L 11.328125 63.28125 
L 14.84375 63.28125 
Q 19.53125 63.28125 22.453125 64.84375 
Q 25.390625 66.40625 26.953125 69.53125 
z
" id="SimSun-49"/>
      </defs>
      <g transform="translate(192.030665 391.543637)scale(0.1 -0.1)">
       <use xlink:href="#SimSun-49"/>
       <use x="50" xlink:href="#SimSun-48"/>
      </g>
     </g>
    </g>
    <g id="xtick_3">
     <g id="line2d_3">
      <g>
       <use style="stroke:#000000;stroke-width:0.8;" x="311.660275" xlink:href="#md7cc0c1fd0" y="377.3952"/>
      </g>
     </g>
     <g id="text_3">
      <!-- 20 -->
      <defs>
       <path d="M 36.328125 51.953125 
Q 36.328125 58.984375 33.203125 62.6875 
Q 30.078125 66.40625 23.828125 66.40625 
Q 19.140625 66.40625 15.8125 63.859375 
Q 12.5 61.328125 12.5 57.421875 
Q 12.5 55.078125 14.0625 53.515625 
Q 15.234375 51.953125 15.234375 50.390625 
Q 15.234375 48.4375 14.25 47.453125 
Q 13.28125 46.484375 11.328125 46.484375 
Q 8.984375 46.484375 7.609375 47.84375 
Q 6.25 49.21875 6.25 52.34375 
Q 6.25 60.546875 12.109375 64.84375 
Q 17.96875 69.140625 24.609375 69.140625 
Q 33.984375 69.140625 38.46875 64.453125 
Q 42.96875 59.765625 42.96875 52.734375 
Q 42.96875 48.046875 40.8125 43.359375 
Q 38.671875 38.671875 33.984375 34.375 
Q 22.65625 23.4375 16.59375 16.59375 
Q 10.546875 9.765625 9.375 7.421875 
L 32.421875 7.421875 
Q 35.9375 7.421875 38.28125 10.15625 
Q 40.625 12.890625 41.40625 18.359375 
L 43.75 18.359375 
L 41.40625 1.5625 
L 5.078125 1.5625 
L 5.078125 6.640625 
Q 7.03125 10.15625 11.515625 15.625 
Q 16.015625 21.09375 23.4375 28.515625 
Q 30.078125 35.15625 33.203125 41.015625 
Q 36.328125 46.875 36.328125 51.953125 
z
" id="SimSun-50"/>
      </defs>
      <g transform="translate(306.660275 391.543637)scale(0.1 -0.1)">
       <use xlink:href="#SimSun-50"/>
       <use x="50" xlink:href="#SimSun-48"/>
      </g>
     </g>
    </g>
    <g id="xtick_4">
     <g id="line2d_4">
      <g>
       <use style="stroke:#000000;stroke-width:0.8;" x="426.289886" xlink:href="#md7cc0c1fd0" y="377.3952"/>
      </g>
     </g>
     <g id="text_4">
      <!-- 30 -->
      <defs>
       <path d="M 43.75 19.53125 
Q 43.75 12.109375 38.28125 6.4375 
Q 32.8125 0.78125 23.046875 0.78125 
Q 16.015625 0.78125 10.9375 4.6875 
Q 5.859375 8.59375 5.859375 13.671875 
Q 5.859375 16.015625 7.421875 17.765625 
Q 8.984375 19.53125 10.546875 19.53125 
Q 12.890625 19.53125 13.859375 17.765625 
Q 14.84375 16.015625 14.84375 14.84375 
Q 14.84375 12.890625 14.0625 11.71875 
Q 13.28125 10.15625 13.28125 8.984375 
Q 13.28125 6.640625 16.203125 5.078125 
Q 19.140625 3.515625 22.65625 3.515625 
Q 29.6875 3.515625 33.203125 7.609375 
Q 36.71875 11.71875 36.71875 20.3125 
Q 36.71875 27.34375 33 31.640625 
Q 29.296875 35.9375 19.140625 35.9375 
L 19.140625 38.671875 
Q 26.953125 38.671875 30.65625 42.375 
Q 34.375 46.09375 34.375 52.734375 
Q 34.375 58.203125 31.4375 62.296875 
Q 28.515625 66.40625 22.265625 66.40625 
Q 19.53125 66.40625 16.40625 65.03125 
Q 13.28125 63.671875 13.28125 60.546875 
Q 13.28125 57.421875 14.0625 56.640625 
Q 14.84375 55.859375 14.84375 54.6875 
Q 14.84375 52.734375 14.0625 51.5625 
Q 13.28125 50.390625 11.328125 50.390625 
Q 9.765625 50.390625 8.390625 51.5625 
Q 7.03125 52.734375 7.03125 55.859375 
Q 7.03125 61.71875 12.109375 65.421875 
Q 17.1875 69.140625 23.828125 69.140625 
Q 31.640625 69.140625 36.328125 64.25 
Q 41.015625 59.375 41.015625 53.90625 
Q 41.015625 48.046875 38.078125 43.9375 
Q 35.15625 39.84375 28.90625 37.890625 
Q 37.5 34.765625 40.625 29.6875 
Q 43.75 24.609375 43.75 19.53125 
z
" id="SimSun-51"/>
      </defs>
      <g transform="translate(421.289886 391.543637)scale(0.1 -0.1)">
       <use xlink:href="#SimSun-51"/>
       <use x="50" xlink:href="#SimSun-48"/>
      </g>
     </g>
    </g>
    <g id="xtick_5">
     <g id="line2d_5">
      <g>
       <use style="stroke:#000000;stroke-width:0.8;" x="540.919496" xlink:href="#md7cc0c1fd0" y="377.3952"/>
      </g>
     </g>
     <g id="text_5">
      <!-- 40 -->
      <defs>
       <path d="M 35.9375 8.984375 
Q 35.9375 6.25 37.5 5.078125 
Q 39.0625 3.90625 41.796875 3.90625 
L 45.3125 3.90625 
L 45.3125 1.5625 
L 19.53125 1.5625 
L 19.53125 3.90625 
L 23.828125 3.90625 
Q 26.953125 3.90625 28.3125 5.078125 
Q 29.6875 6.25 29.6875 8.984375 
L 29.6875 21.875 
L 3.515625 21.875 
L 3.515625 23.828125 
L 32.03125 69.140625 
L 35.9375 69.140625 
L 35.9375 24.21875 
L 46.484375 24.21875 
L 46.484375 21.875 
L 35.9375 21.875 
z
M 29.296875 59.375 
L 7.03125 24.21875 
L 29.6875 24.21875 
L 29.6875 59.375 
z
" id="SimSun-52"/>
      </defs>
      <g transform="translate(535.919496 391.543637)scale(0.1 -0.1)">
       <use xlink:href="#SimSun-52"/>
       <use x="50" xlink:href="#SimSun-48"/>
      </g>
     </g>
    </g>
    <g id="xtick_6">
     <g id="line2d_6">
      <g>
       <use style="stroke:#000000;stroke-width:0.8;" x="655.549106" xlink:href="#md7cc0c1fd0" y="377.3952"/>
      </g>
     </g>
     <g id="text_6">
      <!-- 50 -->
      <defs>
       <path d="M 26.953125 44.53125 
Q 34.375 44.53125 39.0625 38.859375 
Q 43.75 33.203125 43.75 23.828125 
Q 43.75 13.28125 38.859375 7.03125 
Q 33.984375 0.78125 23.828125 0.78125 
Q 16.796875 0.78125 11.328125 4.875 
Q 5.859375 8.984375 5.859375 14.84375 
Q 5.859375 17.1875 7.21875 18.9375 
Q 8.59375 20.703125 10.9375 20.703125 
Q 13.28125 20.703125 14.0625 19.140625 
Q 14.84375 17.578125 14.84375 16.40625 
Q 14.84375 14.0625 13.671875 12.890625 
Q 12.5 11.328125 12.5 9.765625 
Q 12.5 6.640625 16.203125 5.078125 
Q 19.921875 3.515625 24.21875 3.515625 
Q 30.46875 3.515625 33.78125 8.59375 
Q 37.109375 13.671875 37.109375 23.046875 
Q 37.109375 30.859375 34.171875 35.734375 
Q 31.25 40.625 25.390625 40.625 
Q 21.09375 40.625 17.96875 39.0625 
Q 14.84375 37.5 12.109375 32.421875 
L 8.59375 32.8125 
L 10.546875 68.359375 
L 42.578125 68.359375 
L 41.40625 62.5 
L 13.28125 62.5 
L 11.71875 36.71875 
Q 15.625 42.1875 19.328125 43.359375 
Q 23.046875 44.53125 26.953125 44.53125 
z
" id="SimSun-53"/>
      </defs>
      <g transform="translate(650.549106 391.543637)scale(0.1 -0.1)">
       <use xlink:href="#SimSun-53"/>
       <use x="50" xlink:href="#SimSun-48"/>
      </g>
     </g>
    </g>
    <g id="text_7">
     <!-- 预测时刻 -->
     <defs>
      <path d="M 7.421875 75.390625 
L 34.765625 75.390625 
L 37.890625 79.296875 
L 44.140625 73.046875 
Q 40.625 72.265625 37.296875 68.9375 
Q 33.984375 65.625 28.125 58.59375 
Q 32.03125 55.859375 31.828125 53.125 
Q 31.640625 50.390625 30.265625 49.21875 
Q 28.90625 48.046875 28.515625 48.046875 
Q 26.953125 48.046875 25.78125 51.5625 
Q 23.828125 56.25 16.40625 64.0625 
L 17.1875 64.84375 
Q 23.046875 62.109375 26.5625 59.765625 
L 34.765625 73.046875 
L 20.3125 73.046875 
Q 15.234375 73.046875 10.9375 71.875 
z
M 11.328125 1.5625 
Q 18.359375 0.78125 21.28125 0.578125 
Q 24.21875 0.390625 24.21875 4.296875 
L 24.21875 44.921875 
L 17.578125 44.921875 
Q 12.5 44.921875 8.203125 43.75 
L 4.6875 47.265625 
L 39.453125 47.265625 
L 42.578125 51.171875 
L 49.21875 44.921875 
Q 43.75 44.140625 35.546875 32.421875 
L 34.375 33.203125 
L 39.84375 44.921875 
L 29.296875 44.921875 
L 29.296875 2.34375 
Q 29.296875 -6.25 21.09375 -7.8125 
Q 20.703125 -2.734375 11.328125 0 
z
M 50.78125 12.109375 
Q 51.171875 22.265625 51.171875 35.734375 
Q 51.171875 49.21875 50.78125 60.9375 
L 56.25 57.8125 
L 63.28125 57.8125 
Q 65.234375 68.75 65.625 73.046875 
L 57.03125 73.046875 
Q 51.953125 73.046875 47.65625 71.875 
L 44.140625 75.390625 
L 83.203125 75.390625 
L 88.671875 80.46875 
L 95.703125 73.046875 
L 73.046875 73.046875 
Q 70.3125 69.140625 65.234375 57.8125 
L 82.8125 57.8125 
L 85.546875 62.109375 
L 91.796875 57.421875 
L 88.671875 54.296875 
L 88.671875 30.46875 
Q 88.671875 23.828125 89.0625 16.796875 
L 83.59375 13.671875 
L 83.59375 55.46875 
L 56.25 55.46875 
L 56.25 15.625 
z
M 75.78125 44.921875 
L 72.265625 41.796875 
Q 72.265625 23.046875 69.921875 14.640625 
Q 67.578125 6.25 60.9375 0.78125 
Q 54.296875 -4.6875 37.890625 -9.765625 
L 37.5 -8.59375 
Q 54.6875 -0.78125 59.953125 6.25 
Q 65.234375 13.28125 66.203125 24.796875 
Q 67.1875 36.328125 66.796875 49.609375 
z
M 72.65625 14.84375 
Q 89.453125 5.859375 91.796875 3.3125 
Q 94.140625 0.78125 94.140625 -1.953125 
Q 94.140625 -3.515625 93.15625 -6.046875 
Q 92.1875 -8.59375 91.40625 -8.59375 
Q 90.625 -8.59375 89.84375 -7.03125 
Q 87.890625 -3.90625 84.953125 0 
Q 82.03125 3.90625 71.875 13.671875 
z
" id="SimSun-39044"/>
      <path d="M 30.859375 15.625 
Q 31.25 23.046875 31.25 45.703125 
Q 31.25 68.359375 30.859375 78.125 
L 36.71875 74.609375 
L 55.859375 74.609375 
L 58.984375 77.734375 
L 64.0625 72.65625 
L 60.9375 70.3125 
L 60.9375 36.71875 
Q 60.9375 28.90625 61.328125 21.09375 
L 56.25 18.75 
L 56.25 72.265625 
L 36.328125 72.265625 
L 36.328125 17.96875 
z
M 43.359375 62.109375 
L 51.5625 57.8125 
L 48.828125 55.078125 
Q 49.21875 28.515625 44.921875 14.640625 
Q 40.625 0.78125 21.484375 -9.375 
L 20.703125 -7.8125 
Q 34.375 1.5625 38.671875 11.328125 
Q 42.96875 21.09375 43.359375 34.171875 
Q 43.75 47.265625 43.359375 62.109375 
z
M 48.4375 14.84375 
Q 59.765625 7.03125 61.515625 4.09375 
Q 63.28125 1.171875 63.28125 -0.390625 
Q 63.28125 -2.34375 62.109375 -4.09375 
Q 60.9375 -5.859375 60.15625 -5.859375 
Q 58.59375 -5.859375 57.03125 -1.171875 
Q 54.6875 5.859375 47.65625 13.671875 
z
M 69.921875 12.890625 
Q 70.3125 18.75 70.3125 26.5625 
L 70.3125 53.125 
Q 70.3125 61.71875 69.921875 67.1875 
L 78.515625 62.890625 
L 75.390625 59.765625 
L 75.390625 26.5625 
Q 75.390625 20.703125 75.78125 14.84375 
z
M 83.984375 2.34375 
L 83.984375 63.28125 
Q 83.984375 74.21875 83.59375 80.078125 
L 91.796875 76.171875 
L 89.0625 73.4375 
L 89.0625 1.171875 
Q 89.0625 -3.125 87.5 -5.46875 
Q 85.9375 -7.8125 81.25 -9.375 
Q 78.515625 -3.515625 69.53125 -0.78125 
L 69.53125 0.78125 
Q 80.078125 -0.78125 82.03125 -0.578125 
Q 83.984375 -0.390625 83.984375 2.34375 
z
M 28.90625 54.6875 
Q 21.484375 23.828125 20.3125 19.140625 
Q 18.75 14.0625 18.9375 7.03125 
Q 19.140625 0 19.53125 -2.734375 
Q 19.53125 -4.296875 17.578125 -4.296875 
Q 16.015625 -4.296875 13.671875 -3.515625 
Q 11.328125 -2.734375 11.328125 0 
Q 11.328125 1.953125 12.5 5.859375 
Q 13.671875 9.765625 13.671875 12.109375 
Q 13.671875 14.84375 11.90625 16.40625 
Q 10.15625 17.96875 4.296875 19.53125 
L 4.296875 21.09375 
Q 11.328125 20.3125 13.078125 20.5 
Q 14.84375 20.703125 16.984375 24.015625 
Q 19.140625 27.34375 27.34375 55.078125 
z
M 5.859375 58.984375 
Q 16.796875 52.34375 17.375 48.4375 
Q 17.96875 44.53125 16.40625 43.359375 
Q 14.84375 42.1875 14.0625 42.1875 
Q 12.5 42.1875 11.328125 46.484375 
Q 9.375 52.34375 5.078125 57.8125 
z
M 12.5 79.6875 
Q 23.046875 73.828125 24.21875 70.5 
Q 25.390625 67.1875 23.828125 65.421875 
Q 22.265625 63.671875 21.09375 63.671875 
Q 19.921875 63.671875 18.75 67.1875 
Q 16.796875 72.65625 11.71875 78.515625 
z
" id="SimSun-27979"/>
      <path d="M 70.3125 56.25 
Q 70.3125 71.484375 69.921875 81.640625 
L 79.6875 76.5625 
L 75.78125 73.828125 
L 75.78125 56.25 
L 81.640625 56.25 
L 86.71875 61.328125 
L 94.140625 53.90625 
L 75.78125 53.90625 
L 75.78125 1.5625 
Q 75.78125 -5.859375 67.1875 -8.984375 
Q 66.796875 -3.125 54.296875 -0.390625 
L 54.296875 1.5625 
Q 64.84375 0 67.578125 0.390625 
Q 70.3125 0.78125 70.3125 5.078125 
L 70.3125 53.90625 
L 50 53.90625 
Q 44.921875 53.90625 40.625 52.734375 
L 37.109375 56.25 
z
M 44.921875 44.140625 
Q 55.078125 37.109375 56.828125 34.375 
Q 58.59375 31.640625 58.59375 30.078125 
Q 58.59375 28.125 56.828125 25.578125 
Q 55.078125 23.046875 54.296875 23.046875 
Q 53.125 23.046875 51.953125 27.734375 
Q 50 34.765625 43.75 42.96875 
z
M 14.453125 64.84375 
L 14.453125 41.40625 
L 30.46875 41.40625 
L 30.46875 64.84375 
z
M 14.453125 39.0625 
L 14.453125 14.0625 
L 30.46875 14.0625 
L 30.46875 39.0625 
z
M 35.9375 31.25 
Q 35.9375 12.5 36.328125 7.03125 
L 30.46875 3.90625 
L 30.46875 11.71875 
L 14.453125 11.71875 
L 14.453125 3.515625 
L 8.59375 0.390625 
Q 8.984375 12.890625 8.984375 37.890625 
Q 8.984375 62.890625 8.59375 70.3125 
L 14.84375 67.1875 
L 29.6875 67.1875 
L 32.8125 71.09375 
L 39.0625 66.015625 
L 35.9375 63.28125 
z
" id="SimSun-26102"/>
      <path d="M 34.375 56.640625 
Q 23.828125 44.921875 19.140625 41.015625 
L 39.84375 41.40625 
Q 44.140625 48.828125 46.09375 54.296875 
L 54.296875 48.046875 
L 50 46.875 
Q 39.453125 31.25 28.515625 22.65625 
Q 17.578125 14.0625 5.46875 9.375 
L 4.6875 10.546875 
Q 14.0625 15.625 22.84375 23.046875 
Q 31.640625 30.46875 38.28125 39.453125 
Q 32.421875 39.0625 26.75 38.28125 
Q 21.09375 37.5 16.40625 34.765625 
L 12.890625 41.40625 
Q 17.578125 42.578125 22.265625 48.828125 
Q 26.953125 55.078125 29.296875 61.328125 
L 18.359375 61.328125 
Q 13.28125 61.328125 8.984375 60.15625 
L 5.46875 63.671875 
L 50.390625 63.671875 
L 55.46875 68.75 
L 62.890625 61.328125 
L 32.421875 61.328125 
L 37.890625 57.421875 
z
M 55.46875 30.078125 
Q 48.828125 21.875 42.96875 15.625 
Q 56.640625 7.421875 56.828125 3.703125 
Q 57.03125 0 55.65625 -1.75 
Q 54.296875 -3.515625 53.515625 -3.515625 
Q 51.953125 -3.515625 50.78125 0.390625 
Q 48.828125 5.859375 41.40625 14.0625 
Q 27.34375 0 5.078125 -8.203125 
L 4.6875 -6.640625 
Q 23.828125 3.125 34.375 13.671875 
Q 44.921875 24.21875 52.734375 38.28125 
L 60.15625 31.25 
z
M 26.953125 80.46875 
L 28.125 81.25 
Q 38.671875 74.609375 38.671875 71.484375 
Q 38.671875 68.359375 37.109375 66.796875 
Q 35.546875 65.234375 34.765625 65.234375 
Q 33.203125 65.234375 32.421875 69.140625 
Q 31.25 74.609375 26.953125 80.46875 
z
M 73.828125 60.15625 
L 73.828125 26.171875 
Q 73.828125 20.3125 74.21875 15.234375 
L 68.359375 12.5 
Q 68.75 24.609375 68.75 39.84375 
Q 68.75 55.078125 68.359375 66.796875 
L 77.34375 63.28125 
z
M 85.546875 66.015625 
Q 85.546875 75 85.15625 81.25 
L 93.359375 77.734375 
L 90.625 75 
L 90.625 2.34375 
Q 91.015625 -7.03125 82.8125 -10.15625 
Q 82.03125 -3.515625 70.3125 -1.953125 
L 70.3125 0 
Q 78.515625 -0.78125 82.21875 -0.578125 
Q 85.9375 -0.390625 85.546875 5.078125 
z
" id="SimSun-21051"/>
     </defs>
     <g transform="translate(335.2436 407.879575)scale(0.14 -0.14)">
      <use xlink:href="#SimSun-39044"/>
      <use x="100" xlink:href="#SimSun-27979"/>
      <use x="200" xlink:href="#SimSun-26102"/>
      <use x="300" xlink:href="#SimSun-21051"/>
     </g>
    </g>
   </g>
   <g id="matplotlib.axis_2">
    <g id="ytick_1">
     <g id="line2d_7">
      <defs>
       <path d="M 0 0 
L -3.5 0 
" id="me3f28f2e14" style="stroke:#000000;stroke-width:0.8;"/>
      </defs>
      <g>
       <use style="stroke:#000000;stroke-width:0.8;" x="54.3168" xlink:href="#me3f28f2e14" y="369.280369"/>
      </g>
     </g>
     <g id="text_8">
      <!-- 7 -->
      <defs>
       <path d="M 44.140625 65.625 
Q 35.9375 52.34375 31.046875 39.640625 
Q 26.171875 26.953125 26.171875 17.578125 
Q 26.171875 16.015625 26.5625 13.28125 
Q 26.5625 10.15625 26.5625 6.25 
Q 26.5625 3.125 25.578125 1.953125 
Q 24.609375 0.78125 22.265625 0.78125 
Q 20.3125 0.78125 18.9375 2.140625 
Q 17.578125 3.515625 17.578125 7.03125 
Q 17.578125 14.453125 20.890625 25.390625 
Q 24.21875 36.328125 38.671875 62.5 
L 19.140625 62.5 
Q 14.84375 62.5 12.296875 59.765625 
Q 9.765625 57.03125 8.59375 51.5625 
L 6.25 51.953125 
L 8.984375 68.359375 
L 44.140625 68.359375 
z
" id="SimSun-55"/>
      </defs>
      <g transform="translate(42.3168 372.854588)scale(0.1 -0.1)">
       <use xlink:href="#SimSun-55"/>
      </g>
     </g>
    </g>
    <g id="ytick_2">
     <g id="line2d_8">
      <g>
       <use style="stroke:#000000;stroke-width:0.8;" x="54.3168" xlink:href="#me3f28f2e14" y="287.60777"/>
      </g>
     </g>
     <g id="text_9">
      <!-- 8 -->
      <defs>
       <path d="M 9.765625 17.578125 
Q 9.765625 11.328125 13.859375 7.421875 
Q 17.96875 3.515625 24.21875 3.515625 
Q 31.640625 3.515625 34.953125 7.421875 
Q 38.28125 11.328125 38.28125 17.1875 
Q 38.28125 22.265625 33.59375 26.953125 
Q 28.90625 31.640625 19.53125 35.546875 
Q 14.84375 32.421875 12.296875 27.734375 
Q 9.765625 23.046875 9.765625 17.578125 
z
M 44.140625 18.359375 
Q 44.140625 10.9375 38.671875 5.859375 
Q 33.203125 0.78125 24.21875 0.78125 
Q 16.015625 0.78125 10.15625 5.859375 
Q 4.296875 10.9375 4.296875 17.578125 
Q 4.296875 24.21875 7.609375 28.90625 
Q 10.9375 33.59375 17.1875 37.109375 
Q 11.71875 39.84375 8.78125 43.9375 
Q 5.859375 48.046875 5.859375 53.125 
Q 5.859375 59.765625 10.9375 64.453125 
Q 16.015625 69.140625 25 69.140625 
Q 33.203125 69.140625 38.28125 64.453125 
Q 43.359375 59.765625 43.359375 53.125 
Q 43.359375 48.4375 40.421875 44.328125 
Q 37.5 40.234375 31.25 37.109375 
Q 37.890625 33.203125 41.015625 28.515625 
Q 44.140625 23.828125 44.140625 18.359375 
z
M 37.890625 52.734375 
Q 37.890625 58.203125 34.765625 62.296875 
Q 31.640625 66.40625 25 66.40625 
Q 17.578125 66.40625 14.453125 62.5 
Q 11.328125 58.59375 11.328125 54.296875 
Q 11.328125 50 15.8125 45.890625 
Q 20.3125 41.796875 28.515625 38.671875 
Q 33.203125 41.015625 35.546875 44.53125 
Q 37.890625 48.046875 37.890625 52.734375 
z
" id="SimSun-56"/>
      </defs>
      <g transform="translate(42.3168 291.181988)scale(0.1 -0.1)">
       <use xlink:href="#SimSun-56"/>
      </g>
     </g>
    </g>
    <g id="ytick_3">
     <g id="line2d_9">
      <g>
       <use style="stroke:#000000;stroke-width:0.8;" x="54.3168" xlink:href="#me3f28f2e14" y="205.93517"/>
      </g>
     </g>
     <g id="text_10">
      <!-- 9 -->
      <defs>
       <path d="M 10.9375 47.65625 
Q 10.9375 39.0625 14.25 34.5625 
Q 17.578125 30.078125 22.65625 30.078125 
Q 28.515625 30.078125 32.8125 35.546875 
Q 37.109375 41.015625 37.109375 45.703125 
Q 37.109375 55.078125 33.984375 60.734375 
Q 30.859375 66.40625 23.828125 66.40625 
Q 17.1875 66.40625 14.0625 61.125 
Q 10.9375 55.859375 10.9375 47.65625 
z
M 21.484375 26.5625 
Q 13.671875 26.5625 8.984375 31.4375 
Q 4.296875 36.328125 4.296875 47.265625 
Q 4.296875 56.640625 9.375 62.890625 
Q 14.453125 69.140625 23.828125 69.140625 
Q 33.59375 69.140625 39.0625 61.328125 
Q 44.53125 53.515625 44.53125 38.671875 
Q 44.53125 22.265625 38.078125 11.515625 
Q 31.640625 0.78125 20.3125 0.78125 
Q 15.234375 0.78125 11.515625 3.125 
Q 7.8125 5.46875 7.8125 9.375 
Q 7.8125 10.9375 8.78125 12.5 
Q 9.765625 14.0625 12.109375 14.0625 
Q 14.453125 14.0625 15.234375 12.296875 
Q 16.015625 10.546875 16.015625 8.203125 
Q 16.015625 6.640625 16.40625 5.65625 
Q 16.796875 4.6875 17.1875 4.296875 
Q 17.578125 3.90625 18.546875 3.703125 
Q 19.53125 3.515625 20.703125 3.515625 
Q 27.734375 3.515625 32.03125 11.328125 
Q 36.328125 19.140625 37.109375 37.5 
Q 35.15625 32.8125 31.25 29.6875 
Q 27.34375 26.5625 21.484375 26.5625 
z
" id="SimSun-57"/>
      </defs>
      <g transform="translate(42.3168 209.509389)scale(0.1 -0.1)">
       <use xlink:href="#SimSun-57"/>
      </g>
     </g>
    </g>
    <g id="ytick_4">
     <g id="line2d_10">
      <g>
       <use style="stroke:#000000;stroke-width:0.8;" x="54.3168" xlink:href="#me3f28f2e14" y="124.262571"/>
      </g>
     </g>
     <g id="text_11">
      <!-- 10 -->
      <g transform="translate(37.3168 127.83679)scale(0.1 -0.1)">
       <use xlink:href="#SimSun-49"/>
       <use x="50" xlink:href="#SimSun-48"/>
      </g>
     </g>
    </g>
    <g id="ytick_5">
     <g id="line2d_11">
      <g>
       <use style="stroke:#000000;stroke-width:0.8;" x="54.3168" xlink:href="#me3f28f2e14" y="42.589972"/>
      </g>
     </g>
     <g id="text_12">
      <!-- 11 -->
      <g transform="translate(37.3168 46.16419)scale(0.1 -0.1)">
       <use xlink:href="#SimSun-49"/>
       <use x="50" xlink:href="#SimSun-49"/>
      </g>
     </g>
    </g>
    <g id="text_13">
     <!-- 出水TN浓度(mg/L) -->
     <defs>
      <path d="M 80.859375 62.109375 
L 80.859375 46.875 
Q 80.859375 42.96875 81.640625 35.9375 
L 75.390625 33.59375 
L 75.390625 38.28125 
L 52.34375 38.28125 
L 52.34375 0.390625 
L 79.296875 0.390625 
L 79.296875 17.578125 
Q 79.296875 23.046875 78.90625 29.6875 
L 87.890625 24.609375 
L 84.765625 22.265625 
L 84.765625 7.8125 
Q 84.765625 0.78125 85.15625 -6.25 
L 79.296875 -8.203125 
L 79.296875 -1.953125 
L 20.703125 -1.953125 
L 17.96875 -4.6875 
L 12.5 -0.390625 
L 15.234375 2.34375 
L 15.234375 17.578125 
Q 15.234375 23.4375 14.84375 30.46875 
L 23.828125 25.78125 
L 20.703125 23.046875 
L 20.703125 0.390625 
L 46.875 0.390625 
L 46.875 38.28125 
L 24.21875 38.28125 
L 21.09375 35.546875 
L 15.625 39.84375 
L 18.359375 42.1875 
L 18.359375 58.203125 
Q 18.359375 62.890625 17.96875 68.359375 
L 27.34375 63.671875 
L 23.828125 61.328125 
L 23.828125 40.625 
L 46.875 40.625 
L 46.875 66.40625 
Q 46.875 73.4375 46.484375 80.078125 
L 55.46875 75.78125 
L 52.34375 72.265625 
L 52.34375 40.625 
L 75.390625 40.625 
L 75.390625 58.203125 
Q 75.390625 62.890625 75 69.140625 
L 83.984375 64.84375 
z
" id="SimSun-20986"/>
      <path d="M 46.09375 81.25 
L 56.25 76.953125 
L 52.34375 73.828125 
Q 51.953125 64.84375 53.90625 58.59375 
Q 55.859375 52.34375 60.15625 43.359375 
Q 75.390625 55.859375 80.859375 64.84375 
L 87.5 57.8125 
Q 83.59375 57.421875 77.734375 53.125 
Q 71.484375 48.828125 60.9375 41.40625 
Q 76.171875 12.109375 95.3125 5.859375 
L 95.3125 4.296875 
Q 87.890625 3.90625 86.328125 -0.390625 
Q 62.5 17.1875 52.34375 56.640625 
L 52.34375 1.953125 
Q 52.734375 -7.8125 42.96875 -10.15625 
Q 43.359375 -4.6875 30.859375 -1.5625 
L 30.859375 0 
Q 39.84375 -0.78125 43.15625 -0.78125 
Q 46.484375 -0.78125 46.484375 3.90625 
L 46.484375 66.796875 
Q 46.484375 74.21875 46.09375 81.25 
z
M 5.859375 -2.34375 
L 5.078125 -1.171875 
Q 24.609375 18.359375 32.03125 48.828125 
L 19.921875 48.828125 
Q 14.84375 48.828125 10.546875 47.65625 
L 7.03125 51.171875 
L 31.640625 51.171875 
L 35.15625 55.859375 
L 42.1875 49.609375 
L 38.28125 47.65625 
Q 28.515625 12.890625 5.859375 -2.34375 
z
" id="SimSun-27700"/>
      <path d="M 34.765625 1.5625 
L 14.453125 1.5625 
L 14.453125 3.90625 
L 17.96875 3.90625 
Q 19.921875 3.90625 20.703125 4.6875 
Q 21.484375 5.46875 21.484375 7.03125 
L 21.484375 61.71875 
Q 21.484375 64.84375 21.09375 65.234375 
Q 20.703125 65.625 17.96875 65.625 
Q 12.5 65.625 10.34375 63.671875 
Q 8.203125 61.71875 5.078125 53.125 
L 2.734375 53.515625 
L 6.25 68.359375 
L 43.359375 68.359375 
L 46.484375 53.515625 
L 44.53125 53.125 
Q 41.40625 61.328125 39.640625 63.46875 
Q 37.890625 65.625 32.421875 65.625 
Q 28.515625 65.625 28.125 65.234375 
Q 27.734375 64.84375 27.734375 61.328125 
L 27.734375 7.03125 
Q 27.734375 5.46875 28.703125 4.6875 
Q 29.6875 3.90625 31.25 3.90625 
L 34.765625 3.90625 
z
" id="SimSun-84"/>
      <path d="M 39.453125 17.1875 
L 40.234375 17.1875 
L 40.234375 62.890625 
Q 40.234375 64.453125 39.453125 65.234375 
Q 38.671875 66.015625 36.71875 66.015625 
L 33.59375 66.015625 
L 33.59375 68.359375 
L 49.21875 68.359375 
L 49.21875 66.015625 
L 46.09375 66.015625 
Q 44.53125 66.015625 43.546875 65.234375 
Q 42.578125 64.453125 42.578125 62.890625 
L 42.578125 1.5625 
L 40.234375 1.5625 
L 10.546875 59.765625 
L 9.765625 59.765625 
L 9.765625 7.03125 
Q 9.765625 5.46875 10.734375 4.6875 
Q 11.71875 3.90625 13.28125 3.90625 
L 16.40625 3.90625 
L 16.40625 1.5625 
L 0.78125 1.5625 
L 0.78125 3.90625 
L 3.90625 3.90625 
Q 5.859375 3.90625 6.640625 4.6875 
Q 7.421875 5.46875 7.421875 7.03125 
L 7.421875 62.890625 
Q 7.421875 64.453125 6.640625 65.234375 
Q 5.859375 66.015625 3.90625 66.015625 
L 1.5625 66.015625 
L 1.5625 68.359375 
L 12.890625 68.359375 
z
" id="SimSun-78"/>
      <path d="M 76.5625 50 
L 82.03125 60.546875 
L 58.59375 60.546875 
Q 57.8125 58.203125 57.03125 55.859375 
Q 61.328125 38.28125 67.1875 30.078125 
Q 78.90625 40.625 82.03125 46.484375 
L 88.28125 39.453125 
Q 82.421875 38.28125 77.53125 34.765625 
Q 72.65625 31.25 68.359375 28.125 
Q 79.296875 11.71875 95.3125 5.46875 
L 95.3125 3.90625 
Q 88.28125 4.296875 85.9375 -0.390625 
Q 60.9375 19.53125 55.859375 52.734375 
Q 51.953125 43.75 48.046875 37.109375 
L 52.734375 34.765625 
L 50.390625 32.421875 
L 50.390625 1.5625 
L 65.234375 9.375 
L 66.015625 7.8125 
Q 52.34375 -1.5625 48.4375 -7.8125 
L 43.359375 -1.953125 
Q 45.3125 -0.78125 44.921875 6.640625 
L 44.921875 31.25 
Q 34.375 18.359375 23.046875 9.765625 
L 22.265625 10.9375 
Q 44.53125 33.59375 53.125 60.546875 
L 40.234375 60.546875 
Q 40.625 54.296875 38.671875 52.140625 
Q 36.71875 50 34.171875 50.390625 
Q 31.640625 50.78125 31.640625 51.953125 
Q 31.640625 53.125 33.59375 55.46875 
Q 37.109375 59.375 38.671875 67.1875 
L 40.234375 67.1875 
L 40.234375 62.890625 
L 53.515625 62.890625 
Q 54.6875 67.578125 55.46875 72.453125 
Q 56.25 77.34375 56.640625 81.640625 
L 65.234375 77.34375 
L 62.109375 75 
Q 60.546875 68.359375 58.984375 62.890625 
L 81.25 62.890625 
L 85.15625 67.1875 
L 92.1875 59.375 
Q 85.9375 59.375 77.734375 49.21875 
z
M 30.859375 60.9375 
Q 21.09375 21.875 20.109375 16.984375 
Q 19.140625 12.109375 19.140625 5.078125 
Q 19.140625 -1.953125 19.140625 -4.484375 
Q 19.140625 -7.03125 17.578125 -7.03125 
Q 16.40625 -7.03125 13.859375 -5.859375 
Q 11.328125 -4.6875 11.328125 -1.5625 
Q 11.328125 1.171875 12.109375 3.90625 
Q 13.28125 7.8125 13.28125 10.546875 
Q 13.28125 12.890625 11.71875 14.453125 
Q 10.15625 16.015625 4.296875 17.578125 
L 4.296875 19.140625 
Q 11.328125 18.359375 12.6875 18.75 
Q 14.0625 19.140625 16.203125 22.65625 
Q 18.359375 26.171875 29.296875 61.328125 
z
M 4.6875 54.6875 
Q 17.578125 49.21875 17.765625 45.3125 
Q 17.96875 41.40625 16.40625 39.640625 
Q 14.84375 37.890625 14.453125 37.890625 
Q 13.28125 37.890625 12.109375 41.796875 
Q 10.15625 46.875 3.90625 53.515625 
z
M 13.671875 77.34375 
Q 24.21875 72.65625 25.390625 70.703125 
Q 26.5625 68.75 26.5625 67.1875 
Q 26.5625 65.234375 25 62.890625 
Q 23.4375 60.546875 22.65625 60.546875 
Q 21.09375 60.546875 19.921875 64.453125 
Q 17.96875 70.703125 12.890625 76.171875 
z
" id="SimSun-27987"/>
      <path d="M 39.84375 31.640625 
Q 40.234375 39.453125 40.234375 49.609375 
L 30.078125 49.609375 
L 25.390625 48.828125 
L 22.265625 51.953125 
L 40.234375 51.953125 
Q 40.234375 57.8125 39.84375 64.84375 
L 48.4375 60.546875 
L 45.3125 58.59375 
L 45.3125 51.953125 
L 67.1875 51.953125 
Q 67.1875 58.59375 66.796875 64.453125 
L 75.78125 60.546875 
L 72.265625 58.203125 
L 72.265625 51.953125 
L 79.6875 51.953125 
L 84.765625 57.03125 
L 92.1875 49.609375 
L 72.265625 49.609375 
Q 72.265625 38.28125 72.65625 34.765625 
L 67.1875 32.421875 
L 67.1875 35.9375 
L 45.3125 35.9375 
L 45.3125 33.984375 
z
M 76.171875 23.4375 
Q 67.1875 12.109375 60.9375 6.640625 
Q 73.4375 -1.171875 94.140625 -1.953125 
L 94.140625 -3.515625 
Q 87.890625 -4.6875 86.71875 -8.59375 
Q 68.359375 -5.078125 57.421875 3.515625 
Q 38.671875 -7.03125 16.796875 -9.765625 
L 16.40625 -8.203125 
Q 37.109375 -4.296875 53.90625 7.03125 
Q 46.484375 14.453125 40.234375 25.390625 
L 36.328125 25.390625 
L 32.8125 24.609375 
L 29.6875 27.734375 
L 70.703125 27.734375 
L 74.21875 31.25 
L 80.078125 25.390625 
z
M 42.1875 25.390625 
Q 49.609375 15.234375 57.03125 9.765625 
Q 64.84375 17.1875 70.3125 25.390625 
z
M 45.3125 49.609375 
L 45.3125 38.28125 
L 67.1875 38.28125 
L 67.1875 49.609375 
z
M 15.234375 72.65625 
L 21.875 68.75 
L 52.734375 68.75 
Q 52.34375 71.09375 50.96875 73.828125 
Q 49.609375 76.5625 45.3125 81.640625 
L 46.484375 82.421875 
Q 55.46875 78.515625 56.828125 76.359375 
Q 58.203125 74.21875 58.203125 73.828125 
Q 58.203125 71.484375 55.078125 68.75 
L 80.46875 68.75 
L 85.9375 74.21875 
L 93.75 66.40625 
L 21.484375 66.40625 
Q 21.875 42.96875 20.109375 29.875 
Q 18.359375 16.796875 14.453125 7.421875 
Q 10.546875 -1.953125 4.6875 -9.765625 
L 3.515625 -8.984375 
Q 11.328125 4.6875 13.46875 19.53125 
Q 15.625 34.375 15.8125 49.796875 
Q 16.015625 65.234375 15.234375 72.65625 
z
" id="SimSun-24230"/>
      <path d="M 45.3125 78.515625 
Q 36.328125 69.140625 31.828125 58.390625 
Q 27.34375 47.65625 27.34375 35.9375 
Q 27.34375 23.828125 31.828125 13.28125 
Q 36.328125 2.734375 45.3125 -6.640625 
L 43.359375 -8.59375 
Q 32.421875 1.171875 26.953125 12.296875 
Q 21.484375 23.4375 21.484375 35.9375 
Q 21.484375 48.046875 26.953125 59.171875 
Q 32.421875 70.3125 43.359375 80.46875 
z
" id="SimSun-40"/>
      <path d="M 2.734375 45.3125 
Q 4.6875 45.3125 6.640625 45.703125 
Q 8.59375 46.09375 9.765625 46.875 
L 10.546875 46.875 
L 10.546875 40.234375 
Q 12.5 43.359375 14.84375 44.71875 
Q 17.1875 46.09375 19.921875 46.09375 
Q 23.4375 46.09375 25.390625 44.71875 
Q 27.34375 43.359375 27.734375 40.234375 
Q 29.6875 43.359375 32.21875 44.71875 
Q 34.765625 46.09375 37.5 46.09375 
Q 42.1875 46.09375 43.9375 43.359375 
Q 45.703125 40.625 45.703125 36.328125 
L 45.703125 6.640625 
Q 45.703125 5.078125 46.484375 4.484375 
Q 47.265625 3.90625 48.828125 3.90625 
L 49.609375 3.90625 
L 49.609375 1.5625 
L 36.328125 1.5625 
L 36.328125 3.90625 
L 37.109375 3.90625 
Q 38.671875 3.90625 39.453125 4.484375 
Q 40.234375 5.078125 40.234375 6.640625 
L 40.234375 35.9375 
Q 40.234375 40.234375 39.25 41.59375 
Q 38.28125 42.96875 36.328125 42.96875 
Q 33.59375 42.96875 31.4375 41.015625 
Q 29.296875 39.0625 28.125 35.546875 
L 28.125 6.640625 
Q 28.125 5.078125 28.90625 4.484375 
Q 29.6875 3.90625 31.25 3.90625 
L 32.03125 3.90625 
L 32.03125 1.5625 
L 18.75 1.5625 
L 18.75 3.90625 
L 19.53125 3.90625 
Q 21.09375 3.90625 21.875 4.484375 
Q 22.65625 5.078125 22.65625 6.640625 
L 22.65625 35.9375 
Q 22.65625 39.453125 21.875 41.203125 
Q 21.09375 42.96875 18.75 42.96875 
Q 16.015625 42.96875 13.859375 41.015625 
Q 11.71875 39.0625 10.546875 35.15625 
L 10.546875 6.640625 
Q 10.546875 5.078125 11.328125 4.484375 
Q 12.109375 3.90625 13.671875 3.90625 
L 14.453125 3.90625 
L 14.453125 1.5625 
L 1.171875 1.5625 
L 1.171875 3.90625 
L 1.953125 3.90625 
Q 3.515625 3.90625 4.296875 4.484375 
Q 5.078125 5.078125 5.078125 6.640625 
L 5.078125 40.625 
Q 5.078125 41.796875 4.6875 42.375 
Q 4.296875 42.96875 3.125 42.96875 
L 1.5625 42.96875 
L 1.5625 45.3125 
z
" id="SimSun-109"/>
      <path d="M 13.671875 30.859375 
Q 13.671875 26.171875 16.40625 22.84375 
Q 19.140625 19.53125 23.828125 19.53125 
Q 28.90625 19.53125 31.4375 22.453125 
Q 33.984375 25.390625 33.984375 30.859375 
Q 33.984375 37.5 31.046875 40.421875 
Q 28.125 43.359375 23.828125 43.359375 
Q 19.53125 43.359375 16.59375 40.421875 
Q 13.671875 37.5 13.671875 30.859375 
z
M 32.8125 9.765625 
Q 38.671875 8.984375 41.40625 6.4375 
Q 44.140625 3.90625 44.140625 -0.390625 
Q 44.140625 -6.25 39.25 -9.765625 
Q 34.375 -13.28125 23.828125 -13.28125 
Q 15.625 -13.28125 10.546875 -9.953125 
Q 5.46875 -6.640625 5.46875 -2.34375 
Q 5.46875 0.390625 7.421875 3.125 
Q 9.375 5.859375 13.671875 7.421875 
Q 11.328125 8.59375 9.953125 9.953125 
Q 8.59375 11.328125 8.59375 13.28125 
Q 8.59375 15.625 10.15625 17.375 
Q 11.71875 19.140625 14.0625 20.3125 
Q 11.71875 22.265625 9.953125 25 
Q 8.203125 27.734375 8.203125 30.859375 
Q 8.203125 36.71875 12.296875 41.203125 
Q 16.40625 45.703125 23.828125 45.703125 
Q 26.953125 45.703125 29.875 44.921875 
Q 32.8125 44.140625 34.765625 42.1875 
Q 37.5 44.140625 39.640625 45.109375 
Q 41.796875 46.09375 43.359375 46.09375 
Q 45.3125 46.09375 46.09375 44.71875 
Q 46.875 43.359375 46.875 42.1875 
Q 46.875 40.625 46.28125 39.640625 
Q 45.703125 38.671875 44.140625 38.671875 
Q 42.96875 38.671875 42.1875 39.25 
Q 41.40625 39.84375 41.015625 41.015625 
Q 40.625 42.1875 39.25 41.984375 
Q 37.890625 41.796875 36.328125 40.625 
Q 37.890625 39.0625 38.671875 36.328125 
Q 39.453125 33.59375 39.453125 30.859375 
Q 39.453125 26.171875 35.734375 21.671875 
Q 32.03125 17.1875 23.828125 17.1875 
Q 21.484375 17.1875 19.53125 17.765625 
Q 17.578125 18.359375 16.40625 19.140625 
Q 14.84375 18.359375 14.0625 17.1875 
Q 13.28125 16.015625 13.28125 15.234375 
Q 13.28125 13.671875 14.0625 12.890625 
Q 14.84375 12.109375 16.40625 12.109375 
Q 21.484375 11.328125 25.578125 10.734375 
Q 29.6875 10.15625 32.8125 9.765625 
z
M 16.796875 6.640625 
Q 13.28125 5.078125 11.90625 2.921875 
Q 10.546875 0.78125 10.546875 -2.34375 
Q 10.546875 -5.46875 14.0625 -8.203125 
Q 17.578125 -10.9375 24.609375 -10.9375 
Q 31.25 -10.9375 35.15625 -8.78125 
Q 39.0625 -6.640625 39.0625 -2.34375 
Q 39.0625 0.390625 38.078125 1.953125 
Q 37.109375 3.515625 35.15625 3.90625 
Q 31.25 4.6875 26.5625 5.46875 
Q 21.875 5.859375 16.796875 6.640625 
z
" id="SimSun-103"/>
      <path d="M 6.25 -7.421875 
L 3.515625 -5.859375 
L 43.359375 77.734375 
L 46.09375 76.171875 
z
" id="SimSun-47"/>
      <path d="M 15.625 7.03125 
Q 15.625 5.46875 16.59375 4.6875 
Q 17.578125 3.90625 19.140625 3.90625 
L 29.6875 3.90625 
Q 35.15625 3.90625 39.0625 7.21875 
Q 42.96875 10.546875 44.921875 17.578125 
L 46.875 16.796875 
L 43.359375 1.5625 
L 3.125 1.5625 
L 3.125 3.90625 
L 5.859375 3.90625 
Q 7.8125 3.90625 8.59375 4.6875 
Q 9.375 5.46875 9.375 7.03125 
L 9.375 62.890625 
Q 9.375 64.453125 8.59375 65.234375 
Q 7.8125 66.015625 5.859375 66.015625 
L 3.515625 66.015625 
L 3.515625 68.359375 
L 21.875 68.359375 
L 21.875 66.015625 
L 19.140625 66.015625 
Q 17.578125 66.015625 16.59375 65.234375 
Q 15.625 64.453125 15.625 62.890625 
z
" id="SimSun-76"/>
      <path d="M 4.296875 78.515625 
L 6.25 80.46875 
Q 17.1875 70.3125 22.65625 59.171875 
Q 28.125 48.046875 28.125 35.9375 
Q 28.125 23.4375 22.65625 12.296875 
Q 17.1875 1.171875 6.25 -8.59375 
L 4.296875 -6.640625 
Q 13.28125 2.734375 17.765625 13.28125 
Q 22.265625 23.828125 22.265625 35.9375 
Q 22.265625 47.65625 17.765625 58.390625 
Q 13.28125 69.140625 4.296875 78.515625 
z
" id="SimSun-41"/>
     </defs>
     <g transform="translate(31.457425 246.7712)rotate(-90)scale(0.14 -0.14)">
      <use xlink:href="#SimSun-20986"/>
      <use x="100" xlink:href="#SimSun-27700"/>
      <use x="200" xlink:href="#SimSun-84"/>
      <use x="250" xlink:href="#SimSun-78"/>
      <use x="300" xlink:href="#SimSun-27987"/>
      <use x="400" xlink:href="#SimSun-24230"/>
      <use x="500" xlink:href="#SimSun-40"/>
      <use x="550" xlink:href="#SimSun-109"/>
      <use x="600" xlink:href="#SimSun-103"/>
      <use x="650" xlink:href="#SimSun-47"/>
      <use x="700" xlink:href="#SimSun-76"/>
      <use x="750" xlink:href="#SimSun-41"/>
     </g>
    </g>
   </g>
   <g id="line2d_12">
    <path clip-path="url(#pdfefe0fa9a)" d="M 82.401055 330.812265 
L 93.864016 281.78954 
L 105.326977 157.037933 
L 116.789938 70.711344 
L 128.252899 79.962911 
L 139.71586 94.536571 
L 151.178821 112.318042 
L 162.641782 120.847533 
L 174.104743 150.701542 
L 185.567704 152.55143 
L 197.030665 202.664671 
L 208.493626 300.371767 
L 219.956587 347.789964 
L 231.419548 240.518258 
L 242.882509 98.094537 
L 254.34547 52.791178 
L 265.808431 72.282378 
L 277.271392 120.158816 
L 288.734353 132.145693 
L 300.197314 142.71776 
L 311.660275 169.204531 
L 323.123236 186.781255 
L 334.586197 207.712505 
L 346.049158 287.016826 
L 357.512119 360.429382 
L 368.975081 335.552408 
L 380.438042 255.147356 
L 391.901003 195.899298 
L 403.363964 209.416784 
L 414.826925 247.931587 
L 426.289886 270.635879 
L 437.752847 274.760504 
L 449.215808 270.108978 
L 460.678769 275.827381 
L 472.14173 263.376115 
L 483.604691 280.47193 
L 495.067652 333.681998 
L 506.530613 315.901101 
L 517.993574 264.084215 
L 529.456535 179.275889 
L 540.919496 102.733084 
L 552.382457 139.017966 
L 563.845418 162.471044 
L 575.308379 175.579408 
L 586.77134 208.429366 
L 598.234301 206.196908 
L 609.697262 225.41131 
L 621.160223 292.961929 
L 632.623184 339.86314 
L 644.086145 315.616987 
" style="fill:none;stroke:#1e90ff;stroke-linecap:square;stroke-width:1.6;"/>
    <defs>
     <path d="M 0 3 
C 0.795609 3 1.55874 2.683901 2.12132 2.12132 
C 2.683901 1.55874 3 0.795609 3 0 
C 3 -0.795609 2.683901 -1.55874 2.12132 -2.12132 
C 1.55874 -2.683901 0.795609 -3 0 -3 
C -0.795609 -3 -1.55874 -2.683901 -2.12132 -2.12132 
C -2.683901 -1.55874 -3 -0.795609 -3 0 
C -3 0.795609 -2.683901 1.55874 -2.12132 2.12132 
C -1.55874 2.683901 -0.795609 3 0 3 
z
" id="m4dd74df18b" style="stroke:#1e90ff;"/>
    </defs>
    <g clip-path="url(#pdfefe0fa9a)">
     <use style="fill:#1e90ff;stroke:#1e90ff;" x="82.401055" xlink:href="#m4dd74df18b" y="330.812265"/>
     <use style="fill:#1e90ff;stroke:#1e90ff;" x="93.864016" xlink:href="#m4dd74df18b" y="281.78954"/>
     <use style="fill:#1e90ff;stroke:#1e90ff;" x="105.326977" xlink:href="#m4dd74df18b" y="157.037933"/>
     <use style="fill:#1e90ff;stroke:#1e90ff;" x="116.789938" xlink:href="#m4dd74df18b" y="70.711344"/>
     <use style="fill:#1e90ff;stroke:#1e90ff;" x="128.252899" xlink:href="#m4dd74df18b" y="79.962911"/>
     <use style="fill:#1e90ff;stroke:#1e90ff;" x="139.71586" xlink:href="#m4dd74df18b" y="94.536571"/>
     <use style="fill:#1e90ff;stroke:#1e90ff;" x="151.178821" xlink:href="#m4dd74df18b" y="112.318042"/>
     <use style="fill:#1e90ff;stroke:#1e90ff;" x="162.641782" xlink:href="#m4dd74df18b" y="120.847533"/>
     <use style="fill:#1e90ff;stroke:#1e90ff;" x="174.104743" xlink:href="#m4dd74df18b" y="150.701542"/>
     <use style="fill:#1e90ff;stroke:#1e90ff;" x="185.567704" xlink:href="#m4dd74df18b" y="152.55143"/>
     <use style="fill:#1e90ff;stroke:#1e90ff;" x="197.030665" xlink:href="#m4dd74df18b" y="202.664671"/>
     <use style="fill:#1e90ff;stroke:#1e90ff;" x="208.493626" xlink:href="#m4dd74df18b" y="300.371767"/>
     <use style="fill:#1e90ff;stroke:#1e90ff;" x="219.956587" xlink:href="#m4dd74df18b" y="347.789964"/>
     <use style="fill:#1e90ff;stroke:#1e90ff;" x="231.419548" xlink:href="#m4dd74df18b" y="240.518258"/>
     <use style="fill:#1e90ff;stroke:#1e90ff;" x="242.882509" xlink:href="#m4dd74df18b" y="98.094537"/>
     <use style="fill:#1e90ff;stroke:#1e90ff;" x="254.34547" xlink:href="#m4dd74df18b" y="52.791178"/>
     <use style="fill:#1e90ff;stroke:#1e90ff;" x="265.808431" xlink:href="#m4dd74df18b" y="72.282378"/>
     <use style="fill:#1e90ff;stroke:#1e90ff;" x="277.271392" xlink:href="#m4dd74df18b" y="120.158816"/>
     <use style="fill:#1e90ff;stroke:#1e90ff;" x="288.734353" xlink:href="#m4dd74df18b" y="132.145693"/>
     <use style="fill:#1e90ff;stroke:#1e90ff;" x="300.197314" xlink:href="#m4dd74df18b" y="142.71776"/>
     <use style="fill:#1e90ff;stroke:#1e90ff;" x="311.660275" xlink:href="#m4dd74df18b" y="169.204531"/>
     <use style="fill:#1e90ff;stroke:#1e90ff;" x="323.123236" xlink:href="#m4dd74df18b" y="186.781255"/>
     <use style="fill:#1e90ff;stroke:#1e90ff;" x="334.586197" xlink:href="#m4dd74df18b" y="207.712505"/>
     <use style="fill:#1e90ff;stroke:#1e90ff;" x="346.049158" xlink:href="#m4dd74df18b" y="287.016826"/>
     <use style="fill:#1e90ff;stroke:#1e90ff;" x="357.512119" xlink:href="#m4dd74df18b" y="360.429382"/>
     <use style="fill:#1e90ff;stroke:#1e90ff;" x="368.975081" xlink:href="#m4dd74df18b" y="335.552408"/>
     <use style="fill:#1e90ff;stroke:#1e90ff;" x="380.438042" xlink:href="#m4dd74df18b" y="255.147356"/>
     <use style="fill:#1e90ff;stroke:#1e90ff;" x="391.901003" xlink:href="#m4dd74df18b" y="195.899298"/>
     <use style="fill:#1e90ff;stroke:#1e90ff;" x="403.363964" xlink:href="#m4dd74df18b" y="209.416784"/>
     <use style="fill:#1e90ff;stroke:#1e90ff;" x="414.826925" xlink:href="#m4dd74df18b" y="247.931587"/>
     <use style="fill:#1e90ff;stroke:#1e90ff;" x="426.289886" xlink:href="#m4dd74df18b" y="270.635879"/>
     <use style="fill:#1e90ff;stroke:#1e90ff;" x="437.752847" xlink:href="#m4dd74df18b" y="274.760504"/>
     <use style="fill:#1e90ff;stroke:#1e90ff;" x="449.215808" xlink:href="#m4dd74df18b" y="270.108978"/>
     <use style="fill:#1e90ff;stroke:#1e90ff;" x="460.678769" xlink:href="#m4dd74df18b" y="275.827381"/>
     <use style="fill:#1e90ff;stroke:#1e90ff;" x="472.14173" xlink:href="#m4dd74df18b" y="263.376115"/>
     <use style="fill:#1e90ff;stroke:#1e90ff;" x="483.604691" xlink:href="#m4dd74df18b" y="280.47193"/>
     <use style="fill:#1e90ff;stroke:#1e90ff;" x="495.067652" xlink:href="#m4dd74df18b" y="333.681998"/>
     <use style="fill:#1e90ff;stroke:#1e90ff;" x="506.530613" xlink:href="#m4dd74df18b" y="315.901101"/>
     <use style="fill:#1e90ff;stroke:#1e90ff;" x="517.993574" xlink:href="#m4dd74df18b" y="264.084215"/>
     <use style="fill:#1e90ff;stroke:#1e90ff;" x="529.456535" xlink:href="#m4dd74df18b" y="179.275889"/>
     <use style="fill:#1e90ff;stroke:#1e90ff;" x="540.919496" xlink:href="#m4dd74df18b" y="102.733084"/>
     <use style="fill:#1e90ff;stroke:#1e90ff;" x="552.382457" xlink:href="#m4dd74df18b" y="139.017966"/>
     <use style="fill:#1e90ff;stroke:#1e90ff;" x="563.845418" xlink:href="#m4dd74df18b" y="162.471044"/>
     <use style="fill:#1e90ff;stroke:#1e90ff;" x="575.308379" xlink:href="#m4dd74df18b" y="175.579408"/>
     <use style="fill:#1e90ff;stroke:#1e90ff;" x="586.77134" xlink:href="#m4dd74df18b" y="208.429366"/>
     <use style="fill:#1e90ff;stroke:#1e90ff;" x="598.234301" xlink:href="#m4dd74df18b" y="206.196908"/>
     <use style="fill:#1e90ff;stroke:#1e90ff;" x="609.697262" xlink:href="#m4dd74df18b" y="225.41131"/>
     <use style="fill:#1e90ff;stroke:#1e90ff;" x="621.160223" xlink:href="#m4dd74df18b" y="292.961929"/>
     <use style="fill:#1e90ff;stroke:#1e90ff;" x="632.623184" xlink:href="#m4dd74df18b" y="339.86314"/>
     <use style="fill:#1e90ff;stroke:#1e90ff;" x="644.086145" xlink:href="#m4dd74df18b" y="315.616987"/>
    </g>
   </g>
   <g id="line2d_13">
    <path clip-path="url(#pdfefe0fa9a)" d="M 82.401055 326.513043 
L 93.864016 274.815799 
L 105.326977 170.364466 
L 116.789938 62.355394 
L 128.252899 61.376548 
L 139.71586 114.403463 
L 151.178821 121.630753 
L 162.641782 126.401985 
L 174.104743 132.210213 
L 185.567704 155.256016 
L 197.030665 187.379074 
L 208.493626 277.365617 
L 219.956587 316.020115 
L 231.419548 242.861313 
L 242.882509 118.118341 
L 254.34547 33.38547 
L 265.808431 43.740167 
L 277.271392 109.121533 
L 288.734353 129.264446 
L 300.197314 126.239946 
L 311.660275 130.555771 
L 323.123236 153.77472 
L 334.586197 204.169245 
L 346.049158 297.80688 
L 357.512119 348.428374 
L 368.975081 319.99459 
L 380.438042 255.829615 
L 391.901003 170.406609 
L 403.363964 178.772987 
L 414.826925 240.149211 
L 426.289886 281.604588 
L 437.752847 275.800566 
L 449.215808 256.423864 
L 460.678769 240.239785 
L 472.14173 231.053496 
L 483.604691 262.306252 
L 495.067652 328.958525 
L 506.530613 331.666184 
L 517.993574 271.963547 
L 529.456535 168.380721 
L 540.919496 91.673734 
L 552.382457 110.54721 
L 563.845418 142.669533 
L 575.308379 158.074945 
L 586.77134 171.050598 
L 598.234301 182.951194 
L 609.697262 207.993401 
L 621.160223 273.30212 
L 632.623184 339.931484 
L 644.086145 314.638819 
" style="fill:none;stroke:#ff0000;stroke-linecap:square;stroke-width:1.6;"/>
    <defs>
     <path d="M 0 -3 
L -3 3 
L 3 3 
z
" id="m7ddfe96298" style="stroke:#ff0000;stroke-linejoin:miter;"/>
    </defs>
    <g clip-path="url(#pdfefe0fa9a)">
     <use style="fill:#ff0000;stroke:#ff0000;stroke-linejoin:miter;" x="82.401055" xlink:href="#m7ddfe96298" y="326.513043"/>
     <use style="fill:#ff0000;stroke:#ff0000;stroke-linejoin:miter;" x="93.864016" xlink:href="#m7ddfe96298" y="274.815799"/>
     <use style="fill:#ff0000;stroke:#ff0000;stroke-linejoin:miter;" x="105.326977" xlink:href="#m7ddfe96298" y="170.364466"/>
     <use style="fill:#ff0000;stroke:#ff0000;stroke-linejoin:miter;" x="116.789938" xlink:href="#m7ddfe96298" y="62.355394"/>
     <use style="fill:#ff0000;stroke:#ff0000;stroke-linejoin:miter;" x="128.252899" xlink:href="#m7ddfe96298" y="61.376548"/>
     <use style="fill:#ff0000;stroke:#ff0000;stroke-linejoin:miter;" x="139.71586" xlink:href="#m7ddfe96298" y="114.403463"/>
     <use style="fill:#ff0000;stroke:#ff0000;stroke-linejoin:miter;" x="151.178821" xlink:href="#m7ddfe96298" y="121.630753"/>
     <use style="fill:#ff0000;stroke:#ff0000;stroke-linejoin:miter;" x="162.641782" xlink:href="#m7ddfe96298" y="126.401985"/>
     <use style="fill:#ff0000;stroke:#ff0000;stroke-linejoin:miter;" x="174.104743" xlink:href="#m7ddfe96298" y="132.210213"/>
     <use style="fill:#ff0000;stroke:#ff0000;stroke-linejoin:miter;" x="185.567704" xlink:href="#m7ddfe96298" y="155.256016"/>
     <use style="fill:#ff0000;stroke:#ff0000;stroke-linejoin:miter;" x="197.030665" xlink:href="#m7ddfe96298" y="187.379074"/>
     <use style="fill:#ff0000;stroke:#ff0000;stroke-linejoin:miter;" x="208.493626" xlink:href="#m7ddfe96298" y="277.365617"/>
     <use style="fill:#ff0000;stroke:#ff0000;stroke-linejoin:miter;" x="219.956587" xlink:href="#m7ddfe96298" y="316.020115"/>
     <use style="fill:#ff0000;stroke:#ff0000;stroke-linejoin:miter;" x="231.419548" xlink:href="#m7ddfe96298" y="242.861313"/>
     <use style="fill:#ff0000;stroke:#ff0000;stroke-linejoin:miter;" x="242.882509" xlink:href="#m7ddfe96298" y="118.118341"/>
     <use style="fill:#ff0000;stroke:#ff0000;stroke-linejoin:miter;" x="254.34547" xlink:href="#m7ddfe96298" y="33.38547"/>
     <use style="fill:#ff0000;stroke:#ff0000;stroke-linejoin:miter;" x="265.808431" xlink:href="#m7ddfe96298" y="43.740167"/>
     <use style="fill:#ff0000;stroke:#ff0000;stroke-linejoin:miter;" x="277.271392" xlink:href="#m7ddfe96298" y="109.121533"/>
     <use style="fill:#ff0000;stroke:#ff0000;stroke-linejoin:miter;" x="288.734353" xlink:href="#m7ddfe96298" y="129.264446"/>
     <use style="fill:#ff0000;stroke:#ff0000;stroke-linejoin:miter;" x="300.197314" xlink:href="#m7ddfe96298" y="126.239946"/>
     <use style="fill:#ff0000;stroke:#ff0000;stroke-linejoin:miter;" x="311.660275" xlink:href="#m7ddfe96298" y="130.555771"/>
     <use style="fill:#ff0000;stroke:#ff0000;stroke-linejoin:miter;" x="323.123236" xlink:href="#m7ddfe96298" y="153.77472"/>
     <use style="fill:#ff0000;stroke:#ff0000;stroke-linejoin:miter;" x="334.586197" xlink:href="#m7ddfe96298" y="204.169245"/>
     <use style="fill:#ff0000;stroke:#ff0000;stroke-linejoin:miter;" x="346.049158" xlink:href="#m7ddfe96298" y="297.80688"/>
     <use style="fill:#ff0000;stroke:#ff0000;stroke-linejoin:miter;" x="357.512119" xlink:href="#m7ddfe96298" y="348.428374"/>
     <use style="fill:#ff0000;stroke:#ff0000;stroke-linejoin:miter;" x="368.975081" xlink:href="#m7ddfe96298" y="319.99459"/>
     <use style="fill:#ff0000;stroke:#ff0000;stroke-linejoin:miter;" x="380.438042" xlink:href="#m7ddfe96298" y="255.829615"/>
     <use style="fill:#ff0000;stroke:#ff0000;stroke-linejoin:miter;" x="391.901003" xlink:href="#m7ddfe96298" y="170.406609"/>
     <use style="fill:#ff0000;stroke:#ff0000;stroke-linejoin:miter;" x="403.363964" xlink:href="#m7ddfe96298" y="178.772987"/>
     <use style="fill:#ff0000;stroke:#ff0000;stroke-linejoin:miter;" x="414.826925" xlink:href="#m7ddfe96298" y="240.149211"/>
     <use style="fill:#ff0000;stroke:#ff0000;stroke-linejoin:miter;" x="426.289886" xlink:href="#m7ddfe96298" y="281.604588"/>
     <use style="fill:#ff0000;stroke:#ff0000;stroke-linejoin:miter;" x="437.752847" xlink:href="#m7ddfe96298" y="275.800566"/>
     <use style="fill:#ff0000;stroke:#ff0000;stroke-linejoin:miter;" x="449.215808" xlink:href="#m7ddfe96298" y="256.423864"/>
     <use style="fill:#ff0000;stroke:#ff0000;stroke-linejoin:miter;" x="460.678769" xlink:href="#m7ddfe96298" y="240.239785"/>
     <use style="fill:#ff0000;stroke:#ff0000;stroke-linejoin:miter;" x="472.14173" xlink:href="#m7ddfe96298" y="231.053496"/>
     <use style="fill:#ff0000;stroke:#ff0000;stroke-linejoin:miter;" x="483.604691" xlink:href="#m7ddfe96298" y="262.306252"/>
     <use style="fill:#ff0000;stroke:#ff0000;stroke-linejoin:miter;" x="495.067652" xlink:href="#m7ddfe96298" y="328.958525"/>
     <use style="fill:#ff0000;stroke:#ff0000;stroke-linejoin:miter;" x="506.530613" xlink:href="#m7ddfe96298" y="331.666184"/>
     <use style="fill:#ff0000;stroke:#ff0000;stroke-linejoin:miter;" x="517.993574" xlink:href="#m7ddfe96298" y="271.963547"/>
     <use style="fill:#ff0000;stroke:#ff0000;stroke-linejoin:miter;" x="529.456535" xlink:href="#m7ddfe96298" y="168.380721"/>
     <use style="fill:#ff0000;stroke:#ff0000;stroke-linejoin:miter;" x="540.919496" xlink:href="#m7ddfe96298" y="91.673734"/>
     <use style="fill:#ff0000;stroke:#ff0000;stroke-linejoin:miter;" x="552.382457" xlink:href="#m7ddfe96298" y="110.54721"/>
     <use style="fill:#ff0000;stroke:#ff0000;stroke-linejoin:miter;" x="563.845418" xlink:href="#m7ddfe96298" y="142.669533"/>
     <use style="fill:#ff0000;stroke:#ff0000;stroke-linejoin:miter;" x="575.308379" xlink:href="#m7ddfe96298" y="158.074945"/>
     <use style="fill:#ff0000;stroke:#ff0000;stroke-linejoin:miter;" x="586.77134" xlink:href="#m7ddfe96298" y="171.050598"/>
     <use style="fill:#ff0000;stroke:#ff0000;stroke-linejoin:miter;" x="598.234301" xlink:href="#m7ddfe96298" y="182.951194"/>
     <use style="fill:#ff0000;stroke:#ff0000;stroke-linejoin:miter;" x="609.697262" xlink:href="#m7ddfe96298" y="207.993401"/>
     <use style="fill:#ff0000;stroke:#ff0000;stroke-linejoin:miter;" x="621.160223" xlink:href="#m7ddfe96298" y="273.30212"/>
     <use style="fill:#ff0000;stroke:#ff0000;stroke-linejoin:miter;" x="632.623184" xlink:href="#m7ddfe96298" y="339.931484"/>
     <use style="fill:#ff0000;stroke:#ff0000;stroke-linejoin:miter;" x="644.086145" xlink:href="#m7ddfe96298" y="314.638819"/>
    </g>
   </g>
   <g id="line2d_14">
    <path clip-path="url(#pdfefe0fa9a)" d="M 82.401055 344.771369 
L 93.864016 290.430816 
L 105.326977 156.285172 
L 116.789938 55.816522 
L 128.252899 77.501169 
L 139.71586 113.8369 
L 151.178821 133.435792 
L 162.641782 146.4366 
L 174.104743 154.94958 
L 185.567704 168.916738 
L 197.030665 216.878727 
L 208.493626 325.608674 
L 219.956587 329.406197 
L 231.419548 231.846129 
L 242.882509 118.878958 
L 254.34547 48.3933 
L 265.808431 65.637162 
L 277.271392 119.86344 
L 288.734353 153.341202 
L 300.197314 158.847977 
L 311.660275 180.615603 
L 323.123236 173.937806 
L 334.586197 214.362476 
L 346.049158 325.169382 
L 357.512119 352.872964 
L 368.975081 315.360307 
L 380.438042 262.663651 
L 391.901003 229.346866 
L 403.363964 220.468483 
L 414.826925 251.566468 
L 426.289886 284.242858 
L 437.752847 296.294059 
L 449.215808 287.996319 
L 460.678769 259.659814 
L 472.14173 262.897071 
L 483.604691 301.625344 
L 495.067652 353.023111 
L 506.530613 336.172421 
L 517.993574 237.747628 
L 529.456535 160.400164 
L 540.919496 109.756782 
L 552.382457 144.028647 
L 563.845418 183.73958 
L 575.308379 191.602936 
L 586.77134 202.322464 
L 598.234301 209.81323 
L 609.697262 234.91024 
L 621.160223 310.383113 
L 632.623184 351.446912 
L 644.086145 296.202945 
" style="fill:none;stroke:#32cd32;stroke-dasharray:5.92,2.56;stroke-dashoffset:0;stroke-width:1.6;"/>
    <defs>
     <path d="M 0 -3 
L -0.673542 -0.927051 
L -2.85317 -0.927051 
L -1.089814 0.354102 
L -1.763356 2.427051 
L -0 1.145898 
L 1.763356 2.427051 
L 1.089814 0.354102 
L 2.85317 -0.927051 
L 0.673542 -0.927051 
z
" id="mdfe4b3ce5d" style="stroke:#32cd32;stroke-linejoin:bevel;"/>
    </defs>
    <g clip-path="url(#pdfefe0fa9a)">
     <use style="fill:#32cd32;stroke:#32cd32;stroke-linejoin:bevel;" x="82.401055" xlink:href="#mdfe4b3ce5d" y="344.771369"/>
     <use style="fill:#32cd32;stroke:#32cd32;stroke-linejoin:bevel;" x="93.864016" xlink:href="#mdfe4b3ce5d" y="290.430816"/>
     <use style="fill:#32cd32;stroke:#32cd32;stroke-linejoin:bevel;" x="105.326977" xlink:href="#mdfe4b3ce5d" y="156.285172"/>
     <use style="fill:#32cd32;stroke:#32cd32;stroke-linejoin:bevel;" x="116.789938" xlink:href="#mdfe4b3ce5d" y="55.816522"/>
     <use style="fill:#32cd32;stroke:#32cd32;stroke-linejoin:bevel;" x="128.252899" xlink:href="#mdfe4b3ce5d" y="77.501169"/>
     <use style="fill:#32cd32;stroke:#32cd32;stroke-linejoin:bevel;" x="139.71586" xlink:href="#mdfe4b3ce5d" y="113.8369"/>
     <use style="fill:#32cd32;stroke:#32cd32;stroke-linejoin:bevel;" x="151.178821" xlink:href="#mdfe4b3ce5d" y="133.435792"/>
     <use style="fill:#32cd32;stroke:#32cd32;stroke-linejoin:bevel;" x="162.641782" xlink:href="#mdfe4b3ce5d" y="146.4366"/>
     <use style="fill:#32cd32;stroke:#32cd32;stroke-linejoin:bevel;" x="174.104743" xlink:href="#mdfe4b3ce5d" y="154.94958"/>
     <use style="fill:#32cd32;stroke:#32cd32;stroke-linejoin:bevel;" x="185.567704" xlink:href="#mdfe4b3ce5d" y="168.916738"/>
     <use style="fill:#32cd32;stroke:#32cd32;stroke-linejoin:bevel;" x="197.030665" xlink:href="#mdfe4b3ce5d" y="216.878727"/>
     <use style="fill:#32cd32;stroke:#32cd32;stroke-linejoin:bevel;" x="208.493626" xlink:href="#mdfe4b3ce5d" y="325.608674"/>
     <use style="fill:#32cd32;stroke:#32cd32;stroke-linejoin:bevel;" x="219.956587" xlink:href="#mdfe4b3ce5d" y="329.406197"/>
     <use style="fill:#32cd32;stroke:#32cd32;stroke-linejoin:bevel;" x="231.419548" xlink:href="#mdfe4b3ce5d" y="231.846129"/>
     <use style="fill:#32cd32;stroke:#32cd32;stroke-linejoin:bevel;" x="242.882509" xlink:href="#mdfe4b3ce5d" y="118.878958"/>
     <use style="fill:#32cd32;stroke:#32cd32;stroke-linejoin:bevel;" x="254.34547" xlink:href="#mdfe4b3ce5d" y="48.3933"/>
     <use style="fill:#32cd32;stroke:#32cd32;stroke-linejoin:bevel;" x="265.808431" xlink:href="#mdfe4b3ce5d" y="65.637162"/>
     <use style="fill:#32cd32;stroke:#32cd32;stroke-linejoin:bevel;" x="277.271392" xlink:href="#mdfe4b3ce5d" y="119.86344"/>
     <use style="fill:#32cd32;stroke:#32cd32;stroke-linejoin:bevel;" x="288.734353" xlink:href="#mdfe4b3ce5d" y="153.341202"/>
     <use style="fill:#32cd32;stroke:#32cd32;stroke-linejoin:bevel;" x="300.197314" xlink:href="#mdfe4b3ce5d" y="158.847977"/>
     <use style="fill:#32cd32;stroke:#32cd32;stroke-linejoin:bevel;" x="311.660275" xlink:href="#mdfe4b3ce5d" y="180.615603"/>
     <use style="fill:#32cd32;stroke:#32cd32;stroke-linejoin:bevel;" x="323.123236" xlink:href="#mdfe4b3ce5d" y="173.937806"/>
     <use style="fill:#32cd32;stroke:#32cd32;stroke-linejoin:bevel;" x="334.586197" xlink:href="#mdfe4b3ce5d" y="214.362476"/>
     <use style="fill:#32cd32;stroke:#32cd32;stroke-linejoin:bevel;" x="346.049158" xlink:href="#mdfe4b3ce5d" y="325.169382"/>
     <use style="fill:#32cd32;stroke:#32cd32;stroke-linejoin:bevel;" x="357.512119" xlink:href="#mdfe4b3ce5d" y="352.872964"/>
     <use style="fill:#32cd32;stroke:#32cd32;stroke-linejoin:bevel;" x="368.975081" xlink:href="#mdfe4b3ce5d" y="315.360307"/>
     <use style="fill:#32cd32;stroke:#32cd32;stroke-linejoin:bevel;" x="380.438042" xlink:href="#mdfe4b3ce5d" y="262.663651"/>
     <use style="fill:#32cd32;stroke:#32cd32;stroke-linejoin:bevel;" x="391.901003" xlink:href="#mdfe4b3ce5d" y="229.346866"/>
     <use style="fill:#32cd32;stroke:#32cd32;stroke-linejoin:bevel;" x="403.363964" xlink:href="#mdfe4b3ce5d" y="220.468483"/>
     <use style="fill:#32cd32;stroke:#32cd32;stroke-linejoin:bevel;" x="414.826925" xlink:href="#mdfe4b3ce5d" y="251.566468"/>
     <use style="fill:#32cd32;stroke:#32cd32;stroke-linejoin:bevel;" x="426.289886" xlink:href="#mdfe4b3ce5d" y="284.242858"/>
     <use style="fill:#32cd32;stroke:#32cd32;stroke-linejoin:bevel;" x="437.752847" xlink:href="#mdfe4b3ce5d" y="296.294059"/>
     <use style="fill:#32cd32;stroke:#32cd32;stroke-linejoin:bevel;" x="449.215808" xlink:href="#mdfe4b3ce5d" y="287.996319"/>
     <use style="fill:#32cd32;stroke:#32cd32;stroke-linejoin:bevel;" x="460.678769" xlink:href="#mdfe4b3ce5d" y="259.659814"/>
     <use style="fill:#32cd32;stroke:#32cd32;stroke-linejoin:bevel;" x="472.14173" xlink:href="#mdfe4b3ce5d" y="262.897071"/>
     <use style="fill:#32cd32;stroke:#32cd32;stroke-linejoin:bevel;" x="483.604691" xlink:href="#mdfe4b3ce5d" y="301.625344"/>
     <use style="fill:#32cd32;stroke:#32cd32;stroke-linejoin:bevel;" x="495.067652" xlink:href="#mdfe4b3ce5d" y="353.023111"/>
     <use style="fill:#32cd32;stroke:#32cd32;stroke-linejoin:bevel;" x="506.530613" xlink:href="#mdfe4b3ce5d" y="336.172421"/>
     <use style="fill:#32cd32;stroke:#32cd32;stroke-linejoin:bevel;" x="517.993574" xlink:href="#mdfe4b3ce5d" y="237.747628"/>
     <use style="fill:#32cd32;stroke:#32cd32;stroke-linejoin:bevel;" x="529.456535" xlink:href="#mdfe4b3ce5d" y="160.400164"/>
     <use style="fill:#32cd32;stroke:#32cd32;stroke-linejoin:bevel;" x="540.919496" xlink:href="#mdfe4b3ce5d" y="109.756782"/>
     <use style="fill:#32cd32;stroke:#32cd32;stroke-linejoin:bevel;" x="552.382457" xlink:href="#mdfe4b3ce5d" y="144.028647"/>
     <use style="fill:#32cd32;stroke:#32cd32;stroke-linejoin:bevel;" x="563.845418" xlink:href="#mdfe4b3ce5d" y="183.73958"/>
     <use style="fill:#32cd32;stroke:#32cd32;stroke-linejoin:bevel;" x="575.308379" xlink:href="#mdfe4b3ce5d" y="191.602936"/>
     <use style="fill:#32cd32;stroke:#32cd32;stroke-linejoin:bevel;" x="586.77134" xlink:href="#mdfe4b3ce5d" y="202.322464"/>
     <use style="fill:#32cd32;stroke:#32cd32;stroke-linejoin:bevel;" x="598.234301" xlink:href="#mdfe4b3ce5d" y="209.81323"/>
     <use style="fill:#32cd32;stroke:#32cd32;stroke-linejoin:bevel;" x="609.697262" xlink:href="#mdfe4b3ce5d" y="234.91024"/>
     <use style="fill:#32cd32;stroke:#32cd32;stroke-linejoin:bevel;" x="621.160223" xlink:href="#mdfe4b3ce5d" y="310.383113"/>
     <use style="fill:#32cd32;stroke:#32cd32;stroke-linejoin:bevel;" x="632.623184" xlink:href="#mdfe4b3ce5d" y="351.446912"/>
     <use style="fill:#32cd32;stroke:#32cd32;stroke-linejoin:bevel;" x="644.086145" xlink:href="#mdfe4b3ce5d" y="296.202945"/>
    </g>
   </g>
   <g id="line2d_15">
    <path clip-path="url(#pdfefe0fa9a)" d="M 82.401055 320.428581 
L 93.864016 262.217106 
L 105.326977 136.659573 
L 116.789938 49.749882 
L 128.252899 39.306651 
L 139.71586 89.628815 
L 151.178821 108.290024 
L 162.641782 115.278258 
L 174.104743 123.76494 
L 185.567704 159.868557 
L 197.030665 204.064541 
L 208.493626 288.144522 
L 219.956587 309.599121 
L 231.419548 212.86607 
L 242.882509 80.511295 
L 254.34547 26.152381 
L 265.808431 21.113018 
L 277.271392 78.182645 
L 288.734353 110.135253 
L 300.197314 112.302354 
L 311.660275 128.51314 
L 323.123236 161.471423 
L 334.586197 215.620969 
L 346.049158 292.65628 
L 357.512119 330.648445 
L 368.975081 290.211329 
L 380.438042 229.79778 
L 391.901003 174.337185 
L 403.363964 171.016295 
L 414.826925 232.16992 
L 426.289886 265.390617 
L 437.752847 257.235118 
L 449.215808 227.17805 
L 460.678769 201.400054 
L 472.14173 211.244379 
L 483.604691 271.412665 
L 495.067652 341.680306 
L 506.530613 332.430427 
L 517.993574 241.968958 
L 529.456535 137.227116 
L 540.919496 86.650297 
L 552.382457 129.736677 
L 563.845418 159.227591 
L 575.308379 156.496541 
L 586.77134 160.116352 
L 598.234301 169.324774 
L 609.697262 193.406267 
L 621.160223 277.289907 
L 632.623184 328.278601 
L 644.086145 289.294227 
" style="fill:none;stroke:#ff8c00;stroke-dasharray:5.92,2.56;stroke-dashoffset:0;stroke-width:1.6;"/>
    <defs>
     <path d="M -3 3 
L 3 3 
L 3 -3 
L -3 -3 
z
" id="m50d1902dec" style="stroke:#ff8c00;stroke-linejoin:miter;"/>
    </defs>
    <g clip-path="url(#pdfefe0fa9a)">
     <use style="fill:#ff8c00;stroke:#ff8c00;stroke-linejoin:miter;" x="82.401055" xlink:href="#m50d1902dec" y="320.428581"/>
     <use style="fill:#ff8c00;stroke:#ff8c00;stroke-linejoin:miter;" x="93.864016" xlink:href="#m50d1902dec" y="262.217106"/>
     <use style="fill:#ff8c00;stroke:#ff8c00;stroke-linejoin:miter;" x="105.326977" xlink:href="#m50d1902dec" y="136.659573"/>
     <use style="fill:#ff8c00;stroke:#ff8c00;stroke-linejoin:miter;" x="116.789938" xlink:href="#m50d1902dec" y="49.749882"/>
     <use style="fill:#ff8c00;stroke:#ff8c00;stroke-linejoin:miter;" x="128.252899" xlink:href="#m50d1902dec" y="39.306651"/>
     <use style="fill:#ff8c00;stroke:#ff8c00;stroke-linejoin:miter;" x="139.71586" xlink:href="#m50d1902dec" y="89.628815"/>
     <use style="fill:#ff8c00;stroke:#ff8c00;stroke-linejoin:miter;" x="151.178821" xlink:href="#m50d1902dec" y="108.290024"/>
     <use style="fill:#ff8c00;stroke:#ff8c00;stroke-linejoin:miter;" x="162.641782" xlink:href="#m50d1902dec" y="115.278258"/>
     <use style="fill:#ff8c00;stroke:#ff8c00;stroke-linejoin:miter;" x="174.104743" xlink:href="#m50d1902dec" y="123.76494"/>
     <use style="fill:#ff8c00;stroke:#ff8c00;stroke-linejoin:miter;" x="185.567704" xlink:href="#m50d1902dec" y="159.868557"/>
     <use style="fill:#ff8c00;stroke:#ff8c00;stroke-linejoin:miter;" x="197.030665" xlink:href="#m50d1902dec" y="204.064541"/>
     <use style="fill:#ff8c00;stroke:#ff8c00;stroke-linejoin:miter;" x="208.493626" xlink:href="#m50d1902dec" y="288.144522"/>
     <use style="fill:#ff8c00;stroke:#ff8c00;stroke-linejoin:miter;" x="219.956587" xlink:href="#m50d1902dec" y="309.599121"/>
     <use style="fill:#ff8c00;stroke:#ff8c00;stroke-linejoin:miter;" x="231.419548" xlink:href="#m50d1902dec" y="212.86607"/>
     <use style="fill:#ff8c00;stroke:#ff8c00;stroke-linejoin:miter;" x="242.882509" xlink:href="#m50d1902dec" y="80.511295"/>
     <use style="fill:#ff8c00;stroke:#ff8c00;stroke-linejoin:miter;" x="254.34547" xlink:href="#m50d1902dec" y="26.152381"/>
     <use style="fill:#ff8c00;stroke:#ff8c00;stroke-linejoin:miter;" x="265.808431" xlink:href="#m50d1902dec" y="21.113018"/>
     <use style="fill:#ff8c00;stroke:#ff8c00;stroke-linejoin:miter;" x="277.271392" xlink:href="#m50d1902dec" y="78.182645"/>
     <use style="fill:#ff8c00;stroke:#ff8c00;stroke-linejoin:miter;" x="288.734353" xlink:href="#m50d1902dec" y="110.135253"/>
     <use style="fill:#ff8c00;stroke:#ff8c00;stroke-linejoin:miter;" x="300.197314" xlink:href="#m50d1902dec" y="112.302354"/>
     <use style="fill:#ff8c00;stroke:#ff8c00;stroke-linejoin:miter;" x="311.660275" xlink:href="#m50d1902dec" y="128.51314"/>
     <use style="fill:#ff8c00;stroke:#ff8c00;stroke-linejoin:miter;" x="323.123236" xlink:href="#m50d1902dec" y="161.471423"/>
     <use style="fill:#ff8c00;stroke:#ff8c00;stroke-linejoin:miter;" x="334.586197" xlink:href="#m50d1902dec" y="215.620969"/>
     <use style="fill:#ff8c00;stroke:#ff8c00;stroke-linejoin:miter;" x="346.049158" xlink:href="#m50d1902dec" y="292.65628"/>
     <use style="fill:#ff8c00;stroke:#ff8c00;stroke-linejoin:miter;" x="357.512119" xlink:href="#m50d1902dec" y="330.648445"/>
     <use style="fill:#ff8c00;stroke:#ff8c00;stroke-linejoin:miter;" x="368.975081" xlink:href="#m50d1902dec" y="290.211329"/>
     <use style="fill:#ff8c00;stroke:#ff8c00;stroke-linejoin:miter;" x="380.438042" xlink:href="#m50d1902dec" y="229.79778"/>
     <use style="fill:#ff8c00;stroke:#ff8c00;stroke-linejoin:miter;" x="391.901003" xlink:href="#m50d1902dec" y="174.337185"/>
     <use style="fill:#ff8c00;stroke:#ff8c00;stroke-linejoin:miter;" x="403.363964" xlink:href="#m50d1902dec" y="171.016295"/>
     <use style="fill:#ff8c00;stroke:#ff8c00;stroke-linejoin:miter;" x="414.826925" xlink:href="#m50d1902dec" y="232.16992"/>
     <use style="fill:#ff8c00;stroke:#ff8c00;stroke-linejoin:miter;" x="426.289886" xlink:href="#m50d1902dec" y="265.390617"/>
     <use style="fill:#ff8c00;stroke:#ff8c00;stroke-linejoin:miter;" x="437.752847" xlink:href="#m50d1902dec" y="257.235118"/>
     <use style="fill:#ff8c00;stroke:#ff8c00;stroke-linejoin:miter;" x="449.215808" xlink:href="#m50d1902dec" y="227.17805"/>
     <use style="fill:#ff8c00;stroke:#ff8c00;stroke-linejoin:miter;" x="460.678769" xlink:href="#m50d1902dec" y="201.400054"/>
     <use style="fill:#ff8c00;stroke:#ff8c00;stroke-linejoin:miter;" x="472.14173" xlink:href="#m50d1902dec" y="211.244379"/>
     <use style="fill:#ff8c00;stroke:#ff8c00;stroke-linejoin:miter;" x="483.604691" xlink:href="#m50d1902dec" y="271.412665"/>
     <use style="fill:#ff8c00;stroke:#ff8c00;stroke-linejoin:miter;" x="495.067652" xlink:href="#m50d1902dec" y="341.680306"/>
     <use style="fill:#ff8c00;stroke:#ff8c00;stroke-linejoin:miter;" x="506.530613" xlink:href="#m50d1902dec" y="332.430427"/>
     <use style="fill:#ff8c00;stroke:#ff8c00;stroke-linejoin:miter;" x="517.993574" xlink:href="#m50d1902dec" y="241.968958"/>
     <use style="fill:#ff8c00;stroke:#ff8c00;stroke-linejoin:miter;" x="529.456535" xlink:href="#m50d1902dec" y="137.227116"/>
     <use style="fill:#ff8c00;stroke:#ff8c00;stroke-linejoin:miter;" x="540.919496" xlink:href="#m50d1902dec" y="86.650297"/>
     <use style="fill:#ff8c00;stroke:#ff8c00;stroke-linejoin:miter;" x="552.382457" xlink:href="#m50d1902dec" y="129.736677"/>
     <use style="fill:#ff8c00;stroke:#ff8c00;stroke-linejoin:miter;" x="563.845418" xlink:href="#m50d1902dec" y="159.227591"/>
     <use style="fill:#ff8c00;stroke:#ff8c00;stroke-linejoin:miter;" x="575.308379" xlink:href="#m50d1902dec" y="156.496541"/>
     <use style="fill:#ff8c00;stroke:#ff8c00;stroke-linejoin:miter;" x="586.77134" xlink:href="#m50d1902dec" y="160.116352"/>
     <use style="fill:#ff8c00;stroke:#ff8c00;stroke-linejoin:miter;" x="598.234301" xlink:href="#m50d1902dec" y="169.324774"/>
     <use style="fill:#ff8c00;stroke:#ff8c00;stroke-linejoin:miter;" x="609.697262" xlink:href="#m50d1902dec" y="193.406267"/>
     <use style="fill:#ff8c00;stroke:#ff8c00;stroke-linejoin:miter;" x="621.160223" xlink:href="#m50d1902dec" y="277.289907"/>
     <use style="fill:#ff8c00;stroke:#ff8c00;stroke-linejoin:miter;" x="632.623184" xlink:href="#m50d1902dec" y="328.278601"/>
     <use style="fill:#ff8c00;stroke:#ff8c00;stroke-linejoin:miter;" x="644.086145" xlink:href="#m50d1902dec" y="289.294227"/>
    </g>
   </g>
   <g id="patch_3">
    <path d="M 54.3168 377.3952 
L 54.3168 4.1472 
" style="fill:none;stroke:#000000;stroke-linecap:square;stroke-linejoin:miter;stroke-width:0.8;"/>
   </g>
   <g id="patch_4">
    <path d="M 672.1704 377.3952 
L 672.1704 4.1472 
" style="fill:none;stroke:#000000;stroke-linecap:square;stroke-linejoin:miter;stroke-width:0.8;"/>
   </g>
   <g id="patch_5">
    <path d="M 54.3168 377.3952 
L 672.1704 377.3952 
" style="fill:none;stroke:#000000;stroke-linecap:square;stroke-linejoin:miter;stroke-width:0.8;"/>
   </g>
   <g id="patch_6">
    <path d="M 54.3168 4.1472 
L 672.1704 4.1472 
" style="fill:none;stroke:#000000;stroke-linecap:square;stroke-linejoin:miter;stroke-width:0.8;"/>
   </g>
   <g id="legend_1">
    <g id="patch_7">
     <path d="M 519.5704 94.862825 
L 662.3704 94.862825 
Q 665.1704 94.862825 665.1704 92.062825 
L 665.1704 13.9472 
Q 665.1704 11.1472 662.3704 11.1472 
L 519.5704 11.1472 
Q 516.7704 11.1472 516.7704 13.9472 
L 516.7704 92.062825 
Q 516.7704 94.862825 519.5704 94.862825 
z
" style="fill:#ffffff;opacity:0.8;stroke:#cccccc;stroke-linejoin:miter;"/>
    </g>
    <g id="line2d_16">
     <path d="M 522.3704 23.00345 
L 550.3704 23.00345 
" style="fill:none;stroke:#1e90ff;stroke-linecap:square;stroke-width:1.6;"/>
    </g>
    <g id="line2d_17">
     <g>
      <use style="fill:#1e90ff;stroke:#1e90ff;" x="536.3704" xlink:href="#m4dd74df18b" y="23.00345"/>
     </g>
    </g>
    <g id="text_14">
     <!-- 真实值 -->
     <defs>
      <path d="M 32.03125 53.90625 
L 32.03125 45.3125 
L 67.1875 45.3125 
L 67.1875 53.90625 
z
M 32.03125 42.96875 
L 32.03125 34.765625 
L 67.1875 34.765625 
L 67.1875 42.96875 
z
M 32.03125 32.421875 
L 32.03125 24.21875 
L 67.1875 24.21875 
L 67.1875 32.421875 
z
M 32.03125 21.875 
L 32.03125 13.671875 
L 67.1875 13.671875 
L 67.1875 21.875 
z
M 44.921875 56.25 
L 45.703125 67.578125 
L 23.828125 67.578125 
Q 18.75 67.578125 14.453125 66.40625 
L 10.9375 69.921875 
L 46.09375 69.921875 
Q 46.484375 75.390625 46.484375 82.421875 
L 55.46875 78.515625 
L 52.734375 76.953125 
L 51.5625 69.921875 
L 78.125 69.921875 
L 83.203125 75.390625 
L 90.234375 67.578125 
L 51.171875 67.578125 
L 50 56.25 
L 66.796875 56.25 
L 69.53125 60.546875 
L 75.78125 55.859375 
L 72.65625 52.734375 
L 72.65625 13.671875 
L 82.8125 13.671875 
L 88.671875 19.140625 
L 95.703125 11.328125 
L 17.96875 11.328125 
Q 12.890625 11.328125 8.59375 10.15625 
L 5.078125 13.671875 
L 26.5625 13.671875 
Q 26.5625 50 26.171875 58.984375 
L 32.03125 56.25 
z
M 37.890625 11.328125 
L 44.140625 5.46875 
L 40.234375 4.6875 
Q 23.4375 -6.640625 12.5 -10.15625 
L 12.109375 -8.984375 
Q 30.46875 1.953125 37.890625 11.328125 
z
M 59.375 10.9375 
Q 71.484375 5.859375 77.53125 3.125 
Q 83.59375 0.390625 84.375 -1.75 
Q 85.15625 -3.90625 85.15625 -5.078125 
Q 85.15625 -6.25 84.375 -8.203125 
Q 83.59375 -10.15625 83.203125 -10.15625 
Q 82.03125 -10.15625 79.6875 -7.03125 
Q 76.171875 -2.34375 58.59375 9.765625 
z
" id="SimSun-30495"/>
      <path d="M 30.46875 56.640625 
Q 40.234375 53.125 42.1875 50.78125 
Q 44.140625 48.4375 44.140625 46.484375 
Q 44.140625 44.53125 42.96875 42.1875 
Q 41.796875 39.84375 41.015625 39.84375 
Q 39.84375 39.84375 38.28125 43.75 
Q 35.546875 49.609375 29.6875 55.46875 
z
M 55.859375 20.703125 
Q 54.6875 17.1875 53.515625 14.453125 
Q 72.65625 8.59375 79.484375 5.078125 
Q 86.328125 1.5625 86.125 -3.515625 
Q 85.9375 -8.59375 84.375 -8.59375 
Q 82.8125 -8.59375 79.296875 -4.6875 
Q 72.265625 2.734375 52.734375 12.5 
Q 47.265625 2.734375 35.9375 -2.34375 
Q 24.609375 -7.421875 6.640625 -9.765625 
L 6.640625 -8.203125 
Q 23.046875 -5.078125 34.375 1.5625 
Q 45.703125 8.203125 50 20.703125 
L 19.140625 20.703125 
Q 14.0625 20.703125 9.765625 19.53125 
L 6.25 23.046875 
L 50.390625 23.046875 
Q 51.953125 30.46875 52.734375 40.234375 
Q 53.515625 50 53.515625 57.8125 
L 63.28125 53.125 
L 60.15625 50.390625 
Q 58.59375 35.9375 56.640625 23.046875 
L 80.859375 23.046875 
L 86.71875 28.90625 
L 94.921875 20.703125 
z
M 19.921875 42.1875 
Q 30.859375 37.890625 32.8125 35.34375 
Q 34.765625 32.8125 34.765625 30.859375 
Q 34.765625 28.90625 33.59375 26.5625 
Q 32.421875 24.21875 31.640625 24.21875 
Q 30.46875 24.21875 28.90625 28.125 
Q 26.171875 33.984375 19.140625 41.015625 
z
M 42.96875 81.640625 
L 44.140625 82.421875 
Q 50.390625 79.6875 53.515625 76.953125 
Q 56.640625 74.21875 56.640625 71.875 
Q 56.640625 69.53125 54.875 67.1875 
Q 53.125 64.84375 51.953125 64.84375 
Q 50.78125 64.84375 50 68.75 
Q 48.4375 74.609375 42.96875 81.640625 
z
M 77.734375 50.390625 
L 83.59375 61.328125 
L 18.359375 61.328125 
Q 19.140625 55.078125 17.578125 51.5625 
Q 16.015625 48.046875 12.296875 48.4375 
Q 8.59375 48.828125 8.59375 50 
Q 8.59375 51.5625 10.9375 54.296875 
Q 15.234375 59.765625 16.40625 68.359375 
L 17.96875 68.359375 
L 18.359375 63.671875 
L 82.8125 63.671875 
L 87.109375 67.96875 
L 94.53125 59.375 
Q 87.890625 59.765625 78.90625 49.609375 
z
" id="SimSun-23454"/>
      <path d="M 23.828125 10.15625 
Q 23.828125 -3.515625 24.21875 -8.203125 
L 18.359375 -10.15625 
Q 18.75 3.90625 18.75 8.59375 
L 18.75 47.265625 
Q 11.71875 35.9375 5.078125 28.90625 
L 3.90625 29.6875 
Q 11.328125 41.015625 17.1875 55.078125 
Q 23.046875 69.140625 26.171875 81.25 
L 34.375 76.171875 
L 30.46875 73.828125 
Q 24.21875 59.375 22.265625 54.296875 
L 26.953125 51.5625 
L 23.828125 49.21875 
z
M 44.921875 50.390625 
L 44.921875 38.671875 
L 75 38.671875 
L 75 50.390625 
z
M 44.921875 36.328125 
L 44.921875 24.609375 
L 75 24.609375 
L 75 36.328125 
z
M 44.921875 22.265625 
L 44.921875 10.546875 
L 75 10.546875 
L 75 22.265625 
z
M 44.921875 8.203125 
L 44.921875 -3.515625 
L 75 -3.515625 
L 75 8.203125 
z
M 55.46875 66.40625 
Q 55.859375 75.390625 55.46875 81.640625 
L 64.453125 77.34375 
L 61.328125 75 
L 60.9375 66.40625 
L 78.515625 66.40625 
L 83.59375 71.484375 
L 91.015625 64.0625 
L 60.9375 64.0625 
L 60.546875 52.734375 
L 74.21875 52.734375 
L 77.734375 56.640625 
L 83.59375 51.5625 
L 80.078125 49.21875 
L 80.078125 -3.515625 
L 83.59375 -3.515625 
L 88.671875 1.5625 
L 96.09375 -5.859375 
L 38.28125 -5.859375 
Q 33.203125 -5.859375 28.90625 -7.03125 
L 25.390625 -3.515625 
L 39.84375 -3.515625 
L 39.84375 39.84375 
Q 39.84375 44.53125 39.453125 55.859375 
L 44.921875 52.734375 
L 55.078125 52.734375 
L 55.46875 64.0625 
L 43.75 64.0625 
Q 38.671875 64.0625 34.375 62.890625 
L 30.859375 66.40625 
z
" id="SimSun-20540"/>
     </defs>
     <g transform="translate(561.5704 27.90345)scale(0.14 -0.14)">
      <use xlink:href="#SimSun-30495"/>
      <use x="100" xlink:href="#SimSun-23454"/>
      <use x="200" xlink:href="#SimSun-20540"/>
     </g>
    </g>
    <g id="line2d_18">
     <path d="M 522.3704 42.855012 
L 550.3704 42.855012 
" style="fill:none;stroke:#ff0000;stroke-linecap:square;stroke-width:1.6;"/>
    </g>
    <g id="line2d_19">
     <g>
      <use style="fill:#ff0000;stroke:#ff0000;stroke-linejoin:miter;" x="536.3704" xlink:href="#m7ddfe96298" y="42.855012"/>
     </g>
    </g>
    <g id="text_15">
     <!-- RFE-LSTM预测值 -->
     <defs>
      <path d="M 44.140625 52.734375 
Q 44.140625 44.921875 39.84375 40.625 
Q 35.546875 36.328125 30.078125 35.546875 
L 41.796875 6.640625 
Q 42.578125 5.078125 43.546875 4.484375 
Q 44.53125 3.90625 45.703125 3.90625 
L 48.046875 3.90625 
L 48.046875 1.5625 
L 37.109375 1.5625 
L 24.21875 35.15625 
L 15.234375 35.15625 
L 15.234375 7.03125 
Q 15.234375 5.46875 16.203125 4.6875 
Q 17.1875 3.90625 18.75 3.90625 
L 21.09375 3.90625 
L 21.09375 1.5625 
L 3.125 1.5625 
L 3.125 3.90625 
L 5.46875 3.90625 
Q 7.421875 3.90625 8.203125 4.6875 
Q 8.984375 5.46875 8.984375 7.03125 
L 8.984375 62.890625 
Q 8.984375 64.453125 8.203125 65.234375 
Q 7.421875 66.015625 5.46875 66.015625 
L 3.125 66.015625 
L 3.125 68.359375 
L 25.390625 68.359375 
Q 34.375 68.359375 39.25 64.453125 
Q 44.140625 60.546875 44.140625 52.734375 
z
M 42.96875 3.90625 
z
M 15.234375 37.5 
L 23.828125 37.5 
Q 29.6875 37.5 33.59375 41.015625 
Q 37.5 44.53125 37.5 51.953125 
Q 37.5 58.59375 33.984375 62.296875 
Q 30.46875 66.015625 23.046875 66.015625 
L 18.75 66.015625 
Q 17.1875 66.015625 16.203125 65.234375 
Q 15.234375 64.453125 15.234375 62.890625 
z
" id="SimSun-82"/>
      <path d="M 21.09375 3.90625 
L 21.09375 1.5625 
L 2.34375 1.5625 
L 2.34375 3.90625 
L 5.078125 3.90625 
Q 7.03125 3.90625 7.8125 4.6875 
Q 8.59375 5.46875 8.59375 7.03125 
L 8.59375 62.890625 
Q 8.59375 64.453125 7.8125 65.234375 
Q 7.03125 66.015625 5.078125 66.015625 
L 2.734375 66.015625 
L 2.734375 68.359375 
L 43.359375 68.359375 
L 48.046875 54.296875 
L 46.09375 53.515625 
Q 42.96875 59.765625 38.671875 62.890625 
Q 34.375 66.015625 29.296875 66.015625 
L 18.359375 66.015625 
Q 16.796875 66.015625 15.8125 65.234375 
Q 14.84375 64.453125 14.84375 62.890625 
L 14.84375 37.890625 
L 27.734375 37.890625 
Q 31.640625 37.890625 33.390625 39.640625 
Q 35.15625 41.40625 35.15625 45.3125 
L 35.15625 47.265625 
L 37.5 47.265625 
L 37.5 24.609375 
L 35.15625 24.609375 
L 35.15625 26.171875 
Q 35.15625 30.859375 33.390625 33.203125 
Q 31.640625 35.546875 27.734375 35.546875 
L 14.84375 35.546875 
L 14.84375 7.03125 
Q 14.84375 5.46875 15.8125 4.6875 
Q 16.796875 3.90625 18.359375 3.90625 
z
" id="SimSun-70"/>
      <path d="M 3.125 66.015625 
L 3.125 68.359375 
L 41.40625 68.359375 
L 45.703125 55.078125 
L 43.75 54.296875 
Q 40.625 60.15625 37.109375 63.078125 
Q 33.59375 66.015625 29.296875 66.015625 
L 18.359375 66.015625 
Q 16.796875 66.015625 15.8125 65.234375 
Q 14.84375 64.453125 14.84375 62.890625 
L 14.84375 38.671875 
L 26.171875 38.671875 
Q 30.078125 38.671875 31.828125 40.625 
Q 33.59375 42.578125 33.59375 46.484375 
L 33.59375 48.828125 
L 35.9375 48.828125 
L 35.9375 25.78125 
L 33.59375 25.78125 
L 33.59375 27.34375 
Q 33.59375 31.640625 31.828125 33.984375 
Q 30.078125 36.328125 26.171875 36.328125 
L 14.84375 36.328125 
L 14.84375 7.03125 
Q 14.84375 5.46875 15.8125 4.6875 
Q 16.796875 3.90625 18.359375 3.90625 
L 28.515625 3.90625 
Q 34.375 3.90625 38.46875 7.21875 
Q 42.578125 10.546875 44.921875 17.578125 
L 46.875 16.796875 
L 42.578125 1.5625 
L 2.734375 1.5625 
L 2.734375 3.90625 
L 5.078125 3.90625 
Q 7.03125 3.90625 7.8125 4.6875 
Q 8.59375 5.46875 8.59375 7.03125 
L 8.59375 62.890625 
Q 8.59375 64.453125 7.8125 65.234375 
Q 7.03125 66.015625 5.078125 66.015625 
z
" id="SimSun-69"/>
      <path d="M 3.125 34.765625 
L 3.125 38.28125 
L 46.484375 38.28125 
L 46.484375 34.765625 
z
" id="SimSun-45"/>
      <path d="M 23.4375 33.59375 
Q 12.890625 38.28125 8.984375 41.796875 
Q 5.078125 45.3125 5.078125 52.734375 
Q 5.078125 58.59375 9.953125 63.859375 
Q 14.84375 69.140625 23.828125 69.140625 
Q 27.734375 69.140625 31.25 67.96875 
Q 34.765625 66.40625 36.328125 66.40625 
Q 37.5 66.40625 38.46875 66.984375 
Q 39.453125 67.578125 40.234375 69.140625 
L 41.796875 53.125 
L 39.84375 52.34375 
Q 36.328125 60.546875 32.609375 63.46875 
Q 28.90625 66.40625 23.046875 66.40625 
Q 15.625 66.40625 12.890625 62.296875 
Q 10.15625 58.203125 10.15625 53.515625 
Q 10.15625 49.21875 12.6875 46.671875 
Q 15.234375 44.140625 26.5625 39.0625 
Q 35.9375 35.15625 40.03125 30.265625 
Q 44.140625 25.390625 44.140625 18.75 
Q 44.140625 11.71875 39.25 6.25 
Q 34.375 0.78125 25 0.78125 
Q 21.09375 0.78125 17.96875 2.34375 
Q 14.453125 3.515625 12.5 3.515625 
Q 11.328125 3.515625 10.15625 2.734375 
Q 8.984375 1.953125 7.421875 0.78125 
L 4.296875 19.921875 
L 6.640625 20.703125 
Q 9.375 10.9375 14.25 7.21875 
Q 19.140625 3.515625 25.390625 3.515625 
Q 32.03125 3.515625 35.34375 7.421875 
Q 38.671875 11.328125 38.671875 18.75 
Q 38.671875 22.65625 34.953125 26.359375 
Q 31.25 30.078125 23.4375 33.59375 
z
" id="SimSun-83"/>
      <path d="M 43.75 7.03125 
Q 43.75 5.46875 44.71875 4.6875 
Q 45.703125 3.90625 47.265625 3.90625 
L 48.828125 3.90625 
L 48.828125 1.5625 
L 32.03125 1.5625 
L 32.03125 3.90625 
L 33.984375 3.90625 
Q 35.9375 3.90625 36.71875 4.6875 
Q 37.5 5.46875 37.5 7.03125 
L 37.5 58.203125 
L 36.71875 58.203125 
L 23.4375 1.5625 
L 21.09375 1.5625 
L 8.984375 57.03125 
L 8.203125 57.03125 
L 8.203125 7.03125 
Q 8.203125 5.46875 9.171875 4.6875 
Q 10.15625 3.90625 11.71875 3.90625 
L 12.890625 3.90625 
L 12.890625 1.5625 
L 1.171875 1.5625 
L 1.171875 3.90625 
L 2.34375 3.90625 
Q 4.296875 3.90625 5.078125 4.6875 
Q 5.859375 5.46875 5.859375 7.03125 
L 5.859375 62.890625 
Q 5.859375 64.453125 5.078125 65.234375 
Q 4.296875 66.015625 2.34375 66.015625 
L 0.78125 66.015625 
L 0.78125 68.359375 
L 12.109375 68.359375 
L 23.4375 16.015625 
L 24.21875 16.015625 
L 36.328125 68.359375 
L 48.828125 68.359375 
L 48.828125 66.015625 
L 47.265625 66.015625 
Q 45.703125 66.015625 44.71875 65.234375 
Q 43.75 64.453125 43.75 62.890625 
z
" id="SimSun-77"/>
     </defs>
     <g transform="translate(561.5704 47.755012)scale(0.14 -0.14)">
      <use xlink:href="#SimSun-82"/>
      <use x="50" xlink:href="#SimSun-70"/>
      <use x="100" xlink:href="#SimSun-69"/>
      <use x="150" xlink:href="#SimSun-45"/>
      <use x="200" xlink:href="#SimSun-76"/>
      <use x="250" xlink:href="#SimSun-83"/>
      <use x="300" xlink:href="#SimSun-84"/>
      <use x="350" xlink:href="#SimSun-77"/>
      <use x="400" xlink:href="#SimSun-39044"/>
      <use x="500" xlink:href="#SimSun-27979"/>
      <use x="600" xlink:href="#SimSun-20540"/>
     </g>
    </g>
    <g id="line2d_20">
     <path d="M 522.3704 62.706575 
L 550.3704 62.706575 
" style="fill:none;stroke:#32cd32;stroke-dasharray:5.92,2.56;stroke-dashoffset:0;stroke-width:1.6;"/>
    </g>
    <g id="line2d_21">
     <g>
      <use style="fill:#32cd32;stroke:#32cd32;stroke-linejoin:bevel;" x="536.3704" xlink:href="#mdfe4b3ce5d" y="62.706575"/>
     </g>
    </g>
    <g id="text_16">
     <!-- 经典LSTM预测值 -->
     <defs>
      <path d="M 77.734375 69.921875 
Q 72.265625 62.5 66.40625 55.078125 
Q 79.296875 50 84.765625 46.875 
Q 90.234375 43.75 90.8125 40.625 
Q 91.40625 37.5 90.421875 36.125 
Q 89.453125 34.765625 88.671875 34.765625 
Q 87.109375 34.765625 84.375 38.671875 
Q 80.46875 44.140625 65.234375 53.515625 
Q 61.328125 49.21875 54.484375 44.140625 
Q 47.65625 39.0625 35.546875 33.984375 
L 35.15625 35.546875 
Q 48.046875 42.578125 56.25 50.78125 
Q 64.453125 58.984375 71.484375 71.484375 
L 53.90625 71.484375 
Q 48.828125 71.484375 44.53125 70.3125 
L 41.015625 73.828125 
L 71.875 73.828125 
L 75.78125 77.734375 
L 81.640625 71.875 
z
M 42.96875 28.125 
L 77.34375 28.125 
L 82.03125 32.8125 
L 88.671875 25.78125 
L 66.015625 25.78125 
L 66.015625 -0.78125 
L 84.375 -0.78125 
L 89.0625 3.90625 
L 95.703125 -3.125 
L 45.703125 -3.125 
Q 40.625 -3.125 36.328125 -4.296875 
L 32.8125 -0.78125 
L 60.546875 -0.78125 
L 60.546875 25.78125 
L 55.859375 25.78125 
Q 50.78125 25.78125 46.484375 24.609375 
z
M 14.0625 23.828125 
L 39.453125 28.125 
L 39.84375 26.5625 
Q 32.421875 24.609375 24.796875 22.0625 
Q 17.1875 19.53125 12.109375 16.015625 
L 7.421875 23.4375 
Q 11.328125 24.609375 16.984375 31.046875 
Q 22.65625 37.5 28.515625 46.484375 
Q 22.65625 45.3125 17.96875 44.140625 
Q 13.28125 42.96875 8.203125 39.84375 
L 4.6875 47.265625 
Q 9.375 48.4375 15.8125 60.15625 
Q 22.265625 71.875 24.21875 80.078125 
L 32.421875 75 
L 28.90625 72.65625 
Q 17.96875 54.6875 10.15625 47.265625 
L 29.6875 48.4375 
Q 34.765625 56.25 37.5 63.28125 
L 45.3125 57.421875 
L 41.015625 55.859375 
Q 28.515625 37.890625 14.0625 23.828125 
z
M 8.984375 -3.125 
L 5.078125 3.90625 
Q 24.21875 7.421875 42.1875 11.71875 
L 42.578125 10.15625 
Q 35.546875 7.8125 24.40625 3.90625 
Q 13.28125 0 8.984375 -3.125 
z
" id="SimSun-32463"/>
      <path d="M 35.9375 14.453125 
L 42.96875 7.421875 
Q 39.453125 7.03125 29.6875 0.390625 
Q 19.53125 -6.25 8.59375 -10.15625 
L 7.8125 -8.984375 
Q 17.96875 -3.515625 24.609375 2.53125 
Q 31.25 8.59375 35.9375 14.453125 
z
M 58.59375 12.109375 
L 59.375 13.671875 
Q 81.640625 3.90625 83.59375 0.78125 
Q 85.546875 -2.34375 85.546875 -4.6875 
Q 85.546875 -6.640625 84.765625 -8 
Q 83.984375 -9.375 83.59375 -9.375 
Q 81.640625 -9.375 77.34375 -3.515625 
Q 71.484375 4.296875 58.59375 12.109375 
z
M 21.09375 18.75 
L 21.09375 48.4375 
Q 21.09375 56.25 20.703125 65.234375 
L 26.171875 62.5 
L 38.28125 62.5 
L 38.28125 71.875 
Q 38.28125 76.953125 37.890625 81.640625 
L 46.09375 77.34375 
L 43.359375 74.609375 
L 43.359375 62.5 
L 55.078125 62.5 
L 55.078125 71.875 
Q 55.078125 77.34375 54.6875 81.640625 
L 63.28125 77.34375 
L 60.15625 74.21875 
L 60.15625 62.5 
L 71.875 62.5 
L 75.390625 66.40625 
L 81.640625 60.9375 
L 77.734375 58.59375 
L 77.734375 18.75 
L 81.25 18.75 
L 87.109375 24.609375 
L 95.3125 16.40625 
L 18.75 16.40625 
Q 13.671875 16.40625 9.375 15.234375 
L 5.859375 18.75 
z
M 26.171875 60.15625 
L 26.171875 41.796875 
L 38.28125 41.796875 
L 38.28125 60.15625 
z
M 43.359375 60.15625 
L 43.359375 41.796875 
L 55.078125 41.796875 
L 55.078125 60.15625 
z
M 60.15625 60.15625 
L 60.15625 41.796875 
L 72.65625 41.796875 
L 72.65625 60.15625 
z
M 26.171875 39.453125 
L 26.171875 18.75 
L 38.28125 18.75 
L 38.28125 39.453125 
z
M 43.359375 39.453125 
L 43.359375 18.75 
L 55.078125 18.75 
L 55.078125 39.453125 
z
M 60.15625 39.453125 
L 60.15625 18.75 
L 72.65625 18.75 
L 72.65625 39.453125 
z
" id="SimSun-20856"/>
     </defs>
     <g transform="translate(561.5704 67.606575)scale(0.14 -0.14)">
      <use xlink:href="#SimSun-32463"/>
      <use x="100" xlink:href="#SimSun-20856"/>
      <use x="200" xlink:href="#SimSun-76"/>
      <use x="250" xlink:href="#SimSun-83"/>
      <use x="300" xlink:href="#SimSun-84"/>
      <use x="350" xlink:href="#SimSun-77"/>
      <use x="400" xlink:href="#SimSun-39044"/>
      <use x="500" xlink:href="#SimSun-27979"/>
      <use x="600" xlink:href="#SimSun-20540"/>
     </g>
    </g>
    <g id="line2d_22">
     <path d="M 522.3704 82.558137 
L 550.3704 82.558137 
" style="fill:none;stroke:#ff8c00;stroke-dasharray:5.92,2.56;stroke-dashoffset:0;stroke-width:1.6;"/>
    </g>
    <g id="line2d_23">
     <g>
      <use style="fill:#ff8c00;stroke:#ff8c00;stroke-linejoin:miter;" x="536.3704" xlink:href="#m50d1902dec" y="82.558137"/>
     </g>
    </g>
    <g id="text_17">
     <!-- MLP预测值 -->
     <defs>
      <path d="M 14.84375 32.8125 
L 14.84375 7.03125 
Q 14.84375 5.46875 15.8125 4.6875 
Q 16.796875 3.90625 18.359375 3.90625 
L 21.09375 3.90625 
L 21.09375 1.5625 
L 2.34375 1.5625 
L 2.34375 3.90625 
L 5.078125 3.90625 
Q 7.03125 3.90625 7.8125 4.6875 
Q 8.59375 5.46875 8.59375 7.03125 
L 8.59375 62.890625 
Q 8.59375 64.453125 7.8125 65.234375 
Q 7.03125 66.015625 5.078125 66.015625 
L 2.734375 66.015625 
L 2.734375 68.359375 
L 25.78125 68.359375 
Q 35.546875 68.359375 40.8125 63.46875 
Q 46.09375 58.59375 46.09375 51.171875 
Q 46.09375 42.1875 40.421875 37.5 
Q 34.765625 32.8125 26.953125 32.8125 
z
M 24.609375 35.15625 
Q 30.46875 35.15625 34.953125 38.671875 
Q 39.453125 42.1875 39.453125 50.78125 
Q 39.453125 58.59375 35.734375 62.296875 
Q 32.03125 66.015625 23.828125 66.015625 
L 18.359375 66.015625 
Q 16.796875 66.015625 15.8125 65.234375 
Q 14.84375 64.453125 14.84375 62.890625 
L 14.84375 35.15625 
z
" id="SimSun-80"/>
     </defs>
     <g transform="translate(561.5704 87.458137)scale(0.14 -0.14)">
      <use xlink:href="#SimSun-77"/>
      <use x="50" xlink:href="#SimSun-76"/>
      <use x="100" xlink:href="#SimSun-80"/>
      <use x="150" xlink:href="#SimSun-39044"/>
      <use x="250" xlink:href="#SimSun-27979"/>
      <use x="350" xlink:href="#SimSun-20540"/>
     </g>
    </g>
   </g>
  </g>
 </g>
 <defs>
  <clipPath id="pdfefe0fa9a">
   <rect height="373.248" width="617.8536" x="54.3168" y="4.1472"/>
  </clipPath>
 </defs>
</svg>
