<?xml version="1.0" encoding="utf-8" standalone="no"?>
<!DOCTYPE svg PUBLIC "-//W3C//DTD SVG 1.1//EN"
  "http://www.w3.org/Graphics/SVG/1.1/DTD/svg11.dtd">
<!-- Created with matplotlib (https://matplotlib.org/) -->
<svg height="379.44pt" version="1.1" viewBox="0 0 360 379.44" width="360pt" xmlns="http://www.w3.org/2000/svg" xmlns:xlink="http://www.w3.org/1999/xlink">
 <defs>
  <style type="text/css">
*{stroke-linecap:butt;stroke-linejoin:round;}
  </style>
 </defs>
 <g id="figure_1">
  <g id="patch_1">
   <path d="M 0 379.44 
L 360 379.44 
L 360 0 
L 0 0 
z
" style="fill:#ffffff;"/>
  </g>
  <g id="axes_1">
   <g id="patch_2">
    <path d="M 45 337.7016 
L 333 337.7016 
L 333 24.6636 
L 45 24.6636 
z
" style="fill:#ffffff;"/>
   </g>
   <g id="PathCollection_1">
    <defs>
     <path d="M 0 3 
C 0.795609 3 1.55874 2.683901 2.12132 2.12132 
C 2.683901 1.55874 3 0.795609 3 0 
C 3 -0.795609 2.683901 -1.55874 2.12132 -2.12132 
C 1.55874 -2.683901 0.795609 -3 0 -3 
C -0.795609 -3 -1.55874 -2.683901 -2.12132 -2.12132 
C -2.683901 -1.55874 -3 -0.795609 -3 0 
C -3 0.795609 -2.683901 1.55874 -2.12132 2.12132 
C -1.55874 2.683901 -0.795609 3 0 3 
z
" id="m1b4414e99d" style="stroke:#ff0000;"/>
    </defs>
    <g clip-path="url(#p0e4aa37ce4)">
     <use style="fill:#ff0000;stroke:#ff0000;" x="83.296815" xlink:href="#m1b4414e99d" y="295.02743"/>
     <use style="fill:#ff0000;stroke:#ff0000;" x="125.018033" xlink:href="#m1b4414e99d" y="251.669657"/>
     <use style="fill:#ff0000;stroke:#ff0000;" x="231.188978" xlink:href="#m1b4414e99d" y="164.067751"/>
     <use style="fill:#ff0000;stroke:#ff0000;" x="304.657977" xlink:href="#m1b4414e99d" y="73.482017"/>
     <use style="fill:#ff0000;stroke:#ff0000;" x="296.78435" xlink:href="#m1b4414e99d" y="72.661072"/>
     <use style="fill:#ff0000;stroke:#ff0000;" x="284.381309" xlink:href="#m1b4414e99d" y="117.134022"/>
     <use style="fill:#ff0000;stroke:#ff0000;" x="269.248233" xlink:href="#m1b4414e99d" y="123.195451"/>
     <use style="fill:#ff0000;stroke:#ff0000;" x="261.989135" xlink:href="#m1b4414e99d" y="127.197018"/>
     <use style="fill:#ff0000;stroke:#ff0000;" x="236.58162" xlink:href="#m1b4414e99d" y="132.0683"/>
     <use style="fill:#ff0000;stroke:#ff0000;" x="235.007257" xlink:href="#m1b4414e99d" y="151.3965"/>
     <use style="fill:#ff0000;stroke:#ff0000;" x="192.357945" xlink:href="#m1b4414e99d" y="178.33767"/>
     <use style="fill:#ff0000;stroke:#ff0000;" x="109.203467" xlink:href="#m1b4414e99d" y="253.808155"/>
     <use style="fill:#ff0000;stroke:#ff0000;" x="68.847796" xlink:href="#m1b4414e99d" y="286.227155"/>
     <use style="fill:#ff0000;stroke:#ff0000;" x="160.142319" xlink:href="#m1b4414e99d" y="224.869866"/>
     <use style="fill:#ff0000;stroke:#ff0000;" x="281.353271" xlink:href="#m1b4414e99d" y="120.24964"/>
     <use style="fill:#ff0000;stroke:#ff0000;" x="319.909091" xlink:href="#m1b4414e99d" y="49.185337"/>
     <use style="fill:#ff0000;stroke:#ff0000;" x="303.320934" xlink:href="#m1b4414e99d" y="57.869681"/>
     <use style="fill:#ff0000;stroke:#ff0000;" x="262.575274" xlink:href="#m1b4414e99d" y="112.704139"/>
     <use style="fill:#ff0000;stroke:#ff0000;" x="252.373737" xlink:href="#m1b4414e99d" y="129.597725"/>
     <use style="fill:#ff0000;stroke:#ff0000;" x="243.376287" xlink:href="#m1b4414e99d" y="127.061119"/>
     <use style="fill:#ff0000;stroke:#ff0000;" x="220.834489" xlink:href="#m1b4414e99d" y="130.680742"/>
     <use style="fill:#ff0000;stroke:#ff0000;" x="205.875665" xlink:href="#m1b4414e99d" y="150.154157"/>
     <use style="fill:#ff0000;stroke:#ff0000;" x="188.061942" xlink:href="#m1b4414e99d" y="192.419358"/>
     <use style="fill:#ff0000;stroke:#ff0000;" x="120.569306" xlink:href="#m1b4414e99d" y="270.951963"/>
     <use style="fill:#ff0000;stroke:#ff0000;" x="58.090909" xlink:href="#m1b4414e99d" y="313.407519"/>
     <use style="fill:#ff0000;stroke:#ff0000;" x="79.262675" xlink:href="#m1b4414e99d" y="289.560492"/>
     <use style="fill:#ff0000;stroke:#ff0000;" x="147.692097" xlink:href="#m1b4414e99d" y="235.746204"/>
     <use style="fill:#ff0000;stroke:#ff0000;" x="198.115675" xlink:href="#m1b4414e99d" y="164.103096"/>
     <use style="fill:#ff0000;stroke:#ff0000;" x="186.6115" xlink:href="#m1b4414e99d" y="171.119863"/>
     <use style="fill:#ff0000;stroke:#ff0000;" x="153.83314" xlink:href="#m1b4414e99d" y="222.595263"/>
     <use style="fill:#ff0000;stroke:#ff0000;" x="134.510455" xlink:href="#m1b4414e99d" y="257.363322"/>
     <use style="fill:#ff0000;stroke:#ff0000;" x="131.000156" xlink:href="#m1b4414e99d" y="252.495568"/>
     <use style="fill:#ff0000;stroke:#ff0000;" x="134.958878" xlink:href="#m1b4414e99d" y="236.244593"/>
     <use style="fill:#ff0000;stroke:#ff0000;" x="130.092181" xlink:href="#m1b4414e99d" y="222.671227"/>
     <use style="fill:#ff0000;stroke:#ff0000;" x="140.68894" xlink:href="#m1b4414e99d" y="214.966812"/>
     <use style="fill:#ff0000;stroke:#ff0000;" x="126.139397" xlink:href="#m1b4414e99d" y="241.178071"/>
     <use style="fill:#ff0000;stroke:#ff0000;" x="80.854504" xlink:href="#m1b4414e99d" y="297.078422"/>
     <use style="fill:#ff0000;stroke:#ff0000;" x="95.987091" xlink:href="#m1b4414e99d" y="299.349299"/>
     <use style="fill:#ff0000;stroke:#ff0000;" x="140.086305" xlink:href="#m1b4414e99d" y="249.277512"/>
     <use style="fill:#ff0000;stroke:#ff0000;" x="212.263172" xlink:href="#m1b4414e99d" y="162.404011"/>
     <use style="fill:#ff0000;stroke:#ff0000;" x="277.405595" xlink:href="#m1b4414e99d" y="98.070908"/>
     <use style="fill:#ff0000;stroke:#ff0000;" x="246.525029" xlink:href="#m1b4414e99d" y="113.899835"/>
     <use style="fill:#ff0000;stroke:#ff0000;" x="226.565082" xlink:href="#m1b4414e99d" y="140.840389"/>
     <use style="fill:#ff0000;stroke:#ff0000;" x="215.409095" xlink:href="#m1b4414e99d" y="153.760698"/>
     <use style="fill:#ff0000;stroke:#ff0000;" x="187.451851" xlink:href="#m1b4414e99d" y="164.6432"/>
     <use style="fill:#ff0000;stroke:#ff0000;" x="189.351804" xlink:href="#m1b4414e99d" y="174.624068"/>
     <use style="fill:#ff0000;stroke:#ff0000;" x="172.999219" xlink:href="#m1b4414e99d" y="195.626625"/>
     <use style="fill:#ff0000;stroke:#ff0000;" x="115.509675" xlink:href="#m1b4414e99d" y="250.400155"/>
     <use style="fill:#ff0000;stroke:#ff0000;" x="75.593989" xlink:href="#m1b4414e99d" y="306.281293"/>
     <use style="fill:#ff0000;stroke:#ff0000;" x="96.228889" xlink:href="#m1b4414e99d" y="285.06868"/>
    </g>
   </g>
   <g id="PathCollection_2">
    <defs>
     <path d="M 0 3 
C 0.795609 3 1.55874 2.683901 2.12132 2.12132 
C 2.683901 1.55874 3 0.795609 3 0 
C 3 -0.795609 2.683901 -1.55874 2.12132 -2.12132 
C 1.55874 -2.683901 0.795609 -3 0 -3 
C -0.795609 -3 -1.55874 -2.683901 -2.12132 -2.12132 
C -2.683901 -1.55874 -3 -0.795609 -3 0 
C -3 0.795609 -2.683901 1.55874 -2.12132 2.12132 
C -1.55874 2.683901 -0.795609 3 0 3 
z
" id="m9ab9685180" style="stroke:#32cd32;"/>
    </defs>
    <g clip-path="url(#p0e4aa37ce4)">
     <use style="fill:#32cd32;stroke:#32cd32;" x="83.296815" xlink:href="#m9ab9685180" y="310.340439"/>
     <use style="fill:#32cd32;stroke:#32cd32;" x="125.018033" xlink:href="#m9ab9685180" y="264.765759"/>
     <use style="fill:#32cd32;stroke:#32cd32;" x="231.188978" xlink:href="#m9ab9685180" y="152.259639"/>
     <use style="fill:#32cd32;stroke:#32cd32;" x="304.657977" xlink:href="#m9ab9685180" y="67.997955"/>
     <use style="fill:#32cd32;stroke:#32cd32;" x="296.78435" xlink:href="#m9ab9685180" y="86.184572"/>
     <use style="fill:#32cd32;stroke:#32cd32;" x="284.381309" xlink:href="#m9ab9685180" y="116.658854"/>
     <use style="fill:#32cd32;stroke:#32cd32;" x="269.248233" xlink:href="#m9ab9685180" y="133.096177"/>
     <use style="fill:#32cd32;stroke:#32cd32;" x="261.989135" xlink:href="#m9ab9685180" y="143.999776"/>
     <use style="fill:#32cd32;stroke:#32cd32;" x="236.58162" xlink:href="#m9ab9685180" y="151.139497"/>
     <use style="fill:#32cd32;stroke:#32cd32;" x="235.007257" xlink:href="#m9ab9685180" y="162.853561"/>
     <use style="fill:#32cd32;stroke:#32cd32;" x="192.357945" xlink:href="#m9ab9685180" y="203.078626"/>
     <use style="fill:#32cd32;stroke:#32cd32;" x="109.203467" xlink:href="#m9ab9685180" y="294.268948"/>
     <use style="fill:#32cd32;stroke:#32cd32;" x="68.847796" xlink:href="#m9ab9685180" y="297.453879"/>
     <use style="fill:#32cd32;stroke:#32cd32;" x="160.142319" xlink:href="#m9ab9685180" y="215.631582"/>
     <use style="fill:#32cd32;stroke:#32cd32;" x="281.353271" xlink:href="#m9ab9685180" y="120.887559"/>
     <use style="fill:#32cd32;stroke:#32cd32;" x="319.909091" xlink:href="#m9ab9685180" y="61.7722"/>
     <use style="fill:#32cd32;stroke:#32cd32;" x="303.320934" xlink:href="#m9ab9685180" y="76.234392"/>
     <use style="fill:#32cd32;stroke:#32cd32;" x="262.575274" xlink:href="#m9ab9685180" y="121.71323"/>
     <use style="fill:#32cd32;stroke:#32cd32;" x="252.373737" xlink:href="#m9ab9685180" y="149.790571"/>
     <use style="fill:#32cd32;stroke:#32cd32;" x="243.376287" xlink:href="#m9ab9685180" y="154.409028"/>
     <use style="fill:#32cd32;stroke:#32cd32;" x="220.834489" xlink:href="#m9ab9685180" y="172.665239"/>
     <use style="fill:#32cd32;stroke:#32cd32;" x="205.875665" xlink:href="#m9ab9685180" y="167.064662"/>
     <use style="fill:#32cd32;stroke:#32cd32;" x="188.061942" xlink:href="#m9ab9685180" y="200.968281"/>
     <use style="fill:#32cd32;stroke:#32cd32;" x="120.569306" xlink:href="#m9ab9685180" y="293.90052"/>
     <use style="fill:#32cd32;stroke:#32cd32;" x="58.090909" xlink:href="#m9ab9685180" y="317.135136"/>
     <use style="fill:#32cd32;stroke:#32cd32;" x="79.262675" xlink:href="#m9ab9685180" y="285.673782"/>
     <use style="fill:#32cd32;stroke:#32cd32;" x="147.692097" xlink:href="#m9ab9685180" y="241.477817"/>
     <use style="fill:#32cd32;stroke:#32cd32;" x="198.115675" xlink:href="#m9ab9685180" y="213.535484"/>
     <use style="fill:#32cd32;stroke:#32cd32;" x="186.6115" xlink:href="#m9ab9685180" y="206.089305"/>
     <use style="fill:#32cd32;stroke:#32cd32;" x="153.83314" xlink:href="#m9ab9685180" y="232.170761"/>
     <use style="fill:#32cd32;stroke:#32cd32;" x="134.510455" xlink:href="#m9ab9685180" y="259.576003"/>
     <use style="fill:#32cd32;stroke:#32cd32;" x="131.000156" xlink:href="#m9ab9685180" y="269.683181"/>
     <use style="fill:#32cd32;stroke:#32cd32;" x="134.958878" xlink:href="#m9ab9685180" y="262.723979"/>
     <use style="fill:#32cd32;stroke:#32cd32;" x="130.092181" xlink:href="#m9ab9685180" y="238.95854"/>
     <use style="fill:#32cd32;stroke:#32cd32;" x="140.68894" xlink:href="#m9ab9685180" y="241.673583"/>
     <use style="fill:#32cd32;stroke:#32cd32;" x="126.139397" xlink:href="#m9ab9685180" y="274.154457"/>
     <use style="fill:#32cd32;stroke:#32cd32;" x="80.854504" xlink:href="#m9ab9685180" y="317.261062"/>
     <use style="fill:#32cd32;stroke:#32cd32;" x="95.987091" xlink:href="#m9ab9685180" y="303.128618"/>
     <use style="fill:#32cd32;stroke:#32cd32;" x="140.086305" xlink:href="#m9ab9685180" y="220.581088"/>
     <use style="fill:#32cd32;stroke:#32cd32;" x="212.263172" xlink:href="#m9ab9685180" y="155.710827"/>
     <use style="fill:#32cd32;stroke:#32cd32;" x="277.405595" xlink:href="#m9ab9685180" y="113.236914"/>
     <use style="fill:#32cd32;stroke:#32cd32;" x="246.525029" xlink:href="#m9ab9685180" y="141.980259"/>
     <use style="fill:#32cd32;stroke:#32cd32;" x="226.565082" xlink:href="#m9ab9685180" y="175.285276"/>
     <use style="fill:#32cd32;stroke:#32cd32;" x="215.409095" xlink:href="#m9ab9685180" y="181.880165"/>
     <use style="fill:#32cd32;stroke:#32cd32;" x="187.451851" xlink:href="#m9ab9685180" y="190.870488"/>
     <use style="fill:#32cd32;stroke:#32cd32;" x="189.351804" xlink:href="#m9ab9685180" y="197.152891"/>
     <use style="fill:#32cd32;stroke:#32cd32;" x="172.999219" xlink:href="#m9ab9685180" y="218.20141"/>
     <use style="fill:#32cd32;stroke:#32cd32;" x="115.509675" xlink:href="#m9ab9685180" y="281.499478"/>
     <use style="fill:#32cd32;stroke:#32cd32;" x="75.593989" xlink:href="#m9ab9685180" y="315.939125"/>
     <use style="fill:#32cd32;stroke:#32cd32;" x="96.228889" xlink:href="#m9ab9685180" y="269.606765"/>
    </g>
   </g>
   <g id="PathCollection_3">
    <defs>
     <path d="M 0 3 
C 0.795609 3 1.55874 2.683901 2.12132 2.12132 
C 2.683901 1.55874 3 0.795609 3 0 
C 3 -0.795609 2.683901 -1.55874 2.12132 -2.12132 
C 1.55874 -2.683901 0.795609 -3 0 -3 
C -0.795609 -3 -1.55874 -2.683901 -2.12132 -2.12132 
C -2.683901 -1.55874 -3 -0.795609 -3 0 
C -3 0.795609 -2.683901 1.55874 -2.12132 2.12132 
C -1.55874 2.683901 -0.795609 3 0 3 
z
" id="m0751ec9d97" style="stroke:#ff8c00;"/>
    </defs>
    <g clip-path="url(#p0e4aa37ce4)">
     <use style="fill:#ff8c00;stroke:#ff8c00;" x="83.296815" xlink:href="#m0751ec9d97" y="289.924475"/>
     <use style="fill:#ff8c00;stroke:#ff8c00;" x="125.018033" xlink:href="#m0751ec9d97" y="241.103306"/>
     <use style="fill:#ff8c00;stroke:#ff8c00;" x="231.188978" xlink:href="#m0751ec9d97" y="135.799918"/>
     <use style="fill:#ff8c00;stroke:#ff8c00;" x="304.657977" xlink:href="#m0751ec9d97" y="62.909946"/>
     <use style="fill:#ff8c00;stroke:#ff8c00;" x="296.78435" xlink:href="#m0751ec9d97" y="54.151352"/>
     <use style="fill:#ff8c00;stroke:#ff8c00;" x="284.381309" xlink:href="#m0751ec9d97" y="96.355863"/>
     <use style="fill:#ff8c00;stroke:#ff8c00;" x="269.248233" xlink:href="#m0751ec9d97" y="112.006764"/>
     <use style="fill:#ff8c00;stroke:#ff8c00;" x="261.989135" xlink:href="#m0751ec9d97" y="117.867701"/>
     <use style="fill:#ff8c00;stroke:#ff8c00;" x="236.58162" xlink:href="#m0751ec9d97" y="124.985365"/>
     <use style="fill:#ff8c00;stroke:#ff8c00;" x="235.007257" xlink:href="#m0751ec9d97" y="155.264976"/>
     <use style="fill:#ff8c00;stroke:#ff8c00;" x="192.357945" xlink:href="#m0751ec9d97" y="192.331544"/>
     <use style="fill:#ff8c00;stroke:#ff8c00;" x="109.203467" xlink:href="#m0751ec9d97" y="262.848275"/>
     <use style="fill:#ff8c00;stroke:#ff8c00;" x="68.847796" xlink:href="#m0751ec9d97" y="280.841955"/>
     <use style="fill:#ff8c00;stroke:#ff8c00;" x="160.142319" xlink:href="#m0751ec9d97" y="199.713266"/>
     <use style="fill:#ff8c00;stroke:#ff8c00;" x="281.353271" xlink:href="#m0751ec9d97" y="88.709123"/>
     <use style="fill:#ff8c00;stroke:#ff8c00;" x="319.909091" xlink:href="#m0751ec9d97" y="43.119045"/>
     <use style="fill:#ff8c00;stroke:#ff8c00;" x="303.320934" xlink:href="#m0751ec9d97" y="38.8926"/>
     <use style="fill:#ff8c00;stroke:#ff8c00;" x="262.575274" xlink:href="#m0751ec9d97" y="86.756117"/>
     <use style="fill:#ff8c00;stroke:#ff8c00;" x="252.373737" xlink:href="#m0751ec9d97" y="113.554333"/>
     <use style="fill:#ff8c00;stroke:#ff8c00;" x="243.376287" xlink:href="#m0751ec9d97" y="115.37185"/>
     <use style="fill:#ff8c00;stroke:#ff8c00;" x="220.834489" xlink:href="#m0751ec9d97" y="128.967615"/>
     <use style="fill:#ff8c00;stroke:#ff8c00;" x="205.875665" xlink:href="#m0751ec9d97" y="156.609277"/>
     <use style="fill:#ff8c00;stroke:#ff8c00;" x="188.061942" xlink:href="#m0751ec9d97" y="202.023762"/>
     <use style="fill:#ff8c00;stroke:#ff8c00;" x="120.569306" xlink:href="#m0751ec9d97" y="266.632225"/>
     <use style="fill:#ff8c00;stroke:#ff8c00;" x="58.090909" xlink:href="#m0751ec9d97" y="298.495735"/>
     <use style="fill:#ff8c00;stroke:#ff8c00;" x="79.262675" xlink:href="#m0751ec9d97" y="264.581678"/>
     <use style="fill:#ff8c00;stroke:#ff8c00;" x="147.692097" xlink:href="#m0751ec9d97" y="213.91366"/>
     <use style="fill:#ff8c00;stroke:#ff8c00;" x="198.115675" xlink:href="#m0751ec9d97" y="167.399616"/>
     <use style="fill:#ff8c00;stroke:#ff8c00;" x="186.6115" xlink:href="#m0751ec9d97" y="164.614431"/>
     <use style="fill:#ff8c00;stroke:#ff8c00;" x="153.83314" xlink:href="#m0751ec9d97" y="215.903141"/>
     <use style="fill:#ff8c00;stroke:#ff8c00;" x="134.510455" xlink:href="#m0751ec9d97" y="243.764886"/>
     <use style="fill:#ff8c00;stroke:#ff8c00;" x="131.000156" xlink:href="#m0751ec9d97" y="236.924981"/>
     <use style="fill:#ff8c00;stroke:#ff8c00;" x="134.958878" xlink:href="#m0751ec9d97" y="211.716528"/>
     <use style="fill:#ff8c00;stroke:#ff8c00;" x="130.092181" xlink:href="#m0751ec9d97" y="190.096875"/>
     <use style="fill:#ff8c00;stroke:#ff8c00;" x="140.68894" xlink:href="#m0751ec9d97" y="198.353176"/>
     <use style="fill:#ff8c00;stroke:#ff8c00;" x="126.139397" xlink:href="#m0751ec9d97" y="248.815495"/>
     <use style="fill:#ff8c00;stroke:#ff8c00;" x="80.854504" xlink:href="#m0751ec9d97" y="307.748006"/>
     <use style="fill:#ff8c00;stroke:#ff8c00;" x="95.987091" xlink:href="#m0751ec9d97" y="299.990259"/>
     <use style="fill:#ff8c00;stroke:#ff8c00;" x="140.086305" xlink:href="#m0751ec9d97" y="224.12146"/>
     <use style="fill:#ff8c00;stroke:#ff8c00;" x="212.263172" xlink:href="#m0751ec9d97" y="136.275908"/>
     <use style="fill:#ff8c00;stroke:#ff8c00;" x="277.405595" xlink:href="#m0751ec9d97" y="93.857821"/>
     <use style="fill:#ff8c00;stroke:#ff8c00;" x="246.525029" xlink:href="#m0751ec9d97" y="129.993779"/>
     <use style="fill:#ff8c00;stroke:#ff8c00;" x="226.565082" xlink:href="#m0751ec9d97" y="154.727406"/>
     <use style="fill:#ff8c00;stroke:#ff8c00;" x="215.409095" xlink:href="#m0751ec9d97" y="152.436911"/>
     <use style="fill:#ff8c00;stroke:#ff8c00;" x="187.451851" xlink:href="#m0751ec9d97" y="155.472798"/>
     <use style="fill:#ff8c00;stroke:#ff8c00;" x="189.351804" xlink:href="#m0751ec9d97" y="163.195776"/>
     <use style="fill:#ff8c00;stroke:#ff8c00;" x="172.999219" xlink:href="#m0751ec9d97" y="183.392595"/>
     <use style="fill:#ff8c00;stroke:#ff8c00;" x="115.509675" xlink:href="#m0751ec9d97" y="253.744658"/>
     <use style="fill:#ff8c00;stroke:#ff8c00;" x="75.593989" xlink:href="#m0751ec9d97" y="296.508179"/>
     <use style="fill:#ff8c00;stroke:#ff8c00;" x="96.228889" xlink:href="#m0751ec9d97" y="263.812517"/>
    </g>
   </g>
   <g id="matplotlib.axis_1">
    <g id="xtick_1">
     <g id="line2d_1">
      <defs>
       <path d="M 0 0 
L 0 3.5 
" id="mc6ead695eb" style="stroke:#000000;stroke-width:0.8;"/>
      </defs>
      <g>
       <use style="stroke:#000000;stroke-width:0.8;" x="50.558199" xlink:href="#mc6ead695eb" y="337.7016"/>
      </g>
     </g>
     <g id="text_1">
      <!-- 7.0 -->
      <defs>
       <path d="M 44.140625 65.625 
Q 35.9375 52.34375 31.046875 39.640625 
Q 26.171875 26.953125 26.171875 17.578125 
Q 26.171875 16.015625 26.5625 13.28125 
Q 26.5625 10.15625 26.5625 6.25 
Q 26.5625 3.125 25.578125 1.953125 
Q 24.609375 0.78125 22.265625 0.78125 
Q 20.3125 0.78125 18.9375 2.140625 
Q 17.578125 3.515625 17.578125 7.03125 
Q 17.578125 14.453125 20.890625 25.390625 
Q 24.21875 36.328125 38.671875 62.5 
L 19.140625 62.5 
Q 14.84375 62.5 12.296875 59.765625 
Q 9.765625 57.03125 8.59375 51.5625 
L 6.25 51.953125 
L 8.984375 68.359375 
L 44.140625 68.359375 
z
" id="SimSun-55"/>
       <path d="M 12.5 0.390625 
Q 10.15625 0.390625 8.390625 1.953125 
Q 6.640625 3.515625 6.640625 6.25 
Q 6.640625 8.984375 8.390625 10.546875 
Q 10.15625 12.109375 12.5 12.109375 
Q 14.84375 12.109375 16.59375 10.34375 
Q 18.359375 8.59375 18.359375 6.25 
Q 18.359375 3.515625 16.59375 1.953125 
Q 14.84375 0.390625 12.5 0.390625 
z
" id="SimSun-46"/>
       <path d="M 25 66.015625 
Q 19.53125 66.015625 15.8125 57.609375 
Q 12.109375 49.21875 12.109375 35.15625 
Q 12.109375 20.3125 15.8125 12.109375 
Q 19.53125 3.90625 25 3.90625 
Q 30.859375 3.90625 34.171875 12.109375 
Q 37.5 20.3125 37.5 35.15625 
Q 37.5 49.21875 34.375 57.609375 
Q 31.25 66.015625 25 66.015625 
z
M 25 0.78125 
Q 16.40625 0.78125 10.546875 9.765625 
Q 4.6875 18.75 4.6875 35.15625 
Q 4.6875 50.390625 10.34375 59.765625 
Q 16.015625 69.140625 25 69.140625 
Q 33.59375 69.140625 39.25 60.15625 
Q 44.921875 51.171875 44.921875 35.15625 
Q 44.921875 19.140625 39.25 9.953125 
Q 33.59375 0.78125 25 0.78125 
z
" id="SimSun-48"/>
      </defs>
      <g transform="translate(43.058199 351.850037)scale(0.1 -0.1)">
       <use xlink:href="#SimSun-55"/>
       <use x="50" xlink:href="#SimSun-46"/>
       <use x="100" xlink:href="#SimSun-48"/>
      </g>
     </g>
    </g>
    <g id="xtick_2">
     <g id="line2d_2">
      <g>
       <use style="stroke:#000000;stroke-width:0.8;" x="85.312289" xlink:href="#mc6ead695eb" y="337.7016"/>
      </g>
     </g>
     <g id="text_2">
      <!-- 7.5 -->
      <defs>
       <path d="M 26.953125 44.53125 
Q 34.375 44.53125 39.0625 38.859375 
Q 43.75 33.203125 43.75 23.828125 
Q 43.75 13.28125 38.859375 7.03125 
Q 33.984375 0.78125 23.828125 0.78125 
Q 16.796875 0.78125 11.328125 4.875 
Q 5.859375 8.984375 5.859375 14.84375 
Q 5.859375 17.1875 7.21875 18.9375 
Q 8.59375 20.703125 10.9375 20.703125 
Q 13.28125 20.703125 14.0625 19.140625 
Q 14.84375 17.578125 14.84375 16.40625 
Q 14.84375 14.0625 13.671875 12.890625 
Q 12.5 11.328125 12.5 9.765625 
Q 12.5 6.640625 16.203125 5.078125 
Q 19.921875 3.515625 24.21875 3.515625 
Q 30.46875 3.515625 33.78125 8.59375 
Q 37.109375 13.671875 37.109375 23.046875 
Q 37.109375 30.859375 34.171875 35.734375 
Q 31.25 40.625 25.390625 40.625 
Q 21.09375 40.625 17.96875 39.0625 
Q 14.84375 37.5 12.109375 32.421875 
L 8.59375 32.8125 
L 10.546875 68.359375 
L 42.578125 68.359375 
L 41.40625 62.5 
L 13.28125 62.5 
L 11.71875 36.71875 
Q 15.625 42.1875 19.328125 43.359375 
Q 23.046875 44.53125 26.953125 44.53125 
z
" id="SimSun-53"/>
      </defs>
      <g transform="translate(77.812289 351.850037)scale(0.1 -0.1)">
       <use xlink:href="#SimSun-55"/>
       <use x="50" xlink:href="#SimSun-46"/>
       <use x="100" xlink:href="#SimSun-53"/>
      </g>
     </g>
    </g>
    <g id="xtick_3">
     <g id="line2d_3">
      <g>
       <use style="stroke:#000000;stroke-width:0.8;" x="120.066379" xlink:href="#mc6ead695eb" y="337.7016"/>
      </g>
     </g>
     <g id="text_3">
      <!-- 8.0 -->
      <defs>
       <path d="M 9.765625 17.578125 
Q 9.765625 11.328125 13.859375 7.421875 
Q 17.96875 3.515625 24.21875 3.515625 
Q 31.640625 3.515625 34.953125 7.421875 
Q 38.28125 11.328125 38.28125 17.1875 
Q 38.28125 22.265625 33.59375 26.953125 
Q 28.90625 31.640625 19.53125 35.546875 
Q 14.84375 32.421875 12.296875 27.734375 
Q 9.765625 23.046875 9.765625 17.578125 
z
M 44.140625 18.359375 
Q 44.140625 10.9375 38.671875 5.859375 
Q 33.203125 0.78125 24.21875 0.78125 
Q 16.015625 0.78125 10.15625 5.859375 
Q 4.296875 10.9375 4.296875 17.578125 
Q 4.296875 24.21875 7.609375 28.90625 
Q 10.9375 33.59375 17.1875 37.109375 
Q 11.71875 39.84375 8.78125 43.9375 
Q 5.859375 48.046875 5.859375 53.125 
Q 5.859375 59.765625 10.9375 64.453125 
Q 16.015625 69.140625 25 69.140625 
Q 33.203125 69.140625 38.28125 64.453125 
Q 43.359375 59.765625 43.359375 53.125 
Q 43.359375 48.4375 40.421875 44.328125 
Q 37.5 40.234375 31.25 37.109375 
Q 37.890625 33.203125 41.015625 28.515625 
Q 44.140625 23.828125 44.140625 18.359375 
z
M 37.890625 52.734375 
Q 37.890625 58.203125 34.765625 62.296875 
Q 31.640625 66.40625 25 66.40625 
Q 17.578125 66.40625 14.453125 62.5 
Q 11.328125 58.59375 11.328125 54.296875 
Q 11.328125 50 15.8125 45.890625 
Q 20.3125 41.796875 28.515625 38.671875 
Q 33.203125 41.015625 35.546875 44.53125 
Q 37.890625 48.046875 37.890625 52.734375 
z
" id="SimSun-56"/>
      </defs>
      <g transform="translate(112.566379 351.850037)scale(0.1 -0.1)">
       <use xlink:href="#SimSun-56"/>
       <use x="50" xlink:href="#SimSun-46"/>
       <use x="100" xlink:href="#SimSun-48"/>
      </g>
     </g>
    </g>
    <g id="xtick_4">
     <g id="line2d_4">
      <g>
       <use style="stroke:#000000;stroke-width:0.8;" x="154.820468" xlink:href="#mc6ead695eb" y="337.7016"/>
      </g>
     </g>
     <g id="text_4">
      <!-- 8.5 -->
      <g transform="translate(147.320468 351.850037)scale(0.1 -0.1)">
       <use xlink:href="#SimSun-56"/>
       <use x="50" xlink:href="#SimSun-46"/>
       <use x="100" xlink:href="#SimSun-53"/>
      </g>
     </g>
    </g>
    <g id="xtick_5">
     <g id="line2d_5">
      <g>
       <use style="stroke:#000000;stroke-width:0.8;" x="189.574558" xlink:href="#mc6ead695eb" y="337.7016"/>
      </g>
     </g>
     <g id="text_5">
      <!-- 9.0 -->
      <defs>
       <path d="M 10.9375 47.65625 
Q 10.9375 39.0625 14.25 34.5625 
Q 17.578125 30.078125 22.65625 30.078125 
Q 28.515625 30.078125 32.8125 35.546875 
Q 37.109375 41.015625 37.109375 45.703125 
Q 37.109375 55.078125 33.984375 60.734375 
Q 30.859375 66.40625 23.828125 66.40625 
Q 17.1875 66.40625 14.0625 61.125 
Q 10.9375 55.859375 10.9375 47.65625 
z
M 21.484375 26.5625 
Q 13.671875 26.5625 8.984375 31.4375 
Q 4.296875 36.328125 4.296875 47.265625 
Q 4.296875 56.640625 9.375 62.890625 
Q 14.453125 69.140625 23.828125 69.140625 
Q 33.59375 69.140625 39.0625 61.328125 
Q 44.53125 53.515625 44.53125 38.671875 
Q 44.53125 22.265625 38.078125 11.515625 
Q 31.640625 0.78125 20.3125 0.78125 
Q 15.234375 0.78125 11.515625 3.125 
Q 7.8125 5.46875 7.8125 9.375 
Q 7.8125 10.9375 8.78125 12.5 
Q 9.765625 14.0625 12.109375 14.0625 
Q 14.453125 14.0625 15.234375 12.296875 
Q 16.015625 10.546875 16.015625 8.203125 
Q 16.015625 6.640625 16.40625 5.65625 
Q 16.796875 4.6875 17.1875 4.296875 
Q 17.578125 3.90625 18.546875 3.703125 
Q 19.53125 3.515625 20.703125 3.515625 
Q 27.734375 3.515625 32.03125 11.328125 
Q 36.328125 19.140625 37.109375 37.5 
Q 35.15625 32.8125 31.25 29.6875 
Q 27.34375 26.5625 21.484375 26.5625 
z
" id="SimSun-57"/>
      </defs>
      <g transform="translate(182.074558 351.850037)scale(0.1 -0.1)">
       <use xlink:href="#SimSun-57"/>
       <use x="50" xlink:href="#SimSun-46"/>
       <use x="100" xlink:href="#SimSun-48"/>
      </g>
     </g>
    </g>
    <g id="xtick_6">
     <g id="line2d_6">
      <g>
       <use style="stroke:#000000;stroke-width:0.8;" x="224.328647" xlink:href="#mc6ead695eb" y="337.7016"/>
      </g>
     </g>
     <g id="text_6">
      <!-- 9.5 -->
      <g transform="translate(216.828647 351.850037)scale(0.1 -0.1)">
       <use xlink:href="#SimSun-57"/>
       <use x="50" xlink:href="#SimSun-46"/>
       <use x="100" xlink:href="#SimSun-53"/>
      </g>
     </g>
    </g>
    <g id="xtick_7">
     <g id="line2d_7">
      <g>
       <use style="stroke:#000000;stroke-width:0.8;" x="259.082737" xlink:href="#mc6ead695eb" y="337.7016"/>
      </g>
     </g>
     <g id="text_7">
      <!-- 10.0 -->
      <defs>
       <path d="M 28.515625 69.53125 
L 28.515625 10.15625 
Q 28.515625 7.03125 30.46875 5.46875 
Q 32.421875 3.90625 35.9375 3.90625 
L 39.84375 3.90625 
L 39.84375 1.5625 
L 11.328125 1.5625 
L 11.328125 3.90625 
L 14.84375 3.90625 
Q 18.75 3.90625 20.5 5.46875 
Q 22.265625 7.03125 22.265625 10.15625 
L 22.265625 57.421875 
Q 22.265625 58.984375 21.28125 59.953125 
Q 20.3125 60.9375 18.359375 60.9375 
L 11.328125 60.9375 
L 11.328125 63.28125 
L 14.84375 63.28125 
Q 19.53125 63.28125 22.453125 64.84375 
Q 25.390625 66.40625 26.953125 69.53125 
z
" id="SimSun-49"/>
      </defs>
      <g transform="translate(249.082737 351.850037)scale(0.1 -0.1)">
       <use xlink:href="#SimSun-49"/>
       <use x="50" xlink:href="#SimSun-48"/>
       <use x="100" xlink:href="#SimSun-46"/>
       <use x="150" xlink:href="#SimSun-48"/>
      </g>
     </g>
    </g>
    <g id="xtick_8">
     <g id="line2d_8">
      <g>
       <use style="stroke:#000000;stroke-width:0.8;" x="293.836827" xlink:href="#mc6ead695eb" y="337.7016"/>
      </g>
     </g>
     <g id="text_8">
      <!-- 10.5 -->
      <g transform="translate(283.836827 351.850037)scale(0.1 -0.1)">
       <use xlink:href="#SimSun-49"/>
       <use x="50" xlink:href="#SimSun-48"/>
       <use x="100" xlink:href="#SimSun-46"/>
       <use x="150" xlink:href="#SimSun-53"/>
      </g>
     </g>
    </g>
    <g id="xtick_9">
     <g id="line2d_9">
      <g>
       <use style="stroke:#000000;stroke-width:0.8;" x="328.590916" xlink:href="#mc6ead695eb" y="337.7016"/>
      </g>
     </g>
     <g id="text_9">
      <!-- 11.0 -->
      <g transform="translate(318.590916 351.850037)scale(0.1 -0.1)">
       <use xlink:href="#SimSun-49"/>
       <use x="50" xlink:href="#SimSun-49"/>
       <use x="100" xlink:href="#SimSun-46"/>
       <use x="150" xlink:href="#SimSun-48"/>
      </g>
     </g>
    </g>
    <g id="text_10">
     <!-- 出水TN浓度真实值(mg/L) -->
     <defs>
      <path d="M 80.859375 62.109375 
L 80.859375 46.875 
Q 80.859375 42.96875 81.640625 35.9375 
L 75.390625 33.59375 
L 75.390625 38.28125 
L 52.34375 38.28125 
L 52.34375 0.390625 
L 79.296875 0.390625 
L 79.296875 17.578125 
Q 79.296875 23.046875 78.90625 29.6875 
L 87.890625 24.609375 
L 84.765625 22.265625 
L 84.765625 7.8125 
Q 84.765625 0.78125 85.15625 -6.25 
L 79.296875 -8.203125 
L 79.296875 -1.953125 
L 20.703125 -1.953125 
L 17.96875 -4.6875 
L 12.5 -0.390625 
L 15.234375 2.34375 
L 15.234375 17.578125 
Q 15.234375 23.4375 14.84375 30.46875 
L 23.828125 25.78125 
L 20.703125 23.046875 
L 20.703125 0.390625 
L 46.875 0.390625 
L 46.875 38.28125 
L 24.21875 38.28125 
L 21.09375 35.546875 
L 15.625 39.84375 
L 18.359375 42.1875 
L 18.359375 58.203125 
Q 18.359375 62.890625 17.96875 68.359375 
L 27.34375 63.671875 
L 23.828125 61.328125 
L 23.828125 40.625 
L 46.875 40.625 
L 46.875 66.40625 
Q 46.875 73.4375 46.484375 80.078125 
L 55.46875 75.78125 
L 52.34375 72.265625 
L 52.34375 40.625 
L 75.390625 40.625 
L 75.390625 58.203125 
Q 75.390625 62.890625 75 69.140625 
L 83.984375 64.84375 
z
" id="SimSun-20986"/>
      <path d="M 46.09375 81.25 
L 56.25 76.953125 
L 52.34375 73.828125 
Q 51.953125 64.84375 53.90625 58.59375 
Q 55.859375 52.34375 60.15625 43.359375 
Q 75.390625 55.859375 80.859375 64.84375 
L 87.5 57.8125 
Q 83.59375 57.421875 77.734375 53.125 
Q 71.484375 48.828125 60.9375 41.40625 
Q 76.171875 12.109375 95.3125 5.859375 
L 95.3125 4.296875 
Q 87.890625 3.90625 86.328125 -0.390625 
Q 62.5 17.1875 52.34375 56.640625 
L 52.34375 1.953125 
Q 52.734375 -7.8125 42.96875 -10.15625 
Q 43.359375 -4.6875 30.859375 -1.5625 
L 30.859375 0 
Q 39.84375 -0.78125 43.15625 -0.78125 
Q 46.484375 -0.78125 46.484375 3.90625 
L 46.484375 66.796875 
Q 46.484375 74.21875 46.09375 81.25 
z
M 5.859375 -2.34375 
L 5.078125 -1.171875 
Q 24.609375 18.359375 32.03125 48.828125 
L 19.921875 48.828125 
Q 14.84375 48.828125 10.546875 47.65625 
L 7.03125 51.171875 
L 31.640625 51.171875 
L 35.15625 55.859375 
L 42.1875 49.609375 
L 38.28125 47.65625 
Q 28.515625 12.890625 5.859375 -2.34375 
z
" id="SimSun-27700"/>
      <path d="M 34.765625 1.5625 
L 14.453125 1.5625 
L 14.453125 3.90625 
L 17.96875 3.90625 
Q 19.921875 3.90625 20.703125 4.6875 
Q 21.484375 5.46875 21.484375 7.03125 
L 21.484375 61.71875 
Q 21.484375 64.84375 21.09375 65.234375 
Q 20.703125 65.625 17.96875 65.625 
Q 12.5 65.625 10.34375 63.671875 
Q 8.203125 61.71875 5.078125 53.125 
L 2.734375 53.515625 
L 6.25 68.359375 
L 43.359375 68.359375 
L 46.484375 53.515625 
L 44.53125 53.125 
Q 41.40625 61.328125 39.640625 63.46875 
Q 37.890625 65.625 32.421875 65.625 
Q 28.515625 65.625 28.125 65.234375 
Q 27.734375 64.84375 27.734375 61.328125 
L 27.734375 7.03125 
Q 27.734375 5.46875 28.703125 4.6875 
Q 29.6875 3.90625 31.25 3.90625 
L 34.765625 3.90625 
z
" id="SimSun-84"/>
      <path d="M 39.453125 17.1875 
L 40.234375 17.1875 
L 40.234375 62.890625 
Q 40.234375 64.453125 39.453125 65.234375 
Q 38.671875 66.015625 36.71875 66.015625 
L 33.59375 66.015625 
L 33.59375 68.359375 
L 49.21875 68.359375 
L 49.21875 66.015625 
L 46.09375 66.015625 
Q 44.53125 66.015625 43.546875 65.234375 
Q 42.578125 64.453125 42.578125 62.890625 
L 42.578125 1.5625 
L 40.234375 1.5625 
L 10.546875 59.765625 
L 9.765625 59.765625 
L 9.765625 7.03125 
Q 9.765625 5.46875 10.734375 4.6875 
Q 11.71875 3.90625 13.28125 3.90625 
L 16.40625 3.90625 
L 16.40625 1.5625 
L 0.78125 1.5625 
L 0.78125 3.90625 
L 3.90625 3.90625 
Q 5.859375 3.90625 6.640625 4.6875 
Q 7.421875 5.46875 7.421875 7.03125 
L 7.421875 62.890625 
Q 7.421875 64.453125 6.640625 65.234375 
Q 5.859375 66.015625 3.90625 66.015625 
L 1.5625 66.015625 
L 1.5625 68.359375 
L 12.890625 68.359375 
z
" id="SimSun-78"/>
      <path d="M 76.5625 50 
L 82.03125 60.546875 
L 58.59375 60.546875 
Q 57.8125 58.203125 57.03125 55.859375 
Q 61.328125 38.28125 67.1875 30.078125 
Q 78.90625 40.625 82.03125 46.484375 
L 88.28125 39.453125 
Q 82.421875 38.28125 77.53125 34.765625 
Q 72.65625 31.25 68.359375 28.125 
Q 79.296875 11.71875 95.3125 5.46875 
L 95.3125 3.90625 
Q 88.28125 4.296875 85.9375 -0.390625 
Q 60.9375 19.53125 55.859375 52.734375 
Q 51.953125 43.75 48.046875 37.109375 
L 52.734375 34.765625 
L 50.390625 32.421875 
L 50.390625 1.5625 
L 65.234375 9.375 
L 66.015625 7.8125 
Q 52.34375 -1.5625 48.4375 -7.8125 
L 43.359375 -1.953125 
Q 45.3125 -0.78125 44.921875 6.640625 
L 44.921875 31.25 
Q 34.375 18.359375 23.046875 9.765625 
L 22.265625 10.9375 
Q 44.53125 33.59375 53.125 60.546875 
L 40.234375 60.546875 
Q 40.625 54.296875 38.671875 52.140625 
Q 36.71875 50 34.171875 50.390625 
Q 31.640625 50.78125 31.640625 51.953125 
Q 31.640625 53.125 33.59375 55.46875 
Q 37.109375 59.375 38.671875 67.1875 
L 40.234375 67.1875 
L 40.234375 62.890625 
L 53.515625 62.890625 
Q 54.6875 67.578125 55.46875 72.453125 
Q 56.25 77.34375 56.640625 81.640625 
L 65.234375 77.34375 
L 62.109375 75 
Q 60.546875 68.359375 58.984375 62.890625 
L 81.25 62.890625 
L 85.15625 67.1875 
L 92.1875 59.375 
Q 85.9375 59.375 77.734375 49.21875 
z
M 30.859375 60.9375 
Q 21.09375 21.875 20.109375 16.984375 
Q 19.140625 12.109375 19.140625 5.078125 
Q 19.140625 -1.953125 19.140625 -4.484375 
Q 19.140625 -7.03125 17.578125 -7.03125 
Q 16.40625 -7.03125 13.859375 -5.859375 
Q 11.328125 -4.6875 11.328125 -1.5625 
Q 11.328125 1.171875 12.109375 3.90625 
Q 13.28125 7.8125 13.28125 10.546875 
Q 13.28125 12.890625 11.71875 14.453125 
Q 10.15625 16.015625 4.296875 17.578125 
L 4.296875 19.140625 
Q 11.328125 18.359375 12.6875 18.75 
Q 14.0625 19.140625 16.203125 22.65625 
Q 18.359375 26.171875 29.296875 61.328125 
z
M 4.6875 54.6875 
Q 17.578125 49.21875 17.765625 45.3125 
Q 17.96875 41.40625 16.40625 39.640625 
Q 14.84375 37.890625 14.453125 37.890625 
Q 13.28125 37.890625 12.109375 41.796875 
Q 10.15625 46.875 3.90625 53.515625 
z
M 13.671875 77.34375 
Q 24.21875 72.65625 25.390625 70.703125 
Q 26.5625 68.75 26.5625 67.1875 
Q 26.5625 65.234375 25 62.890625 
Q 23.4375 60.546875 22.65625 60.546875 
Q 21.09375 60.546875 19.921875 64.453125 
Q 17.96875 70.703125 12.890625 76.171875 
z
" id="SimSun-27987"/>
      <path d="M 39.84375 31.640625 
Q 40.234375 39.453125 40.234375 49.609375 
L 30.078125 49.609375 
L 25.390625 48.828125 
L 22.265625 51.953125 
L 40.234375 51.953125 
Q 40.234375 57.8125 39.84375 64.84375 
L 48.4375 60.546875 
L 45.3125 58.59375 
L 45.3125 51.953125 
L 67.1875 51.953125 
Q 67.1875 58.59375 66.796875 64.453125 
L 75.78125 60.546875 
L 72.265625 58.203125 
L 72.265625 51.953125 
L 79.6875 51.953125 
L 84.765625 57.03125 
L 92.1875 49.609375 
L 72.265625 49.609375 
Q 72.265625 38.28125 72.65625 34.765625 
L 67.1875 32.421875 
L 67.1875 35.9375 
L 45.3125 35.9375 
L 45.3125 33.984375 
z
M 76.171875 23.4375 
Q 67.1875 12.109375 60.9375 6.640625 
Q 73.4375 -1.171875 94.140625 -1.953125 
L 94.140625 -3.515625 
Q 87.890625 -4.6875 86.71875 -8.59375 
Q 68.359375 -5.078125 57.421875 3.515625 
Q 38.671875 -7.03125 16.796875 -9.765625 
L 16.40625 -8.203125 
Q 37.109375 -4.296875 53.90625 7.03125 
Q 46.484375 14.453125 40.234375 25.390625 
L 36.328125 25.390625 
L 32.8125 24.609375 
L 29.6875 27.734375 
L 70.703125 27.734375 
L 74.21875 31.25 
L 80.078125 25.390625 
z
M 42.1875 25.390625 
Q 49.609375 15.234375 57.03125 9.765625 
Q 64.84375 17.1875 70.3125 25.390625 
z
M 45.3125 49.609375 
L 45.3125 38.28125 
L 67.1875 38.28125 
L 67.1875 49.609375 
z
M 15.234375 72.65625 
L 21.875 68.75 
L 52.734375 68.75 
Q 52.34375 71.09375 50.96875 73.828125 
Q 49.609375 76.5625 45.3125 81.640625 
L 46.484375 82.421875 
Q 55.46875 78.515625 56.828125 76.359375 
Q 58.203125 74.21875 58.203125 73.828125 
Q 58.203125 71.484375 55.078125 68.75 
L 80.46875 68.75 
L 85.9375 74.21875 
L 93.75 66.40625 
L 21.484375 66.40625 
Q 21.875 42.96875 20.109375 29.875 
Q 18.359375 16.796875 14.453125 7.421875 
Q 10.546875 -1.953125 4.6875 -9.765625 
L 3.515625 -8.984375 
Q 11.328125 4.6875 13.46875 19.53125 
Q 15.625 34.375 15.8125 49.796875 
Q 16.015625 65.234375 15.234375 72.65625 
z
" id="SimSun-24230"/>
      <path d="M 32.03125 53.90625 
L 32.03125 45.3125 
L 67.1875 45.3125 
L 67.1875 53.90625 
z
M 32.03125 42.96875 
L 32.03125 34.765625 
L 67.1875 34.765625 
L 67.1875 42.96875 
z
M 32.03125 32.421875 
L 32.03125 24.21875 
L 67.1875 24.21875 
L 67.1875 32.421875 
z
M 32.03125 21.875 
L 32.03125 13.671875 
L 67.1875 13.671875 
L 67.1875 21.875 
z
M 44.921875 56.25 
L 45.703125 67.578125 
L 23.828125 67.578125 
Q 18.75 67.578125 14.453125 66.40625 
L 10.9375 69.921875 
L 46.09375 69.921875 
Q 46.484375 75.390625 46.484375 82.421875 
L 55.46875 78.515625 
L 52.734375 76.953125 
L 51.5625 69.921875 
L 78.125 69.921875 
L 83.203125 75.390625 
L 90.234375 67.578125 
L 51.171875 67.578125 
L 50 56.25 
L 66.796875 56.25 
L 69.53125 60.546875 
L 75.78125 55.859375 
L 72.65625 52.734375 
L 72.65625 13.671875 
L 82.8125 13.671875 
L 88.671875 19.140625 
L 95.703125 11.328125 
L 17.96875 11.328125 
Q 12.890625 11.328125 8.59375 10.15625 
L 5.078125 13.671875 
L 26.5625 13.671875 
Q 26.5625 50 26.171875 58.984375 
L 32.03125 56.25 
z
M 37.890625 11.328125 
L 44.140625 5.46875 
L 40.234375 4.6875 
Q 23.4375 -6.640625 12.5 -10.15625 
L 12.109375 -8.984375 
Q 30.46875 1.953125 37.890625 11.328125 
z
M 59.375 10.9375 
Q 71.484375 5.859375 77.53125 3.125 
Q 83.59375 0.390625 84.375 -1.75 
Q 85.15625 -3.90625 85.15625 -5.078125 
Q 85.15625 -6.25 84.375 -8.203125 
Q 83.59375 -10.15625 83.203125 -10.15625 
Q 82.03125 -10.15625 79.6875 -7.03125 
Q 76.171875 -2.34375 58.59375 9.765625 
z
" id="SimSun-30495"/>
      <path d="M 30.46875 56.640625 
Q 40.234375 53.125 42.1875 50.78125 
Q 44.140625 48.4375 44.140625 46.484375 
Q 44.140625 44.53125 42.96875 42.1875 
Q 41.796875 39.84375 41.015625 39.84375 
Q 39.84375 39.84375 38.28125 43.75 
Q 35.546875 49.609375 29.6875 55.46875 
z
M 55.859375 20.703125 
Q 54.6875 17.1875 53.515625 14.453125 
Q 72.65625 8.59375 79.484375 5.078125 
Q 86.328125 1.5625 86.125 -3.515625 
Q 85.9375 -8.59375 84.375 -8.59375 
Q 82.8125 -8.59375 79.296875 -4.6875 
Q 72.265625 2.734375 52.734375 12.5 
Q 47.265625 2.734375 35.9375 -2.34375 
Q 24.609375 -7.421875 6.640625 -9.765625 
L 6.640625 -8.203125 
Q 23.046875 -5.078125 34.375 1.5625 
Q 45.703125 8.203125 50 20.703125 
L 19.140625 20.703125 
Q 14.0625 20.703125 9.765625 19.53125 
L 6.25 23.046875 
L 50.390625 23.046875 
Q 51.953125 30.46875 52.734375 40.234375 
Q 53.515625 50 53.515625 57.8125 
L 63.28125 53.125 
L 60.15625 50.390625 
Q 58.59375 35.9375 56.640625 23.046875 
L 80.859375 23.046875 
L 86.71875 28.90625 
L 94.921875 20.703125 
z
M 19.921875 42.1875 
Q 30.859375 37.890625 32.8125 35.34375 
Q 34.765625 32.8125 34.765625 30.859375 
Q 34.765625 28.90625 33.59375 26.5625 
Q 32.421875 24.21875 31.640625 24.21875 
Q 30.46875 24.21875 28.90625 28.125 
Q 26.171875 33.984375 19.140625 41.015625 
z
M 42.96875 81.640625 
L 44.140625 82.421875 
Q 50.390625 79.6875 53.515625 76.953125 
Q 56.640625 74.21875 56.640625 71.875 
Q 56.640625 69.53125 54.875 67.1875 
Q 53.125 64.84375 51.953125 64.84375 
Q 50.78125 64.84375 50 68.75 
Q 48.4375 74.609375 42.96875 81.640625 
z
M 77.734375 50.390625 
L 83.59375 61.328125 
L 18.359375 61.328125 
Q 19.140625 55.078125 17.578125 51.5625 
Q 16.015625 48.046875 12.296875 48.4375 
Q 8.59375 48.828125 8.59375 50 
Q 8.59375 51.5625 10.9375 54.296875 
Q 15.234375 59.765625 16.40625 68.359375 
L 17.96875 68.359375 
L 18.359375 63.671875 
L 82.8125 63.671875 
L 87.109375 67.96875 
L 94.53125 59.375 
Q 87.890625 59.765625 78.90625 49.609375 
z
" id="SimSun-23454"/>
      <path d="M 23.828125 10.15625 
Q 23.828125 -3.515625 24.21875 -8.203125 
L 18.359375 -10.15625 
Q 18.75 3.90625 18.75 8.59375 
L 18.75 47.265625 
Q 11.71875 35.9375 5.078125 28.90625 
L 3.90625 29.6875 
Q 11.328125 41.015625 17.1875 55.078125 
Q 23.046875 69.140625 26.171875 81.25 
L 34.375 76.171875 
L 30.46875 73.828125 
Q 24.21875 59.375 22.265625 54.296875 
L 26.953125 51.5625 
L 23.828125 49.21875 
z
M 44.921875 50.390625 
L 44.921875 38.671875 
L 75 38.671875 
L 75 50.390625 
z
M 44.921875 36.328125 
L 44.921875 24.609375 
L 75 24.609375 
L 75 36.328125 
z
M 44.921875 22.265625 
L 44.921875 10.546875 
L 75 10.546875 
L 75 22.265625 
z
M 44.921875 8.203125 
L 44.921875 -3.515625 
L 75 -3.515625 
L 75 8.203125 
z
M 55.46875 66.40625 
Q 55.859375 75.390625 55.46875 81.640625 
L 64.453125 77.34375 
L 61.328125 75 
L 60.9375 66.40625 
L 78.515625 66.40625 
L 83.59375 71.484375 
L 91.015625 64.0625 
L 60.9375 64.0625 
L 60.546875 52.734375 
L 74.21875 52.734375 
L 77.734375 56.640625 
L 83.59375 51.5625 
L 80.078125 49.21875 
L 80.078125 -3.515625 
L 83.59375 -3.515625 
L 88.671875 1.5625 
L 96.09375 -5.859375 
L 38.28125 -5.859375 
Q 33.203125 -5.859375 28.90625 -7.03125 
L 25.390625 -3.515625 
L 39.84375 -3.515625 
L 39.84375 39.84375 
Q 39.84375 44.53125 39.453125 55.859375 
L 44.921875 52.734375 
L 55.078125 52.734375 
L 55.46875 64.0625 
L 43.75 64.0625 
Q 38.671875 64.0625 34.375 62.890625 
L 30.859375 66.40625 
z
" id="SimSun-20540"/>
      <path d="M 45.3125 78.515625 
Q 36.328125 69.140625 31.828125 58.390625 
Q 27.34375 47.65625 27.34375 35.9375 
Q 27.34375 23.828125 31.828125 13.28125 
Q 36.328125 2.734375 45.3125 -6.640625 
L 43.359375 -8.59375 
Q 32.421875 1.171875 26.953125 12.296875 
Q 21.484375 23.4375 21.484375 35.9375 
Q 21.484375 48.046875 26.953125 59.171875 
Q 32.421875 70.3125 43.359375 80.46875 
z
" id="SimSun-40"/>
      <path d="M 2.734375 45.3125 
Q 4.6875 45.3125 6.640625 45.703125 
Q 8.59375 46.09375 9.765625 46.875 
L 10.546875 46.875 
L 10.546875 40.234375 
Q 12.5 43.359375 14.84375 44.71875 
Q 17.1875 46.09375 19.921875 46.09375 
Q 23.4375 46.09375 25.390625 44.71875 
Q 27.34375 43.359375 27.734375 40.234375 
Q 29.6875 43.359375 32.21875 44.71875 
Q 34.765625 46.09375 37.5 46.09375 
Q 42.1875 46.09375 43.9375 43.359375 
Q 45.703125 40.625 45.703125 36.328125 
L 45.703125 6.640625 
Q 45.703125 5.078125 46.484375 4.484375 
Q 47.265625 3.90625 48.828125 3.90625 
L 49.609375 3.90625 
L 49.609375 1.5625 
L 36.328125 1.5625 
L 36.328125 3.90625 
L 37.109375 3.90625 
Q 38.671875 3.90625 39.453125 4.484375 
Q 40.234375 5.078125 40.234375 6.640625 
L 40.234375 35.9375 
Q 40.234375 40.234375 39.25 41.59375 
Q 38.28125 42.96875 36.328125 42.96875 
Q 33.59375 42.96875 31.4375 41.015625 
Q 29.296875 39.0625 28.125 35.546875 
L 28.125 6.640625 
Q 28.125 5.078125 28.90625 4.484375 
Q 29.6875 3.90625 31.25 3.90625 
L 32.03125 3.90625 
L 32.03125 1.5625 
L 18.75 1.5625 
L 18.75 3.90625 
L 19.53125 3.90625 
Q 21.09375 3.90625 21.875 4.484375 
Q 22.65625 5.078125 22.65625 6.640625 
L 22.65625 35.9375 
Q 22.65625 39.453125 21.875 41.203125 
Q 21.09375 42.96875 18.75 42.96875 
Q 16.015625 42.96875 13.859375 41.015625 
Q 11.71875 39.0625 10.546875 35.15625 
L 10.546875 6.640625 
Q 10.546875 5.078125 11.328125 4.484375 
Q 12.109375 3.90625 13.671875 3.90625 
L 14.453125 3.90625 
L 14.453125 1.5625 
L 1.171875 1.5625 
L 1.171875 3.90625 
L 1.953125 3.90625 
Q 3.515625 3.90625 4.296875 4.484375 
Q 5.078125 5.078125 5.078125 6.640625 
L 5.078125 40.625 
Q 5.078125 41.796875 4.6875 42.375 
Q 4.296875 42.96875 3.125 42.96875 
L 1.5625 42.96875 
L 1.5625 45.3125 
z
" id="SimSun-109"/>
      <path d="M 13.671875 30.859375 
Q 13.671875 26.171875 16.40625 22.84375 
Q 19.140625 19.53125 23.828125 19.53125 
Q 28.90625 19.53125 31.4375 22.453125 
Q 33.984375 25.390625 33.984375 30.859375 
Q 33.984375 37.5 31.046875 40.421875 
Q 28.125 43.359375 23.828125 43.359375 
Q 19.53125 43.359375 16.59375 40.421875 
Q 13.671875 37.5 13.671875 30.859375 
z
M 32.8125 9.765625 
Q 38.671875 8.984375 41.40625 6.4375 
Q 44.140625 3.90625 44.140625 -0.390625 
Q 44.140625 -6.25 39.25 -9.765625 
Q 34.375 -13.28125 23.828125 -13.28125 
Q 15.625 -13.28125 10.546875 -9.953125 
Q 5.46875 -6.640625 5.46875 -2.34375 
Q 5.46875 0.390625 7.421875 3.125 
Q 9.375 5.859375 13.671875 7.421875 
Q 11.328125 8.59375 9.953125 9.953125 
Q 8.59375 11.328125 8.59375 13.28125 
Q 8.59375 15.625 10.15625 17.375 
Q 11.71875 19.140625 14.0625 20.3125 
Q 11.71875 22.265625 9.953125 25 
Q 8.203125 27.734375 8.203125 30.859375 
Q 8.203125 36.71875 12.296875 41.203125 
Q 16.40625 45.703125 23.828125 45.703125 
Q 26.953125 45.703125 29.875 44.921875 
Q 32.8125 44.140625 34.765625 42.1875 
Q 37.5 44.140625 39.640625 45.109375 
Q 41.796875 46.09375 43.359375 46.09375 
Q 45.3125 46.09375 46.09375 44.71875 
Q 46.875 43.359375 46.875 42.1875 
Q 46.875 40.625 46.28125 39.640625 
Q 45.703125 38.671875 44.140625 38.671875 
Q 42.96875 38.671875 42.1875 39.25 
Q 41.40625 39.84375 41.015625 41.015625 
Q 40.625 42.1875 39.25 41.984375 
Q 37.890625 41.796875 36.328125 40.625 
Q 37.890625 39.0625 38.671875 36.328125 
Q 39.453125 33.59375 39.453125 30.859375 
Q 39.453125 26.171875 35.734375 21.671875 
Q 32.03125 17.1875 23.828125 17.1875 
Q 21.484375 17.1875 19.53125 17.765625 
Q 17.578125 18.359375 16.40625 19.140625 
Q 14.84375 18.359375 14.0625 17.1875 
Q 13.28125 16.015625 13.28125 15.234375 
Q 13.28125 13.671875 14.0625 12.890625 
Q 14.84375 12.109375 16.40625 12.109375 
Q 21.484375 11.328125 25.578125 10.734375 
Q 29.6875 10.15625 32.8125 9.765625 
z
M 16.796875 6.640625 
Q 13.28125 5.078125 11.90625 2.921875 
Q 10.546875 0.78125 10.546875 -2.34375 
Q 10.546875 -5.46875 14.0625 -8.203125 
Q 17.578125 -10.9375 24.609375 -10.9375 
Q 31.25 -10.9375 35.15625 -8.78125 
Q 39.0625 -6.640625 39.0625 -2.34375 
Q 39.0625 0.390625 38.078125 1.953125 
Q 37.109375 3.515625 35.15625 3.90625 
Q 31.25 4.6875 26.5625 5.46875 
Q 21.875 5.859375 16.796875 6.640625 
z
" id="SimSun-103"/>
      <path d="M 6.25 -7.421875 
L 3.515625 -5.859375 
L 43.359375 77.734375 
L 46.09375 76.171875 
z
" id="SimSun-47"/>
      <path d="M 15.625 7.03125 
Q 15.625 5.46875 16.59375 4.6875 
Q 17.578125 3.90625 19.140625 3.90625 
L 29.6875 3.90625 
Q 35.15625 3.90625 39.0625 7.21875 
Q 42.96875 10.546875 44.921875 17.578125 
L 46.875 16.796875 
L 43.359375 1.5625 
L 3.125 1.5625 
L 3.125 3.90625 
L 5.859375 3.90625 
Q 7.8125 3.90625 8.59375 4.6875 
Q 9.375 5.46875 9.375 7.03125 
L 9.375 62.890625 
Q 9.375 64.453125 8.59375 65.234375 
Q 7.8125 66.015625 5.859375 66.015625 
L 3.515625 66.015625 
L 3.515625 68.359375 
L 21.875 68.359375 
L 21.875 66.015625 
L 19.140625 66.015625 
Q 17.578125 66.015625 16.59375 65.234375 
Q 15.625 64.453125 15.625 62.890625 
z
" id="SimSun-76"/>
      <path d="M 4.296875 78.515625 
L 6.25 80.46875 
Q 17.1875 70.3125 22.65625 59.171875 
Q 28.125 48.046875 28.125 35.9375 
Q 28.125 23.4375 22.65625 12.296875 
Q 17.1875 1.171875 6.25 -8.59375 
L 4.296875 -6.640625 
Q 13.28125 2.734375 17.765625 13.28125 
Q 22.265625 23.828125 22.265625 35.9375 
Q 22.265625 47.65625 17.765625 58.390625 
Q 13.28125 69.140625 4.296875 78.515625 
z
" id="SimSun-41"/>
     </defs>
     <g transform="translate(112 368.678162)scale(0.14 -0.14)">
      <use xlink:href="#SimSun-20986"/>
      <use x="100" xlink:href="#SimSun-27700"/>
      <use x="200" xlink:href="#SimSun-84"/>
      <use x="250" xlink:href="#SimSun-78"/>
      <use x="300" xlink:href="#SimSun-27987"/>
      <use x="400" xlink:href="#SimSun-24230"/>
      <use x="500" xlink:href="#SimSun-30495"/>
      <use x="600" xlink:href="#SimSun-23454"/>
      <use x="700" xlink:href="#SimSun-20540"/>
      <use x="800" xlink:href="#SimSun-40"/>
      <use x="850" xlink:href="#SimSun-109"/>
      <use x="900" xlink:href="#SimSun-103"/>
      <use x="950" xlink:href="#SimSun-47"/>
      <use x="1000" xlink:href="#SimSun-76"/>
      <use x="1050" xlink:href="#SimSun-41"/>
     </g>
    </g>
   </g>
   <g id="matplotlib.axis_2">
    <g id="ytick_1">
     <g id="line2d_10">
      <defs>
       <path d="M 0 0 
L -3.5 0 
" id="m15f8f75d66" style="stroke:#000000;stroke-width:0.8;"/>
      </defs>
      <g>
       <use style="stroke:#000000;stroke-width:0.8;" x="45" xlink:href="#m15f8f75d66" y="330.895802"/>
      </g>
     </g>
     <g id="text_11">
      <!-- 7 -->
      <g transform="translate(33 334.470021)scale(0.1 -0.1)">
       <use xlink:href="#SimSun-55"/>
      </g>
     </g>
    </g>
    <g id="ytick_2">
     <g id="line2d_11">
      <g>
       <use style="stroke:#000000;stroke-width:0.8;" x="45" xlink:href="#m15f8f75d66" y="262.398108"/>
      </g>
     </g>
     <g id="text_12">
      <!-- 8 -->
      <g transform="translate(33 265.972327)scale(0.1 -0.1)">
       <use xlink:href="#SimSun-56"/>
      </g>
     </g>
    </g>
    <g id="ytick_3">
     <g id="line2d_12">
      <g>
       <use style="stroke:#000000;stroke-width:0.8;" x="45" xlink:href="#m15f8f75d66" y="193.900415"/>
      </g>
     </g>
     <g id="text_13">
      <!-- 9 -->
      <g transform="translate(33 197.474633)scale(0.1 -0.1)">
       <use xlink:href="#SimSun-57"/>
      </g>
     </g>
    </g>
    <g id="ytick_4">
     <g id="line2d_13">
      <g>
       <use style="stroke:#000000;stroke-width:0.8;" x="45" xlink:href="#m15f8f75d66" y="125.402721"/>
      </g>
     </g>
     <g id="text_14">
      <!-- 10 -->
      <g transform="translate(28 128.97694)scale(0.1 -0.1)">
       <use xlink:href="#SimSun-49"/>
       <use x="50" xlink:href="#SimSun-48"/>
      </g>
     </g>
    </g>
    <g id="ytick_5">
     <g id="line2d_14">
      <g>
       <use style="stroke:#000000;stroke-width:0.8;" x="45" xlink:href="#m15f8f75d66" y="56.905028"/>
      </g>
     </g>
     <g id="text_15">
      <!-- 11 -->
      <g transform="translate(28 60.479246)scale(0.1 -0.1)">
       <use xlink:href="#SimSun-49"/>
       <use x="50" xlink:href="#SimSun-49"/>
      </g>
     </g>
    </g>
    <g id="text_16">
     <!-- 出水TN浓度预测值(mg/L) -->
     <defs>
      <path d="M 7.421875 75.390625 
L 34.765625 75.390625 
L 37.890625 79.296875 
L 44.140625 73.046875 
Q 40.625 72.265625 37.296875 68.9375 
Q 33.984375 65.625 28.125 58.59375 
Q 32.03125 55.859375 31.828125 53.125 
Q 31.640625 50.390625 30.265625 49.21875 
Q 28.90625 48.046875 28.515625 48.046875 
Q 26.953125 48.046875 25.78125 51.5625 
Q 23.828125 56.25 16.40625 64.0625 
L 17.1875 64.84375 
Q 23.046875 62.109375 26.5625 59.765625 
L 34.765625 73.046875 
L 20.3125 73.046875 
Q 15.234375 73.046875 10.9375 71.875 
z
M 11.328125 1.5625 
Q 18.359375 0.78125 21.28125 0.578125 
Q 24.21875 0.390625 24.21875 4.296875 
L 24.21875 44.921875 
L 17.578125 44.921875 
Q 12.5 44.921875 8.203125 43.75 
L 4.6875 47.265625 
L 39.453125 47.265625 
L 42.578125 51.171875 
L 49.21875 44.921875 
Q 43.75 44.140625 35.546875 32.421875 
L 34.375 33.203125 
L 39.84375 44.921875 
L 29.296875 44.921875 
L 29.296875 2.34375 
Q 29.296875 -6.25 21.09375 -7.8125 
Q 20.703125 -2.734375 11.328125 0 
z
M 50.78125 12.109375 
Q 51.171875 22.265625 51.171875 35.734375 
Q 51.171875 49.21875 50.78125 60.9375 
L 56.25 57.8125 
L 63.28125 57.8125 
Q 65.234375 68.75 65.625 73.046875 
L 57.03125 73.046875 
Q 51.953125 73.046875 47.65625 71.875 
L 44.140625 75.390625 
L 83.203125 75.390625 
L 88.671875 80.46875 
L 95.703125 73.046875 
L 73.046875 73.046875 
Q 70.3125 69.140625 65.234375 57.8125 
L 82.8125 57.8125 
L 85.546875 62.109375 
L 91.796875 57.421875 
L 88.671875 54.296875 
L 88.671875 30.46875 
Q 88.671875 23.828125 89.0625 16.796875 
L 83.59375 13.671875 
L 83.59375 55.46875 
L 56.25 55.46875 
L 56.25 15.625 
z
M 75.78125 44.921875 
L 72.265625 41.796875 
Q 72.265625 23.046875 69.921875 14.640625 
Q 67.578125 6.25 60.9375 0.78125 
Q 54.296875 -4.6875 37.890625 -9.765625 
L 37.5 -8.59375 
Q 54.6875 -0.78125 59.953125 6.25 
Q 65.234375 13.28125 66.203125 24.796875 
Q 67.1875 36.328125 66.796875 49.609375 
z
M 72.65625 14.84375 
Q 89.453125 5.859375 91.796875 3.3125 
Q 94.140625 0.78125 94.140625 -1.953125 
Q 94.140625 -3.515625 93.15625 -6.046875 
Q 92.1875 -8.59375 91.40625 -8.59375 
Q 90.625 -8.59375 89.84375 -7.03125 
Q 87.890625 -3.90625 84.953125 0 
Q 82.03125 3.90625 71.875 13.671875 
z
" id="SimSun-39044"/>
      <path d="M 30.859375 15.625 
Q 31.25 23.046875 31.25 45.703125 
Q 31.25 68.359375 30.859375 78.125 
L 36.71875 74.609375 
L 55.859375 74.609375 
L 58.984375 77.734375 
L 64.0625 72.65625 
L 60.9375 70.3125 
L 60.9375 36.71875 
Q 60.9375 28.90625 61.328125 21.09375 
L 56.25 18.75 
L 56.25 72.265625 
L 36.328125 72.265625 
L 36.328125 17.96875 
z
M 43.359375 62.109375 
L 51.5625 57.8125 
L 48.828125 55.078125 
Q 49.21875 28.515625 44.921875 14.640625 
Q 40.625 0.78125 21.484375 -9.375 
L 20.703125 -7.8125 
Q 34.375 1.5625 38.671875 11.328125 
Q 42.96875 21.09375 43.359375 34.171875 
Q 43.75 47.265625 43.359375 62.109375 
z
M 48.4375 14.84375 
Q 59.765625 7.03125 61.515625 4.09375 
Q 63.28125 1.171875 63.28125 -0.390625 
Q 63.28125 -2.34375 62.109375 -4.09375 
Q 60.9375 -5.859375 60.15625 -5.859375 
Q 58.59375 -5.859375 57.03125 -1.171875 
Q 54.6875 5.859375 47.65625 13.671875 
z
M 69.921875 12.890625 
Q 70.3125 18.75 70.3125 26.5625 
L 70.3125 53.125 
Q 70.3125 61.71875 69.921875 67.1875 
L 78.515625 62.890625 
L 75.390625 59.765625 
L 75.390625 26.5625 
Q 75.390625 20.703125 75.78125 14.84375 
z
M 83.984375 2.34375 
L 83.984375 63.28125 
Q 83.984375 74.21875 83.59375 80.078125 
L 91.796875 76.171875 
L 89.0625 73.4375 
L 89.0625 1.171875 
Q 89.0625 -3.125 87.5 -5.46875 
Q 85.9375 -7.8125 81.25 -9.375 
Q 78.515625 -3.515625 69.53125 -0.78125 
L 69.53125 0.78125 
Q 80.078125 -0.78125 82.03125 -0.578125 
Q 83.984375 -0.390625 83.984375 2.34375 
z
M 28.90625 54.6875 
Q 21.484375 23.828125 20.3125 19.140625 
Q 18.75 14.0625 18.9375 7.03125 
Q 19.140625 0 19.53125 -2.734375 
Q 19.53125 -4.296875 17.578125 -4.296875 
Q 16.015625 -4.296875 13.671875 -3.515625 
Q 11.328125 -2.734375 11.328125 0 
Q 11.328125 1.953125 12.5 5.859375 
Q 13.671875 9.765625 13.671875 12.109375 
Q 13.671875 14.84375 11.90625 16.40625 
Q 10.15625 17.96875 4.296875 19.53125 
L 4.296875 21.09375 
Q 11.328125 20.3125 13.078125 20.5 
Q 14.84375 20.703125 16.984375 24.015625 
Q 19.140625 27.34375 27.34375 55.078125 
z
M 5.859375 58.984375 
Q 16.796875 52.34375 17.375 48.4375 
Q 17.96875 44.53125 16.40625 43.359375 
Q 14.84375 42.1875 14.0625 42.1875 
Q 12.5 42.1875 11.328125 46.484375 
Q 9.375 52.34375 5.078125 57.8125 
z
M 12.5 79.6875 
Q 23.046875 73.828125 24.21875 70.5 
Q 25.390625 67.1875 23.828125 65.421875 
Q 22.265625 63.671875 21.09375 63.671875 
Q 19.921875 63.671875 18.75 67.1875 
Q 16.796875 72.65625 11.71875 78.515625 
z
" id="SimSun-27979"/>
     </defs>
     <g transform="translate(22.140625 258.1826)rotate(-90)scale(0.14 -0.14)">
      <use xlink:href="#SimSun-20986"/>
      <use x="100" xlink:href="#SimSun-27700"/>
      <use x="200" xlink:href="#SimSun-84"/>
      <use x="250" xlink:href="#SimSun-78"/>
      <use x="300" xlink:href="#SimSun-27987"/>
      <use x="400" xlink:href="#SimSun-24230"/>
      <use x="500" xlink:href="#SimSun-39044"/>
      <use x="600" xlink:href="#SimSun-27979"/>
      <use x="700" xlink:href="#SimSun-20540"/>
      <use x="800" xlink:href="#SimSun-40"/>
      <use x="850" xlink:href="#SimSun-109"/>
      <use x="900" xlink:href="#SimSun-103"/>
      <use x="950" xlink:href="#SimSun-47"/>
      <use x="1000" xlink:href="#SimSun-76"/>
      <use x="1050" xlink:href="#SimSun-41"/>
     </g>
    </g>
   </g>
   <g id="line2d_15">
    <path clip-path="url(#p0e4aa37ce4)" d="M 83.296815 298.633129 
L 125.018033 257.518439 
L 231.188978 152.89097 
L 304.657977 80.490038 
L 296.78435 88.249202 
L 284.381309 100.471931 
L 269.248233 115.385008 
L 261.989135 122.538575 
L 236.58162 147.576725 
L 235.007257 149.128201 
L 192.357945 191.157491 
L 109.203467 273.103099 
L 68.847796 312.872093 
L 160.142319 222.904778 
L 281.353271 103.455948 
L 319.909091 65.46064 
L 303.320934 81.807643 
L 262.575274 121.960958 
L 252.373737 132.014188 
L 243.376287 140.880836 
L 220.834489 163.094929 
L 205.875665 177.836287 
L 188.061942 195.391041 
L 120.569306 261.902492 
L 58.090909 323.4726 
L 79.262675 302.608622 
L 147.692097 235.174003 
L 198.115675 185.483466 
L 186.6115 196.820396 
L 153.83314 229.122236 
L 134.510455 248.164015 
L 131.000156 251.623282 
L 134.958878 247.72211 
L 130.092181 252.518058 
L 140.68894 242.07535 
L 126.139397 256.413377 
L 80.854504 301.039935 
L 95.987091 286.127339 
L 140.086305 242.669225 
L 212.263172 171.54164 
L 277.405595 107.346234 
L 246.525029 137.77787 
L 226.565082 157.447646 
L 215.409095 168.441451 
L 187.451851 195.992262 
L 189.351804 194.11993 
L 172.999219 210.234787 
L 115.509675 266.888568 
L 75.593989 306.223974 
L 96.228889 285.889056 
" style="fill:none;stroke:#1e90ff;stroke-linecap:square;stroke-width:2;"/>
   </g>
   <g id="patch_3">
    <path d="M 45 337.7016 
L 45 24.6636 
" style="fill:none;stroke:#000000;stroke-linecap:square;stroke-linejoin:miter;stroke-width:0.8;"/>
   </g>
   <g id="patch_4">
    <path d="M 333 337.7016 
L 333 24.6636 
" style="fill:none;stroke:#000000;stroke-linecap:square;stroke-linejoin:miter;stroke-width:0.8;"/>
   </g>
   <g id="patch_5">
    <path d="M 45 337.7016 
L 333 337.7016 
" style="fill:none;stroke:#000000;stroke-linecap:square;stroke-linejoin:miter;stroke-width:0.8;"/>
   </g>
   <g id="patch_6">
    <path d="M 45 24.6636 
L 333 24.6636 
" style="fill:none;stroke:#000000;stroke-linecap:square;stroke-linejoin:miter;stroke-width:0.8;"/>
   </g>
   <g id="legend_1">
    <g id="patch_7">
     <path d="M 54.8 112.152663 
L 155.6 112.152663 
Q 158.4 112.152663 158.4 109.352663 
L 158.4 34.4636 
Q 158.4 31.6636 155.6 31.6636 
L 54.8 31.6636 
Q 52 31.6636 52 34.4636 
L 52 109.352663 
Q 52 112.152663 54.8 112.152663 
z
" style="fill:#ffffff;opacity:0.8;stroke:#cccccc;stroke-linejoin:miter;"/>
    </g>
    <g id="line2d_16">
     <path d="M 57.6 42.371412 
L 85.6 42.371412 
" style="fill:none;stroke:#1e90ff;stroke-linecap:square;stroke-width:2;"/>
    </g>
    <g id="line2d_17"/>
    <g id="text_17">
     <!-- Line:y=x -->
     <defs>
      <path d="M 22.265625 39.453125 
Q 22.265625 41.015625 21.484375 41.984375 
Q 20.703125 42.96875 18.75 42.96875 
L 10.546875 42.96875 
L 10.546875 45.3125 
L 14.453125 45.3125 
Q 17.96875 45.3125 21.09375 45.890625 
Q 24.21875 46.484375 26.953125 48.046875 
L 27.734375 48.046875 
L 27.734375 7.03125 
Q 27.734375 5.46875 28.703125 4.6875 
Q 29.6875 3.90625 31.25 3.90625 
L 39.453125 3.90625 
L 39.453125 1.5625 
L 10.546875 1.5625 
L 10.546875 3.90625 
L 18.75 3.90625 
Q 20.703125 3.90625 21.484375 4.6875 
Q 22.265625 5.46875 22.265625 7.03125 
z
M 26.953125 47.265625 
z
M 25.390625 69.140625 
Q 27.34375 69.140625 28.90625 67.765625 
Q 30.46875 66.40625 30.46875 64.453125 
Q 30.46875 62.5 28.90625 60.9375 
Q 27.34375 59.375 25.390625 59.375 
Q 23.4375 59.375 21.875 60.9375 
Q 20.3125 62.5 20.3125 64.453125 
Q 20.3125 66.40625 21.875 67.765625 
Q 23.4375 69.140625 25.390625 69.140625 
z
" id="SimSun-105"/>
      <path d="M 3.125 1.5625 
L 3.125 3.90625 
L 5.078125 3.90625 
Q 7.03125 3.90625 7.8125 4.6875 
Q 8.59375 5.46875 8.59375 7.03125 
L 8.59375 40.625 
Q 8.59375 41.796875 8.203125 42.375 
Q 7.8125 42.96875 6.640625 42.96875 
L 3.515625 42.96875 
L 3.515625 45.3125 
L 6.25 45.3125 
Q 8.203125 45.3125 9.953125 45.703125 
Q 11.71875 46.09375 13.28125 47.265625 
L 14.0625 47.265625 
L 14.0625 38.28125 
Q 17.578125 42.1875 21.09375 44.140625 
Q 24.609375 46.09375 28.515625 46.09375 
Q 35.15625 46.09375 38.28125 42.578125 
Q 41.40625 39.0625 41.40625 32.03125 
L 41.40625 7.03125 
Q 41.40625 5.46875 42.375 4.6875 
Q 43.359375 3.90625 44.921875 3.90625 
L 46.875 3.90625 
L 46.875 1.5625 
L 30.46875 1.5625 
L 30.46875 3.90625 
L 32.421875 3.90625 
Q 34.375 3.90625 35.15625 4.6875 
Q 35.9375 5.46875 35.9375 7.03125 
L 35.9375 33.203125 
Q 35.9375 37.890625 33.984375 40.421875 
Q 32.03125 42.96875 28.125 42.96875 
Q 24.609375 42.96875 20.890625 40.625 
Q 17.1875 38.28125 14.0625 33.984375 
L 14.0625 7.03125 
Q 14.0625 5.46875 15.03125 4.6875 
Q 16.015625 3.90625 17.578125 3.90625 
L 19.53125 3.90625 
L 19.53125 1.5625 
z
" id="SimSun-110"/>
      <path d="M 37.5 25.78125 
Q 37.890625 34.375 34.5625 38.859375 
Q 31.25 43.359375 25.78125 43.359375 
Q 19.921875 43.359375 16.203125 38.671875 
Q 12.5 33.984375 12.5 25.78125 
z
M 12.5 23.4375 
Q 12.5 12.890625 16.59375 8.390625 
Q 20.703125 3.90625 27.34375 3.90625 
Q 32.421875 3.90625 35.9375 6.828125 
Q 39.453125 9.765625 41.015625 14.0625 
L 42.96875 13.28125 
Q 41.796875 8.984375 37.6875 4.875 
Q 33.59375 0.78125 26.5625 0.78125 
Q 17.578125 0.78125 11.90625 6.640625 
Q 6.25 12.5 6.25 23.4375 
Q 6.25 33.203125 11.90625 39.640625 
Q 17.578125 46.09375 25.78125 46.09375 
Q 33.203125 46.09375 38.671875 41.015625 
Q 44.140625 35.9375 44.140625 23.4375 
z
" id="SimSun-101"/>
      <path d="M 29.6875 42.578125 
Q 29.6875 40.234375 28.125 38.671875 
Q 26.5625 37.109375 24.21875 37.109375 
Q 21.875 37.109375 20.3125 38.671875 
Q 18.75 40.234375 18.75 42.578125 
Q 18.75 44.921875 20.3125 46.484375 
Q 21.875 48.046875 24.21875 48.046875 
Q 26.5625 48.046875 28.125 46.484375 
Q 29.6875 44.921875 29.6875 42.578125 
z
M 29.6875 5.859375 
Q 29.6875 3.515625 28.125 1.953125 
Q 26.5625 0.390625 24.21875 0.390625 
Q 21.875 0.390625 20.3125 1.953125 
Q 18.75 3.515625 18.75 5.859375 
Q 18.75 8.203125 20.3125 9.765625 
Q 21.875 11.328125 24.21875 11.328125 
Q 26.5625 11.328125 28.125 9.765625 
Q 29.6875 8.203125 29.6875 5.859375 
z
" id="SimSun-58"/>
      <path d="M 25.78125 12.5 
L 26.5625 12.5 
L 35.15625 38.671875 
Q 35.9375 40.625 34.953125 41.796875 
Q 33.984375 42.96875 32.421875 42.96875 
L 30.078125 42.96875 
L 30.078125 45.3125 
L 46.484375 45.3125 
L 46.484375 42.96875 
L 44.140625 42.96875 
Q 42.578125 42.96875 41.015625 41.796875 
Q 39.453125 40.625 38.671875 38.671875 
L 25.390625 0 
Q 23.4375 -5.859375 20.5 -9.171875 
Q 17.578125 -12.5 12.890625 -12.5 
Q 10.15625 -12.5 8.59375 -11.515625 
Q 7.03125 -10.546875 7.03125 -8.59375 
Q 7.03125 -7.421875 8 -6.25 
Q 8.984375 -5.078125 10.9375 -5.078125 
Q 12.5 -5.078125 14.0625 -6.640625 
Q 15.625 -7.8125 16.40625 -7.8125 
Q 17.578125 -7.8125 18.359375 -7.421875 
Q 19.140625 -7.03125 19.53125 -5.859375 
Q 20.703125 -3.90625 21.875 -0.96875 
Q 23.046875 1.953125 23.828125 5.078125 
L 10.546875 39.453125 
Q 10.15625 41.015625 8.78125 41.984375 
Q 7.421875 42.96875 5.859375 42.96875 
L 4.296875 42.96875 
L 4.296875 45.3125 
L 20.703125 45.3125 
L 20.703125 42.96875 
L 19.140625 42.96875 
Q 17.578125 42.96875 16.796875 41.984375 
Q 16.015625 41.015625 16.40625 39.0625 
z
M 14.84375 42.96875 
z
M 9.375 42.96875 
z
M 40.234375 42.96875 
z
M 36.328125 42.96875 
z
" id="SimSun-121"/>
      <path d="M 3.125 44.140625 
L 3.125 47.65625 
L 46.484375 47.65625 
L 46.484375 44.140625 
z
M 3.125 24.21875 
L 3.125 27.734375 
L 46.484375 27.734375 
L 46.484375 24.21875 
z
" id="SimSun-61"/>
      <path d="M 26.171875 28.515625 
L 33.203125 39.0625 
Q 34.375 40.625 34.171875 41.796875 
Q 33.984375 42.96875 31.25 42.96875 
L 28.90625 42.96875 
L 28.90625 45.3125 
L 44.140625 45.3125 
L 44.140625 42.96875 
L 42.1875 42.96875 
Q 41.40625 42.96875 40.234375 42.765625 
Q 39.0625 42.578125 38.28125 41.40625 
L 27.734375 25.78125 
L 38.671875 7.8125 
Q 39.84375 5.859375 41.59375 4.875 
Q 43.359375 3.90625 44.140625 3.90625 
L 45.703125 3.90625 
L 45.703125 1.5625 
L 28.515625 1.5625 
L 28.515625 3.90625 
L 30.859375 3.90625 
Q 33.203125 3.90625 33.390625 5.078125 
Q 33.59375 6.25 32.8125 7.8125 
L 24.609375 21.09375 
L 15.234375 7.421875 
Q 14.84375 5.46875 15.421875 4.6875 
Q 16.015625 3.90625 17.578125 3.90625 
L 18.75 3.90625 
L 18.75 1.5625 
L 3.515625 1.5625 
L 3.515625 3.90625 
L 5.859375 3.90625 
Q 7.421875 3.90625 9.375 5.078125 
Q 11.328125 6.25 12.5 8.59375 
L 22.65625 23.828125 
L 12.5 40.234375 
Q 12.109375 41.015625 10.9375 41.984375 
Q 9.765625 42.96875 7.8125 42.96875 
L 5.859375 42.96875 
L 5.859375 45.3125 
L 22.65625 45.3125 
L 22.65625 42.96875 
L 21.484375 42.96875 
Q 19.53125 42.96875 19.140625 41.796875 
Q 18.75 40.625 19.53125 39.0625 
z
M 9.375 3.90625 
z
M 12.890625 3.90625 
z
M 39.453125 42.96875 
z
M 35.9375 42.96875 
z
M 35.15625 3.90625 
z
M 41.015625 3.90625 
z
M 17.1875 42.96875 
z
M 10.9375 42.96875 
z
" id="SimSun-120"/>
     </defs>
     <g transform="translate(96.8 47.271412)scale(0.14 -0.14)">
      <use xlink:href="#SimSun-76"/>
      <use x="50" xlink:href="#SimSun-105"/>
      <use x="100" xlink:href="#SimSun-110"/>
      <use x="150" xlink:href="#SimSun-101"/>
      <use x="200" xlink:href="#SimSun-58"/>
      <use x="250" xlink:href="#SimSun-121"/>
      <use x="300" xlink:href="#SimSun-61"/>
      <use x="350" xlink:href="#SimSun-120"/>
     </g>
    </g>
    <g id="PathCollection_4">
     <g>
      <use style="fill:#ff0000;stroke:#ff0000;" x="71.6" xlink:href="#m1b4414e99d" y="62.408912"/>
     </g>
    </g>
    <g id="text_18">
     <!-- RFE-LSTM -->
     <defs>
      <path d="M 44.140625 52.734375 
Q 44.140625 44.921875 39.84375 40.625 
Q 35.546875 36.328125 30.078125 35.546875 
L 41.796875 6.640625 
Q 42.578125 5.078125 43.546875 4.484375 
Q 44.53125 3.90625 45.703125 3.90625 
L 48.046875 3.90625 
L 48.046875 1.5625 
L 37.109375 1.5625 
L 24.21875 35.15625 
L 15.234375 35.15625 
L 15.234375 7.03125 
Q 15.234375 5.46875 16.203125 4.6875 
Q 17.1875 3.90625 18.75 3.90625 
L 21.09375 3.90625 
L 21.09375 1.5625 
L 3.125 1.5625 
L 3.125 3.90625 
L 5.46875 3.90625 
Q 7.421875 3.90625 8.203125 4.6875 
Q 8.984375 5.46875 8.984375 7.03125 
L 8.984375 62.890625 
Q 8.984375 64.453125 8.203125 65.234375 
Q 7.421875 66.015625 5.46875 66.015625 
L 3.125 66.015625 
L 3.125 68.359375 
L 25.390625 68.359375 
Q 34.375 68.359375 39.25 64.453125 
Q 44.140625 60.546875 44.140625 52.734375 
z
M 42.96875 3.90625 
z
M 15.234375 37.5 
L 23.828125 37.5 
Q 29.6875 37.5 33.59375 41.015625 
Q 37.5 44.53125 37.5 51.953125 
Q 37.5 58.59375 33.984375 62.296875 
Q 30.46875 66.015625 23.046875 66.015625 
L 18.75 66.015625 
Q 17.1875 66.015625 16.203125 65.234375 
Q 15.234375 64.453125 15.234375 62.890625 
z
" id="SimSun-82"/>
      <path d="M 21.09375 3.90625 
L 21.09375 1.5625 
L 2.34375 1.5625 
L 2.34375 3.90625 
L 5.078125 3.90625 
Q 7.03125 3.90625 7.8125 4.6875 
Q 8.59375 5.46875 8.59375 7.03125 
L 8.59375 62.890625 
Q 8.59375 64.453125 7.8125 65.234375 
Q 7.03125 66.015625 5.078125 66.015625 
L 2.734375 66.015625 
L 2.734375 68.359375 
L 43.359375 68.359375 
L 48.046875 54.296875 
L 46.09375 53.515625 
Q 42.96875 59.765625 38.671875 62.890625 
Q 34.375 66.015625 29.296875 66.015625 
L 18.359375 66.015625 
Q 16.796875 66.015625 15.8125 65.234375 
Q 14.84375 64.453125 14.84375 62.890625 
L 14.84375 37.890625 
L 27.734375 37.890625 
Q 31.640625 37.890625 33.390625 39.640625 
Q 35.15625 41.40625 35.15625 45.3125 
L 35.15625 47.265625 
L 37.5 47.265625 
L 37.5 24.609375 
L 35.15625 24.609375 
L 35.15625 26.171875 
Q 35.15625 30.859375 33.390625 33.203125 
Q 31.640625 35.546875 27.734375 35.546875 
L 14.84375 35.546875 
L 14.84375 7.03125 
Q 14.84375 5.46875 15.8125 4.6875 
Q 16.796875 3.90625 18.359375 3.90625 
z
" id="SimSun-70"/>
      <path d="M 3.125 66.015625 
L 3.125 68.359375 
L 41.40625 68.359375 
L 45.703125 55.078125 
L 43.75 54.296875 
Q 40.625 60.15625 37.109375 63.078125 
Q 33.59375 66.015625 29.296875 66.015625 
L 18.359375 66.015625 
Q 16.796875 66.015625 15.8125 65.234375 
Q 14.84375 64.453125 14.84375 62.890625 
L 14.84375 38.671875 
L 26.171875 38.671875 
Q 30.078125 38.671875 31.828125 40.625 
Q 33.59375 42.578125 33.59375 46.484375 
L 33.59375 48.828125 
L 35.9375 48.828125 
L 35.9375 25.78125 
L 33.59375 25.78125 
L 33.59375 27.34375 
Q 33.59375 31.640625 31.828125 33.984375 
Q 30.078125 36.328125 26.171875 36.328125 
L 14.84375 36.328125 
L 14.84375 7.03125 
Q 14.84375 5.46875 15.8125 4.6875 
Q 16.796875 3.90625 18.359375 3.90625 
L 28.515625 3.90625 
Q 34.375 3.90625 38.46875 7.21875 
Q 42.578125 10.546875 44.921875 17.578125 
L 46.875 16.796875 
L 42.578125 1.5625 
L 2.734375 1.5625 
L 2.734375 3.90625 
L 5.078125 3.90625 
Q 7.03125 3.90625 7.8125 4.6875 
Q 8.59375 5.46875 8.59375 7.03125 
L 8.59375 62.890625 
Q 8.59375 64.453125 7.8125 65.234375 
Q 7.03125 66.015625 5.078125 66.015625 
z
" id="SimSun-69"/>
      <path d="M 3.125 34.765625 
L 3.125 38.28125 
L 46.484375 38.28125 
L 46.484375 34.765625 
z
" id="SimSun-45"/>
      <path d="M 23.4375 33.59375 
Q 12.890625 38.28125 8.984375 41.796875 
Q 5.078125 45.3125 5.078125 52.734375 
Q 5.078125 58.59375 9.953125 63.859375 
Q 14.84375 69.140625 23.828125 69.140625 
Q 27.734375 69.140625 31.25 67.96875 
Q 34.765625 66.40625 36.328125 66.40625 
Q 37.5 66.40625 38.46875 66.984375 
Q 39.453125 67.578125 40.234375 69.140625 
L 41.796875 53.125 
L 39.84375 52.34375 
Q 36.328125 60.546875 32.609375 63.46875 
Q 28.90625 66.40625 23.046875 66.40625 
Q 15.625 66.40625 12.890625 62.296875 
Q 10.15625 58.203125 10.15625 53.515625 
Q 10.15625 49.21875 12.6875 46.671875 
Q 15.234375 44.140625 26.5625 39.0625 
Q 35.9375 35.15625 40.03125 30.265625 
Q 44.140625 25.390625 44.140625 18.75 
Q 44.140625 11.71875 39.25 6.25 
Q 34.375 0.78125 25 0.78125 
Q 21.09375 0.78125 17.96875 2.34375 
Q 14.453125 3.515625 12.5 3.515625 
Q 11.328125 3.515625 10.15625 2.734375 
Q 8.984375 1.953125 7.421875 0.78125 
L 4.296875 19.921875 
L 6.640625 20.703125 
Q 9.375 10.9375 14.25 7.21875 
Q 19.140625 3.515625 25.390625 3.515625 
Q 32.03125 3.515625 35.34375 7.421875 
Q 38.671875 11.328125 38.671875 18.75 
Q 38.671875 22.65625 34.953125 26.359375 
Q 31.25 30.078125 23.4375 33.59375 
z
" id="SimSun-83"/>
      <path d="M 43.75 7.03125 
Q 43.75 5.46875 44.71875 4.6875 
Q 45.703125 3.90625 47.265625 3.90625 
L 48.828125 3.90625 
L 48.828125 1.5625 
L 32.03125 1.5625 
L 32.03125 3.90625 
L 33.984375 3.90625 
Q 35.9375 3.90625 36.71875 4.6875 
Q 37.5 5.46875 37.5 7.03125 
L 37.5 58.203125 
L 36.71875 58.203125 
L 23.4375 1.5625 
L 21.09375 1.5625 
L 8.984375 57.03125 
L 8.203125 57.03125 
L 8.203125 7.03125 
Q 8.203125 5.46875 9.171875 4.6875 
Q 10.15625 3.90625 11.71875 3.90625 
L 12.890625 3.90625 
L 12.890625 1.5625 
L 1.171875 1.5625 
L 1.171875 3.90625 
L 2.34375 3.90625 
Q 4.296875 3.90625 5.078125 4.6875 
Q 5.859375 5.46875 5.859375 7.03125 
L 5.859375 62.890625 
Q 5.859375 64.453125 5.078125 65.234375 
Q 4.296875 66.015625 2.34375 66.015625 
L 0.78125 66.015625 
L 0.78125 68.359375 
L 12.109375 68.359375 
L 23.4375 16.015625 
L 24.21875 16.015625 
L 36.328125 68.359375 
L 48.828125 68.359375 
L 48.828125 66.015625 
L 47.265625 66.015625 
Q 45.703125 66.015625 44.71875 65.234375 
Q 43.75 64.453125 43.75 62.890625 
z
" id="SimSun-77"/>
     </defs>
     <g transform="translate(96.8 66.083912)scale(0.14 -0.14)">
      <use xlink:href="#SimSun-82"/>
      <use x="50" xlink:href="#SimSun-70"/>
      <use x="100" xlink:href="#SimSun-69"/>
      <use x="150" xlink:href="#SimSun-45"/>
      <use x="200" xlink:href="#SimSun-76"/>
      <use x="250" xlink:href="#SimSun-83"/>
      <use x="300" xlink:href="#SimSun-84"/>
      <use x="350" xlink:href="#SimSun-77"/>
     </g>
    </g>
    <g id="PathCollection_5">
     <g>
      <use style="fill:#32cd32;stroke:#32cd32;" x="71.6" xlink:href="#m9ab9685180" y="82.260475"/>
     </g>
    </g>
    <g id="text_19">
     <!-- 经典LSTM -->
     <defs>
      <path d="M 77.734375 69.921875 
Q 72.265625 62.5 66.40625 55.078125 
Q 79.296875 50 84.765625 46.875 
Q 90.234375 43.75 90.8125 40.625 
Q 91.40625 37.5 90.421875 36.125 
Q 89.453125 34.765625 88.671875 34.765625 
Q 87.109375 34.765625 84.375 38.671875 
Q 80.46875 44.140625 65.234375 53.515625 
Q 61.328125 49.21875 54.484375 44.140625 
Q 47.65625 39.0625 35.546875 33.984375 
L 35.15625 35.546875 
Q 48.046875 42.578125 56.25 50.78125 
Q 64.453125 58.984375 71.484375 71.484375 
L 53.90625 71.484375 
Q 48.828125 71.484375 44.53125 70.3125 
L 41.015625 73.828125 
L 71.875 73.828125 
L 75.78125 77.734375 
L 81.640625 71.875 
z
M 42.96875 28.125 
L 77.34375 28.125 
L 82.03125 32.8125 
L 88.671875 25.78125 
L 66.015625 25.78125 
L 66.015625 -0.78125 
L 84.375 -0.78125 
L 89.0625 3.90625 
L 95.703125 -3.125 
L 45.703125 -3.125 
Q 40.625 -3.125 36.328125 -4.296875 
L 32.8125 -0.78125 
L 60.546875 -0.78125 
L 60.546875 25.78125 
L 55.859375 25.78125 
Q 50.78125 25.78125 46.484375 24.609375 
z
M 14.0625 23.828125 
L 39.453125 28.125 
L 39.84375 26.5625 
Q 32.421875 24.609375 24.796875 22.0625 
Q 17.1875 19.53125 12.109375 16.015625 
L 7.421875 23.4375 
Q 11.328125 24.609375 16.984375 31.046875 
Q 22.65625 37.5 28.515625 46.484375 
Q 22.65625 45.3125 17.96875 44.140625 
Q 13.28125 42.96875 8.203125 39.84375 
L 4.6875 47.265625 
Q 9.375 48.4375 15.8125 60.15625 
Q 22.265625 71.875 24.21875 80.078125 
L 32.421875 75 
L 28.90625 72.65625 
Q 17.96875 54.6875 10.15625 47.265625 
L 29.6875 48.4375 
Q 34.765625 56.25 37.5 63.28125 
L 45.3125 57.421875 
L 41.015625 55.859375 
Q 28.515625 37.890625 14.0625 23.828125 
z
M 8.984375 -3.125 
L 5.078125 3.90625 
Q 24.21875 7.421875 42.1875 11.71875 
L 42.578125 10.15625 
Q 35.546875 7.8125 24.40625 3.90625 
Q 13.28125 0 8.984375 -3.125 
z
" id="SimSun-32463"/>
      <path d="M 35.9375 14.453125 
L 42.96875 7.421875 
Q 39.453125 7.03125 29.6875 0.390625 
Q 19.53125 -6.25 8.59375 -10.15625 
L 7.8125 -8.984375 
Q 17.96875 -3.515625 24.609375 2.53125 
Q 31.25 8.59375 35.9375 14.453125 
z
M 58.59375 12.109375 
L 59.375 13.671875 
Q 81.640625 3.90625 83.59375 0.78125 
Q 85.546875 -2.34375 85.546875 -4.6875 
Q 85.546875 -6.640625 84.765625 -8 
Q 83.984375 -9.375 83.59375 -9.375 
Q 81.640625 -9.375 77.34375 -3.515625 
Q 71.484375 4.296875 58.59375 12.109375 
z
M 21.09375 18.75 
L 21.09375 48.4375 
Q 21.09375 56.25 20.703125 65.234375 
L 26.171875 62.5 
L 38.28125 62.5 
L 38.28125 71.875 
Q 38.28125 76.953125 37.890625 81.640625 
L 46.09375 77.34375 
L 43.359375 74.609375 
L 43.359375 62.5 
L 55.078125 62.5 
L 55.078125 71.875 
Q 55.078125 77.34375 54.6875 81.640625 
L 63.28125 77.34375 
L 60.15625 74.21875 
L 60.15625 62.5 
L 71.875 62.5 
L 75.390625 66.40625 
L 81.640625 60.9375 
L 77.734375 58.59375 
L 77.734375 18.75 
L 81.25 18.75 
L 87.109375 24.609375 
L 95.3125 16.40625 
L 18.75 16.40625 
Q 13.671875 16.40625 9.375 15.234375 
L 5.859375 18.75 
z
M 26.171875 60.15625 
L 26.171875 41.796875 
L 38.28125 41.796875 
L 38.28125 60.15625 
z
M 43.359375 60.15625 
L 43.359375 41.796875 
L 55.078125 41.796875 
L 55.078125 60.15625 
z
M 60.15625 60.15625 
L 60.15625 41.796875 
L 72.65625 41.796875 
L 72.65625 60.15625 
z
M 26.171875 39.453125 
L 26.171875 18.75 
L 38.28125 18.75 
L 38.28125 39.453125 
z
M 43.359375 39.453125 
L 43.359375 18.75 
L 55.078125 18.75 
L 55.078125 39.453125 
z
M 60.15625 39.453125 
L 60.15625 18.75 
L 72.65625 18.75 
L 72.65625 39.453125 
z
" id="SimSun-20856"/>
     </defs>
     <g transform="translate(96.8 85.935475)scale(0.14 -0.14)">
      <use xlink:href="#SimSun-32463"/>
      <use x="100" xlink:href="#SimSun-20856"/>
      <use x="200" xlink:href="#SimSun-76"/>
      <use x="250" xlink:href="#SimSun-83"/>
      <use x="300" xlink:href="#SimSun-84"/>
      <use x="350" xlink:href="#SimSun-77"/>
     </g>
    </g>
    <g id="PathCollection_6">
     <g>
      <use style="fill:#ff8c00;stroke:#ff8c00;" x="71.6" xlink:href="#m0751ec9d97" y="101.072975"/>
     </g>
    </g>
    <g id="text_20">
     <!-- MLP -->
     <defs>
      <path d="M 14.84375 32.8125 
L 14.84375 7.03125 
Q 14.84375 5.46875 15.8125 4.6875 
Q 16.796875 3.90625 18.359375 3.90625 
L 21.09375 3.90625 
L 21.09375 1.5625 
L 2.34375 1.5625 
L 2.34375 3.90625 
L 5.078125 3.90625 
Q 7.03125 3.90625 7.8125 4.6875 
Q 8.59375 5.46875 8.59375 7.03125 
L 8.59375 62.890625 
Q 8.59375 64.453125 7.8125 65.234375 
Q 7.03125 66.015625 5.078125 66.015625 
L 2.734375 66.015625 
L 2.734375 68.359375 
L 25.78125 68.359375 
Q 35.546875 68.359375 40.8125 63.46875 
Q 46.09375 58.59375 46.09375 51.171875 
Q 46.09375 42.1875 40.421875 37.5 
Q 34.765625 32.8125 26.953125 32.8125 
z
M 24.609375 35.15625 
Q 30.46875 35.15625 34.953125 38.671875 
Q 39.453125 42.1875 39.453125 50.78125 
Q 39.453125 58.59375 35.734375 62.296875 
Q 32.03125 66.015625 23.828125 66.015625 
L 18.359375 66.015625 
Q 16.796875 66.015625 15.8125 65.234375 
Q 14.84375 64.453125 14.84375 62.890625 
L 14.84375 35.15625 
z
" id="SimSun-80"/>
     </defs>
     <g transform="translate(96.8 104.747975)scale(0.14 -0.14)">
      <use xlink:href="#SimSun-77"/>
      <use x="50" xlink:href="#SimSun-76"/>
      <use x="100" xlink:href="#SimSun-80"/>
     </g>
    </g>
   </g>
  </g>
 </g>
 <defs>
  <clipPath id="p0e4aa37ce4">
   <rect height="313.038" width="288" x="45" y="24.6636"/>
  </clipPath>
 </defs>
</svg>
